<svg width="48" height="48" viewBox="0 0 48 48" fill="none" xmlns="http://www.w3.org/2000/svg">
<circle cx="24" cy="24" r="24" fill="url(#paint0_linear_177_784)"/>
<path d="M13.0001 16H35.0001V30H38.0001V13.57C38.0081 13.1632 37.8549 12.7698 37.5738 12.4756C37.2928 12.1815 36.9068 12.0105 36.5001 12H11.5001C11.0934 12.0105 10.7073 12.1815 10.4263 12.4756C10.1452 12.7698 9.992 13.1632 10.0001 13.57V30H13.0001V16Z" fill="white"/>
<path d="M29.76 22.08C29.76 21.948 29.652 21.84 29.52 21.84H26.4C26.268 21.84 26.16 21.732 26.16 21.6V18.48C26.16 18.348 26.052 18.24 25.92 18.24H22.08C21.948 18.24 21.84 18.348 21.84 18.48V21.6C21.84 21.732 21.732 21.84 21.6 21.84H18.48C18.348 21.84 18.24 21.948 18.24 22.08V25.92C18.24 26.052 18.348 26.16 18.48 26.16H21.6C21.732 26.16 21.84 26.268 21.84 26.4V29.52C21.84 29.652 21.948 29.76 22.08 29.76H25.92C26.052 29.76 26.16 29.652 26.16 29.52V26.4C26.16 26.268 26.268 26.16 26.4 26.16H29.52C29.652 26.16 29.76 26.052 29.76 25.92V22.08Z" fill="white"/>
<path d="M29.76 22.08C29.76 21.948 29.652 21.84 29.52 21.84H26.4C26.268 21.84 26.16 21.732 26.16 21.6V18.48C26.16 18.348 26.052 18.24 25.92 18.24H22.08C21.948 18.24 21.84 18.348 21.84 18.48V21.6C21.84 21.732 21.732 21.84 21.6 21.84H18.48C18.348 21.84 18.24 21.948 18.24 22.08V25.92C18.24 26.052 18.348 26.16 18.48 26.16H21.6C21.732 26.16 21.84 26.268 21.84 26.4V29.52C21.84 29.652 21.948 29.76 22.08 29.76H25.92C26.052 29.76 26.16 29.652 26.16 29.52V26.4C26.16 26.268 26.268 26.16 26.4 26.16H29.52C29.652 26.16 29.76 26.052 29.76 25.92V22.08Z" fill="white"/>
<path d="M29.81 32C29.46 32.9 28.87 33.5 28.2 33.5H19.74C19.06 33.5 18.48 32.9 18.13 32H7V33.75C7.05118 34.3913 7.35255 34.9867 7.83901 35.4077C8.32548 35.8287 8.95801 36.0414 9.6 36H38.4C39.042 36.0414 39.6745 35.8287 40.161 35.4077C40.6475 34.9867 40.9488 34.3913 41 33.75V32H29.81Z" fill="white"/>
<defs>
<linearGradient id="paint0_linear_177_784" x1="24" y1="0" x2="24" y2="48" gradientUnits="userSpaceOnUse">
<stop stop-color="#015193"/>
<stop offset="1" stop-color="#4B86A8"/>
</linearGradient>
</defs>
</svg>
