<svg width="48" height="49" viewBox="0 0 48 49" fill="none" xmlns="http://www.w3.org/2000/svg">
<path d="M5.46816 36.4303C6.22271 37.2371 6.97194 38.0385 7.67725 39.0571V40.9587H17.5689V39.0571C17.3919 37.5775 17.0805 34.9119 17.0526 34.1708C17.0153 33.1282 15.626 31.2278 15.626 31.2278L11.3608 25.8136C11.3608 25.8136 10.1538 24.5297 9.46316 23.1064C8.77115 21.6819 7.30197 23.4737 7.10768 24.7548C6.91073 26.036 7.28334 26.7115 7.28334 26.7115L9.71867 31.587C9.71867 31.587 6.89476 27.6911 6.01777 26.1258C5.57329 25.3325 5.44953 23.6519 5.3098 21.7743C5.17539 19.945 5.02634 17.9281 4.55392 16.3601C3.59576 13.1839 0.82508 13.9786 0.344669 15.3992C-0.134411 16.8184 -0.0266177 26.1982 0.147714 27.7622C0.284784 28.9871 1.01804 30.1852 1.84446 31.5361C2.07335 31.9113 2.31023 32.2973 2.54311 32.698C3.46933 34.2955 4.47274 35.3689 5.46816 36.4303ZM40.2334 39.0571C40.9387 38.0385 41.6879 37.2371 42.4425 36.4303C43.4379 35.3689 44.4413 34.2955 45.3689 32.698C45.6004 32.2959 45.8373 31.9113 46.0662 31.5374C46.8926 30.1865 47.6259 28.9871 47.7629 27.7622C47.9373 26.1982 48.0464 16.8184 47.566 15.3992C47.0856 13.9786 44.3149 13.1839 43.3567 16.3614C42.8856 17.9294 42.7366 19.945 42.6009 21.7743C42.4611 23.6519 42.3374 25.3325 41.8929 26.1258C41.0159 27.6925 38.1907 31.587 38.1907 31.587L40.6273 26.7115C40.6273 26.7115 40.9999 26.036 40.8043 24.7548C40.6087 23.4737 39.1382 21.6819 38.4488 23.1064C37.7568 24.5297 36.5498 25.8136 36.5498 25.8136L32.2847 31.2278C32.2847 31.2278 30.8953 33.1282 30.8581 34.1708C30.8315 34.9119 30.5187 37.5775 30.3417 39.0571V40.9587H40.2334V39.0571ZM26.6155 47.6596C26.6155 48.015 26.7558 48.3559 27.0053 48.6072C27.2549 48.8585 27.5934 48.9997 27.9463 48.9997H38.5925C38.9455 48.9997 39.284 48.8585 39.5336 48.6072C39.7831 48.3559 39.9233 48.015 39.9233 47.6596V44.9792C39.9233 44.6238 39.7831 44.2829 39.5336 44.0316C39.284 43.7803 38.9455 43.6391 38.5925 43.6391H27.9463C27.5934 43.6391 27.2549 43.7803 27.0053 44.0316C26.7558 44.2829 26.6155 44.6238 26.6155 44.9792V47.6596ZM21.2951 47.6596C21.2951 48.015 21.1549 48.3559 20.9053 48.6072C20.6558 48.8585 20.3173 48.9997 19.9643 48.9997H9.3181C8.96516 48.9997 8.62667 48.8585 8.3771 48.6072C8.12753 48.3559 7.98732 48.015 7.98732 47.6596V44.9792C7.98732 44.6238 8.12753 44.2829 8.3771 44.0316C8.62667 43.7803 8.96516 43.6391 9.3181 43.6391H19.9643C20.3173 43.6391 20.6558 43.7803 20.9053 44.0316C21.1549 44.2829 21.2951 44.6238 21.2951 44.9792V47.6596Z" fill="url(#paint0_linear_345_2810)"/>
<path d="M36.4776 9.25554C36.4776 8.9561 36.2326 8.7111 35.9331 8.7111H28.8553C28.5559 8.7111 28.3109 8.4661 28.3109 8.16666V1.08888C28.3109 0.789434 28.0659 0.544434 27.7665 0.544434H19.0553C18.7559 0.544434 18.5109 0.789434 18.5109 1.08888V8.16666C18.5109 8.4661 18.2659 8.7111 17.9665 8.7111H10.8887C10.5892 8.7111 10.3442 8.9561 10.3442 9.25554V17.9667C10.3442 18.2661 10.5892 18.5111 10.8887 18.5111H17.9665C18.2659 18.5111 18.5109 18.7561 18.5109 19.0555V26.1333C18.5109 26.4328 18.7559 26.6778 19.0553 26.6778H27.7665C28.0659 26.6778 28.3109 26.4328 28.3109 26.1333V19.0555C28.3109 18.7561 28.5559 18.5111 28.8553 18.5111H35.9331C36.2326 18.5111 36.4776 18.2661 36.4776 17.9667V9.25554Z" fill="url(#paint1_linear_345_2810)"/>
<defs>
<linearGradient id="paint0_linear_345_2810" x1="23.9556" y1="14.1553" x2="23.9556" y2="48.9997" gradientUnits="userSpaceOnUse">
<stop stop-color="#015193"/>
<stop offset="1" stop-color="#4B86A8"/>
</linearGradient>
<linearGradient id="paint1_linear_345_2810" x1="23.4109" y1="0.544434" x2="23.4109" y2="26.6778" gradientUnits="userSpaceOnUse">
<stop stop-color="#015193"/>
<stop offset="1" stop-color="#4B86A8"/>
</linearGradient>
</defs>
</svg>
