<svg width="42" height="47" viewBox="0 0 42 47" fill="none" xmlns="http://www.w3.org/2000/svg">
<path fill-rule="evenodd" clip-rule="evenodd" d="M16.1562 0C14.9876 0 13.8669 0.464229 13.0406 1.29056C12.2142 2.11689 11.75 3.23764 11.75 4.40625V7.34375C11.75 8.51236 12.2142 9.63311 13.0406 10.4594C13.8669 11.2858 14.9876 11.75 16.1562 11.75H24.9688C26.1374 11.75 27.2581 11.2858 28.0844 10.4594C28.9108 9.63311 29.375 8.51236 29.375 7.34375V4.40625C29.375 3.23764 28.9108 2.11689 28.0844 1.29056C27.2581 0.464229 26.1374 0 24.9688 0L16.1562 0ZM24.9688 2.9375C25.3583 2.9375 25.7319 3.09224 26.0073 3.36769C26.2828 3.64313 26.4375 4.01671 26.4375 4.40625V7.34375C26.4375 7.73329 26.2828 8.10687 26.0073 8.38231C25.7319 8.65776 25.3583 8.8125 24.9688 8.8125H16.1562C15.7667 8.8125 15.3931 8.65776 15.1177 8.38231C14.8422 8.10687 14.6875 7.73329 14.6875 7.34375V4.40625C14.6875 4.01671 14.8422 3.64313 15.1177 3.36769C15.3931 3.09224 15.7667 2.9375 16.1562 2.9375H24.9688Z" fill="url(#paint0_linear_345_2801)"/>
<path fill-rule="evenodd" clip-rule="evenodd" d="M8.8125 4.40625H5.875C4.31685 4.40625 2.82252 5.02522 1.72075 6.127C0.618972 7.22877 0 8.7231 0 10.2812V41.125C0 42.6831 0.618972 44.1775 1.72075 45.2793C2.82252 46.381 4.31685 47 5.875 47H35.25C36.8081 47 38.3025 46.381 39.4043 45.2793C40.506 44.1775 41.125 42.6831 41.125 41.125V10.2812C41.125 8.7231 40.506 7.22877 39.4043 6.127C38.3025 5.02522 36.8081 4.40625 35.25 4.40625H32.3125V7.34375C32.3125 8.30815 32.1225 9.2631 31.7535 10.1541C31.3844 11.0451 30.8435 11.8546 30.1616 12.5366C29.4796 13.2185 28.6701 13.7594 27.7791 14.1285C26.8881 14.4975 25.9331 14.6875 24.9688 14.6875H16.1562C14.2086 14.6875 12.3407 13.9138 10.9634 12.5366C9.58621 11.1593 8.8125 9.29143 8.8125 7.34375V4.40625ZM20.5625 21.9784C25.4505 17.0639 37.6734 25.662 20.5625 36.7188C3.45156 25.662 15.6745 17.0669 20.5625 21.9784Z" fill="url(#paint1_linear_345_2801)"/>
<defs>
<linearGradient id="paint0_linear_345_2801" x1="20.5625" y1="0" x2="20.5625" y2="11.75" gradientUnits="userSpaceOnUse">
<stop stop-color="#015193"/>
<stop offset="1" stop-color="#4B86A8"/>
</linearGradient>
<linearGradient id="paint1_linear_345_2801" x1="20.5625" y1="4.40625" x2="20.5625" y2="47" gradientUnits="userSpaceOnUse">
<stop stop-color="#015193"/>
<stop offset="1" stop-color="#4B86A8"/>
</linearGradient>
</defs>
</svg>
