<svg width="37" height="35" viewBox="0 0 37 35" fill="none" xmlns="http://www.w3.org/2000/svg">
<path d="M2.01108 12.035C2.01108 9.385 2.89731 6.846 4.35934 4.988C5.81637 3.136 7.80613 2 10.0523 2C13.1596 2 15.5699 4.02 17.1331 7.202L18.0333 9.03L18.9326 7.202C20.4958 4.02 22.9061 2 26.0124 2C28.2605 2 30.2503 3.136 31.7083 4.988C33.1704 6.846 34.0556 9.385 34.0556 12.035C34.0556 12.429 34.0356 12.821 33.9995 13.209C34.6531 13.7174 35.2447 14.3007 35.762 14.947C35.9542 14.002 36.0584 13.031 36.0584 12.035C36.0584 8.96 35.036 5.981 33.2825 3.753C31.5251 1.518 28.9926 0 26.0124 0C22.5055 0 19.8378 1.963 18.0333 4.734C16.2308 1.964 13.5621 0 10.0533 0C7.07411 0 4.5426 1.518 2.78416 3.752C1.03172 5.98 0.00830078 8.96 0.00830078 12.035C0.00830078 18.875 4.54961 24.371 8.87061 28.069C11.3251 30.1551 13.9928 31.9772 16.8297 33.505C17.0649 33.631 17.3019 33.7537 17.5407 33.873L17.5827 33.893L17.5937 33.898L17.5987 33.901L18.0474 34.116L18.492 33.889L18.495 33.887L18.506 33.882L18.546 33.86L18.6983 33.78C18.8284 33.71 19.0177 33.608 19.257 33.473C19.7347 33.203 20.4146 32.807 21.2288 32.293C21.8716 31.8868 22.5053 31.4664 23.1294 31.032C22.4609 30.7219 21.8269 30.3425 21.2378 29.9C20.8573 30.154 20.4968 30.388 20.1593 30.601C19.4588 31.0444 18.7458 31.4679 18.0213 31.871C17.3004 31.4907 16.5911 31.0889 15.8944 30.666C13.8802 29.4495 11.9674 28.073 10.1744 26.55C5.9816 22.962 2.01108 17.975 2.01108 12.034V12.035Z" fill="white"/>
<path d="M28.0475 23.9999C28.3394 23.9996 28.6277 23.9356 28.8922 23.8123C29.1568 23.6891 29.3912 23.5096 29.5789 23.2864C29.7667 23.0631 29.9034 22.8016 29.9793 22.5202C30.0552 22.2387 30.0686 21.944 30.0186 21.6568C29.9685 21.3697 29.8562 21.0969 29.6894 20.8576C29.5227 20.6183 29.3056 20.4183 29.0534 20.2716C28.8011 20.1249 28.5198 20.035 28.2291 20.0083C27.9384 19.9816 27.6454 20.0186 27.3705 20.1169L25.0683 17.8179L23.6523 19.2319L26.0757 21.6519C26.0248 21.9395 26.0376 22.2347 26.1132 22.5169C26.1888 22.799 26.3254 23.0612 26.5133 23.285C26.7013 23.5088 26.936 23.6887 27.201 23.8123C27.4661 23.9358 27.755 23.9998 28.0475 23.9999V23.9999Z" fill="white"/>
<path fill-rule="evenodd" clip-rule="evenodd" d="M27.5465 30C28.6643 30 29.7711 29.7801 30.8038 29.353C31.8365 28.9258 32.7749 28.2997 33.5653 27.5104C34.3557 26.7211 34.9826 25.7841 35.4104 24.7528C35.8381 23.7215 36.0583 22.6162 36.0583 21.5C36.0583 20.3838 35.8381 19.2785 35.4104 18.2472C34.9826 17.2159 34.3557 16.2789 33.5653 15.4896C32.7749 14.7003 31.8365 14.0742 30.8038 13.647C29.7711 13.2199 28.6643 13 27.5465 13C25.289 13 23.124 13.8955 21.5277 15.4896C19.9314 17.0837 19.0347 19.2457 19.0347 21.5C19.0347 23.7543 19.9314 25.9163 21.5277 27.5104C23.124 29.1045 25.289 30 27.5465 30V30ZM27.5465 28C29.2728 28 30.9284 27.3152 32.1491 26.0962C33.3698 24.8772 34.0555 23.2239 34.0555 21.5C34.0555 19.7761 33.3698 18.1228 32.1491 16.9038C30.9284 15.6848 29.2728 15 27.5465 15C25.8202 15 24.1646 15.6848 22.9439 16.9038C21.7232 18.1228 21.0374 19.7761 21.0374 21.5C21.0374 23.2239 21.7232 24.8772 22.9439 26.0962C24.1646 27.3152 25.8202 28 27.5465 28V28Z" fill="white"/>
</svg>
