<svg width="434" height="434" viewBox="0 0 434 434" fill="none" xmlns="http://www.w3.org/2000/svg">
<ellipse cx="215.915" cy="216.91" rx="215.915" ry="216.91" fill="#0A2841"/>
<path d="M109.387 247.535C109.387 248.335 109.251 249.023 108.979 249.599C108.723 250.175 108.387 250.671 107.971 251.087C107.315 251.743 106.515 252.215 105.571 252.503C104.643 252.775 103.651 252.911 102.595 252.911C101.683 252.911 100.779 252.783 99.8832 252.527C99.0032 252.255 98.2112 251.799 97.5072 251.159C96.9952 250.695 96.5712 250.127 96.2352 249.455C95.8992 248.767 95.7312 248.015 95.7312 247.199H98.8992C98.8992 247.615 98.9792 248.007 99.1392 248.375C99.3152 248.727 99.5312 249.031 99.7872 249.287C100.155 249.655 100.595 249.903 101.107 250.031C101.635 250.143 102.147 250.199 102.643 250.199C103.235 250.199 103.795 250.135 104.323 250.007C104.851 249.863 105.275 249.623 105.595 249.287C105.787 249.079 105.947 248.863 106.075 248.639C106.203 248.399 106.267 248.071 106.267 247.655C106.267 247.031 106.059 246.567 105.643 246.263C105.243 245.943 104.779 245.735 104.251 245.639C103.675 245.527 103.043 245.447 102.355 245.399C101.667 245.351 101.043 245.279 100.483 245.183C99.8912 245.087 99.3312 244.919 98.8032 244.679C98.2912 244.439 97.8352 244.127 97.4352 243.743C97.0512 243.343 96.7392 242.871 96.4992 242.327C96.2752 241.767 96.1632 241.135 96.1632 240.431C96.1632 239.759 96.2992 239.143 96.5712 238.583C96.8432 238.023 97.2032 237.519 97.6512 237.071C98.2112 236.511 98.9312 236.071 99.8112 235.751C100.691 235.431 101.635 235.271 102.643 235.271C103.555 235.271 104.427 235.415 105.259 235.703C106.107 235.975 106.819 236.383 107.395 236.927C107.907 237.407 108.315 237.951 108.619 238.559C108.939 239.167 109.107 239.831 109.123 240.551H105.955C105.939 240.247 105.859 239.951 105.715 239.663C105.587 239.359 105.419 239.095 105.211 238.871C104.939 238.583 104.555 238.359 104.059 238.199C103.563 238.039 103.083 237.959 102.619 237.959C102.139 237.959 101.643 238.023 101.131 238.151C100.635 238.279 100.211 238.527 99.8592 238.895C99.6832 239.087 99.5392 239.295 99.4272 239.519C99.3312 239.743 99.2832 240.015 99.2832 240.335C99.2832 240.895 99.4432 241.327 99.7632 241.631C100.083 241.919 100.499 242.103 101.011 242.183C101.555 242.263 102.163 242.335 102.835 242.399C103.523 242.463 104.147 242.535 104.707 242.615C105.347 242.711 105.947 242.887 106.507 243.143C107.083 243.383 107.579 243.711 107.995 244.127C108.427 244.527 108.763 245.015 109.003 245.591C109.259 246.167 109.387 246.815 109.387 247.535ZM122.607 246.455C122.591 246.567 122.583 246.671 122.583 246.767V247.295H114.231C114.231 247.775 114.303 248.231 114.447 248.663C114.607 249.095 114.839 249.455 115.143 249.743C115.367 249.951 115.623 250.135 115.911 250.295C116.215 250.439 116.575 250.511 116.991 250.511C117.423 250.511 117.775 250.471 118.047 250.391C118.335 250.295 118.591 250.135 118.815 249.911C119.103 249.623 119.303 249.271 119.415 248.855H122.295C122.263 249.223 122.135 249.631 121.911 250.079C121.703 250.511 121.479 250.871 121.239 251.159C120.711 251.783 120.079 252.231 119.343 252.503C118.607 252.775 117.839 252.911 117.039 252.911C116.175 252.911 115.423 252.775 114.783 252.503C114.159 252.215 113.599 251.839 113.103 251.375C112.479 250.767 111.999 250.039 111.663 249.191C111.343 248.343 111.183 247.407 111.183 246.383C111.183 245.375 111.327 244.447 111.615 243.599C111.919 242.735 112.375 241.999 112.983 241.391C113.447 240.911 114.007 240.527 114.663 240.239C115.335 239.951 116.103 239.807 116.967 239.807C117.895 239.807 118.759 239.999 119.559 240.383C120.359 240.751 121.015 241.327 121.527 242.111C121.991 242.799 122.287 243.503 122.415 244.223C122.543 244.927 122.607 245.671 122.607 246.455ZM119.607 245.111C119.591 244.199 119.335 243.471 118.839 242.927C118.631 242.703 118.367 242.527 118.047 242.399C117.743 242.271 117.375 242.207 116.943 242.207C116.479 242.207 116.071 242.295 115.719 242.471C115.367 242.647 115.079 242.879 114.855 243.167C114.631 243.439 114.471 243.727 114.375 244.031C114.279 244.335 114.223 244.695 114.207 245.111H119.607ZM135.487 248.183C135.455 248.679 135.359 249.167 135.199 249.647C135.039 250.111 134.815 250.527 134.527 250.895C134.095 251.439 133.511 251.903 132.775 252.287C132.055 252.671 131.215 252.863 130.255 252.863C129.295 252.863 128.439 252.671 127.687 252.287C126.935 251.887 126.343 251.423 125.911 250.895C125.447 250.303 125.103 249.623 124.879 248.855C124.655 248.087 124.543 247.247 124.543 246.335C124.543 245.423 124.655 244.583 124.879 243.815C125.103 243.047 125.447 242.367 125.911 241.775C126.343 241.247 126.935 240.791 127.687 240.407C128.439 240.007 129.295 239.807 130.255 239.807C131.215 239.807 132.055 239.999 132.775 240.383C133.511 240.767 134.095 241.231 134.527 241.775C134.815 242.143 135.039 242.567 135.199 243.047C135.359 243.511 135.455 243.991 135.487 244.487H132.535C132.519 244.263 132.479 244.055 132.415 243.863C132.351 243.671 132.271 243.495 132.175 243.335C131.999 243.063 131.751 242.839 131.431 242.663C131.111 242.487 130.719 242.399 130.255 242.399C129.839 242.399 129.479 242.471 129.175 242.615C128.887 242.759 128.639 242.943 128.431 243.167C128.063 243.567 127.831 244.047 127.735 244.607C127.639 245.167 127.591 245.743 127.591 246.335C127.591 246.927 127.639 247.503 127.735 248.063C127.831 248.607 128.063 249.079 128.431 249.479C128.639 249.703 128.887 249.895 129.175 250.055C129.479 250.199 129.839 250.271 130.255 250.271C130.719 250.271 131.111 250.183 131.431 250.007C131.751 249.831 131.999 249.607 132.175 249.335C132.271 249.175 132.351 248.999 132.415 248.807C132.479 248.615 132.519 248.407 132.535 248.183H135.487ZM146.077 252.599L145.861 250.967C145.557 251.575 145.085 252.055 144.445 252.407C143.805 252.743 143.085 252.911 142.285 252.911C141.613 252.911 141.013 252.807 140.485 252.599C139.957 252.375 139.501 252.071 139.117 251.687C138.749 251.287 138.461 250.815 138.253 250.271C138.061 249.727 137.965 249.119 137.965 248.447V240.119H140.965V247.775C140.965 248.511 141.125 249.095 141.445 249.527C141.765 249.943 142.325 250.151 143.125 250.151C143.477 250.151 143.773 250.095 144.013 249.983C144.269 249.855 144.485 249.703 144.661 249.527C145.029 249.191 145.269 248.767 145.381 248.255C145.509 247.743 145.573 247.231 145.573 246.719V240.119H148.573V252.599H146.077ZM159.585 242.903C159.217 242.823 158.873 242.783 158.553 242.783C157.497 242.783 156.697 243.119 156.153 243.791C155.609 244.463 155.337 245.303 155.337 246.311V252.599H152.313V240.119H154.857L155.121 241.991C155.409 241.271 155.881 240.751 156.537 240.431C157.209 240.111 157.913 239.951 158.649 239.951C158.953 239.951 159.265 239.975 159.585 240.023V242.903ZM172.107 246.455C172.091 246.567 172.083 246.671 172.083 246.767V247.295H163.731C163.731 247.775 163.803 248.231 163.947 248.663C164.107 249.095 164.339 249.455 164.643 249.743C164.867 249.951 165.123 250.135 165.411 250.295C165.715 250.439 166.075 250.511 166.491 250.511C166.923 250.511 167.275 250.471 167.547 250.391C167.835 250.295 168.091 250.135 168.315 249.911C168.603 249.623 168.803 249.271 168.915 248.855H171.795C171.763 249.223 171.635 249.631 171.411 250.079C171.203 250.511 170.979 250.871 170.739 251.159C170.211 251.783 169.579 252.231 168.843 252.503C168.107 252.775 167.339 252.911 166.539 252.911C165.675 252.911 164.923 252.775 164.283 252.503C163.659 252.215 163.099 251.839 162.603 251.375C161.979 250.767 161.499 250.039 161.163 249.191C160.843 248.343 160.683 247.407 160.683 246.383C160.683 245.375 160.827 244.447 161.115 243.599C161.419 242.735 161.875 241.999 162.483 241.391C162.947 240.911 163.507 240.527 164.163 240.239C164.835 239.951 165.603 239.807 166.467 239.807C167.395 239.807 168.259 239.999 169.059 240.383C169.859 240.751 170.515 241.327 171.027 242.111C171.491 242.799 171.787 243.503 171.915 244.223C172.043 244.927 172.107 245.671 172.107 246.455ZM169.107 245.111C169.091 244.199 168.835 243.471 168.339 242.927C168.131 242.703 167.867 242.527 167.547 242.399C167.243 242.271 166.875 242.207 166.443 242.207C165.979 242.207 165.571 242.295 165.219 242.471C164.867 242.647 164.579 242.879 164.355 243.167C164.131 243.439 163.971 243.727 163.875 244.031C163.779 244.335 163.723 244.695 163.707 245.111H169.107ZM192.45 247.175C192.37 247.847 192.202 248.511 191.946 249.167C191.69 249.807 191.314 250.383 190.818 250.895C190.178 251.551 189.434 252.055 188.586 252.407C187.738 252.743 186.858 252.911 185.946 252.911C185.034 252.911 184.162 252.759 183.33 252.455C182.514 252.151 181.778 251.671 181.122 251.015C180.658 250.551 180.282 250.063 179.994 249.551C179.722 249.039 179.514 248.495 179.37 247.919C179.226 247.343 179.13 246.743 179.082 246.119C179.034 245.479 179.01 244.807 179.01 244.103C179.01 243.415 179.034 242.751 179.082 242.111C179.13 241.471 179.226 240.863 179.37 240.287C179.514 239.711 179.722 239.167 179.994 238.655C180.282 238.143 180.658 237.655 181.122 237.191C181.778 236.535 182.514 236.055 183.33 235.751C184.162 235.431 185.034 235.271 185.946 235.271C186.858 235.271 187.738 235.439 188.586 235.775C189.434 236.095 190.178 236.583 190.818 237.239C191.314 237.751 191.69 238.327 191.946 238.967C192.202 239.607 192.37 240.263 192.45 240.935H189.282C189.25 240.567 189.17 240.247 189.042 239.975C188.914 239.687 188.738 239.407 188.514 239.135C188.242 238.783 187.874 238.519 187.41 238.343C186.962 238.167 186.474 238.079 185.946 238.079C185.45 238.079 184.97 238.175 184.506 238.367C184.058 238.559 183.666 238.839 183.33 239.207C183.042 239.511 182.818 239.863 182.658 240.263C182.498 240.663 182.378 241.087 182.298 241.535C182.234 241.967 182.194 242.407 182.178 242.855C182.162 243.303 182.154 243.719 182.154 244.103C182.154 244.487 182.162 244.903 182.178 245.351C182.194 245.799 182.234 246.247 182.298 246.695C182.378 247.127 182.498 247.543 182.658 247.943C182.818 248.343 183.042 248.695 183.33 248.999C183.666 249.367 184.058 249.647 184.506 249.839C184.97 250.031 185.45 250.127 185.946 250.127C186.474 250.127 186.962 250.039 187.41 249.863C187.874 249.671 188.242 249.399 188.514 249.047C188.962 248.503 189.218 247.879 189.282 247.175H192.45ZM199.649 252.575C199.345 252.639 199.121 252.679 198.977 252.695C198.849 252.727 198.633 252.743 198.329 252.743C197.305 252.743 196.481 252.479 195.857 251.951C195.233 251.423 194.921 250.567 194.921 249.383V235.247H197.945V248.879C197.945 249.247 198.017 249.543 198.161 249.767C198.305 249.975 198.633 250.079 199.145 250.079C199.273 250.079 199.369 250.079 199.433 250.079C199.497 250.063 199.569 250.055 199.649 250.055V252.575ZM212.918 246.359C212.918 247.415 212.79 248.303 212.534 249.023C212.278 249.727 211.918 250.375 211.454 250.967C211.022 251.495 210.422 251.951 209.654 252.335C208.902 252.719 208.046 252.911 207.086 252.911C206.126 252.911 205.262 252.719 204.494 252.335C203.742 251.951 203.15 251.495 202.718 250.967C202.254 250.375 201.894 249.727 201.638 249.023C201.382 248.303 201.254 247.415 201.254 246.359C201.254 245.303 201.382 244.423 201.638 243.719C201.894 242.999 202.254 242.343 202.718 241.751C203.15 241.223 203.742 240.767 204.494 240.383C205.262 239.999 206.126 239.807 207.086 239.807C208.046 239.807 208.902 239.999 209.654 240.383C210.422 240.767 211.022 241.223 211.454 241.751C211.918 242.343 212.278 242.999 212.534 243.719C212.79 244.423 212.918 245.303 212.918 246.359ZM209.87 246.359C209.87 245.767 209.814 245.199 209.702 244.655C209.59 244.095 209.35 243.615 208.982 243.215C208.774 242.991 208.51 242.807 208.19 242.663C207.87 242.503 207.502 242.423 207.086 242.423C206.67 242.423 206.302 242.503 205.982 242.663C205.662 242.807 205.398 242.991 205.19 243.215C204.822 243.615 204.582 244.095 204.47 244.655C204.358 245.199 204.302 245.767 204.302 246.359C204.302 246.951 204.358 247.527 204.47 248.087C204.582 248.631 204.822 249.103 205.19 249.503C205.398 249.727 205.662 249.919 205.982 250.079C206.302 250.223 206.67 250.295 207.086 250.295C207.502 250.295 207.87 250.223 208.19 250.079C208.51 249.919 208.774 249.727 208.982 249.503C209.35 249.103 209.59 248.631 209.702 248.087C209.814 247.527 209.87 246.951 209.87 246.359ZM223.725 252.599L223.509 250.967C223.205 251.575 222.733 252.055 222.093 252.407C221.453 252.743 220.733 252.911 219.933 252.911C219.261 252.911 218.661 252.807 218.133 252.599C217.605 252.375 217.149 252.071 216.765 251.687C216.397 251.287 216.109 250.815 215.901 250.271C215.709 249.727 215.613 249.119 215.613 248.447V240.119H218.613V247.775C218.613 248.511 218.773 249.095 219.093 249.527C219.413 249.943 219.973 250.151 220.773 250.151C221.125 250.151 221.421 250.095 221.661 249.983C221.917 249.855 222.133 249.703 222.309 249.527C222.677 249.191 222.917 248.767 223.029 248.255C223.157 247.743 223.221 247.231 223.221 246.719V240.119H226.221V252.599H223.725ZM238.049 252.599L237.857 251.231C237.489 251.807 236.985 252.231 236.345 252.503C235.705 252.759 235.041 252.887 234.353 252.887C233.729 252.887 233.161 252.791 232.649 252.599C232.137 252.407 231.689 252.151 231.305 251.831C230.553 251.223 229.993 250.463 229.625 249.551C229.273 248.623 229.097 247.567 229.097 246.383C229.097 243.903 229.841 242.047 231.329 240.815C231.713 240.495 232.153 240.247 232.649 240.071C233.161 239.895 233.737 239.807 234.377 239.807C235.177 239.807 235.849 239.927 236.393 240.167C236.953 240.391 237.369 240.663 237.641 240.983V235.271H240.641V252.599H238.049ZM237.785 246.335C237.785 245.887 237.745 245.431 237.665 244.967C237.601 244.487 237.465 244.055 237.257 243.671C237.049 243.271 236.761 242.951 236.393 242.711C236.025 242.455 235.545 242.327 234.953 242.327C234.489 242.327 234.089 242.423 233.753 242.615C233.433 242.807 233.161 243.039 232.937 243.311C232.617 243.727 232.401 244.199 232.289 244.727C232.193 245.255 232.145 245.791 232.145 246.335C232.145 246.879 232.193 247.423 232.289 247.967C232.401 248.495 232.617 248.967 232.937 249.383C233.161 249.655 233.433 249.887 233.753 250.079C234.089 250.271 234.489 250.367 234.953 250.367C235.545 250.367 236.025 250.247 236.393 250.007C236.761 249.751 237.049 249.431 237.257 249.047C237.465 248.647 237.601 248.207 237.665 247.727C237.745 247.247 237.785 246.783 237.785 246.335ZM262.183 241.031C262.183 241.847 262.055 242.591 261.799 243.263C261.543 243.935 261.159 244.511 260.647 244.991C260.151 245.471 259.527 245.847 258.775 246.119C258.023 246.375 257.159 246.503 256.183 246.503H252.583V252.599H249.511V235.583H256.183C257.159 235.583 258.023 235.719 258.775 235.991C259.527 236.247 260.151 236.615 260.647 237.095C261.159 237.559 261.543 238.127 261.799 238.799C262.055 239.471 262.183 240.215 262.183 241.031ZM259.063 241.055C259.063 240.239 258.823 239.575 258.343 239.063C257.863 238.551 257.103 238.295 256.063 238.295H252.583V243.791H256.063C257.103 243.791 257.863 243.543 258.343 243.047C258.823 242.535 259.063 241.871 259.063 241.055ZM269.024 252.575C268.72 252.639 268.496 252.679 268.352 252.695C268.224 252.727 268.008 252.743 267.704 252.743C266.68 252.743 265.856 252.479 265.232 251.951C264.608 251.423 264.296 250.567 264.296 249.383V235.247H267.32V248.879C267.32 249.247 267.392 249.543 267.536 249.767C267.68 249.975 268.008 250.079 268.52 250.079C268.648 250.079 268.744 250.079 268.808 250.079C268.872 250.063 268.944 250.055 269.024 250.055V252.575ZM282.482 252.455C282.226 252.567 282.002 252.647 281.81 252.695C281.634 252.759 281.362 252.791 280.994 252.791C280.338 252.791 279.834 252.615 279.482 252.263C279.13 251.911 278.93 251.503 278.882 251.039C278.594 251.551 278.114 251.991 277.442 252.359C276.77 252.727 275.986 252.911 275.09 252.911C274.338 252.911 273.682 252.807 273.122 252.599C272.562 252.375 272.09 252.087 271.706 251.735C271.338 251.367 271.058 250.951 270.866 250.487C270.674 250.007 270.578 249.511 270.578 248.999C270.578 248.407 270.682 247.879 270.89 247.415C271.114 246.951 271.418 246.551 271.802 246.215C272.186 245.879 272.634 245.623 273.146 245.447C273.658 245.255 274.21 245.135 274.802 245.087L278.474 244.823V244.055C278.474 243.463 278.33 242.991 278.042 242.639C277.77 242.271 277.21 242.087 276.362 242.087C275.658 242.087 275.106 242.239 274.706 242.543C274.322 242.847 274.114 243.287 274.082 243.863H271.178C271.226 243.159 271.386 242.551 271.658 242.039C271.946 241.527 272.322 241.111 272.786 240.791C273.25 240.455 273.786 240.207 274.394 240.047C275.002 239.887 275.658 239.807 276.362 239.807C277.434 239.807 278.386 239.999 279.218 240.383C280.066 240.751 280.674 241.407 281.042 242.351C281.202 242.751 281.298 243.167 281.33 243.599C281.378 244.031 281.402 244.455 281.402 244.871V249.503C281.402 249.791 281.45 249.999 281.546 250.127C281.658 250.239 281.842 250.295 282.098 250.295C282.226 250.295 282.314 250.287 282.362 250.271C282.41 250.271 282.45 250.263 282.482 250.247V252.455ZM278.474 247.055L275.306 247.295C274.842 247.327 274.426 247.479 274.058 247.751C273.69 248.023 273.506 248.415 273.506 248.927C273.506 249.407 273.682 249.791 274.034 250.079C274.402 250.351 274.818 250.487 275.282 250.487C276.226 250.487 276.994 250.247 277.586 249.767C278.178 249.271 278.474 248.559 278.474 247.631V247.055ZM292.025 252.431C291.161 252.655 290.305 252.767 289.457 252.767C288.193 252.767 287.249 252.431 286.625 251.759C286.001 251.071 285.689 250.127 285.689 248.927V242.591H283.409V240.119H285.689V236.951L288.689 236.207V240.119H291.833V242.591H288.689V248.663C288.689 249.143 288.801 249.495 289.025 249.719C289.249 249.927 289.601 250.031 290.081 250.031C290.401 250.031 290.697 250.023 290.969 250.007C291.257 249.991 291.609 249.959 292.025 249.911V252.431ZM301.803 237.647C301.483 237.583 301.171 237.535 300.867 237.503C300.579 237.471 300.235 237.455 299.835 237.455C299.291 237.455 298.883 237.599 298.611 237.887C298.339 238.159 298.203 238.519 298.203 238.967V240.119H301.539V242.591H298.203V252.599H295.203V242.591H293.091V240.119H295.203V238.919C295.203 237.767 295.571 236.823 296.307 236.087C297.059 235.351 298.107 234.983 299.451 234.983C299.883 234.983 300.267 235.007 300.603 235.055C300.939 235.087 301.339 235.151 301.803 235.247V237.647ZM314.121 246.359C314.121 247.415 313.993 248.303 313.737 249.023C313.481 249.727 313.121 250.375 312.657 250.967C312.225 251.495 311.625 251.951 310.857 252.335C310.105 252.719 309.249 252.911 308.289 252.911C307.329 252.911 306.465 252.719 305.697 252.335C304.945 251.951 304.353 251.495 303.921 250.967C303.457 250.375 303.097 249.727 302.841 249.023C302.585 248.303 302.457 247.415 302.457 246.359C302.457 245.303 302.585 244.423 302.841 243.719C303.097 242.999 303.457 242.343 303.921 241.751C304.353 241.223 304.945 240.767 305.697 240.383C306.465 239.999 307.329 239.807 308.289 239.807C309.249 239.807 310.105 239.999 310.857 240.383C311.625 240.767 312.225 241.223 312.657 241.751C313.121 242.343 313.481 242.999 313.737 243.719C313.993 244.423 314.121 245.303 314.121 246.359ZM311.073 246.359C311.073 245.767 311.017 245.199 310.905 244.655C310.793 244.095 310.553 243.615 310.185 243.215C309.977 242.991 309.713 242.807 309.393 242.663C309.073 242.503 308.705 242.423 308.289 242.423C307.873 242.423 307.505 242.503 307.185 242.663C306.865 242.807 306.601 242.991 306.393 243.215C306.025 243.615 305.785 244.095 305.673 244.655C305.561 245.199 305.505 245.767 305.505 246.359C305.505 246.951 305.561 247.527 305.673 248.087C305.785 248.631 306.025 249.103 306.393 249.503C306.601 249.727 306.865 249.919 307.185 250.079C307.505 250.223 307.873 250.295 308.289 250.295C308.705 250.295 309.073 250.223 309.393 250.079C309.713 249.919 309.977 249.727 310.185 249.503C310.553 249.103 310.793 248.631 310.905 248.087C311.017 247.527 311.073 246.951 311.073 246.359ZM324.28 242.903C323.912 242.823 323.568 242.783 323.248 242.783C322.192 242.783 321.392 243.119 320.848 243.791C320.304 244.463 320.032 245.303 320.032 246.311V252.599H317.008V240.119H319.552L319.816 241.991C320.104 241.271 320.576 240.751 321.232 240.431C321.904 240.111 322.608 239.951 323.344 239.951C323.648 239.951 323.96 239.975 324.28 240.023V242.903ZM341.306 252.599V244.847C341.306 244.079 341.17 243.487 340.898 243.071C340.642 242.639 340.138 242.423 339.386 242.423C338.954 242.423 338.586 242.527 338.282 242.735C337.978 242.927 337.722 243.191 337.514 243.527C337.322 243.847 337.178 244.207 337.082 244.607C336.986 245.007 336.938 245.399 336.938 245.783V252.599H333.962V244.847C333.962 244.079 333.826 243.487 333.554 243.071C333.298 242.639 332.794 242.423 332.042 242.423C331.61 242.423 331.242 242.527 330.938 242.735C330.634 242.927 330.378 243.191 330.17 243.527C329.962 243.847 329.81 244.207 329.714 244.607C329.618 245.007 329.57 245.399 329.57 245.783V252.599H326.594V240.119H329.09L329.33 241.775C329.682 241.199 330.154 240.727 330.746 240.359C331.338 239.991 332.05 239.807 332.882 239.807C333.762 239.807 334.498 239.991 335.09 240.359C335.682 240.711 336.138 241.207 336.458 241.847C336.826 241.191 337.33 240.687 337.97 240.335C338.626 239.983 339.378 239.807 340.226 239.807C341.57 239.807 342.578 240.215 343.25 241.031C343.938 241.831 344.282 242.879 344.282 244.175V252.599H341.306Z" fill="white"/>
<path d="M219.986 158.599C214.731 158.615 209.656 160.519 205.676 163.967C202.626 166.607 200.416 170.047 199.847 173.499C193.174 174.979 188.133 180.819 188.133 187.871C188.133 196.063 194.933 202.599 203.187 202.599H238.648C245.875 202.599 251.839 196.879 251.839 189.691C251.839 183.147 246.894 177.815 240.555 176.915C239.588 166.595 230.697 158.599 219.986 158.599ZM221.977 174.599V180.599H227.949C228.477 180.599 228.984 180.809 229.357 181.184C229.73 181.559 229.94 182.068 229.94 182.599C229.94 183.129 229.73 183.638 229.357 184.013C228.984 184.388 228.477 184.599 227.949 184.599H221.977V190.599C221.977 191.129 221.767 191.638 221.394 192.013C221.02 192.388 220.514 192.599 219.986 192.599C219.458 192.599 218.952 192.388 218.578 192.013C218.205 191.638 217.995 191.129 217.995 190.599V184.599H212.023C211.495 184.599 210.988 184.388 210.615 184.013C210.242 183.638 210.032 183.129 210.032 182.599C210.032 182.068 210.242 181.559 210.615 181.184C210.988 180.809 211.495 180.599 212.023 180.599H217.995V174.599C217.995 174.068 218.205 173.559 218.578 173.184C218.952 172.809 219.458 172.599 219.986 172.599C220.514 172.599 221.02 172.809 221.394 173.184C221.767 173.559 221.977 174.068 221.977 174.599Z" fill="white"/>
<path d="M80.7399 55.0421C79.1491 53.0779 79.4422 50.2008 81.3983 48.6033C81.3983 48.6033 81.3983 48.6033 81.3983 48.5948C83.3416 47.008 86.2173 47.3023 87.8081 49.2559C89.3988 51.2181 89.1057 54.0952 87.1497 55.6926C86.3001 56.3836 85.287 56.7291 84.274 56.7291C82.9466 56.7291 81.6404 56.1512 80.7399 55.0421ZM87.4534 378.563C85.4994 376.966 82.6237 377.271 81.0436 379.235C79.4528 381.197 79.7565 384.074 81.7105 385.672C82.5515 386.354 83.5646 386.689 84.5777 386.689C85.9051 386.689 87.2219 386.109 88.1224 385C89.7025 383.038 89.4094 380.161 87.4534 378.563ZM104.61 42.0131C105.44 42.0131 106.292 41.7806 107.042 41.3029C109.168 39.94 109.796 37.112 108.448 34.9856C107.101 32.8507 104.285 32.2194 102.159 33.5716C100.033 34.9259 99.4043 37.7518 100.751 39.8888C101.622 41.2602 103.102 42.0131 104.61 42.0131ZM53.3146 343.302C51.7854 341.289 48.9182 340.913 46.9239 342.449C44.9169 343.985 44.5431 346.853 46.0723 348.866C46.9728 350.035 48.3214 350.656 49.6977 350.656C50.6598 350.656 51.6325 350.351 52.4629 349.711C54.4572 348.175 54.8438 345.307 53.3146 343.294V343.302ZM107.386 392.934C105.258 391.581 102.444 392.211 101.095 394.356C99.7483 396.493 100.388 399.319 102.514 400.673C102.514 400.663 102.514 400.663 102.514 400.663C103.274 401.141 104.113 401.375 104.943 401.375C106.453 401.375 107.932 400.622 108.802 399.238C110.149 397.103 109.512 394.275 107.386 392.934ZM62.9038 361.842C61.0921 363.612 61.0518 366.511 62.8125 368.322C63.7045 369.237 64.8896 369.706 66.0747 369.706C67.2195 369.706 68.3642 369.277 69.2541 368.413C71.0573 366.643 71.0976 363.755 69.3454 361.934C67.5933 360.125 64.7069 360.083 62.9038 361.842ZM198.696 9.92779C198.828 9.92779 198.968 9.91713 199.1 9.90647C201.612 9.68253 203.456 7.46659 203.233 4.94353C203.01 2.4226 200.793 0.571364 198.291 0.795304C195.778 1.01711 193.935 3.24585 194.158 5.75824C194.37 8.13627 196.356 9.92779 198.696 9.92779ZM126.526 29.8201C127.184 29.8201 127.853 29.6665 128.49 29.3615C130.759 28.2738 131.712 25.5375 130.627 23.2597C129.544 20.9819 126.819 20.0158 124.551 21.1141C124.551 21.1035 124.551 21.1035 124.551 21.1035C122.282 22.2018 121.32 24.9382 122.403 27.216C123.194 28.8539 124.825 29.8201 126.526 29.8201ZM175.281 420.544C172.819 420.037 170.409 421.624 169.893 424.093C169.377 426.565 170.957 428.997 173.416 429.504C173.731 429.577 174.045 429.607 174.359 429.607C176.466 429.607 178.369 428.122 178.815 425.966C179.331 423.494 177.751 421.063 175.281 420.544ZM173.903 13.6601C174.217 13.6601 174.531 13.6196 174.846 13.5578C177.305 13.0395 178.885 10.6081 178.369 8.13627C177.842 5.65587 175.432 4.07976 172.962 4.59802C172.972 4.59802 172.972 4.59802 172.972 4.59802C170.5 5.11628 168.931 7.54763 169.447 10.0195C169.903 12.1757 171.796 13.6601 173.903 13.6601ZM149.729 20.3101C150.215 20.3101 150.71 20.229 151.197 20.0669C153.577 19.2522 154.854 16.6588 154.042 14.2594C153.233 11.8686 150.651 10.589 148.27 11.4015C145.881 12.2162 144.604 14.8097 145.413 17.209C146.063 19.1115 147.834 20.3101 149.729 20.3101ZM128.866 404.832C126.598 403.745 123.873 404.711 122.79 406.989C121.705 409.277 122.667 412.003 124.946 413.09C125.574 413.395 126.243 413.538 126.902 413.538C128.603 413.538 130.243 412.572 131.022 410.923C132.107 408.646 131.135 405.92 128.866 404.832ZM65.8007 73.7443C66.9964 73.7443 68.1816 73.2773 69.0715 72.3516C70.8236 70.5303 70.7727 67.6425 68.9716 65.883C67.1685 64.1234 64.2822 64.164 62.53 65.9853C60.7778 67.7961 60.8182 70.6945 62.6319 72.454C63.5112 73.3178 64.656 73.7443 65.8007 73.7443ZM22.1705 135.731C22.7694 135.995 23.3874 136.128 24.0055 136.128C25.7555 136.128 27.427 135.102 28.1767 133.391C29.1898 131.073 28.147 128.379 25.8384 127.362C23.5382 126.345 20.8452 127.392 19.8321 129.699C18.819 132.02 19.8618 134.714 22.1705 135.731ZM13.9788 159.55C14.4142 159.682 14.8602 159.744 15.2956 159.744C17.2495 159.744 19.0611 158.473 19.6601 156.498C20.3886 154.079 19.0314 151.516 16.6208 150.784C14.2103 150.05 11.668 151.413 10.9395 153.834C10.2004 156.255 11.5682 158.807 13.9788 159.55ZM6.29043 209.211C6.37327 209.22 6.46247 209.22 6.55379 209.22C8.95587 209.22 10.9608 207.338 11.101 204.909C11.2433 202.386 9.31905 200.219 6.80865 200.079C4.29614 199.936 2.13831 201.857 1.99813 204.38C1.85584 206.901 3.78004 209.068 6.29043 209.211ZM8.66065 184.151C8.93463 184.202 9.19799 184.221 9.46134 184.221C11.6277 184.221 13.5519 182.667 13.9469 180.449V180.44C14.3823 177.958 12.7321 175.577 10.2514 175.14C7.77076 174.692 5.41116 176.36 4.97365 178.843C4.52976 181.334 6.17999 183.714 8.66065 184.151ZM46.6797 91.8877C47.5101 92.519 48.4828 92.824 49.4449 92.824C50.8233 92.824 52.1805 92.2034 53.0704 91.024C54.5995 89.0192 54.2151 86.1421 52.2102 84.6065C50.2138 83.0816 47.3487 83.4676 45.8195 85.4703C44.301 87.4836 44.6854 90.3522 46.6797 91.8877ZM423.396 191.972C423.68 194.301 425.645 196.009 427.913 196.009C428.096 196.009 428.278 195.999 428.469 195.979C430.963 195.674 432.755 193.397 432.452 190.884C432.146 188.382 429.878 186.591 427.386 186.887C424.884 187.192 423.102 189.47 423.396 191.972ZM419.042 167.746C419.547 169.842 421.412 171.246 423.468 171.246C423.822 171.246 424.186 171.205 424.54 171.113C426.991 170.512 428.491 168.042 427.894 165.581C427.306 163.131 424.835 161.614 422.393 162.213C419.942 162.815 418.445 165.285 419.042 167.746ZM33.1295 113.083C33.858 113.51 34.6587 113.712 35.4382 113.712C36.9992 113.712 38.5177 112.91 39.3673 111.467C40.6543 109.289 39.9343 106.482 37.768 105.2C35.5996 103.91 32.8046 104.631 31.5197 106.817C31.5197 106.809 31.5197 106.809 31.5197 106.809C30.2432 108.984 30.9611 111.791 33.1295 113.083ZM33.3313 321.294C31.165 322.576 30.4556 325.393 31.7427 327.56C32.5922 329.004 34.1108 329.808 35.6612 329.808C36.4512 329.808 37.2519 329.603 37.9804 329.166C40.1489 327.876 40.8561 325.069 39.5797 322.892C38.2947 320.725 35.4997 320.004 33.3313 321.294ZM6.84901 234.382C9.3594 234.239 11.2751 232.072 11.1222 229.551V229.541C10.9799 227.017 8.81357 225.096 6.30105 225.249C3.79066 225.401 1.87495 227.568 2.02787 230.089C2.17017 232.52 4.17508 234.39 6.57503 234.39C6.66636 234.39 6.75768 234.39 6.84901 234.382ZM22.3425 298.687C20.0339 299.704 18.9911 302.409 20.0148 304.718C20.7645 306.427 22.4338 307.444 24.186 307.444C24.804 307.444 25.4221 307.32 26.0295 307.056C28.3296 306.03 29.3724 303.323 28.3487 301.016C27.3272 298.708 24.6426 297.659 22.3425 298.687ZM19.7811 277.939C19.0527 275.519 16.4998 274.156 14.0998 274.898C11.6893 275.642 10.3321 278.193 11.0712 280.614C11.668 282.587 13.4712 283.86 15.4272 283.86C15.8711 283.86 16.3171 283.787 16.7631 283.655C19.1737 282.913 20.5202 280.349 19.7811 277.939ZM14.0191 253.999C13.5731 251.519 11.2029 249.859 8.73286 250.307C6.25008 250.755 4.59985 253.135 5.05648 255.616C5.45151 257.834 7.3651 259.389 9.53143 259.389C9.79479 259.389 10.0688 259.359 10.3427 259.318C12.8128 258.87 14.4651 256.49 14.0191 253.999ZM151.602 414.078C149.221 413.274 146.639 414.564 145.83 416.955C145.029 419.354 146.305 421.948 148.695 422.752C149.181 422.914 149.667 422.995 150.154 422.995C152.059 422.995 153.83 421.786 154.467 419.883C155.268 417.484 153.991 414.89 151.602 414.078ZM360.394 64.5415C361.628 64.5415 362.864 64.0317 363.756 63.0464C365.457 61.1738 365.325 58.2861 363.46 56.5777C361.598 54.88 358.722 55.0123 357.021 56.872C355.328 58.7446 355.46 61.643 357.325 63.3407C358.195 64.1448 359.289 64.5415 360.394 64.5415ZM393.146 102.537C394.027 102.537 394.917 102.283 395.698 101.743C397.784 100.329 398.33 97.482 396.913 95.3855C395.505 93.2911 392.67 92.7515 390.584 94.1655C388.496 95.5902 387.959 98.4268 389.367 100.523C390.249 101.835 391.686 102.537 393.146 102.537ZM395.921 331.922C393.834 330.51 390.998 331.058 389.59 333.152V333.163C388.182 335.249 388.73 338.096 390.816 339.51C391.606 340.039 392.487 340.293 393.369 340.293C394.825 340.293 396.265 339.591 397.145 338.279C398.553 336.183 398.007 333.336 395.921 331.922ZM357.607 370.407C355.745 372.116 355.623 375.014 357.325 376.874C358.215 377.861 359.451 378.358 360.687 378.358C361.781 378.358 362.885 377.964 363.764 377.16C365.618 375.451 365.739 372.561 364.049 370.691C362.348 368.829 359.461 368.697 357.607 370.407ZM377.884 82.5612C378.945 82.5612 380.01 82.1965 380.872 81.4543C382.775 79.795 382.977 76.9072 381.326 74.9963C379.687 73.0832 376.809 72.8699 374.906 74.5271C373.001 76.1863 372.788 79.0741 374.441 80.9851C375.341 82.0322 376.607 82.5612 377.884 82.5612ZM405.946 124.167C406.655 124.167 407.365 124.005 408.034 123.66C410.27 122.491 411.152 119.733 409.998 117.485C408.832 115.239 406.088 114.365 403.85 115.523C401.611 116.683 400.74 119.439 401.896 121.687C402.705 123.263 404.296 124.167 405.946 124.167ZM374.694 352.731C373.052 354.642 373.264 357.532 375.169 359.189C376.029 359.931 377.083 360.298 378.147 360.298C379.423 360.298 380.689 359.759 381.59 358.711C381.6 358.711 381.6 358.711 381.6 358.711C383.24 356.798 383.028 353.91 381.125 352.253C379.209 350.605 376.333 350.818 374.694 352.731ZM428.512 237.585C426.01 237.291 423.742 239.091 423.447 241.601C423.153 244.103 424.946 246.383 427.448 246.677C427.62 246.696 427.803 246.707 427.985 246.707C430.264 246.707 432.229 244.999 432.5 242.67C432.796 240.157 431.012 237.88 428.512 237.585ZM408.225 309.976C405.986 308.815 403.232 309.7 402.089 311.948V311.959C400.934 314.207 401.815 316.962 404.054 318.123C404.721 318.458 405.43 318.62 406.139 318.62C407.789 318.62 409.38 317.715 410.189 316.139C411.345 313.891 410.463 311.136 408.225 309.976ZM424.642 262.462C422.191 261.871 419.73 263.387 419.144 265.838C418.555 268.299 420.055 270.769 422.506 271.36C422.86 271.451 423.223 271.492 423.578 271.492C425.634 271.492 427.499 270.078 428.004 267.984C428.593 265.522 427.083 263.05 424.642 262.462ZM434 216.543C433.989 214.02 431.944 211.977 429.434 211.977C426.911 211.986 424.876 214.042 424.884 216.563V217.011C424.884 219.534 426.921 221.577 429.442 221.577C431.955 221.577 434 219.534 434 217.011C434 216.929 434 216.859 433.989 216.787C434 216.706 434 216.625 434 216.543ZM417.846 286.716C415.486 285.833 412.863 287.042 411.982 289.411C411.111 291.781 412.307 294.415 414.667 295.289C415.193 295.494 415.731 295.586 416.257 295.586C418.109 295.586 419.851 294.447 420.53 292.596C421.401 290.226 420.206 287.592 417.846 286.716ZM416.104 147.184C416.642 147.184 417.179 147.082 417.706 146.887C420.065 146.002 421.259 143.368 420.378 140.999C419.498 138.629 416.875 137.431 414.514 138.314C412.154 139.199 410.96 141.833 411.842 144.202C412.519 146.043 414.261 147.184 416.104 147.184ZM295.334 24.1341C295.89 24.3581 296.468 24.4604 297.035 24.4604C298.838 24.4604 300.548 23.3813 301.268 21.6025C302.209 19.2522 301.074 16.5884 298.747 15.6436C296.417 14.6967 293.754 15.8249 292.811 18.1752C291.87 20.5148 292.993 23.1787 295.334 24.1341ZM248.503 422.671C246.012 423.038 244.3 425.367 244.665 427.868C244.998 430.146 246.944 431.773 249.172 431.773C249.395 431.773 249.618 431.763 249.841 431.722C252.332 431.355 254.052 429.026 253.679 426.525C253.313 424.023 250.994 422.304 248.503 422.671ZM272.069 16.2834C272.475 16.3943 272.87 16.4455 273.265 16.4455C275.27 16.4455 277.113 15.104 277.661 13.0587C278.32 10.6188 276.89 8.10642 274.461 7.44526C272.029 6.7841 269.527 8.22798 268.871 10.67C268.212 13.1099 269.65 15.6223 272.069 16.2834ZM248.067 11.2693C248.29 11.3098 248.513 11.3205 248.726 11.3205C250.954 11.3205 252.899 9.68253 253.233 7.40474C253.598 4.90301 251.876 2.58469 249.384 2.21786C246.893 1.85315 244.574 3.58069 244.208 6.08242C243.845 8.58415 245.576 10.9131 248.067 11.2693ZM272.504 417.616C270.075 418.277 268.648 420.79 269.306 423.23C269.862 425.264 271.695 426.606 273.7 426.606C274.106 426.606 274.501 426.555 274.907 426.444C277.336 425.772 278.763 423.259 278.105 420.82C277.438 418.38 274.936 416.944 272.504 417.616ZM224.074 424.846C221.553 424.919 219.578 427.034 219.65 429.555C219.72 432.038 221.747 434 224.206 434C224.246 434 224.297 434 224.338 433.989C226.861 433.919 228.836 431.814 228.764 429.28C228.683 426.759 226.587 424.776 224.074 424.846ZM223.63 9.1536H223.751C226.213 9.1536 228.237 7.19146 228.309 4.70039C228.379 2.17733 226.394 0.0722977 223.873 0.00191661C221.36 -0.0705976 219.264 1.92354 219.194 4.45513C219.124 6.97818 221.107 9.08322 223.63 9.1536ZM295.737 409.714C293.399 410.67 292.275 413.334 293.227 415.684C293.945 417.454 295.657 418.531 297.449 418.531C298.027 418.531 298.604 418.429 299.161 418.196C301.501 417.241 302.614 414.575 301.673 412.235C300.722 409.898 298.067 408.767 295.737 409.714ZM317.847 399.106C315.648 400.336 314.85 403.113 316.065 405.331C316.895 406.835 318.454 407.69 320.055 407.69C320.803 407.69 321.563 407.507 322.262 407.121C324.46 405.901 325.261 403.113 324.044 400.897C322.829 398.69 320.055 397.886 317.847 399.106ZM199.546 424.144C197.044 423.921 194.827 425.782 194.614 428.306C194.391 430.816 196.245 433.034 198.756 433.258C198.888 433.268 199.019 433.277 199.151 433.277C201.491 433.277 203.486 431.477 203.687 429.099C203.91 426.576 202.058 424.358 199.546 424.144ZM338.255 47.8419C339.053 48.422 339.986 48.695 340.897 48.695C342.326 48.695 343.724 48.0339 344.613 46.7841C346.073 44.7302 345.607 41.8723 343.56 40.3964C341.515 38.9227 338.669 39.4004 337.201 41.4543C335.731 43.5081 336.207 46.366 338.255 47.8419ZM317.492 34.702C318.191 35.088 318.94 35.2714 319.69 35.2714C321.289 35.2714 322.85 34.4162 323.681 32.9019C324.896 30.6838 324.095 27.8985 321.888 26.687C319.679 25.4671 316.914 26.2712 315.699 28.4871C314.484 30.7052 315.285 33.482 317.492 34.702ZM338.567 385.947C336.522 387.42 336.056 390.278 337.535 392.332C338.416 393.573 339.814 394.235 341.232 394.235C342.152 394.235 343.084 393.951 343.896 393.371C345.93 391.895 346.395 389.037 344.928 386.983C343.46 384.929 340.614 384.462 338.567 385.947Z" fill="white"/>
</svg>
