<svg width="316" height="186" viewBox="0 0 316 186" fill="none" xmlns="http://www.w3.org/2000/svg">
<rect x="3" y="3" width="310" height="180" rx="20" fill="#0A2841" stroke="white" stroke-width="5" stroke-linecap="round" stroke-linejoin="round" stroke-dasharray="10 10"/>
<path d="M133.962 68.3836C134.923 69.4108 135.877 70.4311 136.775 71.7279V74.1491H149.369V71.7279C149.143 69.8442 148.747 66.4504 148.711 65.5068C148.664 64.1793 146.895 61.7598 146.895 61.7598L141.465 54.8664C141.465 54.8664 139.928 53.2318 139.048 51.4197C138.167 49.606 136.297 51.8873 136.049 53.5185C135.799 55.1497 136.273 56.0096 136.273 56.0096L139.374 62.2171C139.374 62.2171 135.778 57.2569 134.662 55.264C134.096 54.2539 133.938 52.1142 133.76 49.7237C133.589 47.3946 133.399 44.8267 132.798 42.8303C131.578 38.7864 128.05 39.7983 127.439 41.6069C126.829 43.4139 126.966 55.3561 127.188 57.3474C127.363 58.9069 128.296 60.4323 129.348 62.1523C129.64 62.63 129.941 63.1214 130.238 63.6316C131.417 65.6655 132.695 67.0322 133.962 68.3836ZM178.225 71.7279C179.123 70.4311 180.077 69.4108 181.037 68.3836C182.305 67.0322 183.582 65.6655 184.763 63.6316C185.058 63.1197 185.36 62.63 185.651 62.154C186.703 60.434 187.637 58.9069 187.811 57.3474C188.033 55.3561 188.172 43.4139 187.561 41.6069C186.949 39.7983 183.421 38.7864 182.201 42.832C181.602 44.8284 181.412 47.3946 181.239 49.7237C181.061 52.1142 180.904 54.2539 180.338 55.264C179.221 57.2586 175.624 62.2171 175.624 62.2171L178.726 56.0096C178.726 56.0096 179.201 55.1497 178.952 53.5185C178.703 51.8873 176.83 49.606 175.953 51.4197C175.072 53.2318 173.535 54.8664 173.535 54.8664L168.105 61.7598C168.105 61.7598 166.336 64.1793 166.288 65.5068C166.254 66.4504 165.856 69.8442 165.631 71.7279V74.1491H178.225V71.7279ZM160.887 82.6805C160.887 83.1331 161.065 83.5671 161.383 83.8871C161.701 84.2071 162.132 84.3868 162.581 84.3868H176.136C176.585 84.3868 177.016 84.2071 177.334 83.8871C177.652 83.5671 177.83 83.1331 177.83 82.6805V79.268C177.83 78.8154 177.652 78.3814 177.334 78.0615C177.016 77.7415 176.585 77.5617 176.136 77.5617H162.581C162.132 77.5617 161.701 77.7415 161.383 78.0615C161.065 78.3814 160.887 78.8154 160.887 79.268V82.6805ZM154.113 82.6805C154.113 83.1331 153.934 83.5671 153.616 83.8871C153.299 84.2071 152.868 84.3868 152.418 84.3868H138.864C138.414 84.3868 137.983 84.2071 137.666 83.8871C137.348 83.5671 137.169 83.1331 137.169 82.6805V79.268C137.169 78.8154 137.348 78.3814 137.666 78.0615C137.983 77.7415 138.414 77.5617 138.864 77.5617H152.418C152.868 77.5617 153.299 77.7415 153.616 78.0615C153.934 78.3814 154.113 78.8154 154.113 79.268V82.6805Z" fill="white"/>
<path d="M173.443 33.784C173.443 33.4028 173.131 33.0908 172.75 33.0908H163.739C163.357 33.0908 163.045 32.7789 163.045 32.3977V23.3863C163.045 23.005 162.733 22.6931 162.352 22.6931H151.261C150.88 22.6931 150.568 23.005 150.568 23.3863V32.3977C150.568 32.7789 150.256 33.0908 149.875 33.0908H140.864C140.482 33.0908 140.17 33.4028 140.17 33.784V44.8749C140.17 45.2562 140.482 45.5681 140.864 45.5681H149.875C150.256 45.5681 150.568 45.88 150.568 46.2613V55.2727C150.568 55.6539 150.88 55.9658 151.261 55.9658H162.352C162.733 55.9658 163.045 55.6539 163.045 55.2727V46.2613C163.045 45.88 163.357 45.5681 163.739 45.5681H172.75C173.131 45.5681 173.443 45.2562 173.443 44.8749V33.784Z" fill="white"/>
<path d="M48.8454 132V124.584H41.8614V132H38.7654V114.984H41.8614V121.632H48.8454V114.984H51.9414V132H48.8454ZM66.3617 125.856C66.3457 125.968 66.3377 126.072 66.3377 126.168V126.696H57.9857C57.9857 127.176 58.0577 127.632 58.2017 128.064C58.3617 128.496 58.5937 128.856 58.8977 129.144C59.1217 129.352 59.3777 129.536 59.6657 129.696C59.9697 129.84 60.3297 129.912 60.7457 129.912C61.1777 129.912 61.5297 129.872 61.8017 129.792C62.0897 129.696 62.3457 129.536 62.5697 129.312C62.8577 129.024 63.0577 128.672 63.1697 128.256H66.0497C66.0177 128.624 65.8897 129.032 65.6657 129.48C65.4577 129.912 65.2337 130.272 64.9937 130.56C64.4657 131.184 63.8337 131.632 63.0977 131.904C62.3617 132.176 61.5937 132.312 60.7937 132.312C59.9297 132.312 59.1777 132.176 58.5377 131.904C57.9137 131.616 57.3537 131.24 56.8577 130.776C56.2337 130.168 55.7537 129.44 55.4177 128.592C55.0977 127.744 54.9377 126.808 54.9377 125.784C54.9377 124.776 55.0817 123.848 55.3697 123C55.6737 122.136 56.1297 121.4 56.7377 120.792C57.2017 120.312 57.7617 119.928 58.4177 119.64C59.0897 119.352 59.8577 119.208 60.7217 119.208C61.6497 119.208 62.5137 119.4 63.3137 119.784C64.1137 120.152 64.7697 120.728 65.2817 121.512C65.7457 122.2 66.0417 122.904 66.1697 123.624C66.2977 124.328 66.3617 125.072 66.3617 125.856ZM63.3617 124.512C63.3457 123.6 63.0897 122.872 62.5937 122.328C62.3857 122.104 62.1217 121.928 61.8017 121.8C61.4977 121.672 61.1297 121.608 60.6977 121.608C60.2337 121.608 59.8257 121.696 59.4737 121.872C59.1217 122.048 58.8337 122.28 58.6097 122.568C58.3857 122.84 58.2257 123.128 58.1297 123.432C58.0337 123.736 57.9777 124.096 57.9617 124.512H63.3617ZM80.0331 131.856C79.7771 131.968 79.5531 132.048 79.3611 132.096C79.1851 132.16 78.9131 132.192 78.5451 132.192C77.8891 132.192 77.3851 132.016 77.0331 131.664C76.6811 131.312 76.4811 130.904 76.4331 130.44C76.1451 130.952 75.6651 131.392 74.9931 131.76C74.3211 132.128 73.5371 132.312 72.6411 132.312C71.8891 132.312 71.2331 132.208 70.6731 132C70.1131 131.776 69.6411 131.488 69.2571 131.136C68.8891 130.768 68.6091 130.352 68.4171 129.888C68.2251 129.408 68.1291 128.912 68.1291 128.4C68.1291 127.808 68.2331 127.28 68.4411 126.816C68.6651 126.352 68.9691 125.952 69.3531 125.616C69.7371 125.28 70.1851 125.024 70.6971 124.848C71.2091 124.656 71.7611 124.536 72.3531 124.488L76.0251 124.224V123.456C76.0251 122.864 75.8811 122.392 75.5931 122.04C75.3211 121.672 74.7611 121.488 73.9131 121.488C73.2091 121.488 72.6571 121.64 72.2571 121.944C71.8731 122.248 71.6651 122.688 71.6331 123.264H68.7291C68.7771 122.56 68.9371 121.952 69.2091 121.44C69.4971 120.928 69.8731 120.512 70.3371 120.192C70.8011 119.856 71.3371 119.608 71.9451 119.448C72.5531 119.288 73.2091 119.208 73.9131 119.208C74.9851 119.208 75.9371 119.4 76.7691 119.784C77.6171 120.152 78.2251 120.808 78.5931 121.752C78.7531 122.152 78.8491 122.568 78.8811 123C78.9291 123.432 78.9531 123.856 78.9531 124.272V128.904C78.9531 129.192 79.0011 129.4 79.0971 129.528C79.2091 129.64 79.3931 129.696 79.6491 129.696C79.7771 129.696 79.8651 129.688 79.9131 129.672C79.9611 129.672 80.0011 129.664 80.0331 129.648V131.856ZM76.0251 126.456L72.8571 126.696C72.3931 126.728 71.9771 126.88 71.6091 127.152C71.2411 127.424 71.0571 127.816 71.0571 128.328C71.0571 128.808 71.2331 129.192 71.5851 129.48C71.9531 129.752 72.3691 129.888 72.8331 129.888C73.7771 129.888 74.5451 129.648 75.1371 129.168C75.7291 128.672 76.0251 127.96 76.0251 127.032V126.456ZM87.2936 131.976C86.9896 132.04 86.7656 132.08 86.6216 132.096C86.4936 132.128 86.2776 132.144 85.9736 132.144C84.9496 132.144 84.1256 131.88 83.5016 131.352C82.8776 130.824 82.5656 129.968 82.5656 128.784V114.648H85.5896V128.28C85.5896 128.648 85.6616 128.944 85.8056 129.168C85.9496 129.376 86.2776 129.48 86.7896 129.48C86.9176 129.48 87.0136 129.48 87.0776 129.48C87.1416 129.464 87.2136 129.456 87.2936 129.456V131.976ZM96.9358 131.832C96.0718 132.056 95.2158 132.168 94.3678 132.168C93.1038 132.168 92.1598 131.832 91.5358 131.16C90.9118 130.472 90.5998 129.528 90.5998 128.328V121.992H88.3198V119.52H90.5998V116.352L93.5998 115.608V119.52H96.7438V121.992H93.5998V128.064C93.5998 128.544 93.7118 128.896 93.9358 129.12C94.1598 129.328 94.5118 129.432 94.9918 129.432C95.3118 129.432 95.6078 129.424 95.8798 129.408C96.1678 129.392 96.5198 129.36 96.9358 129.312V131.832ZM107.121 132V124.296C107.121 123.576 106.977 123.008 106.689 122.592C106.401 122.176 105.857 121.968 105.057 121.968C104.609 121.968 104.217 122.08 103.881 122.304C103.561 122.512 103.297 122.784 103.089 123.12C102.881 123.456 102.729 123.832 102.633 124.248C102.537 124.648 102.489 125.04 102.489 125.424V132H99.4892V114.672H102.489V120.84C102.857 120.312 103.353 119.912 103.977 119.64C104.601 119.352 105.241 119.208 105.897 119.208C106.569 119.208 107.161 119.32 107.673 119.544C108.201 119.768 108.641 120.08 108.993 120.48C109.361 120.88 109.641 121.352 109.833 121.896C110.025 122.44 110.121 123.032 110.121 123.672V132H107.121ZM123.749 127.584C123.717 128.08 123.621 128.568 123.461 129.048C123.301 129.512 123.077 129.928 122.789 130.296C122.357 130.84 121.773 131.304 121.037 131.688C120.317 132.072 119.477 132.264 118.517 132.264C117.557 132.264 116.701 132.072 115.949 131.688C115.197 131.288 114.605 130.824 114.173 130.296C113.709 129.704 113.365 129.024 113.141 128.256C112.917 127.488 112.805 126.648 112.805 125.736C112.805 124.824 112.917 123.984 113.141 123.216C113.365 122.448 113.709 121.768 114.173 121.176C114.605 120.648 115.197 120.192 115.949 119.808C116.701 119.408 117.557 119.208 118.517 119.208C119.477 119.208 120.317 119.4 121.037 119.784C121.773 120.168 122.357 120.632 122.789 121.176C123.077 121.544 123.301 121.968 123.461 122.448C123.621 122.912 123.717 123.392 123.749 123.888H120.797C120.781 123.664 120.741 123.456 120.677 123.264C120.613 123.072 120.533 122.896 120.437 122.736C120.261 122.464 120.013 122.24 119.693 122.064C119.373 121.888 118.981 121.8 118.517 121.8C118.101 121.8 117.741 121.872 117.437 122.016C117.149 122.16 116.901 122.344 116.693 122.568C116.325 122.968 116.093 123.448 115.997 124.008C115.901 124.568 115.853 125.144 115.853 125.736C115.853 126.328 115.901 126.904 115.997 127.464C116.093 128.008 116.325 128.48 116.693 128.88C116.901 129.104 117.149 129.296 117.437 129.456C117.741 129.6 118.101 129.672 118.517 129.672C118.981 129.672 119.373 129.584 119.693 129.408C120.013 129.232 120.261 129.008 120.437 128.736C120.533 128.576 120.613 128.4 120.677 128.208C120.741 128.016 120.781 127.808 120.797 127.584H123.749ZM137.291 131.856C137.035 131.968 136.811 132.048 136.619 132.096C136.443 132.16 136.171 132.192 135.803 132.192C135.147 132.192 134.643 132.016 134.291 131.664C133.939 131.312 133.739 130.904 133.691 130.44C133.403 130.952 132.923 131.392 132.251 131.76C131.579 132.128 130.795 132.312 129.899 132.312C129.147 132.312 128.491 132.208 127.931 132C127.371 131.776 126.899 131.488 126.515 131.136C126.147 130.768 125.867 130.352 125.675 129.888C125.483 129.408 125.387 128.912 125.387 128.4C125.387 127.808 125.491 127.28 125.699 126.816C125.923 126.352 126.227 125.952 126.611 125.616C126.995 125.28 127.443 125.024 127.955 124.848C128.467 124.656 129.019 124.536 129.611 124.488L133.283 124.224V123.456C133.283 122.864 133.139 122.392 132.851 122.04C132.579 121.672 132.019 121.488 131.171 121.488C130.467 121.488 129.915 121.64 129.515 121.944C129.131 122.248 128.923 122.688 128.891 123.264H125.987C126.035 122.56 126.195 121.952 126.467 121.44C126.755 120.928 127.131 120.512 127.595 120.192C128.059 119.856 128.595 119.608 129.203 119.448C129.811 119.288 130.467 119.208 131.171 119.208C132.243 119.208 133.195 119.4 134.027 119.784C134.875 120.152 135.483 120.808 135.851 121.752C136.011 122.152 136.107 122.568 136.139 123C136.187 123.432 136.211 123.856 136.211 124.272V128.904C136.211 129.192 136.259 129.4 136.355 129.528C136.467 129.64 136.651 129.696 136.907 129.696C137.035 129.696 137.123 129.688 137.171 129.672C137.219 129.672 137.259 129.664 137.291 129.648V131.856ZM133.283 126.456L130.115 126.696C129.651 126.728 129.235 126.88 128.867 127.152C128.499 127.424 128.315 127.816 128.315 128.328C128.315 128.808 128.491 129.192 128.843 129.48C129.211 129.752 129.627 129.888 130.091 129.888C131.035 129.888 131.803 129.648 132.395 129.168C132.987 128.672 133.283 127.96 133.283 127.032V126.456ZM147.167 122.304C146.799 122.224 146.455 122.184 146.135 122.184C145.079 122.184 144.279 122.52 143.735 123.192C143.191 123.864 142.919 124.704 142.919 125.712V132H139.895V119.52H142.439L142.703 121.392C142.991 120.672 143.463 120.152 144.119 119.832C144.791 119.512 145.495 119.352 146.231 119.352C146.535 119.352 146.847 119.376 147.167 119.424V122.304ZM159.69 125.856C159.674 125.968 159.666 126.072 159.666 126.168V126.696H151.314C151.314 127.176 151.386 127.632 151.53 128.064C151.69 128.496 151.922 128.856 152.226 129.144C152.45 129.352 152.706 129.536 152.994 129.696C153.298 129.84 153.658 129.912 154.074 129.912C154.506 129.912 154.858 129.872 155.13 129.792C155.418 129.696 155.674 129.536 155.898 129.312C156.186 129.024 156.386 128.672 156.498 128.256H159.378C159.346 128.624 159.218 129.032 158.994 129.48C158.786 129.912 158.562 130.272 158.322 130.56C157.794 131.184 157.162 131.632 156.426 131.904C155.69 132.176 154.922 132.312 154.122 132.312C153.258 132.312 152.506 132.176 151.866 131.904C151.242 131.616 150.682 131.24 150.186 130.776C149.562 130.168 149.082 129.44 148.746 128.592C148.426 127.744 148.266 126.808 148.266 125.784C148.266 124.776 148.41 123.848 148.698 123C149.002 122.136 149.458 121.4 150.066 120.792C150.53 120.312 151.09 119.928 151.746 119.64C152.418 119.352 153.186 119.208 154.05 119.208C154.978 119.208 155.842 119.4 156.642 119.784C157.442 120.152 158.098 120.728 158.61 121.512C159.074 122.2 159.37 122.904 159.498 123.624C159.626 124.328 159.69 125.072 159.69 125.856ZM156.69 124.512C156.674 123.6 156.418 122.872 155.922 122.328C155.714 122.104 155.45 121.928 155.13 121.8C154.826 121.672 154.458 121.608 154.026 121.608C153.562 121.608 153.154 121.696 152.802 121.872C152.45 122.048 152.162 122.28 151.938 122.568C151.714 122.84 151.554 123.128 151.458 123.432C151.362 123.736 151.306 124.096 151.29 124.512H156.69ZM180.297 120.432C180.297 121.248 180.169 121.992 179.913 122.664C179.657 123.336 179.273 123.912 178.761 124.392C178.265 124.872 177.641 125.248 176.889 125.52C176.137 125.776 175.273 125.904 174.297 125.904H170.697V132H167.625V114.984H174.297C175.273 114.984 176.137 115.12 176.889 115.392C177.641 115.648 178.265 116.016 178.761 116.496C179.273 116.96 179.657 117.528 179.913 118.2C180.169 118.872 180.297 119.616 180.297 120.432ZM177.177 120.456C177.177 119.64 176.937 118.976 176.457 118.464C175.977 117.952 175.217 117.696 174.177 117.696H170.697V123.192H174.177C175.217 123.192 175.977 122.944 176.457 122.448C176.937 121.936 177.177 121.272 177.177 120.456ZM189.753 122.304C189.385 122.224 189.041 122.184 188.721 122.184C187.665 122.184 186.865 122.52 186.321 123.192C185.777 123.864 185.505 124.704 185.505 125.712V132H182.481V119.52H185.025L185.289 121.392C185.577 120.672 186.049 120.152 186.705 119.832C187.377 119.512 188.081 119.352 188.817 119.352C189.121 119.352 189.433 119.376 189.753 119.424V122.304ZM202.328 125.76C202.328 126.816 202.2 127.704 201.944 128.424C201.688 129.128 201.328 129.776 200.864 130.368C200.432 130.896 199.832 131.352 199.064 131.736C198.312 132.12 197.456 132.312 196.496 132.312C195.536 132.312 194.672 132.12 193.904 131.736C193.152 131.352 192.56 130.896 192.128 130.368C191.664 129.776 191.304 129.128 191.048 128.424C190.792 127.704 190.664 126.816 190.664 125.76C190.664 124.704 190.792 123.824 191.048 123.12C191.304 122.4 191.664 121.744 192.128 121.152C192.56 120.624 193.152 120.168 193.904 119.784C194.672 119.4 195.536 119.208 196.496 119.208C197.456 119.208 198.312 119.4 199.064 119.784C199.832 120.168 200.432 120.624 200.864 121.152C201.328 121.744 201.688 122.4 201.944 123.12C202.2 123.824 202.328 124.704 202.328 125.76ZM199.28 125.76C199.28 125.168 199.224 124.6 199.112 124.056C199 123.496 198.76 123.016 198.392 122.616C198.184 122.392 197.92 122.208 197.6 122.064C197.28 121.904 196.912 121.824 196.496 121.824C196.08 121.824 195.712 121.904 195.392 122.064C195.072 122.208 194.808 122.392 194.6 122.616C194.232 123.016 193.992 123.496 193.88 124.056C193.768 124.6 193.712 125.168 193.712 125.76C193.712 126.352 193.768 126.928 193.88 127.488C193.992 128.032 194.232 128.504 194.6 128.904C194.808 129.128 195.072 129.32 195.392 129.48C195.712 129.624 196.08 129.696 196.496 129.696C196.912 129.696 197.28 129.624 197.6 129.48C197.92 129.32 198.184 129.128 198.392 128.904C198.76 128.504 199 128.032 199.112 127.488C199.224 126.928 199.28 126.352 199.28 125.76ZM211.051 132H207.859L203.227 119.52H206.395L209.515 128.304L212.467 119.52H215.563L211.051 132ZM217.379 117.792V114.696H220.595V117.792H217.379ZM217.475 132V119.52H220.523V132H217.475ZM232.382 132L232.19 130.632C231.822 131.208 231.318 131.632 230.678 131.904C230.038 132.16 229.374 132.288 228.686 132.288C228.062 132.288 227.494 132.192 226.982 132C226.47 131.808 226.022 131.552 225.638 131.232C224.886 130.624 224.326 129.864 223.958 128.952C223.606 128.024 223.43 126.968 223.43 125.784C223.43 123.304 224.174 121.448 225.662 120.216C226.046 119.896 226.486 119.648 226.982 119.472C227.494 119.296 228.07 119.208 228.71 119.208C229.51 119.208 230.182 119.328 230.726 119.568C231.286 119.792 231.702 120.064 231.974 120.384V114.672H234.974V132H232.382ZM232.118 125.736C232.118 125.288 232.078 124.832 231.998 124.368C231.934 123.888 231.798 123.456 231.59 123.072C231.382 122.672 231.094 122.352 230.726 122.112C230.358 121.856 229.878 121.728 229.286 121.728C228.822 121.728 228.422 121.824 228.086 122.016C227.766 122.208 227.494 122.44 227.27 122.712C226.95 123.128 226.734 123.6 226.622 124.128C226.526 124.656 226.478 125.192 226.478 125.736C226.478 126.28 226.526 126.824 226.622 127.368C226.734 127.896 226.95 128.368 227.27 128.784C227.494 129.056 227.766 129.288 228.086 129.48C228.422 129.672 228.822 129.768 229.286 129.768C229.878 129.768 230.358 129.648 230.726 129.408C231.094 129.152 231.382 128.832 231.59 128.448C231.798 128.048 231.934 127.608 231.998 127.128C232.078 126.648 232.118 126.184 232.118 125.736ZM249.268 125.856C249.252 125.968 249.244 126.072 249.244 126.168V126.696H240.892C240.892 127.176 240.964 127.632 241.108 128.064C241.268 128.496 241.5 128.856 241.804 129.144C242.028 129.352 242.284 129.536 242.572 129.696C242.876 129.84 243.236 129.912 243.652 129.912C244.084 129.912 244.436 129.872 244.708 129.792C244.996 129.696 245.252 129.536 245.476 129.312C245.764 129.024 245.964 128.672 246.076 128.256H248.956C248.924 128.624 248.796 129.032 248.572 129.48C248.364 129.912 248.14 130.272 247.9 130.56C247.372 131.184 246.74 131.632 246.004 131.904C245.268 132.176 244.5 132.312 243.7 132.312C242.836 132.312 242.084 132.176 241.444 131.904C240.82 131.616 240.26 131.24 239.764 130.776C239.14 130.168 238.66 129.44 238.324 128.592C238.004 127.744 237.844 126.808 237.844 125.784C237.844 124.776 237.988 123.848 238.276 123C238.58 122.136 239.036 121.4 239.644 120.792C240.108 120.312 240.668 119.928 241.324 119.64C241.996 119.352 242.764 119.208 243.628 119.208C244.556 119.208 245.42 119.4 246.22 119.784C247.02 120.152 247.676 120.728 248.188 121.512C248.652 122.2 248.948 122.904 249.076 123.624C249.204 124.328 249.268 125.072 249.268 125.856ZM246.268 124.512C246.252 123.6 245.996 122.872 245.5 122.328C245.292 122.104 245.028 121.928 244.708 121.8C244.404 121.672 244.036 121.608 243.604 121.608C243.14 121.608 242.732 121.696 242.38 121.872C242.028 122.048 241.74 122.28 241.516 122.568C241.292 122.84 241.132 123.128 241.036 123.432C240.94 123.736 240.884 124.096 240.868 124.512H246.268ZM259.339 122.304C258.971 122.224 258.627 122.184 258.307 122.184C257.251 122.184 256.451 122.52 255.907 123.192C255.363 123.864 255.091 124.704 255.091 125.712V132H252.067V119.52H254.611L254.875 121.392C255.163 120.672 255.635 120.152 256.291 119.832C256.963 119.512 257.667 119.352 258.403 119.352C258.707 119.352 259.019 119.376 259.339 119.424V122.304ZM270.998 128.136C270.998 128.744 270.894 129.272 270.686 129.72C270.494 130.168 270.238 130.552 269.918 130.872C269.406 131.384 268.782 131.752 268.046 131.976C267.31 132.2 266.51 132.312 265.646 132.312C264.846 132.312 264.102 132.2 263.414 131.976C262.726 131.736 262.126 131.368 261.614 130.872C261.246 130.52 260.934 130.096 260.678 129.6C260.422 129.104 260.294 128.56 260.294 127.968H263.102C263.102 128.24 263.166 128.512 263.294 128.784C263.422 129.056 263.582 129.272 263.774 129.432C264.014 129.624 264.278 129.768 264.566 129.864C264.87 129.944 265.238 129.984 265.67 129.984C265.926 129.984 266.198 129.968 266.486 129.936C266.79 129.888 267.07 129.808 267.326 129.696C267.582 129.584 267.79 129.424 267.95 129.216C268.126 129.008 268.214 128.736 268.214 128.4C268.214 128.032 268.102 127.736 267.878 127.512C267.654 127.288 267.35 127.144 266.966 127.08C266.406 127 265.83 126.936 265.238 126.888C264.646 126.824 264.07 126.728 263.51 126.6C263.078 126.504 262.686 126.352 262.334 126.144C261.998 125.936 261.702 125.688 261.446 125.4C261.19 125.096 260.99 124.768 260.846 124.416C260.718 124.048 260.654 123.664 260.654 123.264C260.654 122.624 260.774 122.08 261.014 121.632C261.254 121.168 261.558 120.776 261.926 120.456C262.39 120.056 262.942 119.752 263.582 119.544C264.222 119.32 264.934 119.208 265.718 119.208C266.47 119.208 267.19 119.328 267.878 119.568C268.582 119.808 269.166 120.176 269.63 120.672C269.966 121.04 270.23 121.448 270.422 121.896C270.63 122.328 270.734 122.776 270.734 123.24H267.878C267.878 123 267.83 122.784 267.734 122.592C267.638 122.4 267.518 122.224 267.374 122.064C267.198 121.888 266.958 121.752 266.654 121.656C266.366 121.544 266.062 121.488 265.742 121.488C265.518 121.488 265.302 121.496 265.094 121.512C264.886 121.528 264.67 121.584 264.446 121.68C264.174 121.792 263.942 121.96 263.75 122.184C263.574 122.408 263.486 122.68 263.486 123C263.486 123.448 263.638 123.76 263.942 123.936C264.262 124.096 264.59 124.2 264.926 124.248C265.214 124.28 265.454 124.312 265.646 124.344C265.838 124.36 266.03 124.384 266.222 124.416C266.414 124.432 266.614 124.456 266.822 124.488C267.03 124.52 267.286 124.56 267.59 124.608C268.582 124.768 269.398 125.152 270.038 125.76C270.678 126.352 270.998 127.144 270.998 128.136ZM277.156 131.712C277.156 132.752 276.972 133.624 276.604 134.328C276.252 135.048 275.548 135.632 274.492 136.08L273.652 134.688C274.004 134.528 274.284 134.36 274.492 134.184C274.716 134.008 274.884 133.808 274.996 133.584C275.124 133.376 275.204 133.136 275.236 132.864C275.284 132.608 275.308 132.32 275.308 132H273.508V128.256H277.156V131.712ZM64.4856 153.48C64.4856 154.072 64.4616 154.672 64.4136 155.28C64.3816 155.872 64.2936 156.456 64.1496 157.032C64.0056 157.608 63.7976 158.168 63.5256 158.712C63.2696 159.24 62.9256 159.728 62.4936 160.176C61.9336 160.768 61.2376 161.224 60.4056 161.544C59.5896 161.848 58.6936 162 57.7176 162H51.0936V144.984H57.7176C58.6936 144.984 59.5896 145.144 60.4056 145.464C61.2376 145.768 61.9336 146.216 62.4936 146.808C62.9256 147.256 63.2696 147.744 63.5256 148.272C63.7976 148.8 64.0056 149.352 64.1496 149.928C64.2936 150.504 64.3816 151.096 64.4136 151.704C64.4616 152.296 64.4856 152.888 64.4856 153.48ZM61.3416 153.48C61.3416 153.096 61.3336 152.688 61.3176 152.256C61.3016 151.824 61.2536 151.4 61.1736 150.984C61.0936 150.552 60.9736 150.144 60.8136 149.76C60.6536 149.376 60.4216 149.032 60.1176 148.728C59.8296 148.44 59.4776 148.208 59.0616 148.032C58.6616 147.856 58.2136 147.768 57.7176 147.768H54.1896V159.216H57.7176C58.2136 159.216 58.6616 159.128 59.0616 158.952C59.4776 158.776 59.8296 158.544 60.1176 158.256C60.4216 157.952 60.6536 157.608 60.8136 157.224C60.9736 156.84 61.0936 156.44 61.1736 156.024C61.2536 155.592 61.3016 155.16 61.3176 154.728C61.3336 154.28 61.3416 153.864 61.3416 153.48ZM78.1798 155.76C78.1798 156.816 78.0518 157.704 77.7958 158.424C77.5398 159.128 77.1798 159.776 76.7158 160.368C76.2838 160.896 75.6838 161.352 74.9158 161.736C74.1638 162.12 73.3078 162.312 72.3478 162.312C71.3878 162.312 70.5238 162.12 69.7558 161.736C69.0038 161.352 68.4118 160.896 67.9798 160.368C67.5158 159.776 67.1558 159.128 66.8998 158.424C66.6438 157.704 66.5158 156.816 66.5158 155.76C66.5158 154.704 66.6438 153.824 66.8998 153.12C67.1558 152.4 67.5158 151.744 67.9798 151.152C68.4118 150.624 69.0038 150.168 69.7558 149.784C70.5238 149.4 71.3878 149.208 72.3478 149.208C73.3078 149.208 74.1638 149.4 74.9158 149.784C75.6838 150.168 76.2838 150.624 76.7158 151.152C77.1798 151.744 77.5398 152.4 77.7958 153.12C78.0518 153.824 78.1798 154.704 78.1798 155.76ZM75.1318 155.76C75.1318 155.168 75.0758 154.6 74.9638 154.056C74.8518 153.496 74.6118 153.016 74.2438 152.616C74.0358 152.392 73.7718 152.208 73.4518 152.064C73.1318 151.904 72.7638 151.824 72.3478 151.824C71.9318 151.824 71.5638 151.904 71.2438 152.064C70.9238 152.208 70.6598 152.392 70.4518 152.616C70.0838 153.016 69.8438 153.496 69.7318 154.056C69.6198 154.6 69.5638 155.168 69.5638 155.76C69.5638 156.352 69.6198 156.928 69.7318 157.488C69.8438 158.032 70.0838 158.504 70.4518 158.904C70.6598 159.128 70.9238 159.32 71.2438 159.48C71.5638 159.624 71.9318 159.696 72.3478 159.696C72.7638 159.696 73.1318 159.624 73.4518 159.48C73.7718 159.32 74.0358 159.128 74.2438 158.904C74.6118 158.504 74.8518 158.032 74.9638 157.488C75.0758 156.928 75.1318 156.352 75.1318 155.76ZM91.1473 157.584C91.1153 158.08 91.0193 158.568 90.8593 159.048C90.6993 159.512 90.4753 159.928 90.1873 160.296C89.7553 160.84 89.1713 161.304 88.4353 161.688C87.7153 162.072 86.8753 162.264 85.9153 162.264C84.9553 162.264 84.0993 162.072 83.3473 161.688C82.5953 161.288 82.0033 160.824 81.5713 160.296C81.1073 159.704 80.7633 159.024 80.5393 158.256C80.3153 157.488 80.2033 156.648 80.2033 155.736C80.2033 154.824 80.3153 153.984 80.5393 153.216C80.7633 152.448 81.1073 151.768 81.5713 151.176C82.0033 150.648 82.5953 150.192 83.3473 149.808C84.0993 149.408 84.9553 149.208 85.9153 149.208C86.8753 149.208 87.7153 149.4 88.4353 149.784C89.1713 150.168 89.7553 150.632 90.1873 151.176C90.4753 151.544 90.6993 151.968 90.8593 152.448C91.0193 152.912 91.1153 153.392 91.1473 153.888H88.1953C88.1793 153.664 88.1393 153.456 88.0753 153.264C88.0113 153.072 87.9313 152.896 87.8353 152.736C87.6593 152.464 87.4113 152.24 87.0913 152.064C86.7713 151.888 86.3793 151.8 85.9153 151.8C85.4993 151.8 85.1393 151.872 84.8353 152.016C84.5473 152.16 84.2993 152.344 84.0913 152.568C83.7233 152.968 83.4913 153.448 83.3953 154.008C83.2993 154.568 83.2513 155.144 83.2513 155.736C83.2513 156.328 83.2993 156.904 83.3953 157.464C83.4913 158.008 83.7233 158.48 84.0913 158.88C84.2993 159.104 84.5473 159.296 84.8353 159.456C85.1393 159.6 85.4993 159.672 85.9153 159.672C86.3793 159.672 86.7713 159.584 87.0913 159.408C87.4113 159.232 87.6593 159.008 87.8353 158.736C87.9313 158.576 88.0113 158.4 88.0753 158.208C88.1393 158.016 88.1793 157.808 88.1953 157.584H91.1473ZM100.756 161.832C99.8921 162.056 99.0361 162.168 98.1881 162.168C96.9241 162.168 95.9801 161.832 95.3561 161.16C94.7321 160.472 94.4201 159.528 94.4201 158.328V151.992H92.1401V149.52H94.4201V146.352L97.4201 145.608V149.52H100.564V151.992H97.4201V158.064C97.4201 158.544 97.5321 158.896 97.7561 159.12C97.9801 159.328 98.3321 159.432 98.8121 159.432C99.1321 159.432 99.4281 159.424 99.7001 159.408C99.9881 159.392 100.34 159.36 100.756 159.312V161.832ZM113.875 155.76C113.875 156.816 113.747 157.704 113.491 158.424C113.235 159.128 112.875 159.776 112.411 160.368C111.979 160.896 111.379 161.352 110.611 161.736C109.859 162.12 109.003 162.312 108.043 162.312C107.083 162.312 106.219 162.12 105.451 161.736C104.699 161.352 104.107 160.896 103.675 160.368C103.211 159.776 102.851 159.128 102.595 158.424C102.339 157.704 102.211 156.816 102.211 155.76C102.211 154.704 102.339 153.824 102.595 153.12C102.851 152.4 103.211 151.744 103.675 151.152C104.107 150.624 104.699 150.168 105.451 149.784C106.219 149.4 107.083 149.208 108.043 149.208C109.003 149.208 109.859 149.4 110.611 149.784C111.379 150.168 111.979 150.624 112.411 151.152C112.875 151.744 113.235 152.4 113.491 153.12C113.747 153.824 113.875 154.704 113.875 155.76ZM110.827 155.76C110.827 155.168 110.771 154.6 110.659 154.056C110.547 153.496 110.307 153.016 109.939 152.616C109.731 152.392 109.467 152.208 109.147 152.064C108.827 151.904 108.459 151.824 108.043 151.824C107.627 151.824 107.259 151.904 106.939 152.064C106.619 152.208 106.355 152.392 106.147 152.616C105.779 153.016 105.539 153.496 105.427 154.056C105.315 154.6 105.259 155.168 105.259 155.76C105.259 156.352 105.315 156.928 105.427 157.488C105.539 158.032 105.779 158.504 106.147 158.904C106.355 159.128 106.619 159.32 106.939 159.48C107.259 159.624 107.627 159.696 108.043 159.696C108.459 159.696 108.827 159.624 109.147 159.48C109.467 159.32 109.731 159.128 109.939 158.904C110.307 158.504 110.547 158.032 110.659 157.488C110.771 156.928 110.827 156.352 110.827 155.76ZM124.035 152.304C123.667 152.224 123.323 152.184 123.003 152.184C121.947 152.184 121.147 152.52 120.603 153.192C120.059 153.864 119.787 154.704 119.787 155.712V162H116.763V149.52H119.307L119.571 151.392C119.859 150.672 120.331 150.152 120.987 149.832C121.659 149.512 122.363 149.352 123.099 149.352C123.403 149.352 123.715 149.376 124.035 149.424V152.304ZM135.693 158.136C135.693 158.744 135.589 159.272 135.381 159.72C135.189 160.168 134.933 160.552 134.613 160.872C134.101 161.384 133.477 161.752 132.741 161.976C132.005 162.2 131.205 162.312 130.341 162.312C129.541 162.312 128.797 162.2 128.109 161.976C127.421 161.736 126.821 161.368 126.309 160.872C125.941 160.52 125.629 160.096 125.373 159.6C125.117 159.104 124.989 158.56 124.989 157.968H127.797C127.797 158.24 127.861 158.512 127.989 158.784C128.117 159.056 128.277 159.272 128.469 159.432C128.709 159.624 128.973 159.768 129.261 159.864C129.565 159.944 129.933 159.984 130.365 159.984C130.621 159.984 130.893 159.968 131.181 159.936C131.485 159.888 131.765 159.808 132.021 159.696C132.277 159.584 132.485 159.424 132.645 159.216C132.821 159.008 132.909 158.736 132.909 158.4C132.909 158.032 132.797 157.736 132.573 157.512C132.349 157.288 132.045 157.144 131.661 157.08C131.101 157 130.525 156.936 129.933 156.888C129.341 156.824 128.765 156.728 128.205 156.6C127.773 156.504 127.381 156.352 127.029 156.144C126.693 155.936 126.397 155.688 126.141 155.4C125.885 155.096 125.685 154.768 125.541 154.416C125.413 154.048 125.349 153.664 125.349 153.264C125.349 152.624 125.469 152.08 125.709 151.632C125.949 151.168 126.253 150.776 126.621 150.456C127.085 150.056 127.637 149.752 128.277 149.544C128.917 149.32 129.629 149.208 130.413 149.208C131.165 149.208 131.885 149.328 132.573 149.568C133.277 149.808 133.861 150.176 134.325 150.672C134.661 151.04 134.925 151.448 135.117 151.896C135.325 152.328 135.429 152.776 135.429 153.24H132.573C132.573 153 132.525 152.784 132.429 152.592C132.333 152.4 132.213 152.224 132.069 152.064C131.893 151.888 131.653 151.752 131.349 151.656C131.061 151.544 130.757 151.488 130.437 151.488C130.213 151.488 129.997 151.496 129.789 151.512C129.581 151.528 129.365 151.584 129.141 151.68C128.869 151.792 128.637 151.96 128.445 152.184C128.269 152.408 128.181 152.68 128.181 153C128.181 153.448 128.333 153.76 128.637 153.936C128.957 154.096 129.285 154.2 129.621 154.248C129.909 154.28 130.149 154.312 130.341 154.344C130.533 154.36 130.725 154.384 130.917 154.416C131.109 154.432 131.309 154.456 131.517 154.488C131.725 154.52 131.981 154.56 132.285 154.608C133.277 154.768 134.093 155.152 134.733 155.76C135.373 156.352 135.693 157.144 135.693 158.136ZM141.851 161.712C141.851 162.752 141.667 163.624 141.299 164.328C140.947 165.048 140.243 165.632 139.187 166.08L138.347 164.688C138.699 164.528 138.979 164.36 139.187 164.184C139.411 164.008 139.579 163.808 139.691 163.584C139.819 163.376 139.899 163.136 139.931 162.864C139.979 162.608 140.003 162.32 140.003 162H138.203V158.256H141.851V161.712ZM161.752 156.576C161.672 157.248 161.504 157.912 161.248 158.568C160.992 159.208 160.616 159.784 160.12 160.296C159.48 160.952 158.736 161.456 157.888 161.808C157.04 162.144 156.16 162.312 155.248 162.312C154.336 162.312 153.464 162.16 152.632 161.856C151.816 161.552 151.08 161.072 150.424 160.416C149.96 159.952 149.584 159.464 149.296 158.952C149.024 158.44 148.816 157.896 148.672 157.32C148.528 156.744 148.432 156.144 148.384 155.52C148.336 154.88 148.312 154.208 148.312 153.504C148.312 152.816 148.336 152.152 148.384 151.512C148.432 150.872 148.528 150.264 148.672 149.688C148.816 149.112 149.024 148.568 149.296 148.056C149.584 147.544 149.96 147.056 150.424 146.592C151.08 145.936 151.816 145.456 152.632 145.152C153.464 144.832 154.336 144.672 155.248 144.672C156.16 144.672 157.04 144.84 157.888 145.176C158.736 145.496 159.48 145.984 160.12 146.64C160.616 147.152 160.992 147.728 161.248 148.368C161.504 149.008 161.672 149.664 161.752 150.336H158.584C158.552 149.968 158.472 149.648 158.344 149.376C158.216 149.088 158.04 148.808 157.816 148.536C157.544 148.184 157.176 147.92 156.712 147.744C156.264 147.568 155.776 147.48 155.248 147.48C154.752 147.48 154.272 147.576 153.808 147.768C153.36 147.96 152.968 148.24 152.632 148.608C152.344 148.912 152.12 149.264 151.96 149.664C151.8 150.064 151.68 150.488 151.6 150.936C151.536 151.368 151.496 151.808 151.48 152.256C151.464 152.704 151.456 153.12 151.456 153.504C151.456 153.888 151.464 154.304 151.48 154.752C151.496 155.2 151.536 155.648 151.6 156.096C151.68 156.528 151.8 156.944 151.96 157.344C152.12 157.744 152.344 158.096 152.632 158.4C152.968 158.768 153.36 159.048 153.808 159.24C154.272 159.432 154.752 159.528 155.248 159.528C155.776 159.528 156.264 159.44 156.712 159.264C157.176 159.072 157.544 158.8 157.816 158.448C158.264 157.904 158.52 157.28 158.584 156.576H161.752ZM175.166 161.856C174.91 161.968 174.686 162.048 174.494 162.096C174.318 162.16 174.046 162.192 173.678 162.192C173.022 162.192 172.518 162.016 172.166 161.664C171.814 161.312 171.614 160.904 171.566 160.44C171.278 160.952 170.798 161.392 170.126 161.76C169.454 162.128 168.67 162.312 167.774 162.312C167.022 162.312 166.366 162.208 165.806 162C165.246 161.776 164.774 161.488 164.39 161.136C164.022 160.768 163.742 160.352 163.55 159.888C163.358 159.408 163.262 158.912 163.262 158.4C163.262 157.808 163.366 157.28 163.574 156.816C163.798 156.352 164.102 155.952 164.486 155.616C164.87 155.28 165.318 155.024 165.83 154.848C166.342 154.656 166.894 154.536 167.486 154.488L171.158 154.224V153.456C171.158 152.864 171.014 152.392 170.726 152.04C170.454 151.672 169.894 151.488 169.046 151.488C168.342 151.488 167.79 151.64 167.39 151.944C167.006 152.248 166.798 152.688 166.766 153.264H163.862C163.91 152.56 164.07 151.952 164.342 151.44C164.63 150.928 165.006 150.512 165.47 150.192C165.934 149.856 166.47 149.608 167.078 149.448C167.686 149.288 168.342 149.208 169.046 149.208C170.118 149.208 171.07 149.4 171.902 149.784C172.75 150.152 173.358 150.808 173.726 151.752C173.886 152.152 173.982 152.568 174.014 153C174.062 153.432 174.086 153.856 174.086 154.272V158.904C174.086 159.192 174.134 159.4 174.23 159.528C174.342 159.64 174.526 159.696 174.782 159.696C174.91 159.696 174.998 159.688 175.046 159.672C175.094 159.672 175.134 159.664 175.166 159.648V161.856ZM171.158 156.456L167.99 156.696C167.526 156.728 167.11 156.88 166.742 157.152C166.374 157.424 166.19 157.816 166.19 158.328C166.19 158.808 166.366 159.192 166.718 159.48C167.086 159.752 167.502 159.888 167.966 159.888C168.91 159.888 169.678 159.648 170.27 159.168C170.862 158.672 171.158 157.96 171.158 157.032V156.456ZM185.042 152.304C184.674 152.224 184.33 152.184 184.01 152.184C182.954 152.184 182.154 152.52 181.61 153.192C181.066 153.864 180.794 154.704 180.794 155.712V162H177.77V149.52H180.314L180.578 151.392C180.866 150.672 181.338 150.152 181.994 149.832C182.666 149.512 183.37 149.352 184.106 149.352C184.41 149.352 184.722 149.376 185.042 149.424V152.304ZM197.565 155.856C197.549 155.968 197.541 156.072 197.541 156.168V156.696H189.189C189.189 157.176 189.261 157.632 189.405 158.064C189.565 158.496 189.797 158.856 190.101 159.144C190.325 159.352 190.581 159.536 190.869 159.696C191.173 159.84 191.533 159.912 191.949 159.912C192.381 159.912 192.733 159.872 193.005 159.792C193.293 159.696 193.549 159.536 193.773 159.312C194.061 159.024 194.261 158.672 194.373 158.256H197.253C197.221 158.624 197.093 159.032 196.869 159.48C196.661 159.912 196.437 160.272 196.197 160.56C195.669 161.184 195.037 161.632 194.301 161.904C193.565 162.176 192.797 162.312 191.997 162.312C191.133 162.312 190.381 162.176 189.741 161.904C189.117 161.616 188.557 161.24 188.061 160.776C187.437 160.168 186.957 159.44 186.621 158.592C186.301 157.744 186.141 156.808 186.141 155.784C186.141 154.776 186.285 153.848 186.573 153C186.877 152.136 187.333 151.4 187.941 150.792C188.405 150.312 188.965 149.928 189.621 149.64C190.293 149.352 191.061 149.208 191.925 149.208C192.853 149.208 193.717 149.4 194.517 149.784C195.317 150.152 195.973 150.728 196.485 151.512C196.949 152.2 197.245 152.904 197.373 153.624C197.501 154.328 197.565 155.072 197.565 155.856ZM194.565 154.512C194.549 153.6 194.293 152.872 193.797 152.328C193.589 152.104 193.325 151.928 193.005 151.8C192.701 151.672 192.333 151.608 191.901 151.608C191.437 151.608 191.029 151.696 190.677 151.872C190.325 152.048 190.037 152.28 189.813 152.568C189.589 152.84 189.429 153.128 189.333 153.432C189.237 153.736 189.181 154.096 189.165 154.512H194.565ZM211.356 163.656C211.356 164.472 211.172 165.152 210.804 165.696C210.436 166.24 209.964 166.664 209.388 166.968C208.812 167.288 208.164 167.512 207.444 167.64C206.724 167.768 206.02 167.832 205.332 167.832C204.564 167.832 203.796 167.776 203.028 167.664C202.276 167.552 201.572 167.264 200.916 166.8C200.436 166.464 200.06 166.072 199.788 165.624C199.532 165.176 199.404 164.656 199.404 164.064C199.404 163.52 199.532 163.016 199.788 162.552C200.044 162.104 200.412 161.76 200.892 161.52C200.492 161.296 200.18 160.992 199.956 160.608C199.748 160.208 199.644 159.8 199.644 159.384C199.644 158.312 200.14 157.472 201.132 156.864C200.748 156.48 200.444 156.032 200.22 155.52C199.996 155.008 199.884 154.432 199.884 153.792C199.884 153.056 200.02 152.4 200.292 151.824C200.564 151.248 200.932 150.768 201.396 150.384C201.86 150 202.396 149.712 203.004 149.52C203.628 149.312 204.292 149.208 204.996 149.208C205.508 149.208 206.004 149.28 206.484 149.424C206.964 149.552 207.412 149.736 207.828 149.976C208.1 149.432 208.46 149.04 208.908 148.8C209.356 148.544 209.844 148.416 210.372 148.416C210.468 148.416 210.604 148.416 210.78 148.416C210.956 148.416 211.092 148.432 211.188 148.464V150.792L210.948 150.768C210.596 150.768 210.276 150.824 209.988 150.936C209.716 151.048 209.532 151.256 209.436 151.56C209.868 152.264 210.084 153.016 210.084 153.816C210.084 154.536 209.94 155.176 209.652 155.736C209.38 156.296 209.012 156.768 208.548 157.152C208.084 157.536 207.54 157.832 206.916 158.04C206.308 158.248 205.668 158.352 204.996 158.352C204.292 158.352 203.62 158.24 202.98 158.016C202.836 158.096 202.692 158.216 202.548 158.376C202.42 158.52 202.356 158.696 202.356 158.904C202.356 159.272 202.5 159.52 202.788 159.648C203.092 159.76 203.404 159.816 203.724 159.816H205.788C206.092 159.816 206.42 159.824 206.772 159.84C207.124 159.84 207.476 159.872 207.828 159.936C208.196 159.984 208.548 160.064 208.884 160.176C209.236 160.288 209.556 160.448 209.844 160.656C210.388 161.024 210.772 161.464 210.996 161.976C211.236 162.488 211.356 163.048 211.356 163.656ZM207.204 153.792C207.204 153.12 207.004 152.568 206.604 152.136C206.22 151.688 205.684 151.464 204.996 151.464C204.308 151.464 203.764 151.688 203.364 152.136C202.98 152.568 202.788 153.12 202.788 153.792C202.788 154.464 202.98 155.016 203.364 155.448C203.764 155.88 204.308 156.096 204.996 156.096C205.684 156.096 206.22 155.88 206.604 155.448C207.004 155.016 207.204 154.464 207.204 153.792ZM208.524 163.728C208.524 163.344 208.42 163.048 208.212 162.84C208.004 162.632 207.748 162.48 207.444 162.384C207.156 162.288 206.836 162.232 206.484 162.216C206.148 162.2 205.836 162.192 205.548 162.192H203.196C202.876 162.288 202.604 162.464 202.38 162.72C202.172 162.992 202.068 163.328 202.068 163.728C202.068 164.128 202.172 164.44 202.38 164.664C202.604 164.888 202.876 165.056 203.196 165.168C203.516 165.296 203.86 165.376 204.228 165.408C204.596 165.44 204.924 165.456 205.212 165.456C205.516 165.456 205.86 165.44 206.244 165.408C206.628 165.392 206.988 165.328 207.324 165.216C207.66 165.104 207.94 164.928 208.164 164.688C208.404 164.464 208.524 164.144 208.524 163.728ZM213.535 147.792V144.696H216.751V147.792H213.535ZM213.631 162V149.52H216.679V162H213.631ZM226.402 162H223.21L218.578 149.52H221.746L224.866 158.304L227.818 149.52H230.914L226.402 162ZM243.221 155.856C243.205 155.968 243.197 156.072 243.197 156.168V156.696H234.845C234.845 157.176 234.917 157.632 235.061 158.064C235.221 158.496 235.453 158.856 235.757 159.144C235.981 159.352 236.237 159.536 236.525 159.696C236.829 159.84 237.189 159.912 237.605 159.912C238.037 159.912 238.389 159.872 238.661 159.792C238.949 159.696 239.205 159.536 239.429 159.312C239.717 159.024 239.917 158.672 240.029 158.256H242.909C242.877 158.624 242.749 159.032 242.525 159.48C242.317 159.912 242.093 160.272 241.853 160.56C241.325 161.184 240.693 161.632 239.957 161.904C239.221 162.176 238.453 162.312 237.653 162.312C236.789 162.312 236.037 162.176 235.397 161.904C234.773 161.616 234.213 161.24 233.717 160.776C233.093 160.168 232.613 159.44 232.277 158.592C231.957 157.744 231.797 156.808 231.797 155.784C231.797 154.776 231.941 153.848 232.229 153C232.533 152.136 232.989 151.4 233.597 150.792C234.061 150.312 234.621 149.928 235.277 149.64C235.949 149.352 236.717 149.208 237.581 149.208C238.509 149.208 239.373 149.4 240.173 149.784C240.973 150.152 241.629 150.728 242.141 151.512C242.605 152.2 242.901 152.904 243.029 153.624C243.157 154.328 243.221 155.072 243.221 155.856ZM240.221 154.512C240.205 153.6 239.949 152.872 239.453 152.328C239.245 152.104 238.981 151.928 238.661 151.8C238.357 151.672 237.989 151.608 237.557 151.608C237.093 151.608 236.685 151.696 236.333 151.872C235.981 152.048 235.693 152.28 235.469 152.568C235.245 152.84 235.085 153.128 234.989 153.432C234.893 153.736 234.837 154.096 234.821 154.512H240.221ZM253.292 152.304C252.924 152.224 252.58 152.184 252.26 152.184C251.204 152.184 250.404 152.52 249.86 153.192C249.316 153.864 249.044 154.704 249.044 155.712V162H246.02V149.52H248.564L248.828 151.392C249.116 150.672 249.588 150.152 250.244 149.832C250.916 149.512 251.62 149.352 252.356 149.352C252.66 149.352 252.972 149.376 253.292 149.424V152.304ZM264.951 158.136C264.951 158.744 264.847 159.272 264.639 159.72C264.447 160.168 264.191 160.552 263.871 160.872C263.359 161.384 262.735 161.752 261.999 161.976C261.263 162.2 260.463 162.312 259.599 162.312C258.799 162.312 258.055 162.2 257.367 161.976C256.679 161.736 256.079 161.368 255.567 160.872C255.199 160.52 254.887 160.096 254.631 159.6C254.375 159.104 254.247 158.56 254.247 157.968H257.055C257.055 158.24 257.119 158.512 257.247 158.784C257.375 159.056 257.535 159.272 257.727 159.432C257.967 159.624 258.231 159.768 258.519 159.864C258.823 159.944 259.191 159.984 259.623 159.984C259.879 159.984 260.151 159.968 260.439 159.936C260.743 159.888 261.023 159.808 261.279 159.696C261.535 159.584 261.743 159.424 261.903 159.216C262.079 159.008 262.167 158.736 262.167 158.4C262.167 158.032 262.055 157.736 261.831 157.512C261.607 157.288 261.303 157.144 260.919 157.08C260.359 157 259.783 156.936 259.191 156.888C258.599 156.824 258.023 156.728 257.463 156.6C257.031 156.504 256.639 156.352 256.287 156.144C255.951 155.936 255.655 155.688 255.399 155.4C255.143 155.096 254.943 154.768 254.799 154.416C254.671 154.048 254.607 153.664 254.607 153.264C254.607 152.624 254.727 152.08 254.967 151.632C255.207 151.168 255.511 150.776 255.879 150.456C256.343 150.056 256.895 149.752 257.535 149.544C258.175 149.32 258.887 149.208 259.671 149.208C260.423 149.208 261.143 149.328 261.831 149.568C262.535 149.808 263.119 150.176 263.583 150.672C263.919 151.04 264.183 151.448 264.375 151.896C264.583 152.328 264.687 152.776 264.687 153.24H261.831C261.831 153 261.783 152.784 261.687 152.592C261.591 152.4 261.471 152.224 261.327 152.064C261.151 151.888 260.911 151.752 260.607 151.656C260.319 151.544 260.015 151.488 259.695 151.488C259.471 151.488 259.255 151.496 259.047 151.512C258.839 151.528 258.623 151.584 258.399 151.68C258.127 151.792 257.895 151.96 257.703 152.184C257.527 152.408 257.439 152.68 257.439 153C257.439 153.448 257.591 153.76 257.895 153.936C258.215 154.096 258.543 154.2 258.879 154.248C259.167 154.28 259.407 154.312 259.599 154.344C259.791 154.36 259.983 154.384 260.175 154.416C260.367 154.432 260.567 154.456 260.775 154.488C260.983 154.52 261.239 154.56 261.543 154.608C262.535 154.768 263.351 155.152 263.991 155.76C264.631 156.352 264.951 157.144 264.951 158.136Z" fill="#E4F7FF"/>
</svg>
