<svg width="48" height="48" viewBox="0 0 48 48" fill="none" xmlns="http://www.w3.org/2000/svg">
<circle cx="24" cy="24" r="24" fill="url(#paint0_linear_177_771)"/>
<path d="M24.5003 16.2895L12.7393 26.8281C12.6521 26.9079 12.5407 26.9451 12.4449 27.0113V37.125C12.4449 37.3571 12.5356 37.5796 12.6971 37.7437C12.8586 37.9078 13.0776 38 13.306 38H35.6945C35.9229 38 36.1419 37.9078 36.3034 37.7437C36.4649 37.5796 36.5556 37.3571 36.5556 37.125V27.0135C36.4641 26.9501 36.3554 26.914 36.2725 26.8385L24.5003 16.2895ZM29.6668 30.5626C29.6668 30.6787 29.6215 30.79 29.5407 30.872C29.46 30.954 29.3505 31.0001 29.2363 31.0001H26.2224V34.0626C26.2224 34.1786 26.1771 34.2899 26.0963 34.3719C26.0156 34.454 25.9061 34.5001 25.7919 34.5001H23.2086C23.0944 34.5001 22.9849 34.454 22.9042 34.3719C22.8234 34.2899 22.7781 34.1786 22.7781 34.0626V31.0001H19.7642C19.65 31.0001 19.5405 30.954 19.4598 30.872C19.379 30.79 19.3337 30.6787 19.3337 30.5626V27.9377C19.3337 27.8217 19.379 27.7104 19.4598 27.6283C19.5405 27.5463 19.65 27.5002 19.7642 27.5002H22.7781V24.4378C22.7781 24.3217 22.8234 24.2105 22.9042 24.1284C22.9849 24.0464 23.0944 24.0003 23.2086 24.0003H25.7919C25.9061 24.0003 26.0156 24.0464 26.0963 24.1284C26.1771 24.2105 26.2224 24.3217 26.2224 24.4378V27.5002H29.2363C29.3505 27.5002 29.46 27.5463 29.5407 27.6283C29.6215 27.7104 29.6668 27.8217 29.6668 27.9377V30.5626ZM39.7142 22.9219L25.9399 10.5627C25.5456 10.2005 25.0331 10 24.5016 10C23.9701 10 23.4576 10.2005 23.0633 10.5627L9.28577 22.9219C9.20161 22.9986 9.13317 23.0915 9.08434 23.1952C9.03552 23.2989 9.00728 23.4113 9.00123 23.5261C8.99518 23.6409 9.01145 23.7557 9.0491 23.8641C9.08675 23.9725 9.14504 24.0723 9.22065 24.1578L10.3729 25.4604C10.4485 25.5459 10.5399 25.6155 10.6419 25.6651C10.744 25.7147 10.8546 25.7434 10.9676 25.7495C11.0805 25.7557 11.1935 25.7391 11.3002 25.7009C11.4069 25.6626 11.5051 25.6034 11.5892 25.5266L23.9309 14.4646C24.0882 14.3236 24.2907 14.2458 24.5005 14.2458C24.7103 14.2458 24.9129 14.3236 25.0702 14.4646L37.4118 25.526C37.496 25.6029 37.5942 25.6621 37.7008 25.7003C37.8075 25.7386 37.9205 25.7551 38.0335 25.749C38.1464 25.7428 38.2571 25.7141 38.3591 25.6645C38.4611 25.6149 38.5526 25.5454 38.6281 25.4599L39.7799 24.1572C39.9323 23.9845 40.0111 23.7574 39.9987 23.5257C39.9864 23.2941 39.8841 23.0769 39.7142 22.9219Z" fill="white"/>
<defs>
<linearGradient id="paint0_linear_177_771" x1="24" y1="0" x2="24" y2="48" gradientUnits="userSpaceOnUse">
<stop stop-color="#015193"/>
<stop offset="1" stop-color="#4B86A8"/>
</linearGradient>
</defs>
</svg>
