<svg width="48" height="48" viewBox="0 0 48 48" fill="none" xmlns="http://www.w3.org/2000/svg">
<circle cx="24" cy="24" r="24" fill="url(#paint0_linear_177_776)"/>
<path d="M35.0915 35.324L26.2857 35.375V37.1869C26.2857 38.19 25.4933 39 24.5056 39C23.5195 39 22.7143 38.1889 22.7143 37.188V35.3761L13.8471 35.3755C12.2567 35.3755 11.409 33.422 12.4693 32.181L16.3186 27.673H15.4721C14.0541 27.673 13.2874 25.9851 14.207 24.8902L17.5781 20.8772H16.9782C15.7907 20.8772 15.144 19.6028 15.9023 18.764L23.4246 10.4661C24.005 9.8261 24.9994 9.8261 25.5798 10.466L33.1077 18.7638C33.8677 19.6027 33.2193 20.8771 32.0318 20.8771H31.4308L34.7985 24.8906C35.7171 25.9861 34.9501 27.6728 33.5329 27.6728H32.6847L36.534 32.1808C37.5971 33.4322 36.7265 35.324 35.0915 35.324Z" fill="white"/>
<defs>
<linearGradient id="paint0_linear_177_776" x1="24" y1="0" x2="24" y2="48" gradientUnits="userSpaceOnUse">
<stop stop-color="#015193"/>
<stop offset="1" stop-color="#4B86A8"/>
</linearGradient>
</defs>
</svg>
