<svg width="48" height="48" viewBox="0 0 48 48" fill="none" xmlns="http://www.w3.org/2000/svg">
<circle cx="24" cy="24" r="24" fill="url(#paint0_linear_177_780)"/>
<path d="M37.5 22.5H37.245C35.6655 22.5 34.308 21.4965 33.7095 20.034L33.678 19.9605C33.066 18.495 33.3045 16.815 34.428 15.6915L34.6065 15.513C34.7458 15.3737 34.8562 15.2084 34.9316 15.0264C35.007 14.8445 35.0458 14.6495 35.0458 14.4525C35.0458 14.2555 35.007 14.0605 34.9316 13.8786C34.8562 13.6966 34.7458 13.5313 34.6065 13.392C34.4672 13.2527 34.3019 13.1423 34.1199 13.0669C33.938 12.9915 33.743 12.9527 33.546 12.9527C33.349 12.9527 33.154 12.9915 32.9721 13.0669C32.7901 13.1423 32.6248 13.2527 32.4855 13.392L32.307 13.5705C31.1835 14.694 29.5035 14.9325 28.038 14.3205L27.9645 14.289C26.5035 13.692 25.5 12.327 25.5 10.7475V10.626C25.5 9.6705 24.8295 9 24 9C23.1705 9 22.5 9.6705 22.5 10.5V10.554C22.5 12.198 21.51 13.68 19.9905 14.3085L19.9815 14.313C19.2387 14.6205 18.4214 14.7008 17.633 14.5438C16.8446 14.3868 16.1204 13.9995 15.552 13.431L15.5145 13.3935C15.3752 13.2542 15.2099 13.1438 15.0279 13.0684C14.846 12.993 14.651 12.9542 14.454 12.9542C14.257 12.9542 14.062 12.993 13.8801 13.0684C13.6981 13.1438 13.5328 13.2542 13.3935 13.3935C13.2542 13.5328 13.1438 13.6981 13.0684 13.8801C12.993 14.062 12.9542 14.257 12.9542 14.454C12.9542 14.651 12.993 14.846 13.0684 15.0279C13.1438 15.2099 13.2542 15.3752 13.3935 15.5145L13.4475 15.5685C14.011 16.1325 14.3948 16.8508 14.5505 17.6327C14.7061 18.4147 14.6266 19.2252 14.322 19.962L14.2815 20.058C13.982 20.7806 13.4751 21.3983 12.8247 21.8329C12.1743 22.2676 11.4097 22.4997 10.6275 22.5H10.626C9.6705 22.5 9 23.1705 9 24C9 24.8295 9.6705 25.5 10.5 25.5H10.602C11.3919 25.4998 12.164 25.734 12.8206 26.173C13.4773 26.612 13.9888 27.236 14.2905 27.966L14.322 28.0395C14.6266 28.7763 14.7061 29.5868 14.5505 30.3688C14.3948 31.1507 14.011 31.869 13.4475 32.433L13.3935 32.487C13.1122 32.7683 12.9542 33.1497 12.9542 33.5475C12.9542 33.9453 13.1122 34.3267 13.3935 34.608C13.6748 34.8893 14.0562 35.0473 14.454 35.0473C14.8518 35.0473 15.2332 34.8893 15.5145 34.608L15.5685 34.554C16.1324 33.9903 16.8507 33.6064 17.6327 33.4507C18.4147 33.2951 19.2252 33.3747 19.962 33.6795L20.1765 33.7695C20.8645 34.0536 21.4526 34.5355 21.8662 35.1543C22.2799 35.773 22.5005 36.5007 22.5 37.245V37.3725C22.5 38.3295 23.1705 39 24 39C24.8295 39 25.5 38.328 25.5 37.5V37.245C25.5 35.7225 26.4165 34.35 27.825 33.768L28.203 33.612C28.8911 33.3266 29.6485 33.2519 30.3792 33.3975C31.1098 33.543 31.7807 33.9022 32.307 34.4295L32.4855 34.608C32.6248 34.7473 32.7901 34.8577 32.9721 34.9331C33.154 35.0085 33.349 35.0473 33.546 35.0473C33.743 35.0473 33.938 35.0085 34.1199 34.9331C34.3019 34.8577 34.4672 34.7473 34.6065 34.608C34.7458 34.4687 34.8562 34.3034 34.9316 34.1214C35.007 33.9395 35.0458 33.7445 35.0458 33.5475C35.0458 33.3505 35.007 33.1555 34.9316 32.9736C34.8562 32.7916 34.7458 32.6263 34.6065 32.487L34.428 32.3085C33.3045 31.185 33.066 29.505 33.678 28.0395L33.7095 27.966C34.308 26.5035 35.673 25.5 37.2525 25.5H37.3725C38.3295 25.5 39 24.8295 39 24C39 23.1705 38.3295 22.5 37.5 22.5ZM18 25.5C17.6022 25.5 17.2206 25.342 16.9393 25.0607C16.658 24.7794 16.5 24.3978 16.5 24C16.5 23.6022 16.658 23.2206 16.9393 22.9393C17.2206 22.658 17.6022 22.5 18 22.5C18.3978 22.5 18.7794 22.658 19.0607 22.9393C19.342 23.2206 19.5 23.6022 19.5 24C19.5 24.3978 19.342 24.7794 19.0607 25.0607C18.7794 25.342 18.3978 25.5 18 25.5ZM25.5 30.75C25.1022 30.75 24.7206 30.592 24.4393 30.3107C24.158 30.0294 24 29.6478 24 29.25C24 28.8522 24.158 28.4706 24.4393 28.1893C24.7206 27.908 25.1022 27.75 25.5 27.75C25.8978 27.75 26.2794 27.908 26.5607 28.1893C26.842 28.4706 27 28.8522 27 29.25C27 29.6478 26.842 30.0294 26.5607 30.3107C26.2794 30.592 25.8978 30.75 25.5 30.75ZM27 24C26.6059 23.9999 26.2157 23.9222 25.8517 23.7713C25.4877 23.6204 25.1569 23.3993 24.8784 23.1206C24.5998 22.8419 24.3788 22.511 24.2281 22.1469C24.0774 21.7828 23.9999 21.3926 24 20.9985C24.0001 20.6044 24.0778 20.2142 24.2287 19.8502C24.3796 19.4862 24.6007 19.1554 24.8794 18.8769C25.1581 18.5983 25.489 18.3773 25.8531 18.2266C26.2172 18.0759 26.6074 17.9984 27.0015 17.9985C27.7973 17.9987 28.5605 18.315 29.1231 18.8779C29.6857 19.4408 30.0017 20.2042 30.0015 21C30.0013 21.7958 29.685 22.559 29.1221 23.1216C28.5592 23.6842 27.7958 24.0002 27 24Z" fill="white"/>
<defs>
<linearGradient id="paint0_linear_177_780" x1="24" y1="0" x2="24" y2="48" gradientUnits="userSpaceOnUse">
<stop stop-color="#015193"/>
<stop offset="1" stop-color="#4B86A8"/>
</linearGradient>
</defs>
</svg>
