<svg id="svg" version="1.1" xmlns="http://www.w3.org/2000/svg" xmlns:xlink="http://www.w3.org/1999/xlink" width="400" height="47.22222222222222" viewBox="0, 0, 400,47.22222222222222"><g id="svgg"><path id="path0" d="M120.792 0.114 C 119.256 0.148,118.000 0.238,118.000 0.315 C 118.000 0.392,116.256 0.509,114.125 0.576 C 111.994 0.643,110.225 0.765,110.194 0.849 C 110.164 0.932,109.599 1.000,108.938 1.000 C 108.278 1.000,106.840 1.112,105.744 1.249 C 104.647 1.385,103.244 1.498,102.625 1.499 C 102.006 1.499,101.500 1.564,101.500 1.641 C 101.500 1.719,100.656 1.831,99.625 1.890 C 98.594 1.950,97.488 2.073,97.168 2.166 C 96.848 2.258,96.154 2.333,95.626 2.333 C 95.098 2.333,94.667 2.397,94.667 2.475 C 94.667 2.553,93.833 2.667,92.815 2.729 C 91.796 2.791,90.826 2.915,90.659 3.004 C 90.492 3.094,89.938 3.167,89.428 3.167 C 88.917 3.167,88.500 3.231,88.500 3.309 C 88.500 3.387,87.789 3.501,86.919 3.562 C 86.050 3.623,85.145 3.747,84.908 3.837 C 84.672 3.926,84.146 4.000,83.739 4.000 C 83.333 4.000,83.000 4.066,83.000 4.147 C 83.000 4.228,82.288 4.347,81.417 4.412 C 80.546 4.478,79.792 4.599,79.740 4.682 C 79.689 4.765,79.276 4.833,78.823 4.833 C 78.371 4.833,78.000 4.899,78.000 4.979 C 78.000 5.058,77.326 5.176,76.502 5.241 C 75.678 5.305,74.961 5.427,74.909 5.512 C 74.857 5.597,74.443 5.667,73.990 5.667 C 73.537 5.667,73.167 5.730,73.167 5.806 C 73.167 5.929,72.564 6.034,69.542 6.439 C 69.152 6.491,68.833 6.590,68.833 6.660 C 68.833 6.729,68.301 6.835,67.651 6.895 C 67.000 6.956,66.330 7.079,66.162 7.169 C 65.993 7.260,65.588 7.333,65.261 7.333 C 64.934 7.333,64.667 7.398,64.667 7.476 C 64.667 7.555,64.123 7.669,63.458 7.731 C 62.794 7.792,62.225 7.915,62.194 8.005 C 62.164 8.094,61.808 8.167,61.403 8.167 C 60.998 8.167,60.667 8.232,60.667 8.312 C 60.667 8.392,60.143 8.508,59.504 8.572 C 58.864 8.635,58.297 8.757,58.244 8.843 C 58.191 8.929,57.851 9.000,57.490 9.000 C 57.129 9.000,56.833 9.066,56.833 9.147 C 56.833 9.228,56.346 9.347,55.750 9.411 C 55.154 9.474,54.667 9.596,54.667 9.680 C 54.667 9.764,54.329 9.833,53.917 9.833 C 53.504 9.833,53.167 9.902,53.167 9.987 C 53.167 10.071,52.679 10.192,52.083 10.256 C 51.487 10.320,51.000 10.438,51.000 10.519 C 51.000 10.600,50.737 10.667,50.417 10.667 C 50.096 10.667,49.833 10.732,49.833 10.812 C 49.833 10.892,49.310 11.008,48.670 11.072 C 48.031 11.135,47.464 11.257,47.411 11.343 C 47.357 11.429,47.093 11.500,46.823 11.500 C 46.554 11.500,46.333 11.566,46.333 11.647 C 46.333 11.728,45.847 11.847,45.252 11.910 C 44.657 11.974,44.127 12.095,44.075 12.180 C 44.023 12.264,43.797 12.333,43.573 12.333 C 43.350 12.333,43.167 12.402,43.167 12.487 C 43.167 12.571,42.679 12.692,42.083 12.756 C 41.488 12.820,41.000 12.938,41.000 13.019 C 41.000 13.100,40.737 13.167,40.417 13.167 C 40.096 13.167,39.833 13.233,39.833 13.314 C 39.833 13.395,39.421 13.513,38.917 13.576 C 38.413 13.639,38.000 13.760,38.000 13.845 C 38.000 13.930,37.737 14.000,37.417 14.000 C 37.096 14.000,36.833 14.065,36.833 14.143 C 36.833 14.222,36.445 14.333,35.971 14.389 C 35.497 14.445,35.032 14.568,34.938 14.662 C 34.844 14.756,34.557 14.833,34.300 14.833 C 34.043 14.833,33.833 14.903,33.833 14.988 C 33.833 15.073,33.420 15.194,32.914 15.257 C 32.409 15.321,31.955 15.439,31.905 15.519 C 31.855 15.600,31.631 15.667,31.407 15.667 C 31.183 15.667,31.000 15.731,31.000 15.810 C 31.000 15.889,30.612 16.000,30.138 16.056 C 29.664 16.112,29.199 16.235,29.104 16.329 C 29.010 16.423,28.761 16.500,28.550 16.500 C 28.339 16.500,28.167 16.566,28.167 16.647 C 28.167 16.729,27.754 16.846,27.250 16.909 C 26.746 16.972,26.333 17.094,26.333 17.179 C 26.333 17.264,26.146 17.333,25.917 17.333 C 25.688 17.333,25.500 17.398,25.500 17.477 C 25.500 17.556,25.112 17.666,24.638 17.722 C 24.164 17.779,23.699 17.901,23.604 17.996 C 23.510 18.090,23.261 18.167,23.050 18.167 C 22.839 18.167,22.667 18.235,22.667 18.318 C 22.667 18.401,22.292 18.520,21.833 18.583 C 21.375 18.646,21.000 18.766,21.000 18.849 C 21.000 18.932,20.737 19.000,20.417 19.000 C 20.096 19.000,19.833 19.066,19.833 19.148 C 19.833 19.229,19.498 19.346,19.087 19.407 C 18.677 19.469,18.297 19.590,18.244 19.676 C 18.191 19.763,17.964 19.833,17.740 19.833 C 17.516 19.833,17.333 19.900,17.333 19.981 C 17.333 20.062,16.998 20.179,16.587 20.241 C 16.177 20.302,15.797 20.423,15.744 20.510 C 15.691 20.596,15.464 20.667,15.240 20.667 C 15.016 20.667,14.833 20.732,14.833 20.812 C 14.833 20.891,14.565 21.000,14.238 21.053 C 13.561 21.163,12.667 21.526,12.667 21.692 C 12.667 21.752,12.292 21.854,11.833 21.917 C 11.375 21.980,11.000 22.099,11.000 22.182 C 11.000 22.265,10.813 22.333,10.583 22.333 C 10.354 22.333,10.167 22.401,10.167 22.484 C 10.167 22.567,9.792 22.687,9.333 22.750 C 8.875 22.813,8.500 22.933,8.500 23.016 C 8.500 23.099,8.387 23.167,8.250 23.167 C 8.112 23.167,8.000 23.235,8.000 23.318 C 8.000 23.401,7.625 23.520,7.167 23.583 C 6.708 23.646,6.333 23.766,6.333 23.849 C 6.333 23.932,6.183 24.000,6.000 24.000 C 5.817 24.000,5.667 24.065,5.667 24.145 C 5.667 24.225,5.363 24.339,4.993 24.398 C 4.370 24.498,3.699 24.776,3.500 25.018 C 3.454 25.073,3.135 25.170,2.792 25.234 C 2.448 25.297,2.167 25.420,2.167 25.508 C 2.167 25.595,1.979 25.667,1.750 25.667 C 1.521 25.667,1.333 25.735,1.333 25.819 C 1.333 25.902,1.033 26.021,0.667 26.083 L 0.000 26.196 0.000 36.681 L 0.000 47.167 200.000 47.167 L 400.000 47.167 400.000 36.833 C 400.000 26.611,399.996 26.500,399.667 26.500 C 399.483 26.500,399.333 26.572,399.333 26.659 C 399.333 26.747,399.071 26.867,398.750 26.928 C 398.429 26.988,398.167 27.104,398.167 27.185 C 398.167 27.267,398.054 27.333,397.917 27.333 C 397.779 27.333,397.667 27.405,397.667 27.492 C 397.667 27.580,397.404 27.701,397.083 27.761 C 396.762 27.821,396.500 27.937,396.500 28.019 C 396.500 28.100,396.387 28.167,396.250 28.167 C 396.113 28.167,396.000 28.232,396.000 28.312 C 396.000 28.392,395.700 28.505,395.333 28.564 C 394.967 28.623,394.667 28.745,394.667 28.835 C 394.667 28.926,394.517 29.000,394.333 29.000 C 394.150 29.000,394.000 29.069,394.000 29.153 C 394.000 29.238,393.775 29.356,393.500 29.417 C 393.225 29.477,393.000 29.596,393.000 29.680 C 393.000 29.764,392.813 29.833,392.583 29.833 C 392.354 29.833,392.167 29.900,392.167 29.981 C 392.167 30.063,391.904 30.179,391.583 30.239 C 391.262 30.299,391.000 30.420,391.000 30.508 C 391.000 30.595,390.887 30.667,390.750 30.667 C 390.613 30.667,390.500 30.742,390.500 30.833 C 390.500 30.925,390.343 31.000,390.150 31.000 C 389.801 31.000,388.658 31.468,388.500 31.676 C 388.454 31.736,388.135 31.837,387.792 31.900 C 387.448 31.963,387.167 32.087,387.167 32.174 C 387.167 32.262,387.017 32.333,386.833 32.333 C 386.650 32.333,386.500 32.399,386.500 32.479 C 386.500 32.559,386.200 32.672,385.833 32.731 C 385.467 32.789,385.167 32.911,385.167 33.002 C 385.167 33.093,384.979 33.167,384.750 33.167 C 384.521 33.167,384.333 33.241,384.333 33.331 C 384.333 33.422,384.033 33.544,383.667 33.603 C 383.300 33.661,383.000 33.775,383.000 33.855 C 383.000 33.935,382.813 34.000,382.583 34.000 C 382.354 34.000,382.167 34.068,382.167 34.152 C 382.167 34.236,381.867 34.355,381.501 34.417 C 381.135 34.478,380.793 34.597,380.741 34.681 C 380.689 34.765,380.464 34.833,380.240 34.833 C 380.016 34.833,379.833 34.907,379.833 34.998 C 379.833 35.089,379.533 35.211,379.167 35.269 C 378.800 35.328,378.500 35.441,378.500 35.521 C 378.500 35.601,378.313 35.667,378.083 35.667 C 377.854 35.667,377.667 35.735,377.667 35.818 C 377.667 35.901,377.292 36.020,376.833 36.083 C 376.375 36.146,376.000 36.266,376.000 36.349 C 376.000 36.432,375.813 36.500,375.583 36.500 C 375.354 36.500,375.167 36.568,375.167 36.651 C 375.167 36.734,374.792 36.854,374.333 36.917 C 373.875 36.980,373.500 37.099,373.500 37.182 C 373.500 37.265,373.313 37.333,373.083 37.333 C 372.854 37.333,372.667 37.401,372.667 37.484 C 372.667 37.567,372.292 37.687,371.833 37.750 C 371.375 37.813,371.000 37.933,371.000 38.016 C 371.000 38.099,370.738 38.167,370.417 38.167 C 370.096 38.167,369.833 38.235,369.833 38.318 C 369.833 38.401,369.458 38.520,369.000 38.583 C 368.542 38.646,368.167 38.766,368.167 38.849 C 368.167 38.932,367.942 39.000,367.667 39.000 C 367.392 39.000,367.167 39.065,367.167 39.145 C 367.167 39.225,366.717 39.341,366.167 39.403 C 365.617 39.466,365.167 39.588,365.167 39.675 C 365.167 39.762,364.904 39.833,364.583 39.833 C 364.262 39.833,364.000 39.902,364.000 39.987 C 364.000 40.071,363.513 40.192,362.917 40.256 C 362.321 40.320,361.833 40.438,361.833 40.519 C 361.833 40.600,361.571 40.667,361.250 40.667 C 360.929 40.667,360.667 40.736,360.667 40.820 C 360.667 40.904,360.179 41.026,359.583 41.089 C 358.988 41.153,358.500 41.272,358.500 41.353 C 358.500 41.434,358.200 41.500,357.833 41.500 C 357.467 41.500,357.167 41.564,357.167 41.643 C 357.167 41.721,356.623 41.836,355.958 41.897 C 355.294 41.959,354.725 42.082,354.694 42.171 C 354.664 42.260,354.270 42.333,353.819 42.333 C 353.369 42.333,353.000 42.399,353.000 42.480 C 353.000 42.561,352.363 42.680,351.583 42.745 C 350.804 42.810,350.167 42.932,350.167 43.015 C 350.167 43.098,349.792 43.167,349.333 43.167 C 348.875 43.167,348.500 43.232,348.500 43.312 C 348.500 43.392,347.675 43.511,346.667 43.576 C 345.658 43.641,344.833 43.763,344.833 43.847 C 344.833 43.931,344.346 44.000,343.750 44.000 C 343.154 44.000,342.667 44.068,342.667 44.151 C 342.667 44.234,341.617 44.356,340.333 44.423 C 339.050 44.489,338.000 44.608,338.000 44.688 C 338.000 44.768,337.294 44.833,336.431 44.833 C 335.539 44.833,334.837 44.905,334.806 44.999 C 334.771 45.101,332.658 45.207,329.292 45.276 C 326.290 45.337,323.833 45.450,323.833 45.527 C 323.833 45.604,322.558 45.667,321.000 45.667 C 319.442 45.667,318.167 45.604,318.167 45.527 C 318.167 45.450,315.635 45.336,312.542 45.273 C 309.135 45.204,306.895 45.095,306.861 44.996 C 306.830 44.906,306.109 44.833,305.236 44.833 C 304.373 44.833,303.667 44.768,303.667 44.688 C 303.667 44.608,302.617 44.489,301.333 44.423 C 300.050 44.356,299.000 44.234,299.000 44.151 C 299.000 44.068,298.512 44.000,297.917 44.000 C 297.321 44.000,296.833 43.935,296.833 43.855 C 296.833 43.775,296.008 43.656,295.000 43.591 C 293.992 43.525,293.167 43.403,293.167 43.319 C 293.167 43.235,292.792 43.167,292.333 43.167 C 291.875 43.167,291.500 43.101,291.500 43.021 C 291.500 42.942,290.825 42.824,290.000 42.759 C 289.175 42.694,288.500 42.572,288.500 42.487 C 288.500 42.403,288.125 42.333,287.667 42.333 C 287.208 42.333,286.833 42.269,286.833 42.191 C 286.833 42.112,286.290 41.998,285.625 41.936 C 284.960 41.875,284.392 41.751,284.361 41.662 C 284.331 41.573,283.981 41.500,283.583 41.500 C 283.186 41.500,282.836 41.427,282.806 41.338 C 282.775 41.249,282.206 41.125,281.542 41.064 C 280.877 41.002,280.333 40.888,280.333 40.809 C 280.333 40.731,280.108 40.667,279.833 40.667 C 279.558 40.667,279.333 40.601,279.333 40.522 C 279.333 40.442,278.883 40.325,278.333 40.263 C 277.783 40.201,277.333 40.079,277.333 39.992 C 277.333 39.905,277.071 39.833,276.750 39.833 C 276.429 39.833,276.167 39.767,276.167 39.686 C 276.167 39.605,275.754 39.487,275.250 39.424 C 274.746 39.361,274.333 39.240,274.333 39.155 C 274.333 39.070,274.071 39.000,273.750 39.000 C 273.429 39.000,273.167 38.932,273.167 38.849 C 273.167 38.766,272.792 38.646,272.333 38.583 C 271.875 38.520,271.500 38.401,271.500 38.318 C 271.500 38.235,271.237 38.167,270.917 38.167 C 270.596 38.167,270.333 38.099,270.333 38.016 C 270.333 37.933,269.958 37.813,269.500 37.750 C 269.042 37.687,268.667 37.567,268.667 37.484 C 268.667 37.401,268.479 37.333,268.250 37.333 C 268.021 37.333,267.833 37.265,267.833 37.182 C 267.833 37.099,267.458 36.980,267.000 36.917 C 266.542 36.854,266.167 36.734,266.167 36.651 C 266.167 36.568,265.979 36.500,265.750 36.500 C 265.521 36.500,265.333 36.435,265.333 36.355 C 265.333 36.275,265.033 36.161,264.667 36.103 C 264.300 36.044,264.000 35.922,264.000 35.831 C 264.000 35.741,263.813 35.667,263.583 35.667 C 263.354 35.667,263.167 35.601,263.167 35.521 C 263.167 35.441,262.867 35.328,262.500 35.269 C 262.133 35.211,261.833 35.089,261.833 34.998 C 261.833 34.907,261.646 34.833,261.417 34.833 C 261.188 34.833,261.000 34.767,261.000 34.686 C 261.000 34.604,260.662 34.487,260.250 34.425 C 259.837 34.364,259.500 34.243,259.500 34.156 C 259.500 34.070,259.313 34.000,259.083 34.000 C 258.854 34.000,258.667 33.926,258.667 33.835 C 258.667 33.745,258.367 33.623,258.000 33.564 C 257.633 33.505,257.333 33.392,257.333 33.312 C 257.333 33.232,257.221 33.167,257.083 33.167 C 256.946 33.167,256.833 33.100,256.833 33.019 C 256.833 32.938,256.496 32.821,256.083 32.759 C 255.671 32.697,255.333 32.576,255.333 32.490 C 255.333 32.404,255.221 32.333,255.083 32.333 C 254.946 32.333,254.833 32.268,254.833 32.188 C 254.833 32.108,254.533 31.995,254.167 31.936 C 253.800 31.877,253.500 31.755,253.500 31.665 C 253.500 31.574,253.350 31.500,253.167 31.500 C 252.983 31.500,252.833 31.435,252.833 31.355 C 252.833 31.275,252.533 31.161,252.167 31.103 C 251.800 31.044,251.500 30.922,251.500 30.831 C 251.500 30.741,251.387 30.667,251.250 30.667 C 251.112 30.667,251.000 30.600,251.000 30.519 C 251.000 30.437,250.737 30.321,250.417 30.261 C 250.096 30.201,249.833 30.080,249.833 29.992 C 249.833 29.905,249.646 29.833,249.417 29.833 C 249.188 29.833,249.000 29.762,249.000 29.674 C 249.000 29.587,248.737 29.466,248.417 29.406 C 248.096 29.345,247.833 29.230,247.833 29.148 C 247.833 29.067,247.721 29.000,247.583 29.000 C 247.446 29.000,247.333 28.928,247.333 28.841 C 247.333 28.753,247.071 28.633,246.750 28.572 C 246.429 28.512,246.167 28.396,246.167 28.315 C 246.167 28.233,245.979 28.167,245.750 28.167 C 245.521 28.167,245.333 28.098,245.333 28.013 C 245.333 27.929,245.108 27.810,244.833 27.750 C 244.558 27.690,244.333 27.571,244.333 27.487 C 244.333 27.402,244.183 27.333,244.000 27.333 C 243.817 27.333,243.667 27.264,243.667 27.180 C 243.667 27.096,243.442 26.977,243.167 26.917 C 242.892 26.856,242.667 26.738,242.667 26.653 C 242.667 26.569,242.517 26.500,242.333 26.500 C 242.150 26.500,242.000 26.431,242.000 26.347 C 242.000 26.262,241.775 26.144,241.500 26.083 C 241.225 26.023,241.000 25.904,241.000 25.820 C 241.000 25.736,240.850 25.667,240.667 25.667 C 240.483 25.667,240.333 25.598,240.333 25.513 C 240.333 25.429,240.108 25.310,239.833 25.250 C 239.558 25.190,239.333 25.071,239.333 24.987 C 239.333 24.902,239.183 24.833,239.000 24.833 C 238.817 24.833,238.667 24.768,238.667 24.688 C 238.667 24.608,238.367 24.495,238.000 24.436 C 237.633 24.377,237.333 24.255,237.333 24.165 C 237.333 24.074,237.221 24.000,237.083 24.000 C 236.946 24.000,236.833 23.933,236.833 23.852 C 236.833 23.770,236.571 23.655,236.250 23.594 C 235.929 23.534,235.667 23.413,235.667 23.326 C 235.667 23.238,235.554 23.167,235.417 23.167 C 235.279 23.167,235.167 23.100,235.167 23.019 C 235.167 22.937,234.904 22.821,234.583 22.761 C 234.262 22.701,234.000 22.580,234.000 22.492 C 234.000 22.405,233.887 22.333,233.750 22.333 C 233.612 22.333,233.500 22.267,233.500 22.185 C 233.500 22.104,233.237 21.988,232.917 21.928 C 232.596 21.867,232.333 21.747,232.333 21.659 C 232.333 21.572,232.221 21.500,232.083 21.500 C 231.946 21.500,231.833 21.433,231.833 21.352 C 231.833 21.270,231.571 21.155,231.250 21.094 C 230.929 21.034,230.667 20.913,230.667 20.826 C 230.667 20.738,230.554 20.667,230.417 20.667 C 230.279 20.667,230.167 20.596,230.167 20.510 C 230.167 20.424,229.829 20.303,229.417 20.241 C 229.004 20.179,228.667 20.062,228.667 19.981 C 228.667 19.900,228.554 19.833,228.417 19.833 C 228.279 19.833,228.167 19.762,228.167 19.674 C 228.167 19.587,227.904 19.466,227.583 19.406 C 227.262 19.345,227.000 19.230,227.000 19.148 C 227.000 19.067,226.887 19.000,226.750 19.000 C 226.612 19.000,226.500 18.928,226.500 18.841 C 226.500 18.753,226.237 18.633,225.917 18.572 C 225.596 18.512,225.333 18.396,225.333 18.315 C 225.333 18.233,225.221 18.167,225.083 18.167 C 224.946 18.167,224.833 18.101,224.833 18.021 C 224.833 17.941,224.533 17.828,224.167 17.769 C 223.800 17.711,223.500 17.589,223.500 17.498 C 223.500 17.407,223.350 17.333,223.167 17.333 C 222.983 17.333,222.833 17.264,222.833 17.180 C 222.833 17.096,222.608 16.977,222.333 16.917 C 222.058 16.856,221.833 16.738,221.833 16.653 C 221.833 16.569,221.646 16.500,221.417 16.500 C 221.188 16.500,221.000 16.433,221.000 16.352 C 221.000 16.270,220.737 16.155,220.417 16.094 C 220.096 16.034,219.833 15.932,219.833 15.866 C 219.833 15.709,219.047 15.368,218.374 15.233 C 218.077 15.174,217.833 15.078,217.833 15.020 C 217.833 14.892,217.086 14.560,216.458 14.408 C 216.206 14.347,216.000 14.230,216.000 14.149 C 216.000 14.067,215.813 14.000,215.583 14.000 C 215.354 14.000,215.167 13.930,215.167 13.844 C 215.167 13.757,214.829 13.636,214.417 13.575 C 214.004 13.513,213.667 13.396,213.667 13.314 C 213.667 13.233,213.554 13.167,213.417 13.167 C 213.279 13.167,213.167 13.101,213.167 13.021 C 213.167 12.941,212.867 12.828,212.500 12.769 C 212.133 12.711,211.833 12.589,211.833 12.498 C 211.833 12.407,211.646 12.333,211.417 12.333 C 211.188 12.333,211.000 12.263,211.000 12.177 C 211.000 12.091,210.662 11.970,210.250 11.908 C 209.838 11.846,209.500 11.729,209.500 11.648 C 209.500 11.566,209.313 11.500,209.083 11.500 C 208.854 11.500,208.667 11.435,208.667 11.355 C 208.667 11.275,208.367 11.161,208.000 11.103 C 207.633 11.044,207.333 10.922,207.333 10.831 C 207.333 10.741,207.146 10.667,206.917 10.667 C 206.688 10.667,206.500 10.599,206.500 10.516 C 206.500 10.433,206.125 10.313,205.667 10.250 C 205.208 10.187,204.833 10.067,204.833 9.984 C 204.833 9.901,204.646 9.833,204.417 9.833 C 204.188 9.833,204.000 9.765,204.000 9.682 C 204.000 9.599,203.625 9.480,203.167 9.417 C 202.708 9.354,202.333 9.234,202.333 9.151 C 202.333 9.068,202.150 9.000,201.927 9.000 C 201.703 9.000,201.476 8.929,201.423 8.843 C 201.369 8.757,200.990 8.636,200.579 8.574 C 200.169 8.513,199.833 8.396,199.833 8.314 C 199.833 8.233,199.571 8.167,199.250 8.167 C 198.929 8.167,198.667 8.097,198.667 8.012 C 198.667 7.927,198.254 7.806,197.750 7.743 C 197.246 7.680,196.833 7.562,196.833 7.481 C 196.833 7.400,196.650 7.333,196.427 7.333 C 196.203 7.333,195.979 7.267,195.929 7.186 C 195.879 7.105,195.424 6.987,194.919 6.924 C 194.413 6.861,194.000 6.740,194.000 6.655 C 194.000 6.570,193.737 6.500,193.417 6.500 C 193.096 6.500,192.833 6.431,192.833 6.347 C 192.833 6.262,192.346 6.141,191.750 6.077 C 191.154 6.013,190.667 5.895,190.667 5.814 C 190.667 5.733,190.419 5.667,190.117 5.667 C 189.814 5.667,189.490 5.590,189.397 5.497 C 189.303 5.403,188.725 5.280,188.113 5.222 C 187.501 5.165,187.000 5.063,187.000 4.994 C 187.000 4.857,186.576 4.767,184.542 4.472 C 183.785 4.363,183.167 4.212,183.167 4.137 C 183.167 4.062,182.871 4.000,182.510 4.000 C 182.149 4.000,181.812 3.933,181.761 3.851 C 181.710 3.769,181.068 3.648,180.334 3.583 C 179.600 3.518,179.000 3.405,179.000 3.331 C 179.000 3.258,178.606 3.155,178.125 3.103 C 175.498 2.820,174.000 2.589,174.000 2.469 C 174.000 2.394,173.592 2.333,173.094 2.333 C 172.596 2.333,171.988 2.257,171.743 2.164 C 171.498 2.071,170.518 1.947,169.565 1.889 C 168.613 1.830,167.833 1.719,167.833 1.641 C 167.833 1.564,167.327 1.497,166.708 1.493 C 166.090 1.489,165.246 1.417,164.833 1.333 C 164.421 1.248,163.221 1.128,162.167 1.065 C 161.112 1.001,160.212 0.893,160.167 0.824 C 160.121 0.756,158.471 0.644,156.500 0.577 C 154.263 0.501,152.874 0.388,152.802 0.276 C 152.690 0.101,127.361 -0.027,120.792 0.114 " stroke="none" fill="#040404" fill-rule="evenodd"></path><path id="path1" d="" stroke="none" fill="#080404" fill-rule="evenodd"></path><path id="path2" d="" stroke="none" fill="#080404" fill-rule="evenodd"></path><path id="path3" d="" stroke="none" fill="#080404" fill-rule="evenodd"></path><path id="path4" d="" stroke="none" fill="#080404" fill-rule="evenodd"></path></g></svg>