<svg width="37" height="50" viewBox="0 0 37 50" fill="none" xmlns="http://www.w3.org/2000/svg">
<path fill-rule="evenodd" clip-rule="evenodd" d="M17.0238 0.935059H19.0266V15.4351C19.0266 16.8331 19.5914 17.3771 20.032 17.6341C20.0811 17.6621 20.1301 17.6881 20.1802 17.7121L20.1762 17.3371V17.3351C20.1381 13.8071 20.065 6.93506 25.5106 6.93506C32.971 6.93506 38.3014 32.9411 35.1039 35.5951C31.9055 38.2491 25.5106 36.6561 22.3132 33.4721C19.7316 30.9011 19.9549 24.8931 20.1151 20.5811V20.5791C20.1251 20.3171 20.1351 20.0611 20.1432 19.8121C19.7502 19.7157 19.3729 19.5642 19.0226 19.3621C18.6448 19.1427 18.3074 18.8603 18.0252 18.5271C17.7278 18.8791 17.3843 19.1531 17.0278 19.3611C16.6273 19.5951 16.2327 19.7311 15.9063 19.8121L15.9353 20.5801C16.0955 24.8931 16.3188 30.9011 13.7373 33.4721C10.5398 36.6571 4.14393 38.2491 0.946491 35.5951C-2.25095 32.9421 3.07945 6.93506 10.5398 6.93506C15.9864 6.93506 15.9123 13.8071 15.8742 17.3351C15.873 17.4607 15.8716 17.5864 15.8702 17.7121C15.9203 17.6881 15.9704 17.6621 16.0184 17.6341C16.459 17.3771 17.0238 16.8331 17.0238 15.4351V0.935059V0.935059ZM25.5106 8.93506C24.5553 8.93506 24.0185 9.23506 23.642 9.62206C23.2074 10.0681 22.8449 10.7861 22.5906 11.8001C22.1449 13.5751 22.164 15.6171 22.18 17.2641C22.182 17.5491 22.184 17.8221 22.184 18.0801C22.184 18.8401 22.1509 19.7501 22.1149 20.6971L22.0748 21.8251C22.0308 23.2011 22.0047 24.6411 22.0718 26.0331C22.1379 27.4331 22.2951 28.7181 22.5885 29.7951C22.886 30.8831 23.2835 31.6131 23.7271 32.0551C25.0079 33.3301 27.0287 34.3601 29.0896 34.7591C31.1274 35.1541 32.7677 34.8621 33.729 34.1321L33.745 34.0921C33.8372 33.8368 33.901 33.5722 33.9353 33.3031C34.0525 32.5281 34.0825 31.4471 34.0034 30.1151C33.8462 27.4651 33.2754 24.1041 32.3711 20.7951C31.4659 17.4751 30.2592 14.3351 28.8923 12.0731C28.2084 10.9411 27.5334 10.1131 26.9075 9.58806C26.2887 9.06806 25.8301 8.93506 25.5106 8.93506V8.93506ZM10.5398 8.93506C11.4951 8.93506 12.0319 9.23506 12.4084 9.62206C12.843 10.0681 13.2055 10.7861 13.4599 11.8001C13.9055 13.5751 13.8865 15.6171 13.8704 17.2651C13.8684 17.5501 13.8664 17.8231 13.8664 18.0811C13.8664 18.8411 13.8995 19.7511 13.9355 20.6971L13.9756 21.8261C14.0196 23.2011 14.0457 24.6411 13.9796 26.0341C13.9125 27.4341 13.7553 28.7191 13.4619 29.7941C13.1645 30.8841 12.7669 31.6141 12.3233 32.0561C11.0425 33.3311 9.02171 34.3601 6.96084 34.7601C4.92301 35.1541 3.28274 34.8621 2.3214 34.1321C2.2209 33.8646 2.15168 33.5864 2.11511 33.3031C1.99795 32.5291 1.96791 31.4481 2.04702 30.1161C2.20424 27.4661 2.77503 24.1041 3.67929 20.7961C4.58554 17.4751 5.79122 14.3361 7.15812 12.0741C7.84207 10.9411 8.51701 10.1141 9.14287 9.58906C9.76173 9.06906 10.2204 8.93506 10.5398 8.93506V8.93506Z" fill="white"/>
<path d="M13.0181 44.9349V40.9349C13.0181 40.6697 13.1236 40.4153 13.3114 40.2278C13.4992 40.0402 13.7539 39.9349 14.0195 39.9349H16.7202C16.918 39.9349 17.1114 39.8765 17.276 39.7669L21.4748 36.9709C21.6258 36.8703 21.8012 36.8126 21.9825 36.8039C22.1638 36.7952 22.344 36.8358 22.5039 36.9215C22.6638 37.0071 22.7974 37.1346 22.8904 37.2902C22.9834 37.4458 23.0324 37.6237 23.032 37.8049V48.0649C23.032 48.2459 22.9828 48.4236 22.8897 48.5789C22.7965 48.7342 22.6629 48.8613 22.503 48.9468C22.3432 49.0322 22.1631 49.0726 21.982 49.0639C21.8009 49.0551 21.6256 48.9974 21.4748 48.8969L17.276 46.1019C17.1114 45.9923 16.918 45.9338 16.7202 45.9339H14.0195C13.7539 45.9339 13.4992 45.8285 13.3114 45.641C13.1236 45.4535 13.0181 45.1991 13.0181 44.9339V44.9349Z" stroke="white" stroke-width="1.5"/>
</svg>
