<svg width="20" height="39" viewBox="0 0 20 39" fill="none" xmlns="http://www.w3.org/2000/svg">
<path d="M2.76897 7.625C2.76897 5.80164 3.4943 4.05295 4.78541 2.76364C6.07651 1.47433 7.82763 0.75 9.65353 0.75C11.4794 0.75 13.2305 1.47433 14.5216 2.76364C15.8128 4.05295 16.5381 5.80164 16.5381 7.625V22.6125C17.8664 23.9663 18.7648 25.6815 19.1208 27.5432C19.4768 29.4048 19.2745 31.33 18.5393 33.0772C17.8041 34.8245 16.5686 36.3162 14.9879 37.3651C13.4071 38.414 11.5514 38.9736 9.65353 38.9736C7.75561 38.9736 5.89994 38.414 4.31919 37.3651C2.73845 36.3162 1.50299 34.8245 0.767756 33.0772C0.0325169 31.33 -0.169782 29.4048 0.186226 27.5432C0.542234 25.6815 1.4407 23.9663 2.76897 22.6125V7.625ZM9.65353 3.5C8.55799 3.5 7.50732 3.9346 6.73266 4.70818C5.95799 5.48177 5.52279 6.53098 5.52279 7.625V23.8143L5.06566 24.2267C4.02629 25.1549 3.29364 26.3764 2.96468 27.7295C2.63572 29.0826 2.72595 30.5036 3.22343 31.8043C3.7209 33.1051 4.60218 34.2244 5.75063 35.014C6.89907 35.8037 8.26056 36.2265 9.65491 36.2265C11.0493 36.2265 12.4107 35.8037 13.5592 35.014C14.7076 34.2244 15.5889 33.1051 16.0864 31.8043C16.5839 30.5036 16.6741 29.0826 16.3451 27.7295C16.0162 26.3764 15.2835 25.1549 14.2442 24.2267L13.7843 23.8115V7.625C13.7843 6.53098 13.3491 5.48177 12.5744 4.70818C11.7997 3.9346 10.7491 3.5 9.65353 3.5V3.5ZM11.0304 14.5C11.0304 14.1353 10.8854 13.7856 10.6272 13.5277C10.3689 13.2699 10.0187 13.125 9.65353 13.125C9.28835 13.125 8.93813 13.2699 8.67991 13.5277C8.42168 13.7856 8.27662 14.1353 8.27662 14.5V25.7338C7.35792 26.0581 6.58363 26.6963 6.09059 27.5357C5.59755 28.375 5.4175 29.3613 5.58228 30.3204C5.74706 31.2794 6.24604 32.1494 6.99105 32.7766C7.73605 33.4038 8.67911 33.7478 9.65353 33.7478C10.628 33.7478 11.571 33.4038 12.316 32.7766C13.061 32.1494 13.56 31.2794 13.7248 30.3204C13.8896 29.3613 13.7095 28.375 13.2165 27.5357C12.7234 26.6963 11.9491 26.0581 11.0304 25.7338V14.5Z" fill="white"/>
</svg>
