<svg width="88" height="88" viewBox="0 0 88 88" fill="none" xmlns="http://www.w3.org/2000/svg">
<g filter="url(#filter0_d_527_3030)">
<g filter="url(#filter1_d_527_3030)">
<circle cx="44" cy="40" r="40" fill="url(#paint0_linear_527_3030)"/>
</g>
<path d="M53 34L58.736 28.264C58.9048 28.0954 58.9998 27.8666 59 27.628V19.75C59 19.1533 58.7629 18.581 58.341 18.159C57.919 17.7371 57.3467 17.5 56.75 17.5V17.5C56.1533 17.5 55.581 17.7371 55.159 18.159C54.7371 18.581 54.5 19.1533 54.5 19.75V26.5" stroke="white" stroke-width="1.5" stroke-linecap="round" stroke-linejoin="round"/>
<path d="M35 34L29.264 28.264C29.0952 28.0954 29.0002 27.8666 29 27.628V19.75C29 19.1533 29.2371 18.581 29.659 18.159C30.081 17.7371 30.6533 17.5 31.25 17.5V17.5C31.8467 17.5 32.419 17.7371 32.841 18.159C33.2629 18.581 33.5 19.1533 33.5 19.75V26.5M53 28L54.287 26.713C54.3546 26.6455 54.4082 26.5653 54.4448 26.477C54.4813 26.3887 54.5001 26.2941 54.5 26.1985C54.4998 26.0636 54.4621 25.9314 54.3911 25.8167C54.3201 25.7021 54.2186 25.6094 54.098 25.549L53.4335 25.2175C52.8705 24.936 52.2333 24.8387 51.612 24.9394C50.9907 25.0401 50.4168 25.3336 49.9715 25.7785L48.629 27.121C48.0664 27.6835 47.7502 28.4464 47.75 29.242V34L53 28Z" stroke="white" stroke-width="1.5" stroke-linecap="round" stroke-linejoin="round"/>
<path d="M35 28L33.713 26.713C33.6455 26.6454 33.5919 26.5652 33.5553 26.4769C33.5188 26.3887 33.5 26.294 33.5 26.1985V26.1985C33.5 25.924 33.656 25.6735 33.902 25.549L34.5665 25.2175C35.1295 24.936 35.7667 24.8387 36.388 24.9394C37.0093 25.0401 37.5832 25.3336 38.0285 25.7785L39.371 27.121C39.9336 27.6835 40.2498 28.4464 40.25 29.242V34L35 28ZM46.5005 22H41.4995V18.5005H38V13.4995H41.4995V10H46.5005V13.4995H50V18.5005H46.5005V22V22Z" stroke="white" stroke-width="1.5" stroke-linecap="round" stroke-linejoin="round"/>
<path d="M22.6844 52V43.492H23.7764V52H22.6844ZM29.9806 52V48.148C29.9806 47.692 29.8766 47.336 29.6686 47.08C29.4686 46.824 29.1286 46.696 28.6486 46.696C28.3526 46.696 28.0926 46.784 27.8686 46.96C27.6446 47.128 27.4646 47.352 27.3286 47.632C27.2246 47.856 27.1606 48.112 27.1366 48.4C27.1206 48.688 27.1126 48.948 27.1126 49.18V52H26.0926V45.928H26.9806L27.0646 46.84C27.1446 46.664 27.2526 46.512 27.3886 46.384C27.5246 46.248 27.6766 46.136 27.8446 46.048C28.0126 45.96 28.1886 45.892 28.3726 45.844C28.5566 45.796 28.7326 45.772 28.9006 45.772C29.5966 45.772 30.1206 45.968 30.4726 46.36C30.8246 46.752 31.0006 47.3 31.0006 48.004V52H29.9806ZM37.1201 52L37.0481 51.208C36.8721 51.512 36.6121 51.748 36.2681 51.916C35.9241 52.076 35.5801 52.156 35.2361 52.156C34.8601 52.156 34.5281 52.1 34.2401 51.988C33.9601 51.868 33.7201 51.704 33.5201 51.496C33.2321 51.2 33.0121 50.832 32.8601 50.392C32.7161 49.952 32.6441 49.48 32.6441 48.976C32.6441 48.448 32.7201 47.96 32.8721 47.512C33.0321 47.056 33.2641 46.68 33.5681 46.384C33.7681 46.2 34.0041 46.052 34.2761 45.94C34.5561 45.828 34.8761 45.772 35.2361 45.772C35.4041 45.772 35.5721 45.792 35.7401 45.832C35.9161 45.872 36.0841 45.928 36.2441 46C36.4041 46.072 36.5481 46.164 36.6761 46.276C36.8121 46.38 36.9201 46.5 37.0001 46.636V43.336H38.0201V52H37.1201ZM37.0601 48.964C37.0601 48.58 37.0121 48.22 36.9161 47.884C36.8201 47.54 36.6441 47.256 36.3881 47.032C36.2681 46.92 36.1281 46.828 35.9681 46.756C35.8161 46.676 35.6281 46.636 35.4041 46.636C35.0681 46.636 34.7881 46.704 34.5641 46.84C34.3401 46.976 34.1641 47.156 34.0361 47.38C33.9081 47.604 33.8161 47.856 33.7601 48.136C33.7121 48.408 33.6881 48.684 33.6881 48.964C33.6881 49.244 33.7121 49.524 33.7601 49.804C33.8161 50.076 33.9081 50.324 34.0361 50.548C34.1641 50.772 34.3401 50.952 34.5641 51.088C34.7881 51.224 35.0681 51.292 35.4041 51.292C35.6281 51.292 35.8161 51.256 35.9681 51.184C36.1281 51.104 36.2681 51.008 36.3881 50.896C36.6441 50.672 36.8201 50.392 36.9161 50.056C37.0121 49.712 37.0601 49.348 37.0601 48.964ZM44.1128 52L44.0288 51.076C43.8688 51.428 43.6168 51.696 43.2728 51.88C42.9368 52.056 42.5888 52.144 42.2288 52.144C41.5328 52.144 41.0128 51.948 40.6688 51.556C40.3248 51.164 40.1528 50.616 40.1528 49.912V45.928H41.1728V49.768C41.1728 50.224 41.2688 50.58 41.4608 50.836C41.6528 51.092 41.9888 51.22 42.4688 51.22C42.6768 51.22 42.8608 51.18 43.0208 51.1C43.1888 51.012 43.3408 50.9 43.4768 50.764C43.6688 50.564 43.8008 50.312 43.8728 50.008C43.9448 49.704 43.9808 49.396 43.9808 49.084V45.928H45.0008V52H44.1128ZM51.7332 50.236C51.7332 50.5 51.6892 50.736 51.6012 50.944C51.5132 51.144 51.3972 51.32 51.2532 51.472C51.0212 51.712 50.7332 51.888 50.3892 52C50.0452 52.104 49.6732 52.156 49.2732 52.156C48.8892 52.156 48.5292 52.104 48.1932 52C47.8572 51.904 47.5612 51.728 47.3052 51.472C47.1212 51.288 46.9772 51.076 46.8732 50.836C46.7692 50.588 46.7172 50.336 46.7172 50.08H47.7372C47.7452 50.288 47.7932 50.472 47.8812 50.632C47.9692 50.784 48.0852 50.916 48.2292 51.028C48.3652 51.132 48.5332 51.204 48.7332 51.244C48.9332 51.284 49.1292 51.304 49.3212 51.304C49.5292 51.304 49.7252 51.284 49.9092 51.244C50.1012 51.196 50.2772 51.104 50.4372 50.968C50.5252 50.904 50.5972 50.812 50.6532 50.692C50.7092 50.572 50.7372 50.444 50.7372 50.308C50.7372 50.076 50.6572 49.884 50.4972 49.732C50.3372 49.58 50.1012 49.484 49.7892 49.444C49.7252 49.436 49.6372 49.424 49.5252 49.408C49.4132 49.392 49.2932 49.376 49.1652 49.36C49.0372 49.344 48.9052 49.328 48.7692 49.312C48.6412 49.296 48.5252 49.28 48.4212 49.264C47.9652 49.192 47.6012 49.02 47.3292 48.748C47.0652 48.468 46.9332 48.096 46.9332 47.632C46.9332 47.4 46.9812 47.18 47.0772 46.972C47.1812 46.756 47.3012 46.58 47.4372 46.444C47.6372 46.236 47.8892 46.072 48.1932 45.952C48.4972 45.832 48.8412 45.772 49.2252 45.772C49.6332 45.772 50.0052 45.836 50.3412 45.964C50.6772 46.092 50.9492 46.284 51.1572 46.54C51.2932 46.7 51.3972 46.872 51.4692 47.056C51.5492 47.24 51.5892 47.456 51.5892 47.704H50.5692C50.5612 47.544 50.5212 47.4 50.4492 47.272C50.3852 47.136 50.3092 47.028 50.2212 46.948C49.9812 46.732 49.6492 46.624 49.2252 46.624C49.1052 46.624 48.9932 46.628 48.8892 46.636C48.7852 46.644 48.6612 46.68 48.5172 46.744C48.3252 46.824 48.1732 46.94 48.0612 47.092C47.9572 47.236 47.9052 47.392 47.9052 47.56C47.9052 47.816 47.9772 48.004 48.1212 48.124C48.2652 48.236 48.4652 48.312 48.7212 48.352C48.8892 48.376 49.0932 48.404 49.3332 48.436C49.5732 48.46 49.8572 48.5 50.1852 48.556C50.6172 48.628 50.9812 48.812 51.2772 49.108C51.5812 49.404 51.7332 49.78 51.7332 50.236ZM56.5764 51.916C56.4404 51.956 56.2724 51.992 56.0724 52.024C55.8804 52.064 55.6444 52.084 55.3644 52.084C55.0364 52.084 54.7644 52.036 54.5484 51.94C54.3324 51.844 54.1604 51.72 54.0324 51.568C53.9124 51.416 53.8244 51.244 53.7684 51.052C53.7204 50.852 53.6964 50.648 53.6964 50.44V46.804H52.5204V45.928H53.6964V44.38L54.7164 44.14V45.928H56.5164V46.804H54.7164V50.32C54.7164 50.616 54.7804 50.828 54.9084 50.956C55.0444 51.084 55.2524 51.148 55.5324 51.148C55.6444 51.148 55.7604 51.144 55.8804 51.136C56.0004 51.128 56.1124 51.116 56.2164 51.1C56.3364 51.084 56.4564 51.064 56.5764 51.04V51.916ZM61.3256 46.924C61.2376 46.908 61.1416 46.896 61.0376 46.888C60.9416 46.88 60.8496 46.876 60.7616 46.876C60.5216 46.876 60.3016 46.924 60.1016 47.02C59.9096 47.108 59.7456 47.22 59.6096 47.356C59.4896 47.476 59.3896 47.616 59.3096 47.776C59.2376 47.928 59.1816 48.092 59.1416 48.268C59.1096 48.444 59.0856 48.62 59.0696 48.796C59.0616 48.972 59.0576 49.14 59.0576 49.3V52H58.0496V45.928H58.9496L59.0336 46.996C59.1936 46.62 59.4376 46.344 59.7656 46.168C60.1016 45.984 60.4616 45.892 60.8456 45.892C61.0056 45.892 61.1656 45.904 61.3256 45.928V46.924ZM64.6591 53.248C64.5151 53.64 64.3191 53.952 64.0711 54.184C63.8231 54.424 63.4711 54.544 63.0151 54.544C62.7591 54.544 62.5511 54.528 62.3911 54.496C62.2311 54.464 62.1311 54.44 62.0911 54.424V53.536C62.1551 53.552 62.2271 53.568 62.3071 53.584C62.3711 53.6 62.4431 53.612 62.5231 53.62C62.6111 53.628 62.7071 53.632 62.8111 53.632C63.0271 53.632 63.2111 53.588 63.3631 53.5C63.5151 53.412 63.6351 53.252 63.7231 53.02L64.1071 52L61.6831 45.928H62.8351L64.6231 50.716L66.3271 45.928H67.3951L64.6591 53.248ZM29.0962 64.66C29.0962 65.02 29.0282 65.332 28.8922 65.596C28.7562 65.86 28.5842 66.096 28.3762 66.304C28.0802 66.592 27.7162 66.808 27.2842 66.952C26.8602 67.088 26.4202 67.156 25.9642 67.156C24.9322 67.156 24.1202 66.884 23.5282 66.34C23.2562 66.084 23.0362 65.784 22.8682 65.44C22.7002 65.088 22.6162 64.708 22.6162 64.3H23.7322C23.7322 64.556 23.7882 64.804 23.9002 65.044C24.0122 65.276 24.1562 65.476 24.3322 65.644C24.5242 65.828 24.7682 65.964 25.0642 66.052C25.3602 66.132 25.6602 66.172 25.9642 66.172C26.2922 66.172 26.5882 66.136 26.8522 66.064C27.1242 65.992 27.3562 65.864 27.5482 65.68C27.6842 65.56 27.7882 65.424 27.8602 65.272C27.9402 65.112 27.9802 64.916 27.9802 64.684C27.9802 64.348 27.8682 64.056 27.6442 63.808C27.4202 63.56 27.0562 63.396 26.5522 63.316C26.3202 63.276 26.0962 63.244 25.8802 63.22C25.6642 63.188 25.4402 63.152 25.2082 63.112C24.8882 63.064 24.5882 62.984 24.3082 62.872C24.0362 62.76 23.7962 62.612 23.5882 62.428C23.3882 62.236 23.2282 62.012 23.1082 61.756C22.9962 61.492 22.9402 61.192 22.9402 60.856C22.9402 60.536 23.0042 60.232 23.1322 59.944C23.2682 59.648 23.4522 59.392 23.6842 59.176C24.2842 58.616 25.0282 58.336 25.9162 58.336C26.3322 58.336 26.7322 58.404 27.1162 58.54C27.5082 58.676 27.8442 58.88 28.1242 59.152C28.6442 59.648 28.9162 60.256 28.9402 60.976H27.8242C27.8082 60.768 27.7642 60.572 27.6922 60.388C27.6202 60.204 27.5242 60.044 27.4042 59.908C27.2442 59.724 27.0362 59.58 26.7802 59.476C26.5322 59.372 26.2402 59.32 25.9042 59.32C25.6002 59.32 25.3162 59.368 25.0522 59.464C24.7962 59.552 24.5762 59.7 24.3922 59.908C24.2802 60.036 24.1922 60.176 24.1282 60.328C24.0722 60.472 24.0442 60.64 24.0442 60.832C24.0442 61.024 24.0802 61.192 24.1522 61.336C24.2242 61.472 24.3202 61.588 24.4402 61.684C24.5602 61.78 24.6962 61.856 24.8482 61.912C25.0002 61.968 25.1562 62.008 25.3162 62.032C25.5562 62.064 25.7922 62.1 26.0242 62.14C26.2642 62.172 26.5002 62.208 26.7322 62.248C27.4442 62.352 28.0162 62.612 28.4482 63.028C28.8802 63.436 29.0962 63.98 29.0962 64.66ZM34.6734 67L34.5894 66.076C34.4294 66.428 34.1774 66.696 33.8334 66.88C33.4974 67.056 33.1494 67.144 32.7894 67.144C32.0934 67.144 31.5734 66.948 31.2294 66.556C30.8854 66.164 30.7134 65.616 30.7134 64.912V60.928H31.7334V64.768C31.7334 65.224 31.8294 65.58 32.0214 65.836C32.2134 66.092 32.5494 66.22 33.0294 66.22C33.2374 66.22 33.4214 66.18 33.5814 66.1C33.7494 66.012 33.9014 65.9 34.0374 65.764C34.2294 65.564 34.3614 65.312 34.4334 65.008C34.5054 64.704 34.5414 64.396 34.5414 64.084V60.928H35.5614V67H34.6734ZM43.1697 63.964C43.1697 64.492 43.0897 64.984 42.9297 65.44C42.7777 65.888 42.5497 66.26 42.2457 66.556C42.0457 66.74 41.8057 66.888 41.5257 67C41.2537 67.112 40.9377 67.168 40.5777 67.168C40.4097 67.168 40.2377 67.148 40.0617 67.108C39.8937 67.068 39.7297 67.012 39.5697 66.94C39.4097 66.868 39.2617 66.78 39.1257 66.676C38.9977 66.564 38.8937 66.44 38.8137 66.304V69.604H37.7937V60.94H38.6937L38.7657 61.732C38.9417 61.428 39.2017 61.196 39.5457 61.036C39.8897 60.868 40.2337 60.784 40.5777 60.784C40.9537 60.784 41.2817 60.844 41.5617 60.964C41.8497 61.076 42.0937 61.236 42.2937 61.444C42.5817 61.74 42.7977 62.108 42.9417 62.548C43.0937 62.988 43.1697 63.46 43.1697 63.964ZM42.1257 63.976C42.1257 63.696 42.0977 63.42 42.0417 63.148C41.9937 62.868 41.9057 62.616 41.7777 62.392C41.6497 62.168 41.4737 61.988 41.2497 61.852C41.0257 61.716 40.7457 61.648 40.4097 61.648C40.1857 61.648 39.9937 61.688 39.8337 61.768C39.6817 61.84 39.5457 61.932 39.4257 62.044C39.1697 62.268 38.9937 62.552 38.8977 62.896C38.8017 63.232 38.7537 63.592 38.7537 63.976C38.7537 64.36 38.8017 64.724 38.8977 65.068C38.9937 65.404 39.1697 65.684 39.4257 65.908C39.5457 66.02 39.6817 66.116 39.8337 66.196C39.9937 66.268 40.1857 66.304 40.4097 66.304C40.7457 66.304 41.0257 66.236 41.2497 66.1C41.4737 65.964 41.6497 65.784 41.7777 65.56C41.9057 65.336 41.9937 65.088 42.0417 64.816C42.0977 64.536 42.1257 64.256 42.1257 63.976ZM50.2479 63.964C50.2479 64.492 50.1679 64.984 50.0079 65.44C49.8559 65.888 49.6279 66.26 49.3239 66.556C49.1239 66.74 48.8839 66.888 48.6039 67C48.3319 67.112 48.0159 67.168 47.6559 67.168C47.4879 67.168 47.3159 67.148 47.1399 67.108C46.9719 67.068 46.8079 67.012 46.6479 66.94C46.4879 66.868 46.3399 66.78 46.2039 66.676C46.0759 66.564 45.9719 66.44 45.8919 66.304V69.604H44.8719V60.94H45.7719L45.8439 61.732C46.0199 61.428 46.2799 61.196 46.6239 61.036C46.9679 60.868 47.3119 60.784 47.6559 60.784C48.0319 60.784 48.3599 60.844 48.6399 60.964C48.9279 61.076 49.1719 61.236 49.3719 61.444C49.6599 61.74 49.8759 62.108 50.0199 62.548C50.1719 62.988 50.2479 63.46 50.2479 63.964ZM49.2039 63.976C49.2039 63.696 49.1759 63.42 49.1199 63.148C49.0719 62.868 48.9839 62.616 48.8559 62.392C48.7279 62.168 48.5519 61.988 48.3279 61.852C48.1039 61.716 47.8239 61.648 47.4879 61.648C47.2639 61.648 47.0719 61.688 46.9119 61.768C46.7599 61.84 46.6239 61.932 46.5039 62.044C46.2479 62.268 46.0719 62.552 45.9759 62.896C45.8799 63.232 45.8319 63.592 45.8319 63.976C45.8319 64.36 45.8799 64.724 45.9759 65.068C46.0719 65.404 46.2479 65.684 46.5039 65.908C46.6239 66.02 46.7599 66.116 46.9119 66.196C47.0719 66.268 47.2639 66.304 47.4879 66.304C47.8239 66.304 48.1039 66.236 48.3279 66.1C48.5519 65.964 48.7279 65.784 48.8559 65.56C48.9839 65.336 49.0719 65.088 49.1199 64.816C49.1759 64.536 49.2039 64.256 49.2039 63.976ZM56.9406 63.964C56.9406 64.444 56.8806 64.896 56.7606 65.32C56.6406 65.744 56.4126 66.12 56.0766 66.448C55.8526 66.664 55.5846 66.836 55.2726 66.964C54.9686 67.092 54.6246 67.156 54.2406 67.156C53.8566 67.156 53.5086 67.092 53.1966 66.964C52.8926 66.836 52.6286 66.664 52.4046 66.448C52.0686 66.12 51.8406 65.744 51.7206 65.32C51.6006 64.896 51.5406 64.444 51.5406 63.964C51.5406 63.484 51.6006 63.032 51.7206 62.608C51.8406 62.184 52.0686 61.808 52.4046 61.48C52.6286 61.264 52.8926 61.092 53.1966 60.964C53.5086 60.836 53.8566 60.772 54.2406 60.772C54.6246 60.772 54.9686 60.836 55.2726 60.964C55.5846 61.092 55.8526 61.264 56.0766 61.48C56.4126 61.808 56.6406 62.184 56.7606 62.608C56.8806 63.032 56.9406 63.484 56.9406 63.964ZM55.8966 63.964C55.8966 63.604 55.8566 63.256 55.7766 62.92C55.6966 62.584 55.5486 62.304 55.3326 62.08C55.2046 61.952 55.0486 61.848 54.8646 61.768C54.6886 61.688 54.4806 61.648 54.2406 61.648C54.0006 61.648 53.7886 61.688 53.6046 61.768C53.4286 61.848 53.2766 61.952 53.1486 62.08C52.9326 62.304 52.7846 62.584 52.7046 62.92C52.6246 63.256 52.5846 63.604 52.5846 63.964C52.5846 64.324 52.6246 64.672 52.7046 65.008C52.7846 65.344 52.9326 65.624 53.1486 65.848C53.2766 65.976 53.4286 66.08 53.6046 66.16C53.7886 66.24 54.0006 66.28 54.2406 66.28C54.4806 66.28 54.6886 66.24 54.8646 66.16C55.0486 66.08 55.2046 65.976 55.3326 65.848C55.5486 65.624 55.6966 65.344 55.7766 65.008C55.8566 64.672 55.8966 64.324 55.8966 63.964ZM61.976 61.924C61.888 61.908 61.792 61.896 61.688 61.888C61.592 61.88 61.5 61.876 61.412 61.876C61.172 61.876 60.952 61.924 60.752 62.02C60.56 62.108 60.396 62.22 60.26 62.356C60.14 62.476 60.04 62.616 59.96 62.776C59.888 62.928 59.832 63.092 59.792 63.268C59.76 63.444 59.736 63.62 59.72 63.796C59.712 63.972 59.708 64.14 59.708 64.3V67H58.7V60.928H59.6L59.684 61.996C59.844 61.62 60.088 61.344 60.416 61.168C60.752 60.984 61.112 60.892 61.496 60.892C61.656 60.892 61.816 60.904 61.976 60.928V61.924ZM66.5666 66.916C66.4306 66.956 66.2626 66.992 66.0626 67.024C65.8706 67.064 65.6346 67.084 65.3546 67.084C65.0266 67.084 64.7546 67.036 64.5386 66.94C64.3226 66.844 64.1506 66.72 64.0226 66.568C63.9026 66.416 63.8146 66.244 63.7586 66.052C63.7106 65.852 63.6866 65.648 63.6866 65.44V61.804H62.5106V60.928H63.6866V59.38L64.7066 59.14V60.928H66.5066V61.804H64.7066V65.32C64.7066 65.616 64.7706 65.828 64.8986 65.956C65.0346 66.084 65.2426 66.148 65.5226 66.148C65.6346 66.148 65.7506 66.144 65.8706 66.136C65.9906 66.128 66.1026 66.116 66.2066 66.1C66.3266 66.084 66.4466 66.064 66.5666 66.04V66.916Z" fill="white"/>
</g>
<defs>
<filter id="filter0_d_527_3030" x="0" y="0" width="88" height="88" filterUnits="userSpaceOnUse" color-interpolation-filters="sRGB">
<feFlood flood-opacity="0" result="BackgroundImageFix"/>
<feColorMatrix in="SourceAlpha" type="matrix" values="0 0 0 0 0 0 0 0 0 0 0 0 0 0 0 0 0 0 127 0" result="hardAlpha"/>
<feOffset dy="4"/>
<feGaussianBlur stdDeviation="2"/>
<feComposite in2="hardAlpha" operator="out"/>
<feColorMatrix type="matrix" values="0 0 0 0 0 0 0 0 0 0 0 0 0 0 0 0 0 0 0.25 0"/>
<feBlend mode="normal" in2="BackgroundImageFix" result="effect1_dropShadow_527_3030"/>
<feBlend mode="normal" in="SourceGraphic" in2="effect1_dropShadow_527_3030" result="shape"/>
</filter>
<filter id="filter1_d_527_3030" x="0" y="0" width="88" height="88" filterUnits="userSpaceOnUse" color-interpolation-filters="sRGB">
<feFlood flood-opacity="0" result="BackgroundImageFix"/>
<feColorMatrix in="SourceAlpha" type="matrix" values="0 0 0 0 0 0 0 0 0 0 0 0 0 0 0 0 0 0 127 0" result="hardAlpha"/>
<feOffset dy="4"/>
<feGaussianBlur stdDeviation="2"/>
<feComposite in2="hardAlpha" operator="out"/>
<feColorMatrix type="matrix" values="0 0 0 0 0 0 0 0 0 0 0 0 0 0 0 0 0 0 0.25 0"/>
<feBlend mode="normal" in2="BackgroundImageFix" result="effect1_dropShadow_527_3030"/>
<feBlend mode="normal" in="SourceGraphic" in2="effect1_dropShadow_527_3030" result="shape"/>
</filter>
<linearGradient id="paint0_linear_527_3030" x1="44" y1="0" x2="44" y2="80" gradientUnits="userSpaceOnUse">
<stop stop-color="#015193"/>
<stop offset="1" stop-color="#4B86A8"/>
</linearGradient>
</defs>
</svg>
