<svg width="52" height="32" viewBox="0 0 52 32" fill="none" xmlns="http://www.w3.org/2000/svg">
<path d="M47.8877 13.752V17.5025H4.12533V4.05615H0V30.9532H4.12533V24.8063H47.8877V31.4667H52V13.7477L47.8877 13.752Z" fill="url(#paint0_linear_345_2797)"/>
<path d="M18.8696 13.7908V13.793C18.8696 15.015 17.8794 16.0073 16.6552 16.0073H8.21824C7.63096 16.0073 7.06774 15.774 6.65247 15.3588C6.2372 14.9435 6.00391 14.3803 6.00391 13.793V13.7887C6.00391 12.5667 6.99407 11.5743 8.21824 11.5743H16.6552C17.8772 11.5743 18.8696 12.5645 18.8696 13.7887V13.7908ZM42.7766 5.122H37.6416V0H34.0016V5.12417H28.8774V8.76417H33.9994V13.8883H37.6394V8.76417H42.7744L42.7766 5.122Z" fill="url(#paint1_linear_345_2797)"/>
<defs>
<linearGradient id="paint0_linear_345_2797" x1="26" y1="4.05615" x2="26" y2="31.4667" gradientUnits="userSpaceOnUse">
<stop stop-color="#015193"/>
<stop offset="1" stop-color="#4B86A8"/>
</linearGradient>
<linearGradient id="paint1_linear_345_2797" x1="24.3902" y1="0" x2="24.3902" y2="16.0073" gradientUnits="userSpaceOnUse">
<stop stop-color="#015193"/>
<stop offset="1" stop-color="#4B86A8"/>
</linearGradient>
</defs>
</svg>
