<svg width="42" height="42" viewBox="0 0 42 42" fill="none" xmlns="http://www.w3.org/2000/svg">
<path d="M37.5 0.166504H4.16667C3.0616 0.166504 2.00179 0.605491 1.22039 1.38689C0.438987 2.16829 0 3.2281 0 4.33317V29.3332C0 30.4382 0.438987 31.498 1.22039 32.2794C2.00179 33.0609 3.0616 33.4998 4.16667 33.4998H16.6667V37.6665H10.4167V41.8332H31.25V37.6665H25V33.4998H37.5C38.6051 33.4998 39.6649 33.0609 40.4463 32.2794C41.2277 31.498 41.6667 30.4382 41.6667 29.3332V4.33317C41.6667 3.2281 41.2277 2.16829 40.4463 1.38689C39.6649 0.605491 38.6051 0.166504 37.5 0.166504ZM37.5 29.3332H4.16667V4.33317H37.5V29.3332Z" fill="url(#paint0_linear_496_2453)"/>
<path d="M31.1193 12.8098C31.1193 12.5741 30.9264 12.3812 30.6907 12.3812H25.1193C24.8836 12.3812 24.6907 12.1884 24.6907 11.9526V6.38121C24.6907 6.14549 24.4978 5.95264 24.2621 5.95264H17.405C17.1693 5.95264 16.9764 6.14549 16.9764 6.38121V11.9526C16.9764 12.1884 16.7836 12.3812 16.5479 12.3812H10.9764C10.7407 12.3812 10.5479 12.5741 10.5479 12.8098V19.6669C10.5479 19.9026 10.7407 20.0955 10.9764 20.0955H16.5479C16.7836 20.0955 16.9764 20.2883 16.9764 20.5241V26.0955C16.9764 26.3312 17.1693 26.5241 17.405 26.5241H24.2621C24.4978 26.5241 24.6907 26.3312 24.6907 26.0955V20.5241C24.6907 20.2883 24.8836 20.0955 25.1193 20.0955H30.6907C30.9264 20.0955 31.1193 19.9026 31.1193 19.6669V12.8098Z" fill="url(#paint1_linear_496_2453)"/>
<defs>
<linearGradient id="paint0_linear_496_2453" x1="20.8333" y1="0.166504" x2="20.8333" y2="41.8332" gradientUnits="userSpaceOnUse">
<stop stop-color="#015193"/>
<stop offset="1" stop-color="#4B86A8"/>
</linearGradient>
<linearGradient id="paint1_linear_496_2453" x1="20.8336" y1="5.95264" x2="20.8336" y2="26.5241" gradientUnits="userSpaceOnUse">
<stop stop-color="#015193"/>
<stop offset="1" stop-color="#4B86A8"/>
</linearGradient>
</defs>
</svg>
