<svg width="43" height="51" viewBox="0 0 43 51" fill="none" xmlns="http://www.w3.org/2000/svg">
<path d="M34.9063 34.0266V50.1904H14.5868V44.3604H11.6017C7.45636 44.3604 4.09355 40.9992 4.09355 36.8483V31.526H1.54036C1.13279 31.5256 0.741956 31.3638 0.453311 31.076C0.164665 30.7883 0.00168484 30.398 0 29.9904C0 29.7768 0.03825 29.5744 0.11475 29.3935L4.09355 19.3744C4.09355 19.3744 4.50473 15.2243 4.87926 13.6353C6.53597 6.48656 14.5047 0 23.146 0C33.6584 0 42.1842 8.52656 42.1842 19.0485C42.1842 25.1247 39.3377 30.5402 34.9063 34.0266ZM8.7712 18.9202C8.20942 18.9217 7.67113 19.1458 7.27427 19.5434C6.87741 19.941 6.65433 20.4797 6.65391 21.0415C6.65263 21.6046 6.87489 22.1452 7.27187 22.5446C7.66885 22.9439 8.2081 23.1694 8.7712 23.1715C9.05113 23.1717 9.32836 23.1168 9.58707 23.0099C9.84577 22.9029 10.0809 22.7461 10.279 22.5483C10.4771 22.3505 10.6342 22.1156 10.7416 21.8571C10.8489 21.5986 10.9042 21.3214 10.9044 21.0415C10.9021 20.4775 10.6762 19.9375 10.2763 19.5399C9.87644 19.1422 9.33516 18.9194 8.7712 18.9202ZM27.2181 14.2983C27.2181 14.8301 27.4293 15.34 27.8053 15.716C28.1813 16.092 28.6913 16.3033 29.223 16.3033C29.7547 16.3033 30.2647 16.092 30.6407 15.716C31.0167 15.34 31.2279 14.8301 31.2279 14.2983C31.2279 13.7666 31.0167 13.2566 30.6407 12.8806C30.2647 12.5046 29.7547 12.2934 29.223 12.2934C28.6913 12.2934 28.1813 12.5046 27.8053 12.8806C27.4293 13.2566 27.2181 13.7666 27.2181 14.2983ZM12.0639 12.1213C12.064 12.3853 12.1161 12.6468 12.2173 12.8907C12.3185 13.1346 12.4668 13.3561 12.6536 13.5427C12.8405 13.7292 13.0623 13.8772 13.3064 13.978C13.5504 14.0788 13.8119 14.1305 14.076 14.1302C14.6094 14.1302 15.121 13.9183 15.4982 13.5411C15.8754 13.1639 16.0873 12.6523 16.0873 12.1189C16.0873 11.5854 15.8754 11.0739 15.4982 10.6967C15.121 10.3195 14.6094 10.1076 14.076 10.1076C13.8116 10.1076 13.5499 10.1597 13.3056 10.2609C13.0614 10.3621 12.8395 10.5104 12.6527 10.6975C12.4658 10.8845 12.3176 11.1065 12.2166 11.3508C12.1156 11.5951 12.0637 11.8569 12.0639 12.1213ZM35.8633 16.5304L38.7775 16.0291V13.2241L35.9701 12.7404C35.8368 12.2339 35.647 11.744 35.4044 11.2798L37.1057 8.86364L35.1318 6.88261L32.7994 8.52577C32.4477 8.31711 32.0784 8.13978 31.6957 7.99584C31.5865 7.956 31.4774 7.92652 31.3682 7.89305L30.8598 4.98047H28.0556L27.5822 7.78547C27.0726 7.9178 26.5798 8.10817 26.1136 8.35284L23.7007 6.64753L21.7109 8.63255L23.3636 10.9554C23.1528 11.3097 22.9747 11.6823 22.8313 12.0687C22.789 12.1778 22.7619 12.287 22.7269 12.3962L20.3195 12.809V11.4718L18.4811 11.1562C18.3964 10.8373 18.2755 10.529 18.1209 10.2375L19.2477 8.6453L17.9456 7.34559L16.4124 8.42695C16.1873 8.29191 15.9511 8.17621 15.7064 8.08111C15.6419 8.0572 15.5749 8.05163 15.5088 8.03091L15.1757 6.11283H13.3453L13.0249 7.95361C12.7022 8.03887 12.3954 8.16478 12.1005 8.31858L10.5052 7.19578L9.20948 8.49548L10.2932 10.0287C10.1577 10.2526 10.0428 10.4884 9.94978 10.7331C9.92508 10.7992 9.90994 10.8646 9.88922 10.9331L7.9815 11.2606V13.1006L9.83264 13.4178C9.91711 13.7341 10.0335 14.0409 10.1833 14.3326L9.05728 15.9263L10.3546 17.2276L11.8934 16.1439C12.1173 16.2754 12.3492 16.3973 12.601 16.4913C12.6655 16.516 12.7325 16.5208 12.797 16.5431L13.1301 18.4612L14.9597 18.4596L15.2809 16.6212C15.6003 16.5345 15.9092 16.4129 16.2021 16.2586L17.791 17.379L19.0931 16.0801L18.011 14.547C18.1409 14.3246 18.2612 14.0959 18.3528 13.8465C18.3791 13.7804 18.3839 13.711 18.407 13.6433L19.8191 13.3995V15.7016L22.6217 16.1837C22.754 16.6953 22.9468 17.1862 23.1907 17.6524L21.4893 20.0597L23.4672 22.0432L25.798 20.4C26.1463 20.6032 26.5104 20.7833 26.9025 20.9275C27.0117 20.969 27.1208 20.9969 27.23 21.0319L27.7384 23.9461H30.1721L29.9713 25.1135C29.6198 25.1932 29.2883 25.3319 28.976 25.5072L27.8125 24.6848L26.9001 25.598L27.6874 26.7128C27.5519 26.928 27.434 27.1567 27.344 27.4037C27.3081 27.5025 27.2938 27.6014 27.2659 27.7002L25.8538 27.9416V29.2286L27.2053 29.4629C27.2834 29.8167 27.4221 30.1474 27.599 30.4621L26.7766 31.624L27.6858 32.5396L28.8006 31.7491C29.0158 31.8862 29.2461 32.0041 29.4939 32.0957C29.5927 32.1324 29.6932 32.1459 29.7944 32.1738L30.0262 33.5787H31.318L31.5539 32.2328C31.9077 32.1547 32.2392 32.016 32.5531 31.8391L33.7102 32.6607L34.6258 31.7467L33.8385 30.6383C33.9771 30.4215 34.0967 30.1904 34.1891 29.941C34.2234 29.8438 34.2377 29.745 34.2656 29.6461L35.6657 29.4047V28.113L34.3214 27.8827C34.2406 27.5326 34.1079 27.1966 33.9277 26.8858L34.7477 25.7215L33.8337 24.8091L32.7205 25.5916C32.503 25.4523 32.2714 25.3364 32.0296 25.2458C31.9348 25.2115 31.8375 25.1972 31.7403 25.1717L31.4941 23.7668H30.5713L31.0168 21.1387C31.5249 21.0075 32.0161 20.8179 32.4806 20.5737L34.8967 22.279L36.877 20.298L35.2306 17.9671C35.4354 17.6181 35.6171 17.2523 35.7629 16.8603C35.8036 16.7503 35.8315 16.6411 35.8665 16.532L35.8633 16.5304ZM28.7512 28.7576C28.7519 29.2912 28.9643 29.8027 29.3419 30.1797C29.7195 30.5567 30.2314 30.7684 30.7649 30.7681C31.0284 30.7676 31.2892 30.7152 31.5324 30.6139C31.7756 30.5125 31.9964 30.3643 32.1823 30.1776C32.3682 29.9909 32.5155 29.7694 32.6158 29.5257C32.716 29.2821 32.7673 29.0211 32.7667 28.7576C32.7672 28.4943 32.7159 28.2334 32.6155 27.9899C32.5152 27.7464 32.3679 27.525 32.182 27.3385C31.9961 27.1519 31.7753 27.0038 31.5321 26.9026C31.289 26.8014 31.0283 26.7491 30.7649 26.7487C30.2316 26.7483 29.7199 26.9596 29.3423 27.3363C28.9647 27.713 28.7521 28.2243 28.7512 28.7576Z" fill="url(#paint0_linear_345_2791)"/>
<defs>
<linearGradient id="paint0_linear_345_2791" x1="21.0921" y1="0" x2="21.0921" y2="50.1904" gradientUnits="userSpaceOnUse">
<stop stop-color="#015193"/>
<stop offset="1" stop-color="#4B86A8"/>
</linearGradient>
</defs>
</svg>
