<svg width="50" height="38" viewBox="0 0 50 38" fill="none" xmlns="http://www.w3.org/2000/svg">
<path d="M28.125 9.625C28.125 12.1114 27.1373 14.496 25.3791 16.2541C23.621 18.0123 21.2364 19 18.75 19C16.2636 19 13.879 18.0123 12.1209 16.2541C10.3627 14.496 9.375 12.1114 9.375 9.625C9.375 7.1386 10.3627 4.75403 12.1209 2.99587C13.879 1.23772 16.2636 0.25 18.75 0.25C21.2364 0.25 23.621 1.23772 25.3791 2.99587C27.1373 4.75403 28.125 7.1386 28.125 9.625ZM0 34.625C0 37.75 3.125 37.75 3.125 37.75H34.375C34.375 37.75 37.5 37.75 37.5 34.625C37.5 31.5 34.375 22.125 18.75 22.125C3.125 22.125 0 31.5 0 34.625ZM42.1875 9.34375C46.5219 4.89062 57.3594 12.6875 42.1875 22.7094C27.0187 12.6875 37.8531 4.89062 42.1875 9.34687V9.34375Z" fill="url(#paint0_linear_422_2405)"/>
<defs>
<linearGradient id="paint0_linear_422_2405" x1="25.0004" y1="0.25" x2="25.0004" y2="37.75" gradientUnits="userSpaceOnUse">
<stop stop-color="#015193"/>
<stop offset="1" stop-color="#4B86A8"/>
</linearGradient>
</defs>
</svg>
