<svg width="43" height="49" viewBox="0 0 43 49" fill="none" xmlns="http://www.w3.org/2000/svg">
<path d="M16.9062 0C15.6879 0 14.5195 0.483983 13.658 1.34548C12.7965 2.20697 12.3125 3.37541 12.3125 4.59375V7.65625C12.3125 8.87459 12.7965 10.043 13.658 10.9045C14.5195 11.766 15.6879 12.25 16.9062 12.25H26.0938C27.3121 12.25 28.4805 11.766 29.342 10.9045C30.2035 10.043 30.6875 8.87459 30.6875 7.65625V4.59375C30.6875 3.37541 30.2035 2.20697 29.342 1.34548C28.4805 0.483983 27.3121 0 26.0938 0L16.9062 0ZM26.0938 3.0625C26.4999 3.0625 26.8893 3.22383 27.1765 3.51099C27.4637 3.79816 27.625 4.18764 27.625 4.59375V7.65625C27.625 8.06236 27.4637 8.45184 27.1765 8.73901C26.8893 9.02617 26.4999 9.1875 26.0938 9.1875H16.9062C16.5001 9.1875 16.1107 9.02617 15.8235 8.73901C15.5363 8.45184 15.375 8.06236 15.375 7.65625V4.59375C15.375 4.18764 15.5363 3.79816 15.8235 3.51099C16.1107 3.22383 16.5001 3.0625 16.9062 3.0625H26.0938Z" fill="url(#paint0_linear_345_2782)"/>
<path d="M9.25 4.59375H6.1875C4.56305 4.59375 3.00513 5.23906 1.85647 6.38772C0.707811 7.53638 0.0625 9.0943 0.0625 10.7188V42.875C0.0625 44.4995 0.707811 46.0574 1.85647 47.206C3.00513 48.3547 4.56305 49 6.1875 49H36.8125C38.437 49 39.9949 48.3547 41.1435 47.206C42.2922 46.0574 42.9375 44.4995 42.9375 42.875V10.7188C42.9375 9.0943 42.2922 7.53638 41.1435 6.38772C39.9949 5.23906 38.437 4.59375 36.8125 4.59375H33.75V7.65625C33.75 8.66168 33.552 9.65727 33.1672 10.5862C32.7824 11.5151 32.2185 12.3591 31.5075 13.07C30.7966 13.781 29.9526 14.3449 29.0237 14.7297C28.0948 15.1145 27.0992 15.3125 26.0938 15.3125H16.9062C14.8757 15.3125 12.9283 14.5059 11.4925 13.07C10.0566 11.6342 9.25 9.68681 9.25 7.65625V4.59375ZM27.625 24.5C27.625 23.6878 27.9477 22.9088 28.522 22.3345C29.0963 21.7602 29.8753 21.4375 30.6875 21.4375C31.4997 21.4375 32.2787 21.7602 32.853 22.3345C33.4273 22.9088 33.75 23.6878 33.75 24.5V39.8125C33.75 40.6247 33.4273 41.4037 32.853 41.978C32.2787 42.5523 31.4997 42.875 30.6875 42.875C29.8753 42.875 29.0963 42.5523 28.522 41.978C27.9477 41.4037 27.625 40.6247 27.625 39.8125V24.5ZM9.25 36.75C9.25 35.9378 9.57266 35.1588 10.147 34.5845C10.7213 34.0102 11.5003 33.6875 12.3125 33.6875C13.1247 33.6875 13.9037 34.0102 14.478 34.5845C15.0523 35.1588 15.375 35.9378 15.375 36.75V39.8125C15.375 40.6247 15.0523 41.4037 14.478 41.978C13.9037 42.5523 13.1247 42.875 12.3125 42.875C11.5003 42.875 10.7213 42.5523 10.147 41.978C9.57266 41.4037 9.25 40.6247 9.25 39.8125V36.75ZM21.5 27.5625C22.3122 27.5625 23.0912 27.8852 23.6655 28.4595C24.2398 29.0338 24.5625 29.8128 24.5625 30.625V39.8125C24.5625 40.6247 24.2398 41.4037 23.6655 41.978C23.0912 42.5523 22.3122 42.875 21.5 42.875C20.6878 42.875 19.9088 42.5523 19.3345 41.978C18.7602 41.4037 18.4375 40.6247 18.4375 39.8125V30.625C18.4375 29.8128 18.7602 29.0338 19.3345 28.4595C19.9088 27.8852 20.6878 27.5625 21.5 27.5625Z" fill="url(#paint1_linear_345_2782)"/>
<defs>
<linearGradient id="paint0_linear_345_2782" x1="21.5" y1="0" x2="21.5" y2="12.25" gradientUnits="userSpaceOnUse">
<stop stop-color="#015193"/>
<stop offset="1" stop-color="#4B86A8"/>
</linearGradient>
<linearGradient id="paint1_linear_345_2782" x1="21.5" y1="4.59375" x2="21.5" y2="49" gradientUnits="userSpaceOnUse">
<stop stop-color="#015193"/>
<stop offset="1" stop-color="#4B86A8"/>
</linearGradient>
</defs>
</svg>
