<svg width="60" height="60" viewBox="0 0 60 60" fill="none" xmlns="http://www.w3.org/2000/svg">
<path d="M50 5H10C8.67392 5 7.40215 5.52678 6.46447 6.46447C5.52678 7.40215 5 8.67392 5 10V40C5 41.3261 5.52678 42.5979 6.46447 43.5355C7.40215 44.4732 8.67392 45 10 45H25V50H17.5V55H42.5V50H35V45H50C51.3261 45 52.5979 44.4732 53.5355 43.5355C54.4732 42.5979 55 41.3261 55 40V10C55 8.67392 54.4732 7.40215 53.5355 6.46447C52.5979 5.52678 51.3261 5 50 5ZM50 40H10V10H50V40Z" fill="url(#paint0_linear_345_2775)"/>
<g clip-path="url(#clip0_345_2775)">
<path d="M42.3429 20.1714C42.3429 19.8886 42.1115 19.6572 41.8287 19.6572H35.1429C34.8601 19.6572 34.6287 19.4257 34.6287 19.1429V12.4572C34.6287 12.1743 34.3972 11.9429 34.1144 11.9429H25.8858C25.6029 11.9429 25.3715 12.1743 25.3715 12.4572V19.1429C25.3715 19.4257 25.1401 19.6572 24.8572 19.6572H18.1715C17.8887 19.6572 17.6572 19.8886 17.6572 20.1714V28.4C17.6572 28.6829 17.8887 28.9143 18.1715 28.9143H24.8572C25.1401 28.9143 25.3715 29.1457 25.3715 29.4286V36.1143C25.3715 36.3972 25.6029 36.6286 25.8858 36.6286H34.1144C34.3972 36.6286 34.6287 36.3972 34.6287 36.1143V29.4286C34.6287 29.1457 34.8601 28.9143 35.1429 28.9143H41.8287C42.1115 28.9143 42.3429 28.6829 42.3429 28.4V20.1714Z" fill="url(#paint1_linear_345_2775)"/>
</g>
<defs>
<linearGradient id="paint0_linear_345_2775" x1="30" y1="5" x2="30" y2="55" gradientUnits="userSpaceOnUse">
<stop stop-color="#015193"/>
<stop offset="1" stop-color="#4B86A8"/>
</linearGradient>
<linearGradient id="paint1_linear_345_2775" x1="30.0001" y1="11.9429" x2="30.0001" y2="36.6286" gradientUnits="userSpaceOnUse">
<stop stop-color="#015193"/>
<stop offset="1" stop-color="#4B86A8"/>
</linearGradient>
<clipPath id="clip0_345_2775">
<rect width="25.7143" height="25.7143" fill="white" transform="translate(17.1431 11.4287)"/>
</clipPath>
</defs>
</svg>
