<svg width="60" height="48" viewBox="0 0 60 48" fill="none" xmlns="http://www.w3.org/2000/svg">
<path d="M45 30C46.78 30 48.5201 29.4722 50.0001 28.4832C51.4802 27.4943 52.6337 26.0887 53.3149 24.4442C53.9961 22.7996 54.1743 20.99 53.8271 19.2442C53.4798 17.4984 52.6226 15.8947 51.364 14.636C50.1053 13.3774 48.5016 12.5202 46.7558 12.1729C45.01 11.8257 43.2004 12.0039 41.5558 12.6851C39.9113 13.3663 38.5057 14.5198 37.5168 15.9999C36.5278 17.4799 36 19.22 36 21C36 23.3869 36.9482 25.6761 38.636 27.364C40.3239 29.0518 42.613 30 45 30ZM49.5 33C49.2754 32.9992 49.052 33.0337 48.8381 33.1022C46.3519 33.966 43.6471 33.966 41.1609 33.1022C40.9473 33.0337 40.7243 32.9992 40.5 33C39.1162 33 37.7461 33.2735 36.4683 33.8048C35.1906 34.3361 34.0305 35.1147 33.0547 36.0959C32.079 37.0771 31.3068 38.2415 30.7825 39.5221C30.2583 40.8027 29.9923 42.1744 30 43.5581C30.0131 46.02 32.0372 48 34.5 48H55.5C57.9628 48 59.9869 46.02 60 43.5581C60.0077 42.1744 59.7417 40.8027 59.2175 39.5221C58.6932 38.2415 57.921 37.0771 56.9452 36.0959C55.9695 35.1147 54.8094 34.3361 53.5316 33.8048C52.2539 33.2735 50.8838 33 49.5 33ZM30.9291 33.9797C31.5631 33.3562 32.2567 32.7963 33 32.3081V12C33 11.2044 32.6839 10.4413 32.1213 9.87868C31.5587 9.31607 30.7956 9 30 9H27V3C27 2.20435 26.6839 1.44129 26.1213 0.87868C25.5587 0.316071 24.7956 0 24 0L9 0C8.20435 0 7.44129 0.316071 6.87868 0.87868C6.31607 1.44129 6 2.20435 6 3V9H3C2.20435 9 1.44129 9.31607 0.87868 9.87868C0.316071 10.4413 0 11.2044 0 12L0 46.5C0 46.8978 0.158035 47.2794 0.43934 47.5607C0.720644 47.842 1.10218 48 1.5 48H28.5291C27.5518 46.7301 27.015 45.1764 27 43.5741C26.9855 41.7941 27.3254 40.0291 28 38.3819C28.6745 36.7346 29.6702 35.2382 30.9291 33.9797ZM13.5 37.875C13.5 38.1734 13.3815 38.4595 13.1705 38.6705C12.9595 38.8815 12.6734 39 12.375 39H8.625C8.32663 39 8.04048 38.8815 7.8295 38.6705C7.61853 38.4595 7.5 38.1734 7.5 37.875V34.125C7.5 33.8266 7.61853 33.5405 7.8295 33.3295C8.04048 33.1185 8.32663 33 8.625 33H12.375C12.6734 33 12.9595 33.1185 13.1705 33.3295C13.3815 33.5405 13.5 33.8266 13.5 34.125V37.875ZM13.5 25.875C13.5 26.1734 13.3815 26.4595 13.1705 26.6705C12.9595 26.8815 12.6734 27 12.375 27H8.625C8.32663 27 8.04048 26.8815 7.8295 26.6705C7.61853 26.4595 7.5 26.1734 7.5 25.875V22.125C7.5 21.8266 7.61853 21.5405 7.8295 21.3295C8.04048 21.1185 8.32663 21 8.625 21H12.375C12.6734 21 12.9595 21.1185 13.1705 21.3295C13.3815 21.5405 13.5 21.8266 13.5 22.125V25.875ZM18 14.4375C18 14.5867 17.9407 14.7298 17.8352 14.8352C17.7298 14.9407 17.5867 15 17.4375 15H15.5625C15.4133 15 15.2702 14.9407 15.1648 14.8352C15.0593 14.7298 15 14.5867 15 14.4375V12H12.5625C12.4133 12 12.2702 11.9407 12.1648 11.8352C12.0593 11.7298 12 11.5867 12 11.4375V9.5625C12 9.41332 12.0593 9.27024 12.1648 9.16475C12.2702 9.05926 12.4133 9 12.5625 9H15V6.5625C15 6.41332 15.0593 6.27024 15.1648 6.16475C15.2702 6.05926 15.4133 6 15.5625 6H17.4375C17.5867 6 17.7298 6.05926 17.8352 6.16475C17.9407 6.27024 18 6.41332 18 6.5625V9H20.4375C20.5867 9 20.7298 9.05926 20.8352 9.16475C20.9407 9.27024 21 9.41332 21 9.5625V11.4375C21 11.5867 20.9407 11.7298 20.8352 11.8352C20.7298 11.9407 20.5867 12 20.4375 12H18V14.4375ZM25.5 37.875C25.5 38.1734 25.3815 38.4595 25.1705 38.6705C24.9595 38.8815 24.6734 39 24.375 39H20.625C20.3266 39 20.0405 38.8815 19.8295 38.6705C19.6185 38.4595 19.5 38.1734 19.5 37.875V34.125C19.5 33.8266 19.6185 33.5405 19.8295 33.3295C20.0405 33.1185 20.3266 33 20.625 33H24.375C24.6734 33 24.9595 33.1185 25.1705 33.3295C25.3815 33.5405 25.5 33.8266 25.5 34.125V37.875ZM25.5 25.875C25.5 26.1734 25.3815 26.4595 25.1705 26.6705C24.9595 26.8815 24.6734 27 24.375 27H20.625C20.3266 27 20.0405 26.8815 19.8295 26.6705C19.6185 26.4595 19.5 26.1734 19.5 25.875V22.125C19.5 21.8266 19.6185 21.5405 19.8295 21.3295C20.0405 21.1185 20.3266 21 20.625 21H24.375C24.6734 21 24.9595 21.1185 25.1705 21.3295C25.3815 21.5405 25.5 21.8266 25.5 22.125V25.875Z" fill="url(#paint0_linear_345_2795)"/>
<defs>
<linearGradient id="paint0_linear_345_2795" x1="30.0001" y1="0" x2="30.0001" y2="48" gradientUnits="userSpaceOnUse">
<stop stop-color="#015193"/>
<stop offset="1" stop-color="#4B86A8"/>
</linearGradient>
</defs>
</svg>
