<svg width="50" height="40" viewBox="0 0 50 40" fill="none" xmlns="http://www.w3.org/2000/svg">
<path d="M37.5 25C38.9834 25 40.4334 24.5601 41.6668 23.736C42.9001 22.9119 43.8614 21.7406 44.4291 20.3701C44.9968 18.9997 45.1453 17.4917 44.8559 16.0368C44.5665 14.582 43.8522 13.2456 42.8033 12.1967C41.7544 11.1478 40.418 10.4335 38.9632 10.1441C37.5083 9.85472 36.0003 10.0032 34.6299 10.5709C33.2594 11.1386 32.0881 12.0999 31.264 13.3332C30.4399 14.5666 30 16.0166 30 17.5C30 19.4891 30.7902 21.3968 32.1967 22.8033C33.6032 24.2098 35.5109 25 37.5 25V25ZM41.25 27.5C41.0628 27.4993 40.8767 27.5281 40.6984 27.5852C38.6266 28.305 36.3726 28.305 34.3008 27.5852C34.1228 27.5281 33.9369 27.4993 33.75 27.5C32.5968 27.5 31.4551 27.7279 30.3903 28.1707C29.3255 28.6134 28.3588 29.2623 27.5456 30.0799C26.7325 30.8976 26.089 31.8679 25.6521 32.9351C25.2152 34.0023 24.9936 35.1453 25 36.2984C25.0109 38.35 26.6977 40 28.75 40H46.25C48.3023 40 49.9891 38.35 50 36.2984C50.0064 35.1453 49.7848 34.0023 49.3479 32.9351C48.911 31.8679 48.2675 30.8976 47.4544 30.0799C46.6412 29.2623 45.6745 28.6134 44.6097 28.1707C43.5449 27.7279 42.4031 27.5 41.25 27.5V27.5ZM25.7742 28.3164C26.3026 27.7968 26.8806 27.3303 27.5 26.9234V10C27.5 9.33696 27.2366 8.70107 26.7678 8.23223C26.2989 7.76339 25.663 7.5 25 7.5H22.5V2.5C22.5 1.83696 22.2366 1.20107 21.7678 0.732233C21.2989 0.263392 20.663 0 20 0L7.5 0C6.83696 0 6.20107 0.263392 5.73223 0.732233C5.26339 1.20107 5 1.83696 5 2.5V7.5H2.5C1.83696 7.5 1.20107 7.76339 0.732233 8.23223C0.263392 8.70107 0 9.33696 0 10L0 38.75C0 39.0815 0.131696 39.3995 0.366117 39.6339C0.600537 39.8683 0.918479 40 1.25 40H23.7742C22.9599 38.9418 22.5125 37.647 22.5 36.3117C22.4879 34.8284 22.7712 33.3576 23.3333 31.9849C23.8954 30.6122 24.7252 29.3651 25.7742 28.3164V28.3164ZM11.25 31.5625C11.25 31.8111 11.1512 32.0496 10.9754 32.2254C10.7996 32.4012 10.5611 32.5 10.3125 32.5H7.1875C6.93886 32.5 6.7004 32.4012 6.52459 32.2254C6.34877 32.0496 6.25 31.8111 6.25 31.5625V28.4375C6.25 28.1889 6.34877 27.9504 6.52459 27.7746C6.7004 27.5988 6.93886 27.5 7.1875 27.5H10.3125C10.5611 27.5 10.7996 27.5988 10.9754 27.7746C11.1512 27.9504 11.25 28.1889 11.25 28.4375V31.5625ZM11.25 21.5625C11.25 21.8111 11.1512 22.0496 10.9754 22.2254C10.7996 22.4012 10.5611 22.5 10.3125 22.5H7.1875C6.93886 22.5 6.7004 22.4012 6.52459 22.2254C6.34877 22.0496 6.25 21.8111 6.25 21.5625V18.4375C6.25 18.1889 6.34877 17.9504 6.52459 17.7746C6.7004 17.5988 6.93886 17.5 7.1875 17.5H10.3125C10.5611 17.5 10.7996 17.5988 10.9754 17.7746C11.1512 17.9504 11.25 18.1889 11.25 18.4375V21.5625ZM15 12.0312C15 12.1556 14.9506 12.2748 14.8627 12.3627C14.7748 12.4506 14.6556 12.5 14.5312 12.5H12.9687C12.8444 12.5 12.7252 12.4506 12.6373 12.3627C12.5494 12.2748 12.5 12.1556 12.5 12.0312V10H10.4687C10.3444 10 10.2252 9.95061 10.1373 9.86271C10.0494 9.7748 10 9.65557 10 9.53125V7.96875C10 7.84443 10.0494 7.7252 10.1373 7.63729C10.2252 7.54939 10.3444 7.5 10.4687 7.5H12.5V5.46875C12.5 5.34443 12.5494 5.2252 12.6373 5.13729C12.7252 5.04939 12.8444 5 12.9687 5H14.5312C14.6556 5 14.7748 5.04939 14.8627 5.13729C14.9506 5.2252 15 5.34443 15 5.46875V7.5H17.0312C17.1556 7.5 17.2748 7.54939 17.3627 7.63729C17.4506 7.7252 17.5 7.84443 17.5 7.96875V9.53125C17.5 9.65557 17.4506 9.7748 17.3627 9.86271C17.2748 9.95061 17.1556 10 17.0312 10H15V12.0312ZM21.25 31.5625C21.25 31.8111 21.1512 32.0496 20.9754 32.2254C20.7996 32.4012 20.5611 32.5 20.3125 32.5H17.1875C16.9389 32.5 16.7004 32.4012 16.5246 32.2254C16.3488 32.0496 16.25 31.8111 16.25 31.5625V28.4375C16.25 28.1889 16.3488 27.9504 16.5246 27.7746C16.7004 27.5988 16.9389 27.5 17.1875 27.5H20.3125C20.5611 27.5 20.7996 27.5988 20.9754 27.7746C21.1512 27.9504 21.25 28.1889 21.25 28.4375V31.5625ZM21.25 21.5625C21.25 21.8111 21.1512 22.0496 20.9754 22.2254C20.7996 22.4012 20.5611 22.5 20.3125 22.5H17.1875C16.9389 22.5 16.7004 22.4012 16.5246 22.2254C16.3488 22.0496 16.25 21.8111 16.25 21.5625V18.4375C16.25 18.1889 16.3488 17.9504 16.5246 17.7746C16.7004 17.5988 16.9389 17.5 17.1875 17.5H20.3125C20.5611 17.5 20.7996 17.5988 20.9754 17.7746C21.1512 17.9504 21.25 18.1889 21.25 18.4375V21.5625Z" fill="url(#paint0_linear_345_2795)"/>
<defs>
<linearGradient id="paint0_linear_345_2795" x1="25.0001" y1="0" x2="25.0001" y2="40" gradientUnits="userSpaceOnUse">
<stop stop-color="#015193"/>
<stop offset="1" stop-color="#4B86A8"/>
</linearGradient>
</defs>
</svg>
