<svg width="57" height="57" viewBox="0 0 57 57" fill="none" xmlns="http://www.w3.org/2000/svg">
<g clip-path="url(#clip0_422_2404)">
<path d="M32.0625 17.8125C32.0625 20.647 30.9365 23.3654 28.9322 25.3697C26.9279 27.374 24.2095 28.5 21.375 28.5C18.5405 28.5 15.8221 27.374 13.8178 25.3697C11.8135 23.3654 10.6875 20.647 10.6875 17.8125C10.6875 14.978 11.8135 12.2596 13.8178 10.2553C15.8221 8.251 18.5405 7.125 21.375 7.125C24.2095 7.125 26.9279 8.251 28.9322 10.2553C30.9365 12.2596 32.0625 14.978 32.0625 17.8125ZM0 46.3125C0 49.875 3.5625 49.875 3.5625 49.875H39.1875C39.1875 49.875 42.75 49.875 42.75 46.3125C42.75 42.75 39.1875 32.0625 21.375 32.0625C3.5625 32.0625 0 42.75 0 46.3125ZM48.0938 17.4919C53.0349 12.4153 65.3897 21.3038 48.0938 32.7287C30.8014 21.3038 43.1526 12.4153 48.0938 17.4954V17.4919Z" fill="url(#paint0_linear_422_2404)"/>
</g>
<defs>
<linearGradient id="paint0_linear_422_2404" x1="28.5004" y1="7.125" x2="28.5004" y2="49.875" gradientUnits="userSpaceOnUse">
<stop stop-color="#015193"/>
<stop offset="1" stop-color="#4B86A8"/>
</linearGradient>
<clipPath id="clip0_422_2404">
<rect width="57" height="57" fill="white"/>
</clipPath>
</defs>
</svg>
