<svg width="81" height="81" viewBox="0 0 81 81" fill="none" xmlns="http://www.w3.org/2000/svg">
<path d="M40.5 27C44.2279 27 47.25 23.9779 47.25 20.25C47.25 16.5221 44.2279 13.5 40.5 13.5C36.7721 13.5 33.75 16.5221 33.75 20.25C33.75 23.9779 36.7721 27 40.5 27Z" fill="url(#paint0_linear_345_2787)"/>
<path d="M70.875 54V47.25C63.315 47.25 56.835 44.01 51.975 38.205L47.4525 32.805C46.8246 32.0439 46.0359 31.4312 45.1431 31.011C44.2503 30.5909 43.2755 30.3737 42.2887 30.375H38.745C36.7537 30.375 34.8637 31.2525 33.5812 32.805L29.0587 38.205C24.165 44.01 17.685 47.25 10.125 47.25V54C19.4738 54 27.6413 50.0513 33.75 43.0313V50.625L20.655 55.8563C18.3937 56.7675 16.875 58.995 16.875 61.4588C16.875 64.8 19.575 67.5 22.9163 67.5H30.375V65.8125C30.375 63.5747 31.2639 61.4286 32.8463 59.8463C34.4286 58.264 36.5747 57.375 38.8125 57.375H48.9375C49.8825 57.375 50.625 58.1175 50.625 59.0625C50.625 60.0075 49.8825 60.75 48.9375 60.75H38.8125C36.0112 60.75 33.75 63.0113 33.75 65.8125V67.5H58.0837C61.425 67.5 64.125 64.8 64.125 61.4588C64.125 58.995 62.6062 56.7675 60.345 55.8563L47.25 50.625V43.0313C53.3587 50.0513 61.5262 54 70.875 54Z" fill="url(#paint1_linear_345_2787)"/>
<defs>
<linearGradient id="paint0_linear_345_2787" x1="40.5" y1="13.5" x2="40.5" y2="27" gradientUnits="userSpaceOnUse">
<stop stop-color="#015193"/>
<stop offset="1" stop-color="#4B86A8"/>
</linearGradient>
<linearGradient id="paint1_linear_345_2787" x1="40.5" y1="30.375" x2="40.5" y2="67.5" gradientUnits="userSpaceOnUse">
<stop stop-color="#015193"/>
<stop offset="1" stop-color="#4B86A8"/>
</linearGradient>
</defs>
</svg>
