<svg width="363" height="224" viewBox="0 0 363 224" fill="none" xmlns="http://www.w3.org/2000/svg">
<g filter="url(#filter0_d_361_2135)">
<path d="M8 45.5C8 -6.95592 116.5 42.4774 116.5 42.4774C161.376 63.5989 212.314 88.5 253 88.5C347.717 88.5 351 -46.4554 351 45.5C351 137.455 274.217 212 179.5 212C84.7832 212 8 137.455 8 45.5Z" fill="url(#paint0_linear_361_2135)"/>
</g>
<path d="M268.637 88.963C321.489 78.792 344.234 34.5221 349 13.6586C338.318 6.32375 301.768 -5.99877 241.028 3.38982C180.287 12.7784 146.367 39.901 137 52.2888C158.857 68.7514 215.785 99.1339 268.637 88.963Z" fill="#0A2841"/>
<defs>
<filter id="filter0_d_361_2135" x="0" y="5.41797" width="363" height="218.582" filterUnits="userSpaceOnUse" color-interpolation-filters="sRGB">
<feFlood flood-opacity="0" result="BackgroundImageFix"/>
<feColorMatrix in="SourceAlpha" type="matrix" values="0 0 0 0 0 0 0 0 0 0 0 0 0 0 0 0 0 0 127 0" result="hardAlpha"/>
<feOffset dx="2" dy="2"/>
<feGaussianBlur stdDeviation="5"/>
<feComposite in2="hardAlpha" operator="out"/>
<feColorMatrix type="matrix" values="0 0 0 0 0 0 0 0 0 0 0 0 0 0 0 0 0 0 0.25 0"/>
<feBlend mode="normal" in2="BackgroundImageFix" result="effect1_dropShadow_361_2135"/>
<feBlend mode="normal" in="SourceGraphic" in2="effect1_dropShadow_361_2135" result="shape"/>
</filter>
<linearGradient id="paint0_linear_361_2135" x1="179.5" y1="212" x2="179.5" y2="13.4182" gradientUnits="userSpaceOnUse">
<stop stop-color="#015193"/>
<stop offset="1" stop-color="#4B86A8"/>
</linearGradient>
</defs>
</svg>
