<svg width="49" height="48" viewBox="0 0 49 48" fill="none" xmlns="http://www.w3.org/2000/svg">
<path fill-rule="evenodd" clip-rule="evenodd" d="M24.0331 42C30.7054 42 36.0498 36.71 36.0498 30.263C36.0498 24.906 32.8674 18.777 29.3956 13.761C27.7448 11.3866 25.9542 9.11223 24.0331 6.95C22.1121 9.11223 20.3215 11.3866 18.6707 13.761C15.1989 18.777 12.0165 24.906 12.0165 30.263C12.0165 36.709 17.3609 42 24.0331 42ZM22.6713 5.47C19.1484 9.409 10.0137 20.56 10.0137 30.263C10.0137 37.85 16.2904 44 24.0331 44C31.7759 44 38.0526 37.85 38.0526 30.263C38.0526 20.56 28.9179 9.409 25.395 5.47C24.5539 4.53 24.0331 4 24.0331 4C24.0331 4 23.5124 4.53 22.6713 5.47Z" fill="white"/>
<path d="M40.0571 20.5C40.0571 24.8311 37.1947 28 34.0473 28C30.9 28 28.0376 24.8311 28.0376 20.5C28.0376 16.1689 30.9 13 34.0473 13C37.1947 13 40.0571 16.1689 40.0571 20.5Z" fill="#0A2841" stroke="white" stroke-width="2"/>
</svg>
