<svg width="37" height="34" viewBox="0 0 37 34" fill="none" xmlns="http://www.w3.org/2000/svg">
<path d="M35.8129 7.40901C35.2493 6.10573 34.4365 4.92471 33.4202 3.93206C32.4032 2.93645 31.204 2.14525 29.888 1.60149C28.5233 1.03541 27.0597 0.745657 25.582 0.749053C23.5089 0.749053 21.4863 1.31595 19.7286 2.38675C19.3081 2.6429 18.9086 2.92425 18.5301 3.23079C18.1517 2.92425 17.7522 2.6429 17.3317 2.38675C15.574 1.31595 13.5513 0.749053 11.4782 0.749053C9.98543 0.749053 8.53889 1.0346 7.17225 1.60149C5.85186 2.14739 4.66183 2.93265 3.64 3.93206C2.62236 4.92359 1.80944 6.10489 1.24732 7.40901C0.662817 8.76536 0.364258 10.2057 0.364258 11.688C0.364258 13.0864 0.650202 14.5435 1.21789 16.0258C1.69306 17.2646 2.37428 18.5495 3.24472 19.8471C4.62398 21.9005 6.52047 24.0421 8.8753 26.2131C12.7776 29.8118 16.642 32.2978 16.806 32.3986L17.8026 33.0368C18.2442 33.3182 18.8119 33.3182 19.2534 33.0368L20.25 32.3986C20.414 32.2936 24.2742 29.8118 28.1807 26.2131C30.5356 24.0421 32.432 21.9005 33.8113 19.8471C34.6818 18.5495 35.3672 17.2646 35.8381 16.0258C36.4058 14.5435 36.6918 13.0864 36.6918 11.688C36.696 10.2057 36.3974 8.76536 35.8129 7.40901ZM18.5301 29.7153C18.5301 29.7153 3.5601 20.1368 3.5601 11.688C3.5601 7.40901 7.10497 3.94046 11.4782 3.94046C14.5521 3.94046 17.2181 5.65374 18.5301 8.15647C19.8421 5.65374 22.5081 3.94046 25.582 3.94046C29.9553 3.94046 33.5001 7.40901 33.5001 11.688C33.5001 20.1368 18.5301 29.7153 18.5301 29.7153Z" fill="white"/>
<path d="M26.3173 15.6278H22.7076C22.6438 15.6191 22.5791 15.6191 22.5152 15.6278H22.3595C22.3116 15.6551 22.2657 15.6856 22.222 15.7193C22.171 15.7529 22.1221 15.7896 22.0755 15.8291C22.0449 15.8665 22.0173 15.9062 21.993 15.948C21.951 16.0056 21.9142 16.0669 21.8831 16.131L20.4172 20.1657L16.5968 9.82736C16.5326 9.65074 16.4155 9.49814 16.2614 9.3903C16.1073 9.28246 15.9237 9.22461 15.7356 9.22461C15.5474 9.22461 15.3638 9.28246 15.2098 9.3903C15.0557 9.49814 14.9386 9.65074 14.8744 9.82736L12.7581 15.6278H9.82632C9.58334 15.6278 9.35031 15.7242 9.1785 15.8958C9.00668 16.0673 8.91016 16.3 8.91016 16.5427C8.91016 16.7853 9.00668 17.018 9.1785 17.1896C9.35031 17.3612 9.58334 17.4576 9.82632 17.4576H13.7658C13.8179 17.4325 13.8671 17.4019 13.9124 17.3661C13.9634 17.3324 14.0124 17.2958 14.059 17.2563L14.1415 17.1374C14.1851 17.0809 14.222 17.0195 14.2514 16.9544L15.7356 12.8099L19.5468 23.258C19.6109 23.4348 19.7279 23.5877 19.882 23.6957C20.0361 23.8037 20.2198 23.8618 20.408 23.8618C20.5963 23.8618 20.78 23.8037 20.9341 23.6957C21.0882 23.5877 21.2052 23.4348 21.2692 23.258L23.3764 17.4576H26.3173C26.5603 17.4576 26.7933 17.3612 26.9651 17.1896C27.137 17.018 27.2335 16.7853 27.2335 16.5427C27.2335 16.3 27.137 16.0673 26.9651 15.8958C26.7933 15.7242 26.5603 15.6278 26.3173 15.6278Z" fill="white"/>
</svg>
