<svg width="88" height="88" viewBox="0 0 88 88" fill="none" xmlns="http://www.w3.org/2000/svg">
<g filter="url(#filter0_d_527_3031)">
<circle cx="44" cy="40" r="40" fill="url(#paint0_linear_527_3031)"/>
</g>
<path d="M32.2144 27.7858L39.1786 20.8215M49.8929 25.1072L55.7858 19.2144L49.8929 25.1072ZM42.3929 20.8215L46.6786 25.1072L42.3929 20.8215Z" stroke="white" stroke-width="1.5" stroke-linecap="round" stroke-linejoin="round"/>
<path d="M57.3928 19.2143C58.2804 19.2143 58.9999 18.4947 58.9999 17.6071C58.9999 16.7195 58.2804 16 57.3928 16C56.5052 16 55.7856 16.7195 55.7856 17.6071C55.7856 18.4947 56.5052 19.2143 57.3928 19.2143Z" stroke="white" stroke-width="1.5" stroke-linecap="round" stroke-linejoin="round"/>
<path d="M48.2859 28.3215C49.1735 28.3215 49.893 27.6019 49.893 26.7143C49.893 25.8267 49.1735 25.1072 48.2859 25.1072C47.3983 25.1072 46.6787 25.8267 46.6787 26.7143C46.6787 27.6019 47.3983 28.3215 48.2859 28.3215Z" stroke="white" stroke-width="1.5" stroke-linecap="round" stroke-linejoin="round"/>
<path d="M40.7859 20.8215C41.6735 20.8215 42.393 20.1019 42.393 19.2143C42.393 18.3267 41.6735 17.6072 40.7859 17.6072C39.8983 17.6072 39.1787 18.3267 39.1787 19.2143C39.1787 20.1019 39.8983 20.8215 40.7859 20.8215Z" stroke="white" stroke-width="1.5" stroke-linecap="round" stroke-linejoin="round"/>
<path d="M30.6071 30.9999C31.4947 30.9999 32.2143 30.2804 32.2143 29.3928C32.2143 28.5052 31.4947 27.7856 30.6071 27.7856C29.7195 27.7856 29 28.5052 29 29.3928C29 30.2804 29.7195 30.9999 30.6071 30.9999Z" stroke="white" stroke-width="1.5" stroke-linecap="round" stroke-linejoin="round"/>
<path d="M44.7793 47L44.0833 44.984H40.3873L39.7033 47H38.6233L41.6233 38.492H42.8713L45.8833 47H44.7793ZM42.2233 39.56L40.7233 43.976H43.7353L42.2233 39.56ZM47.1805 47V38.492H48.2725V47H47.1805ZM24.7168 62L24.0208 59.984H20.3248L19.6408 62H18.5608L21.5608 53.492H22.8088L25.8208 62H24.7168ZM22.1608 54.56L20.6608 58.976H23.6728L22.1608 54.56ZM30.922 62V58.148C30.922 57.692 30.818 57.336 30.61 57.08C30.41 56.824 30.07 56.696 29.59 56.696C29.294 56.696 29.034 56.784 28.81 56.96C28.586 57.128 28.406 57.352 28.27 57.632C28.166 57.856 28.102 58.112 28.078 58.4C28.062 58.688 28.054 58.948 28.054 59.18V62H27.034V55.928H27.922L28.006 56.84C28.086 56.664 28.194 56.512 28.33 56.384C28.466 56.248 28.618 56.136 28.786 56.048C28.954 55.96 29.13 55.892 29.314 55.844C29.498 55.796 29.674 55.772 29.842 55.772C30.538 55.772 31.062 55.968 31.414 56.36C31.766 56.752 31.942 57.3 31.942 58.004V62H30.922ZM39.1415 61.94C39.0295 61.996 38.9215 62.032 38.8175 62.048C38.7135 62.072 38.5975 62.084 38.4695 62.084C38.1975 62.084 37.9815 61.996 37.8215 61.82C37.6695 61.636 37.5935 61.416 37.5935 61.16H37.5695C37.3935 61.464 37.1295 61.708 36.7775 61.892C36.4335 62.068 36.0455 62.156 35.6135 62.156C35.2615 62.156 34.9535 62.104 34.6895 62C34.4335 61.888 34.2175 61.744 34.0415 61.568C33.8735 61.392 33.7455 61.192 33.6575 60.968C33.5695 60.744 33.5255 60.516 33.5255 60.284C33.5255 60.092 33.5575 59.888 33.6215 59.672C33.6935 59.456 33.8135 59.26 33.9815 59.084C34.1495 58.9 34.3695 58.744 34.6415 58.616C34.9215 58.488 35.2695 58.412 35.6855 58.388L37.5335 58.28V57.836C37.5335 57.684 37.5135 57.524 37.4735 57.356C37.4415 57.188 37.3575 57.04 37.2215 56.912C37.1175 56.816 36.9855 56.74 36.8255 56.684C36.6735 56.628 36.4735 56.6 36.2255 56.6C35.9455 56.6 35.7175 56.636 35.5415 56.708C35.3655 56.772 35.2255 56.856 35.1215 56.96C34.9215 57.16 34.8215 57.404 34.8215 57.692H33.8255C33.8335 57.412 33.8815 57.172 33.9695 56.972C34.0655 56.764 34.1935 56.58 34.3535 56.42C34.5615 56.204 34.8295 56.044 35.1575 55.94C35.4935 55.828 35.8495 55.772 36.2255 55.772C36.8175 55.772 37.2855 55.884 37.6295 56.108C37.9735 56.324 38.2175 56.6 38.3615 56.936C38.4815 57.216 38.5415 57.528 38.5415 57.872V60.812C38.5415 60.972 38.5695 61.08 38.6255 61.136C38.6895 61.192 38.7735 61.22 38.8775 61.22C38.9015 61.22 38.9295 61.22 38.9615 61.22C38.9935 61.22 39.0215 61.216 39.0455 61.208L39.1415 61.184V61.94ZM37.5335 59.072L35.9015 59.168C35.7495 59.176 35.5935 59.204 35.4335 59.252C35.2735 59.292 35.1295 59.356 35.0015 59.444C34.8735 59.524 34.7695 59.632 34.6895 59.768C34.6095 59.904 34.5695 60.068 34.5695 60.26C34.5695 60.532 34.6615 60.776 34.8455 60.992C35.0295 61.2 35.3375 61.304 35.7695 61.304C36.0015 61.304 36.2255 61.264 36.4415 61.184C36.6655 61.104 36.8575 60.98 37.0175 60.812C37.2015 60.628 37.3335 60.416 37.4135 60.176C37.4935 59.936 37.5335 59.688 37.5335 59.432V59.072ZM42.7126 62C42.6646 62.016 42.6046 62.028 42.5326 62.036C42.4126 62.06 42.2326 62.072 41.9926 62.072C41.5446 62.072 41.2206 61.944 41.0206 61.688C40.8206 61.432 40.7206 61.064 40.7206 60.584V53.336H41.7406V60.524C41.7406 60.732 41.7806 60.888 41.8606 60.992C41.9406 61.096 42.0846 61.148 42.2926 61.148H42.6286C42.6606 61.148 42.6886 61.144 42.7126 61.136V62ZM46.1356 63.248C45.9916 63.64 45.7956 63.952 45.5476 64.184C45.2996 64.424 44.9476 64.544 44.4916 64.544C44.2356 64.544 44.0276 64.528 43.8676 64.496C43.7076 64.464 43.6076 64.44 43.5676 64.424V63.536C43.6316 63.552 43.7036 63.568 43.7836 63.584C43.8476 63.6 43.9196 63.612 43.9996 63.62C44.0876 63.628 44.1836 63.632 44.2876 63.632C44.5036 63.632 44.6876 63.588 44.8396 63.5C44.9916 63.412 45.1116 63.252 45.1996 63.02L45.5836 62L43.1596 55.928H44.3116L46.0996 60.716L47.8036 55.928H48.8716L46.1356 63.248ZM53.2522 61.916C53.1162 61.956 52.9482 61.992 52.7482 62.024C52.5562 62.064 52.3202 62.084 52.0402 62.084C51.7122 62.084 51.4402 62.036 51.2242 61.94C51.0082 61.844 50.8362 61.72 50.7082 61.568C50.5882 61.416 50.5002 61.244 50.4442 61.052C50.3962 60.852 50.3722 60.648 50.3722 60.44V56.804H49.1962V55.928H50.3722V54.38L51.3922 54.14V55.928H53.1922V56.804H51.3922V60.32C51.3922 60.616 51.4562 60.828 51.5842 60.956C51.7202 61.084 51.9282 61.148 52.2082 61.148C52.3202 61.148 52.4362 61.144 52.5562 61.136C52.6762 61.128 52.7882 61.116 52.8922 61.1C53.0122 61.084 53.1322 61.064 53.2522 61.04V61.916ZM54.6534 54.536V53.336H55.8414V54.536H54.6534ZM54.7254 62V55.928H55.7694V62H54.7254ZM62.7226 59.96C62.6986 60.288 62.6266 60.576 62.5066 60.824C62.3866 61.072 62.2226 61.296 62.0146 61.496C61.7986 61.704 61.5466 61.868 61.2586 61.988C60.9706 62.1 60.6386 62.156 60.2626 62.156C59.7106 62.156 59.2546 62.048 58.8946 61.832C58.5426 61.608 58.2586 61.336 58.0426 61.016C57.8826 60.776 57.7586 60.488 57.6706 60.152C57.5826 59.816 57.5386 59.42 57.5386 58.964C57.5386 58.508 57.5826 58.112 57.6706 57.776C57.7586 57.44 57.8826 57.152 58.0426 56.912C58.2586 56.592 58.5426 56.324 58.8946 56.108C59.2546 55.884 59.7066 55.772 60.2506 55.772C60.6106 55.772 60.9346 55.828 61.2226 55.94C61.5186 56.052 61.7706 56.212 61.9786 56.42C62.1866 56.62 62.3506 56.848 62.4706 57.104C62.5986 57.352 62.6746 57.644 62.6986 57.98H61.6666C61.6426 57.772 61.5906 57.592 61.5106 57.44C61.4386 57.28 61.3466 57.144 61.2346 57.032C61.1146 56.92 60.9706 56.832 60.8026 56.768C60.6346 56.696 60.4506 56.66 60.2506 56.66C60.0186 56.66 59.8186 56.7 59.6506 56.78C59.4826 56.852 59.3306 56.944 59.1946 57.056C58.9546 57.264 58.7906 57.54 58.7026 57.884C58.6226 58.228 58.5826 58.588 58.5826 58.964C58.5826 59.34 58.6226 59.7 58.7026 60.044C58.7906 60.388 58.9546 60.664 59.1946 60.872C59.3306 60.984 59.4826 61.08 59.6506 61.16C59.8186 61.232 60.0186 61.268 60.2506 61.268C60.4586 61.268 60.6506 61.232 60.8266 61.16C61.0106 61.088 61.1626 60.988 61.2826 60.86C61.3946 60.748 61.4826 60.62 61.5466 60.476C61.6186 60.332 61.6666 60.16 61.6906 59.96H62.7226ZM68.8933 60.236C68.8933 60.5 68.8493 60.736 68.7613 60.944C68.6733 61.144 68.5573 61.32 68.4133 61.472C68.1813 61.712 67.8933 61.888 67.5493 62C67.2053 62.104 66.8333 62.156 66.4333 62.156C66.0493 62.156 65.6893 62.104 65.3533 62C65.0173 61.904 64.7213 61.728 64.4653 61.472C64.2813 61.288 64.1373 61.076 64.0333 60.836C63.9293 60.588 63.8773 60.336 63.8773 60.08H64.8973C64.9053 60.288 64.9533 60.472 65.0413 60.632C65.1293 60.784 65.2453 60.916 65.3893 61.028C65.5253 61.132 65.6933 61.204 65.8933 61.244C66.0933 61.284 66.2893 61.304 66.4813 61.304C66.6893 61.304 66.8853 61.284 67.0693 61.244C67.2613 61.196 67.4373 61.104 67.5973 60.968C67.6853 60.904 67.7573 60.812 67.8133 60.692C67.8693 60.572 67.8973 60.444 67.8973 60.308C67.8973 60.076 67.8173 59.884 67.6573 59.732C67.4973 59.58 67.2613 59.484 66.9493 59.444C66.8853 59.436 66.7973 59.424 66.6853 59.408C66.5733 59.392 66.4533 59.376 66.3253 59.36C66.1973 59.344 66.0653 59.328 65.9293 59.312C65.8013 59.296 65.6853 59.28 65.5813 59.264C65.1253 59.192 64.7613 59.02 64.4893 58.748C64.2253 58.468 64.0933 58.096 64.0933 57.632C64.0933 57.4 64.1413 57.18 64.2373 56.972C64.3413 56.756 64.4613 56.58 64.5973 56.444C64.7973 56.236 65.0493 56.072 65.3533 55.952C65.6573 55.832 66.0013 55.772 66.3853 55.772C66.7933 55.772 67.1653 55.836 67.5013 55.964C67.8373 56.092 68.1093 56.284 68.3173 56.54C68.4533 56.7 68.5573 56.872 68.6293 57.056C68.7093 57.24 68.7493 57.456 68.7493 57.704H67.7293C67.7213 57.544 67.6813 57.4 67.6093 57.272C67.5453 57.136 67.4693 57.028 67.3813 56.948C67.1413 56.732 66.8093 56.624 66.3853 56.624C66.2653 56.624 66.1533 56.628 66.0493 56.636C65.9453 56.644 65.8213 56.68 65.6773 56.744C65.4853 56.824 65.3333 56.94 65.2213 57.092C65.1173 57.236 65.0653 57.392 65.0653 57.56C65.0653 57.816 65.1373 58.004 65.2813 58.124C65.4253 58.236 65.6253 58.312 65.8813 58.352C66.0493 58.376 66.2533 58.404 66.4933 58.436C66.7333 58.46 67.0173 58.5 67.3453 58.556C67.7773 58.628 68.1413 58.812 68.4373 59.108C68.7413 59.404 68.8933 59.78 68.8933 60.236Z" fill="white"/>
<defs>
<filter id="filter0_d_527_3031" x="0" y="0" width="88" height="88" filterUnits="userSpaceOnUse" color-interpolation-filters="sRGB">
<feFlood flood-opacity="0" result="BackgroundImageFix"/>
<feColorMatrix in="SourceAlpha" type="matrix" values="0 0 0 0 0 0 0 0 0 0 0 0 0 0 0 0 0 0 127 0" result="hardAlpha"/>
<feOffset dy="4"/>
<feGaussianBlur stdDeviation="2"/>
<feComposite in2="hardAlpha" operator="out"/>
<feColorMatrix type="matrix" values="0 0 0 0 0 0 0 0 0 0 0 0 0 0 0 0 0 0 0.25 0"/>
<feBlend mode="normal" in2="BackgroundImageFix" result="effect1_dropShadow_527_3031"/>
<feBlend mode="normal" in="SourceGraphic" in2="effect1_dropShadow_527_3031" result="shape"/>
</filter>
<linearGradient id="paint0_linear_527_3031" x1="44" y1="0" x2="44" y2="80" gradientUnits="userSpaceOnUse">
<stop stop-color="#015193"/>
<stop offset="1" stop-color="#4B86A8"/>
</linearGradient>
</defs>
</svg>
