<svg width="88" height="88" viewBox="0 0 88 88" fill="none" xmlns="http://www.w3.org/2000/svg">
<g filter="url(#filter0_d_527_3033)">
<circle cx="44" cy="40" r="40" fill="url(#paint0_linear_527_3033)"/>
</g>
<path fill-rule="evenodd" clip-rule="evenodd" d="M52.3333 18.3333C52.3333 22.9358 48.6025 26.6667 44 26.6667C39.3975 26.6667 35.6667 22.9358 35.6667 18.3333C35.6667 13.7308 39.3975 10 44 10C48.6025 10 52.3333 13.7308 52.3333 18.3333ZM50.6667 18.3333C50.6667 20.1014 49.9643 21.7971 48.714 23.0474C47.4638 24.2976 45.7681 25 44 25C42.2319 25 40.5362 24.2976 39.286 23.0474C38.0357 21.7971 37.3333 20.1014 37.3333 18.3333C37.3333 16.5652 38.0357 14.8695 39.286 13.6193C40.5362 12.369 42.2319 11.6667 44 11.6667C45.7681 11.6667 47.4638 12.369 48.714 13.6193C49.9643 14.8695 50.6667 16.5652 50.6667 18.3333ZM38.9283 29.0458L38.9375 29.0642L39 29.1867H48.7908C48.9817 28.825 49.4142 28.2483 49.8333 28.3442C50.775 28.5583 51.7233 28.8567 52.6342 29.2242L52.6617 29.2108L52.6708 29.2292L52.6775 29.2417C56.1067 30.635 59 32.9967 59 35.475V40H29V35.475C29 32.3292 33.6633 29.3692 38.1667 28.3442C38.5342 28.2608 38.7525 28.6942 38.9283 29.0458ZM51.2533 30.4858C50.8958 30.3607 50.5342 30.2476 50.1692 30.1467L49.7975 30.8533H37.9942L37.6492 30.1975L37.3492 30.2875C37.3433 30.3425 37.3383 30.4042 37.3358 30.4742C37.325 30.7617 37.3467 31.1025 37.3942 31.4492C37.4429 31.8107 37.521 32.1677 37.6275 32.5167C38.2129 32.586 38.7549 32.86 39.1579 33.2902C39.5609 33.7204 39.7989 34.2792 39.8299 34.8679C39.8609 35.4566 39.6829 36.0372 39.3273 36.5074C38.9717 36.9775 38.4614 37.3069 37.8865 37.4373C37.3116 37.5678 36.7092 37.4909 36.1855 37.2202C35.6618 36.9495 35.2506 36.5025 35.0245 35.9581C34.7985 35.4137 34.772 34.8069 34.9499 34.2449C35.1278 33.6829 35.4985 33.2019 35.9967 32.8867L35.99 32.8633C35.879 32.4737 35.7962 32.0766 35.7425 31.675C35.7071 31.4184 35.6838 31.1604 35.6725 30.9017C34.6425 31.3417 33.6817 31.8733 32.8767 32.46C31.275 33.63 30.6667 34.7233 30.6667 35.475V38.3333H57.3333V35.475C57.3333 34.7225 56.725 33.6292 55.1233 32.4608C54.425 31.9587 53.6812 31.5229 52.9017 31.1592C52.8678 31.6108 52.7987 32.0591 52.695 32.5H53.1667C53.3214 32.5001 53.473 32.5432 53.6046 32.6246C53.7362 32.706 53.8425 32.8224 53.9117 32.9608L54.745 34.6275C54.8033 34.7433 54.8333 34.8708 54.8333 35V36.6667C54.8333 36.8877 54.7455 37.0996 54.5893 37.2559C54.433 37.4122 54.221 37.5 54 37.5H52.3333V35.8333H53.1667V35.1967L52.6517 34.1667H50.3483L49.8333 35.1967V35.8333H50.6667V37.5H49C48.779 37.5 48.567 37.4122 48.4107 37.2559C48.2545 37.0996 48.1667 36.8877 48.1667 36.6667V35C48.1667 34.8708 48.1967 34.7433 48.255 34.6275L49.0883 32.9608C49.1575 32.8224 49.2638 32.706 49.3954 32.6246C49.527 32.5432 49.6786 32.5001 49.8333 32.5H50.9683C50.9783 32.4667 50.9892 32.4333 50.9992 32.3967C51.0775 32.1292 51.1475 31.7967 51.195 31.45C51.2417 31.1067 51.2633 30.7708 51.2533 30.4858ZM38.1667 35C38.1667 35.4783 37.7817 35.8458 37.3333 35.8458C36.885 35.8458 36.5 35.4792 36.5 35C36.5 34.5217 36.885 34.1542 37.3333 34.1542C37.7817 34.1542 38.1667 34.5208 38.1667 35Z" fill="white"/>
<path d="M29.9489 50.74C29.9489 51.044 29.9329 51.352 29.9009 51.664C29.8769 51.976 29.8249 52.28 29.7449 52.576C29.6729 52.864 29.5649 53.144 29.4209 53.416C29.2769 53.68 29.0889 53.924 28.8569 54.148C28.5529 54.436 28.2089 54.652 27.8249 54.796C27.4409 54.932 27.0409 55 26.6249 55H23.6609V46.492H26.6249C27.0409 46.492 27.4409 46.564 27.8249 46.708C28.2089 46.852 28.5529 47.068 28.8569 47.356C29.0889 47.58 29.2769 47.824 29.4209 48.088C29.5649 48.352 29.6729 48.632 29.7449 48.928C29.8249 49.216 29.8769 49.516 29.9009 49.828C29.9329 50.132 29.9489 50.436 29.9489 50.74ZM28.8689 50.74C28.8689 50.516 28.8609 50.284 28.8449 50.044C28.8369 49.796 28.8049 49.556 28.7489 49.324C28.7009 49.092 28.6289 48.868 28.5329 48.652C28.4369 48.436 28.3049 48.24 28.1369 48.064C27.9369 47.864 27.7049 47.716 27.4409 47.62C27.1769 47.524 26.9049 47.476 26.6249 47.476H24.7289V54.016H26.6249C26.9049 54.016 27.1769 53.968 27.4409 53.872C27.7049 53.776 27.9369 53.628 28.1369 53.428C28.3049 53.26 28.4369 53.068 28.5329 52.852C28.6289 52.636 28.7009 52.412 28.7489 52.18C28.8049 51.94 28.8369 51.7 28.8449 51.46C28.8609 51.212 28.8689 50.972 28.8689 50.74ZM36.63 51.964C36.63 52.444 36.57 52.896 36.45 53.32C36.33 53.744 36.102 54.12 35.766 54.448C35.542 54.664 35.274 54.836 34.962 54.964C34.658 55.092 34.314 55.156 33.93 55.156C33.546 55.156 33.198 55.092 32.886 54.964C32.582 54.836 32.318 54.664 32.094 54.448C31.758 54.12 31.53 53.744 31.41 53.32C31.29 52.896 31.23 52.444 31.23 51.964C31.23 51.484 31.29 51.032 31.41 50.608C31.53 50.184 31.758 49.808 32.094 49.48C32.318 49.264 32.582 49.092 32.886 48.964C33.198 48.836 33.546 48.772 33.93 48.772C34.314 48.772 34.658 48.836 34.962 48.964C35.274 49.092 35.542 49.264 35.766 49.48C36.102 49.808 36.33 50.184 36.45 50.608C36.57 51.032 36.63 51.484 36.63 51.964ZM35.586 51.964C35.586 51.604 35.546 51.256 35.466 50.92C35.386 50.584 35.238 50.304 35.022 50.08C34.894 49.952 34.738 49.848 34.554 49.768C34.378 49.688 34.17 49.648 33.93 49.648C33.69 49.648 33.478 49.688 33.294 49.768C33.118 49.848 32.966 49.952 32.838 50.08C32.622 50.304 32.474 50.584 32.394 50.92C32.314 51.256 32.274 51.604 32.274 51.964C32.274 52.324 32.314 52.672 32.394 53.008C32.474 53.344 32.622 53.624 32.838 53.848C32.966 53.976 33.118 54.08 33.294 54.16C33.478 54.24 33.69 54.28 33.93 54.28C34.17 54.28 34.378 54.24 34.554 54.16C34.738 54.08 34.894 53.976 35.022 53.848C35.238 53.624 35.386 53.344 35.466 53.008C35.546 52.672 35.586 52.324 35.586 51.964ZM43.1054 52.96C43.0814 53.288 43.0094 53.576 42.8894 53.824C42.7694 54.072 42.6054 54.296 42.3974 54.496C42.1814 54.704 41.9294 54.868 41.6414 54.988C41.3534 55.1 41.0214 55.156 40.6454 55.156C40.0934 55.156 39.6374 55.048 39.2774 54.832C38.9254 54.608 38.6414 54.336 38.4254 54.016C38.2654 53.776 38.1414 53.488 38.0534 53.152C37.9654 52.816 37.9214 52.42 37.9214 51.964C37.9214 51.508 37.9654 51.112 38.0534 50.776C38.1414 50.44 38.2654 50.152 38.4254 49.912C38.6414 49.592 38.9254 49.324 39.2774 49.108C39.6374 48.884 40.0894 48.772 40.6334 48.772C40.9934 48.772 41.3174 48.828 41.6054 48.94C41.9014 49.052 42.1534 49.212 42.3614 49.42C42.5694 49.62 42.7334 49.848 42.8534 50.104C42.9814 50.352 43.0574 50.644 43.0814 50.98H42.0494C42.0254 50.772 41.9734 50.592 41.8934 50.44C41.8214 50.28 41.7294 50.144 41.6174 50.032C41.4974 49.92 41.3534 49.832 41.1854 49.768C41.0174 49.696 40.8334 49.66 40.6334 49.66C40.4014 49.66 40.2014 49.7 40.0334 49.78C39.8654 49.852 39.7134 49.944 39.5774 50.056C39.3374 50.264 39.1734 50.54 39.0854 50.884C39.0054 51.228 38.9654 51.588 38.9654 51.964C38.9654 52.34 39.0054 52.7 39.0854 53.044C39.1734 53.388 39.3374 53.664 39.5774 53.872C39.7134 53.984 39.8654 54.08 40.0334 54.16C40.2014 54.232 40.4014 54.268 40.6334 54.268C40.8414 54.268 41.0334 54.232 41.2094 54.16C41.3934 54.088 41.5454 53.988 41.6654 53.86C41.7774 53.748 41.8654 53.62 41.9294 53.476C42.0014 53.332 42.0494 53.16 42.0734 52.96H43.1054ZM47.8616 54.916C47.7256 54.956 47.5576 54.992 47.3576 55.024C47.1656 55.064 46.9296 55.084 46.6496 55.084C46.3216 55.084 46.0496 55.036 45.8336 54.94C45.6176 54.844 45.4456 54.72 45.3176 54.568C45.1976 54.416 45.1096 54.244 45.0536 54.052C45.0056 53.852 44.9816 53.648 44.9816 53.44V49.804H43.8056V48.928H44.9816V47.38L46.0016 47.14V48.928H47.8016V49.804H46.0016V53.32C46.0016 53.616 46.0656 53.828 46.1936 53.956C46.3296 54.084 46.5376 54.148 46.8176 54.148C46.9296 54.148 47.0456 54.144 47.1656 54.136C47.2856 54.128 47.3976 54.116 47.5016 54.1C47.6216 54.084 47.7416 54.064 47.8616 54.04V54.916ZM54.1496 51.964C54.1496 52.444 54.0896 52.896 53.9696 53.32C53.8496 53.744 53.6216 54.12 53.2856 54.448C53.0616 54.664 52.7936 54.836 52.4816 54.964C52.1776 55.092 51.8336 55.156 51.4496 55.156C51.0656 55.156 50.7176 55.092 50.4056 54.964C50.1016 54.836 49.8376 54.664 49.6136 54.448C49.2776 54.12 49.0496 53.744 48.9296 53.32C48.8096 52.896 48.7496 52.444 48.7496 51.964C48.7496 51.484 48.8096 51.032 48.9296 50.608C49.0496 50.184 49.2776 49.808 49.6136 49.48C49.8376 49.264 50.1016 49.092 50.4056 48.964C50.7176 48.836 51.0656 48.772 51.4496 48.772C51.8336 48.772 52.1776 48.836 52.4816 48.964C52.7936 49.092 53.0616 49.264 53.2856 49.48C53.6216 49.808 53.8496 50.184 53.9696 50.608C54.0896 51.032 54.1496 51.484 54.1496 51.964ZM53.1056 51.964C53.1056 51.604 53.0656 51.256 52.9856 50.92C52.9056 50.584 52.7576 50.304 52.5416 50.08C52.4136 49.952 52.2576 49.848 52.0736 49.768C51.8976 49.688 51.6896 49.648 51.4496 49.648C51.2096 49.648 50.9976 49.688 50.8136 49.768C50.6376 49.848 50.4856 49.952 50.3576 50.08C50.1416 50.304 49.9936 50.584 49.9136 50.92C49.8336 51.256 49.7936 51.604 49.7936 51.964C49.7936 52.324 49.8336 52.672 49.9136 53.008C49.9936 53.344 50.1416 53.624 50.3576 53.848C50.4856 53.976 50.6376 54.08 50.8136 54.16C50.9976 54.24 51.2096 54.28 51.4496 54.28C51.6896 54.28 51.8976 54.24 52.0736 54.16C52.2576 54.08 52.4136 53.976 52.5416 53.848C52.7576 53.624 52.9056 53.344 52.9856 53.008C53.0656 52.672 53.1056 52.324 53.1056 51.964ZM59.185 49.924C59.097 49.908 59.001 49.896 58.897 49.888C58.801 49.88 58.709 49.876 58.621 49.876C58.381 49.876 58.161 49.924 57.961 50.02C57.769 50.108 57.605 50.22 57.469 50.356C57.349 50.476 57.249 50.616 57.169 50.776C57.097 50.928 57.041 51.092 57.001 51.268C56.969 51.444 56.945 51.62 56.929 51.796C56.921 51.972 56.917 52.14 56.917 52.3V55H55.909V48.928H56.809L56.893 49.996C57.053 49.62 57.297 49.344 57.625 49.168C57.961 48.984 58.321 48.892 58.705 48.892C58.865 48.892 59.025 48.904 59.185 48.928V49.924ZM64.8973 53.236C64.8973 53.5 64.8533 53.736 64.7653 53.944C64.6773 54.144 64.5613 54.32 64.4173 54.472C64.1853 54.712 63.8973 54.888 63.5533 55C63.2093 55.104 62.8373 55.156 62.4373 55.156C62.0533 55.156 61.6933 55.104 61.3573 55C61.0213 54.904 60.7253 54.728 60.4693 54.472C60.2853 54.288 60.1413 54.076 60.0373 53.836C59.9333 53.588 59.8813 53.336 59.8813 53.08H60.9013C60.9093 53.288 60.9573 53.472 61.0452 53.632C61.1333 53.784 61.2493 53.916 61.3933 54.028C61.5293 54.132 61.6973 54.204 61.8973 54.244C62.0973 54.284 62.2933 54.304 62.4853 54.304C62.6933 54.304 62.8893 54.284 63.0733 54.244C63.2653 54.196 63.4413 54.104 63.6013 53.968C63.6893 53.904 63.7613 53.812 63.8173 53.692C63.8733 53.572 63.9013 53.444 63.9013 53.308C63.9013 53.076 63.8213 52.884 63.6613 52.732C63.5013 52.58 63.2653 52.484 62.9533 52.444C62.8893 52.436 62.8013 52.424 62.6893 52.408C62.5773 52.392 62.4573 52.376 62.3293 52.36C62.2013 52.344 62.0693 52.328 61.9333 52.312C61.8053 52.296 61.6893 52.28 61.5853 52.264C61.1293 52.192 60.7653 52.02 60.4933 51.748C60.2293 51.468 60.0973 51.096 60.0973 50.632C60.0973 50.4 60.1453 50.18 60.2413 49.972C60.3453 49.756 60.4653 49.58 60.6013 49.444C60.8013 49.236 61.0533 49.072 61.3573 48.952C61.6613 48.832 62.0053 48.772 62.3893 48.772C62.7973 48.772 63.1693 48.836 63.5053 48.964C63.8413 49.092 64.1133 49.284 64.3213 49.54C64.4573 49.7 64.5613 49.872 64.6333 50.056C64.7133 50.24 64.7533 50.456 64.7533 50.704H63.7333C63.7253 50.544 63.6853 50.4 63.6133 50.272C63.5493 50.136 63.4733 50.028 63.3853 49.948C63.1453 49.732 62.8133 49.624 62.3893 49.624C62.2693 49.624 62.1573 49.628 62.0533 49.636C61.9493 49.644 61.8253 49.68 61.6813 49.744C61.4893 49.824 61.3373 49.94 61.2253 50.092C61.1213 50.236 61.0693 50.392 61.0693 50.56C61.0693 50.816 61.1413 51.004 61.2853 51.124C61.4293 51.236 61.6293 51.312 61.8853 51.352C62.0533 51.376 62.2573 51.404 62.4973 51.436C62.7373 51.46 63.0213 51.5 63.3493 51.556C63.7813 51.628 64.1453 51.812 64.4413 52.108C64.7453 52.404 64.8973 52.78 64.8973 53.236Z" fill="white"/>
<defs>
<filter id="filter0_d_527_3033" x="0" y="0" width="88" height="88" filterUnits="userSpaceOnUse" color-interpolation-filters="sRGB">
<feFlood flood-opacity="0" result="BackgroundImageFix"/>
<feColorMatrix in="SourceAlpha" type="matrix" values="0 0 0 0 0 0 0 0 0 0 0 0 0 0 0 0 0 0 127 0" result="hardAlpha"/>
<feOffset dy="4"/>
<feGaussianBlur stdDeviation="2"/>
<feComposite in2="hardAlpha" operator="out"/>
<feColorMatrix type="matrix" values="0 0 0 0 0 0 0 0 0 0 0 0 0 0 0 0 0 0 0.25 0"/>
<feBlend mode="normal" in2="BackgroundImageFix" result="effect1_dropShadow_527_3033"/>
<feBlend mode="normal" in="SourceGraphic" in2="effect1_dropShadow_527_3033" result="shape"/>
</filter>
<linearGradient id="paint0_linear_527_3033" x1="44" y1="0" x2="44" y2="80" gradientUnits="userSpaceOnUse">
<stop stop-color="#015193"/>
<stop offset="1" stop-color="#4B86A8"/>
</linearGradient>
</defs>
</svg>
