<svg width="88" height="88" viewBox="0 0 88 88" fill="none" xmlns="http://www.w3.org/2000/svg">
<g filter="url(#filter0_d_527_3032)">
<circle cx="44" cy="40" r="40" fill="url(#paint0_linear_527_3032)"/>
</g>
<path d="M48 40H45C44.4697 39.9995 43.9613 39.7886 43.5864 39.4136C43.2114 39.0387 43.0005 38.5303 43 38V33H45V38H48V33H50V29C49.9997 28.7349 49.8943 28.4807 49.7068 28.2932C49.5193 28.1057 49.2651 28.0003 49 28H40.28L38.28 22H32C31.7349 22.0003 31.4807 22.1057 31.2932 22.2932C31.1057 22.4807 31.0003 22.7349 31 23V29H33V38H37V31H39V38C38.9995 38.5303 38.7886 39.0387 38.4136 39.4136C38.0387 39.7886 37.5303 39.9995 37 40H33C32.4697 39.9995 31.9613 39.7886 31.5864 39.4136C31.2114 39.0387 31.0005 38.5303 31 38V31C30.4697 30.9995 29.9613 30.7886 29.5864 30.4136C29.2114 30.0387 29.0005 29.5303 29 29V23C29.0008 22.2046 29.3171 21.442 29.8796 20.8796C30.442 20.3171 31.2046 20.0008 32 20H38.28C38.6997 19.9997 39.1088 20.1317 39.4494 20.377C39.7899 20.6224 40.0444 20.9688 40.177 21.367L41.72 26H49C49.7954 26.0008 50.558 26.3171 51.1204 26.8796C51.6829 27.442 51.9992 28.2046 52 29V33C51.9995 33.5303 51.7886 34.0387 51.4136 34.4136C51.0387 34.7886 50.5303 34.9995 50 35V38C49.9995 38.5303 49.7886 39.0387 49.4136 39.4136C49.0387 39.7886 48.5303 39.9995 48 40ZM56 40H54V29H57V23C56.9997 22.7349 56.8943 22.4807 56.7068 22.2932C56.5193 22.1057 56.2651 22.0003 56 22H52V20H56C56.7954 20.0008 57.558 20.3171 58.1204 20.8796C58.6829 21.442 58.9992 22.2046 59 23V29C58.9995 29.5303 58.7886 30.0387 58.4136 30.4136C58.0387 30.7886 57.5303 30.9995 57 31H56V40ZM35 19C34.2089 19 33.4355 18.7654 32.7777 18.3259C32.1199 17.8864 31.6072 17.2616 31.3045 16.5307C31.0017 15.7998 30.9225 14.9956 31.0769 14.2196C31.2312 13.4437 31.6122 12.731 32.1716 12.1716C32.731 11.6122 33.4437 11.2312 34.2196 11.0769C34.9956 10.9225 35.7998 11.0017 36.5307 11.3045C37.2616 11.6072 37.8864 12.1199 38.3259 12.7777C38.7654 13.4355 39 14.2089 39 15C38.9987 16.0605 38.5768 17.0771 37.827 17.827C37.0771 18.5768 36.0605 18.9987 35 19ZM35 13C34.6044 13 34.2178 13.1173 33.8889 13.3371C33.56 13.5568 33.3036 13.8692 33.1522 14.2346C33.0009 14.6001 32.9613 15.0022 33.0384 15.3902C33.1156 15.7781 33.3061 16.1345 33.5858 16.4142C33.8655 16.6939 34.2219 16.8844 34.6098 16.9616C34.9978 17.0387 35.3999 16.9991 35.7654 16.8478C36.1308 16.6964 36.4432 16.44 36.6629 16.1111C36.8827 15.7822 37 15.3956 37 15C36.9995 14.4697 36.7886 13.9613 36.4136 13.5864C36.0387 13.2114 35.5303 13.0005 35 13ZM53 19C52.2089 19 51.4355 18.7654 50.7777 18.3259C50.1199 17.8864 49.6072 17.2616 49.3045 16.5307C49.0017 15.7998 48.9225 14.9956 49.0769 14.2196C49.2312 13.4437 49.6122 12.731 50.1716 12.1716C50.731 11.6122 51.4437 11.2312 52.2196 11.0769C52.9956 10.9225 53.7998 11.0017 54.5307 11.3045C55.2616 11.6072 55.8864 12.1199 56.3259 12.7777C56.7654 13.4355 57 14.2089 57 15C56.9987 16.0605 56.5768 17.0771 55.827 17.827C55.0771 18.5768 54.0605 18.9987 53 19ZM53 13C52.6044 13 52.2178 13.1173 51.8889 13.3371C51.56 13.5568 51.3036 13.8692 51.1522 14.2346C51.0009 14.6001 50.9613 15.0022 51.0384 15.3902C51.1156 15.7781 51.3061 16.1345 51.5858 16.4142C51.8655 16.6939 52.2219 16.8844 52.6098 16.9616C52.9978 17.0387 53.3999 16.9991 53.7654 16.8478C54.1308 16.6964 54.4432 16.44 54.6629 16.1111C54.8827 15.7822 55 15.3956 55 15C54.9995 14.4697 54.7886 13.9613 54.4136 13.5864C54.0387 13.2114 53.5303 13.0005 53 13Z" fill="white"/>
<path d="M46.5 25C45.8078 25 45.1311 24.7947 44.5555 24.4101C43.9799 24.0256 43.5313 23.4789 43.2664 22.8394C43.0015 22.1999 42.9322 21.4961 43.0673 20.8172C43.2023 20.1383 43.5356 19.5146 44.0251 19.0251C44.5146 18.5356 45.1383 18.2023 45.8172 18.0673C46.4961 17.9322 47.1999 18.0015 47.8394 18.2664C48.4789 18.5313 49.0256 18.9799 49.4101 19.5555C49.7947 20.1311 50 20.8078 50 21.5C49.9989 22.4279 49.6299 23.3176 48.9737 23.9737C48.3176 24.6299 47.4279 24.9989 46.5 25ZM46.5 20C46.2033 20 45.9133 20.088 45.6666 20.2528C45.42 20.4176 45.2277 20.6519 45.1142 20.926C45.0007 21.2001 44.9709 21.5017 45.0288 21.7926C45.0867 22.0836 45.2296 22.3509 45.4393 22.5607C45.6491 22.7704 45.9164 22.9133 46.2074 22.9712C46.4983 23.0291 46.7999 22.9994 47.074 22.8858C47.3481 22.7723 47.5824 22.58 47.7472 22.3334C47.912 22.0867 48 21.7967 48 21.5C47.9995 21.1023 47.8413 20.7211 47.5601 20.4399C47.2789 20.1587 46.8977 20.0005 46.5 20Z" fill="white"/>
<path d="M20.6175 55V51.076H16.5375V55H15.4695V46.492H16.5375V50.044H20.6175V46.492H21.6855V55H20.6175ZM28.9308 51.964C28.9308 52.444 28.8708 52.896 28.7508 53.32C28.6308 53.744 28.4028 54.12 28.0668 54.448C27.8428 54.664 27.5748 54.836 27.2628 54.964C26.9588 55.092 26.6148 55.156 26.2308 55.156C25.8468 55.156 25.4988 55.092 25.1868 54.964C24.8828 54.836 24.6188 54.664 24.3948 54.448C24.0588 54.12 23.8308 53.744 23.7108 53.32C23.5908 52.896 23.5308 52.444 23.5308 51.964C23.5308 51.484 23.5908 51.032 23.7108 50.608C23.8308 50.184 24.0588 49.808 24.3948 49.48C24.6188 49.264 24.8828 49.092 25.1868 48.964C25.4988 48.836 25.8468 48.772 26.2308 48.772C26.6148 48.772 26.9588 48.836 27.2628 48.964C27.5748 49.092 27.8428 49.264 28.0668 49.48C28.4028 49.808 28.6308 50.184 28.7508 50.608C28.8708 51.032 28.9308 51.484 28.9308 51.964ZM27.8868 51.964C27.8868 51.604 27.8468 51.256 27.7668 50.92C27.6868 50.584 27.5388 50.304 27.3228 50.08C27.1948 49.952 27.0388 49.848 26.8548 49.768C26.6788 49.688 26.4708 49.648 26.2308 49.648C25.9908 49.648 25.7788 49.688 25.5948 49.768C25.4188 49.848 25.2668 49.952 25.1388 50.08C24.9228 50.304 24.7748 50.584 24.6948 50.92C24.6148 51.256 24.5748 51.604 24.5748 51.964C24.5748 52.324 24.6148 52.672 24.6948 53.008C24.7748 53.344 24.9228 53.624 25.1388 53.848C25.2668 53.976 25.4188 54.08 25.5948 54.16C25.7788 54.24 25.9908 54.28 26.2308 54.28C26.4708 54.28 26.6788 54.24 26.8548 54.16C27.0388 54.08 27.1948 53.976 27.3228 53.848C27.5388 53.624 27.6868 53.344 27.7668 53.008C27.8468 52.672 27.8868 52.324 27.8868 51.964ZM34.5542 55L34.4702 54.076C34.3102 54.428 34.0582 54.696 33.7142 54.88C33.3782 55.056 33.0302 55.144 32.6702 55.144C31.9742 55.144 31.4542 54.948 31.1102 54.556C30.7662 54.164 30.5942 53.616 30.5942 52.912V48.928H31.6142V52.768C31.6142 53.224 31.7102 53.58 31.9022 53.836C32.0942 54.092 32.4302 54.22 32.9102 54.22C33.1182 54.22 33.3022 54.18 33.4622 54.1C33.6302 54.012 33.7822 53.9 33.9182 53.764C34.1102 53.564 34.2422 53.312 34.3142 53.008C34.3862 52.704 34.4222 52.396 34.4222 52.084V48.928H35.4422V55H34.5542ZM42.1746 53.236C42.1746 53.5 42.1306 53.736 42.0426 53.944C41.9546 54.144 41.8386 54.32 41.6946 54.472C41.4626 54.712 41.1746 54.888 40.8306 55C40.4866 55.104 40.1146 55.156 39.7146 55.156C39.3306 55.156 38.9706 55.104 38.6346 55C38.2986 54.904 38.0026 54.728 37.7466 54.472C37.5626 54.288 37.4186 54.076 37.3146 53.836C37.2106 53.588 37.1586 53.336 37.1586 53.08H38.1786C38.1866 53.288 38.2346 53.472 38.3226 53.632C38.4106 53.784 38.5266 53.916 38.6706 54.028C38.8066 54.132 38.9746 54.204 39.1746 54.244C39.3746 54.284 39.5706 54.304 39.7626 54.304C39.9706 54.304 40.1666 54.284 40.3506 54.244C40.5426 54.196 40.7186 54.104 40.8786 53.968C40.9666 53.904 41.0386 53.812 41.0946 53.692C41.1506 53.572 41.1786 53.444 41.1786 53.308C41.1786 53.076 41.0986 52.884 40.9386 52.732C40.7786 52.58 40.5426 52.484 40.2306 52.444C40.1666 52.436 40.0786 52.424 39.9666 52.408C39.8546 52.392 39.7346 52.376 39.6066 52.36C39.4786 52.344 39.3466 52.328 39.2106 52.312C39.0826 52.296 38.9666 52.28 38.8626 52.264C38.4066 52.192 38.0426 52.02 37.7706 51.748C37.5066 51.468 37.3746 51.096 37.3746 50.632C37.3746 50.4 37.4226 50.18 37.5186 49.972C37.6226 49.756 37.7426 49.58 37.8786 49.444C38.0786 49.236 38.3306 49.072 38.6346 48.952C38.9386 48.832 39.2826 48.772 39.6666 48.772C40.0746 48.772 40.4466 48.836 40.7826 48.964C41.1186 49.092 41.3906 49.284 41.5986 49.54C41.7346 49.7 41.8386 49.872 41.9106 50.056C41.9906 50.24 42.0306 50.456 42.0306 50.704H41.0106C41.0026 50.544 40.9626 50.4 40.8906 50.272C40.8266 50.136 40.7506 50.028 40.6626 49.948C40.4226 49.732 40.0906 49.624 39.6666 49.624C39.5466 49.624 39.4346 49.628 39.3306 49.636C39.2266 49.644 39.1026 49.68 38.9586 49.744C38.7666 49.824 38.6146 49.94 38.5026 50.092C38.3986 50.236 38.3466 50.392 38.3466 50.56C38.3466 50.816 38.4186 51.004 38.5626 51.124C38.7066 51.236 38.9066 51.312 39.1626 51.352C39.3306 51.376 39.5346 51.404 39.7746 51.436C40.0146 51.46 40.2986 51.5 40.6266 51.556C41.0586 51.628 41.4226 51.812 41.7186 52.108C42.0226 52.404 42.1746 52.78 42.1746 53.236ZM48.8284 51.64C48.8284 51.752 48.8284 51.864 48.8284 51.976C48.8284 52.08 48.8244 52.188 48.8164 52.3H44.5204C44.5204 52.58 44.5724 52.86 44.6764 53.14C44.7804 53.412 44.9244 53.64 45.1084 53.824C45.3964 54.112 45.7684 54.256 46.2244 54.256C46.7204 54.256 47.0964 54.124 47.3524 53.86C47.4404 53.772 47.5124 53.68 47.5684 53.584C47.6244 53.488 47.6724 53.36 47.7124 53.2H48.7084C48.6684 53.504 48.5644 53.788 48.3964 54.052C48.2284 54.316 48.0204 54.532 47.7724 54.7C47.5564 54.844 47.3164 54.956 47.0524 55.036C46.7884 55.116 46.5124 55.156 46.2244 55.156C45.7924 55.156 45.4044 55.076 45.0604 54.916C44.7244 54.748 44.4404 54.524 44.2084 54.244C43.9524 53.948 43.7604 53.608 43.6324 53.224C43.5124 52.832 43.4524 52.42 43.4524 51.988C43.4524 51.62 43.4884 51.276 43.5604 50.956C43.6324 50.628 43.7524 50.324 43.9204 50.044C44.1364 49.676 44.4404 49.372 44.8324 49.132C45.2244 48.892 45.6844 48.772 46.2124 48.772C46.6044 48.772 46.9524 48.844 47.2564 48.988C47.5684 49.124 47.8364 49.312 48.0604 49.552C48.3004 49.816 48.4884 50.128 48.6244 50.488C48.7604 50.848 48.8284 51.232 48.8284 51.64ZM47.7844 51.424C47.7844 51.192 47.7524 50.968 47.6884 50.752C47.6244 50.536 47.5324 50.348 47.4124 50.188C47.2844 50.02 47.1204 49.888 46.9204 49.792C46.7204 49.688 46.4844 49.636 46.2124 49.636C45.9324 49.636 45.6884 49.688 45.4804 49.792C45.2804 49.896 45.1084 50.032 44.9644 50.2C44.8284 50.368 44.7244 50.56 44.6524 50.776C44.5884 50.984 44.5524 51.2 44.5444 51.424H47.7844ZM54.4298 55V51.148C54.4298 50.692 54.3258 50.336 54.1178 50.08C53.9178 49.824 53.5778 49.696 53.0978 49.696C52.8018 49.696 52.5418 49.784 52.3178 49.96C52.0938 50.128 51.9138 50.352 51.7778 50.632C51.6738 50.856 51.6098 51.112 51.5858 51.4C51.5698 51.688 51.5618 51.948 51.5618 52.18V55H50.5418V46.336H51.5618V49.732C51.7458 49.42 52.0018 49.184 52.3298 49.024C52.6578 48.856 52.9938 48.772 53.3378 48.772C54.0338 48.772 54.5578 48.968 54.9098 49.36C55.2698 49.752 55.4498 50.3 55.4498 51.004V55H54.4298ZM62.5168 51.964C62.5168 52.444 62.4568 52.896 62.3368 53.32C62.2168 53.744 61.9888 54.12 61.6528 54.448C61.4288 54.664 61.1608 54.836 60.8488 54.964C60.5448 55.092 60.2008 55.156 59.8168 55.156C59.4328 55.156 59.0848 55.092 58.7728 54.964C58.4688 54.836 58.2048 54.664 57.9808 54.448C57.6448 54.12 57.4168 53.744 57.2968 53.32C57.1768 52.896 57.1168 52.444 57.1168 51.964C57.1168 51.484 57.1768 51.032 57.2968 50.608C57.4168 50.184 57.6448 49.808 57.9808 49.48C58.2048 49.264 58.4688 49.092 58.7728 48.964C59.0848 48.836 59.4328 48.772 59.8168 48.772C60.2008 48.772 60.5448 48.836 60.8488 48.964C61.1608 49.092 61.4288 49.264 61.6528 49.48C61.9888 49.808 62.2168 50.184 62.3368 50.608C62.4568 51.032 62.5168 51.484 62.5168 51.964ZM61.4728 51.964C61.4728 51.604 61.4328 51.256 61.3528 50.92C61.2728 50.584 61.1248 50.304 60.9088 50.08C60.7808 49.952 60.6248 49.848 60.4408 49.768C60.2648 49.688 60.0568 49.648 59.8168 49.648C59.5768 49.648 59.3648 49.688 59.1808 49.768C59.0048 49.848 58.8528 49.952 58.7248 50.08C58.5088 50.304 58.3608 50.584 58.2808 50.92C58.2008 51.256 58.1608 51.604 58.1608 51.964C58.1608 52.324 58.2008 52.672 58.2808 53.008C58.3608 53.344 58.5088 53.624 58.7248 53.848C58.8528 53.976 59.0048 54.08 59.1808 54.16C59.3648 54.24 59.5768 54.28 59.8168 54.28C60.0568 54.28 60.2648 54.24 60.4408 54.16C60.6248 54.08 60.7808 53.976 60.9088 53.848C61.1248 53.624 61.2728 53.344 61.3528 53.008C61.4328 52.672 61.4728 52.324 61.4728 51.964ZM66.2322 55C66.1842 55.016 66.1242 55.028 66.0522 55.036C65.9322 55.06 65.7522 55.072 65.5122 55.072C65.0642 55.072 64.7402 54.944 64.5402 54.688C64.3402 54.432 64.2402 54.064 64.2402 53.584V46.336H65.2602V53.524C65.2602 53.732 65.3002 53.888 65.3802 53.992C65.4602 54.096 65.6042 54.148 65.8122 54.148H66.1482C66.1802 54.148 66.2082 54.144 66.2322 54.136V55ZM71.7178 55L71.6458 54.208C71.4698 54.512 71.2098 54.748 70.8658 54.916C70.5218 55.076 70.1778 55.156 69.8338 55.156C69.4578 55.156 69.1258 55.1 68.8378 54.988C68.5578 54.868 68.3178 54.704 68.1178 54.496C67.8298 54.2 67.6098 53.832 67.4578 53.392C67.3138 52.952 67.2418 52.48 67.2418 51.976C67.2418 51.448 67.3178 50.96 67.4698 50.512C67.6298 50.056 67.8618 49.68 68.1658 49.384C68.3658 49.2 68.6018 49.052 68.8738 48.94C69.1538 48.828 69.4738 48.772 69.8338 48.772C70.0018 48.772 70.1698 48.792 70.3378 48.832C70.5138 48.872 70.6818 48.928 70.8418 49C71.0018 49.072 71.1458 49.164 71.2738 49.276C71.4098 49.38 71.5178 49.5 71.5978 49.636V46.336H72.6178V55H71.7178ZM71.6578 51.964C71.6578 51.58 71.6098 51.22 71.5138 50.884C71.4178 50.54 71.2418 50.256 70.9858 50.032C70.8658 49.92 70.7258 49.828 70.5658 49.756C70.4138 49.676 70.2258 49.636 70.0018 49.636C69.6658 49.636 69.3858 49.704 69.1618 49.84C68.9378 49.976 68.7618 50.156 68.6338 50.38C68.5058 50.604 68.4138 50.856 68.3577 51.136C68.3098 51.408 68.2858 51.684 68.2858 51.964C68.2858 52.244 68.3098 52.524 68.3577 52.804C68.4138 53.076 68.5058 53.324 68.6338 53.548C68.7618 53.772 68.9378 53.952 69.1618 54.088C69.3858 54.224 69.6658 54.292 70.0018 54.292C70.2258 54.292 70.4138 54.256 70.5658 54.184C70.7258 54.104 70.8658 54.008 70.9858 53.896C71.2418 53.672 71.4178 53.392 71.5138 53.056C71.6098 52.712 71.6578 52.348 71.6578 51.964ZM35.5901 66.88C35.5901 67.408 35.5181 67.876 35.3741 68.284C35.2301 68.692 35.0221 69.036 34.7501 69.316C34.4781 69.588 34.1501 69.796 33.7661 69.94C33.3901 70.084 32.9621 70.156 32.4821 70.156C32.0021 70.156 31.5701 70.084 31.1861 69.94C30.8101 69.796 30.4861 69.588 30.2141 69.316C29.9421 69.036 29.7341 68.692 29.5901 68.284C29.4461 67.876 29.3741 67.408 29.3741 66.88V61.492H30.4421V66.904C30.4421 67.24 30.4781 67.548 30.5501 67.828C30.6301 68.108 30.7501 68.348 30.9101 68.548C31.0701 68.74 31.2781 68.892 31.5341 69.004C31.7981 69.108 32.1141 69.16 32.4821 69.16C32.8501 69.16 33.1621 69.108 33.4181 69.004C33.6821 68.892 33.8941 68.74 34.0541 68.548C34.2141 68.348 34.3301 68.108 34.4021 67.828C34.4821 67.548 34.5221 67.24 34.5221 66.904V61.492H35.5901V66.88ZM42.1629 68.236C42.1629 68.5 42.1189 68.736 42.0309 68.944C41.9429 69.144 41.8269 69.32 41.6829 69.472C41.4509 69.712 41.1629 69.888 40.8189 70C40.4749 70.104 40.1029 70.156 39.7029 70.156C39.3189 70.156 38.9589 70.104 38.6229 70C38.2869 69.904 37.9909 69.728 37.7349 69.472C37.5509 69.288 37.4069 69.076 37.3029 68.836C37.1989 68.588 37.1469 68.336 37.1469 68.08H38.1669C38.1749 68.288 38.2229 68.472 38.3109 68.632C38.3989 68.784 38.5149 68.916 38.6589 69.028C38.7949 69.132 38.9629 69.204 39.1629 69.244C39.3629 69.284 39.5589 69.304 39.7509 69.304C39.9589 69.304 40.1549 69.284 40.3389 69.244C40.5309 69.196 40.7069 69.104 40.8669 68.968C40.9549 68.904 41.0269 68.812 41.0829 68.692C41.1389 68.572 41.1669 68.444 41.1669 68.308C41.1669 68.076 41.0869 67.884 40.9269 67.732C40.7669 67.58 40.5309 67.484 40.2189 67.444C40.1549 67.436 40.0669 67.424 39.9549 67.408C39.8429 67.392 39.7229 67.376 39.5949 67.36C39.4669 67.344 39.3349 67.328 39.1989 67.312C39.0709 67.296 38.9549 67.28 38.8509 67.264C38.3949 67.192 38.0309 67.02 37.7589 66.748C37.4949 66.468 37.3629 66.096 37.3629 65.632C37.3629 65.4 37.4109 65.18 37.5069 64.972C37.6109 64.756 37.7309 64.58 37.8669 64.444C38.0669 64.236 38.3189 64.072 38.6229 63.952C38.9269 63.832 39.2709 63.772 39.6549 63.772C40.0629 63.772 40.4349 63.836 40.7709 63.964C41.1069 64.092 41.3789 64.284 41.5869 64.54C41.7229 64.7 41.8269 64.872 41.8989 65.056C41.9789 65.24 42.0189 65.456 42.0189 65.704H40.9989C40.9909 65.544 40.9509 65.4 40.8789 65.272C40.8149 65.136 40.7389 65.028 40.6509 64.948C40.4109 64.732 40.0789 64.624 39.6549 64.624C39.5349 64.624 39.4229 64.628 39.3189 64.636C39.2149 64.644 39.0909 64.68 38.9469 64.744C38.7549 64.824 38.6029 64.94 38.4909 65.092C38.3869 65.236 38.3349 65.392 38.3349 65.56C38.3349 65.816 38.4069 66.004 38.5509 66.124C38.6949 66.236 38.8949 66.312 39.1509 66.352C39.3189 66.376 39.5229 66.404 39.7629 66.436C40.0029 66.46 40.2869 66.5 40.6149 66.556C41.0469 66.628 41.4109 66.812 41.7069 67.108C42.0109 67.404 42.1629 67.78 42.1629 68.236ZM43.8487 62.536V61.336H45.0367V62.536H43.8487ZM43.9207 70V63.928H44.9647V70H43.9207ZM51.0899 70V66.148C51.0899 65.692 50.9859 65.336 50.7779 65.08C50.5779 64.824 50.2379 64.696 49.7579 64.696C49.4619 64.696 49.2019 64.784 48.9779 64.96C48.7539 65.128 48.5739 65.352 48.4379 65.632C48.3339 65.856 48.2699 66.112 48.2459 66.4C48.2299 66.688 48.2219 66.948 48.2219 67.18V70H47.2019V63.928H48.0899L48.1739 64.84C48.2539 64.664 48.3619 64.512 48.4979 64.384C48.6339 64.248 48.7859 64.136 48.9539 64.048C49.1219 63.96 49.2979 63.892 49.4819 63.844C49.6659 63.796 49.8419 63.772 50.0099 63.772C50.7059 63.772 51.2299 63.968 51.5819 64.36C51.9339 64.752 52.1099 65.3 52.1099 66.004V70H51.0899ZM59.4055 70.9C59.4055 71.164 59.3535 71.396 59.2495 71.596C59.1535 71.804 59.0335 71.98 58.8895 72.124C58.7455 72.268 58.5735 72.384 58.3735 72.472C58.1815 72.568 57.9775 72.64 57.7615 72.688C57.5455 72.744 57.3255 72.78 57.1015 72.796C56.8775 72.82 56.6575 72.832 56.4415 72.832C56.2415 72.832 56.0335 72.82 55.8175 72.796C55.6095 72.78 55.4055 72.744 55.2055 72.688C55.0055 72.64 54.8135 72.568 54.6295 72.472C54.4455 72.384 54.2815 72.268 54.1375 72.124C54.0095 71.996 53.9055 71.844 53.8255 71.668C53.7455 71.492 53.7055 71.284 53.7055 71.044C53.7055 70.724 53.7895 70.448 53.9575 70.216C54.1255 69.992 54.3295 69.82 54.5695 69.7C54.3615 69.62 54.1895 69.488 54.0535 69.304C53.9255 69.12 53.8615 68.912 53.8615 68.68C53.8615 68.408 53.9375 68.172 54.0895 67.972C54.2415 67.772 54.4335 67.616 54.6655 67.504C54.4415 67.304 54.2695 67.064 54.1495 66.784C54.0295 66.504 53.9695 66.22 53.9695 65.932C53.9695 65.596 54.0215 65.312 54.1255 65.08C54.2295 64.848 54.3695 64.64 54.5455 64.456C54.7535 64.24 55.0015 64.072 55.2895 63.952C55.5855 63.832 55.9375 63.772 56.3455 63.772C56.6335 63.772 56.8895 63.804 57.1135 63.868C57.3455 63.932 57.5535 64.02 57.7375 64.132C57.8415 63.86 58.0015 63.652 58.2175 63.508C58.4415 63.356 58.6975 63.28 58.9855 63.28C59.0335 63.28 59.0815 63.284 59.1295 63.292C59.1855 63.292 59.2375 63.296 59.2855 63.304V64.132C59.2535 64.124 59.2175 64.12 59.1775 64.12C59.1375 64.12 59.0975 64.12 59.0575 64.12C58.8575 64.12 58.6895 64.172 58.5535 64.276C58.4255 64.372 58.3455 64.504 58.3135 64.672C58.4415 64.832 58.5375 65.016 58.6015 65.224C58.6735 65.424 58.7095 65.66 58.7095 65.932C58.7095 66.22 58.6575 66.488 58.5535 66.736C58.4575 66.984 58.3255 67.2 58.1575 67.384C57.9575 67.6 57.7055 67.776 57.4015 67.912C57.1055 68.04 56.7535 68.104 56.3455 68.104C56.1375 68.104 55.9615 68.092 55.8175 68.068C55.6815 68.044 55.5175 68 55.3255 67.936C55.1975 67.976 55.0775 68.044 54.9655 68.14C54.8615 68.236 54.8095 68.364 54.8095 68.524C54.8095 68.644 54.8375 68.74 54.8935 68.812C54.9575 68.884 55.0335 68.94 55.1215 68.98C55.2175 69.02 55.3175 69.048 55.4215 69.064C55.5255 69.072 55.6255 69.076 55.7215 69.076H56.9215C57.2815 69.076 57.6455 69.12 58.0135 69.208C58.3815 69.296 58.6855 69.464 58.9255 69.712C59.0695 69.856 59.1855 70.024 59.2735 70.216C59.3615 70.416 59.4055 70.644 59.4055 70.9ZM57.7135 65.932C57.7135 65.548 57.5895 65.232 57.3415 64.984C57.1015 64.728 56.7655 64.6 56.3335 64.6C55.9175 64.6 55.5815 64.728 55.3255 64.984C55.0775 65.232 54.9535 65.548 54.9535 65.932C54.9535 66.316 55.0735 66.64 55.3135 66.904C55.5615 67.16 55.9015 67.288 56.3335 67.288C56.7495 67.288 57.0815 67.16 57.3295 66.904C57.5855 66.64 57.7135 66.316 57.7135 65.932ZM58.4095 70.9C58.4095 70.676 58.3575 70.5 58.2535 70.372C58.1575 70.244 58.0295 70.148 57.8695 70.084C57.7175 70.02 57.5455 69.98 57.3535 69.964C57.1695 69.948 56.9855 69.94 56.8015 69.94H55.3975C55.1895 70.004 55.0095 70.12 54.8575 70.288C54.7055 70.464 54.6295 70.668 54.6295 70.9C54.6295 71.156 54.7135 71.368 54.8815 71.536C54.9775 71.632 55.0895 71.708 55.2175 71.764C55.3535 71.82 55.4935 71.86 55.6375 71.884C55.7815 71.916 55.9255 71.936 56.0695 71.944C56.2215 71.952 56.3655 71.956 56.5015 71.956C56.6295 71.956 56.7695 71.952 56.9215 71.944C57.0735 71.936 57.2255 71.916 57.3775 71.884C57.5295 71.852 57.6735 71.808 57.8095 71.752C57.9455 71.696 58.0615 71.62 58.1575 71.524C58.3255 71.356 58.4095 71.148 58.4095 70.9Z" fill="white"/>
<defs>
<filter id="filter0_d_527_3032" x="0" y="0" width="88" height="88" filterUnits="userSpaceOnUse" color-interpolation-filters="sRGB">
<feFlood flood-opacity="0" result="BackgroundImageFix"/>
<feColorMatrix in="SourceAlpha" type="matrix" values="0 0 0 0 0 0 0 0 0 0 0 0 0 0 0 0 0 0 127 0" result="hardAlpha"/>
<feOffset dy="4"/>
<feGaussianBlur stdDeviation="2"/>
<feComposite in2="hardAlpha" operator="out"/>
<feColorMatrix type="matrix" values="0 0 0 0 0 0 0 0 0 0 0 0 0 0 0 0 0 0 0.25 0"/>
<feBlend mode="normal" in2="BackgroundImageFix" result="effect1_dropShadow_527_3032"/>
<feBlend mode="normal" in="SourceGraphic" in2="effect1_dropShadow_527_3032" result="shape"/>
</filter>
<linearGradient id="paint0_linear_527_3032" x1="44" y1="0" x2="44" y2="80" gradientUnits="userSpaceOnUse">
<stop stop-color="#015193"/>
<stop offset="1" stop-color="#4B86A8"/>
</linearGradient>
</defs>
</svg>
