<svg width="316" height="186" viewBox="0 0 316 186" fill="none" xmlns="http://www.w3.org/2000/svg">
<rect x="3" y="3" width="310" height="180" rx="20" fill="#0A2841" stroke="white" stroke-width="5" stroke-linecap="round" stroke-linejoin="round" stroke-dasharray="10 10"/>
<path d="M61.0624 129.432C61.0624 130.248 60.9344 130.992 60.6784 131.664C60.4224 132.336 60.0384 132.912 59.5264 133.392C59.0304 133.872 58.4064 134.248 57.6544 134.52C56.9024 134.776 56.0384 134.904 55.0624 134.904H51.4624V141H48.3904V123.984H55.0624C56.0384 123.984 56.9024 124.12 57.6544 124.392C58.4064 124.648 59.0304 125.016 59.5264 125.496C60.0384 125.96 60.4224 126.528 60.6784 127.2C60.9344 127.872 61.0624 128.616 61.0624 129.432ZM57.9424 129.456C57.9424 128.64 57.7024 127.976 57.2224 127.464C56.7424 126.952 55.9824 126.696 54.9424 126.696H51.4624V132.192H54.9424C55.9824 132.192 56.7424 131.944 57.2224 131.448C57.7024 130.936 57.9424 130.272 57.9424 129.456ZM73.8846 140.856C73.6286 140.968 73.4046 141.048 73.2126 141.096C73.0366 141.16 72.7646 141.192 72.3966 141.192C71.7406 141.192 71.2366 141.016 70.8846 140.664C70.5326 140.312 70.3326 139.904 70.2846 139.44C69.9966 139.952 69.5166 140.392 68.8446 140.76C68.1726 141.128 67.3886 141.312 66.4926 141.312C65.7406 141.312 65.0846 141.208 64.5246 141C63.9646 140.776 63.4926 140.488 63.1086 140.136C62.7406 139.768 62.4606 139.352 62.2686 138.888C62.0766 138.408 61.9806 137.912 61.9806 137.4C61.9806 136.808 62.0846 136.28 62.2926 135.816C62.5166 135.352 62.8206 134.952 63.2046 134.616C63.5886 134.28 64.0366 134.024 64.5486 133.848C65.0606 133.656 65.6126 133.536 66.2046 133.488L69.8766 133.224V132.456C69.8766 131.864 69.7326 131.392 69.4446 131.04C69.1726 130.672 68.6126 130.488 67.7646 130.488C67.0606 130.488 66.5086 130.64 66.1086 130.944C65.7246 131.248 65.5166 131.688 65.4846 132.264H62.5806C62.6286 131.56 62.7886 130.952 63.0606 130.44C63.3486 129.928 63.7246 129.512 64.1886 129.192C64.6526 128.856 65.1886 128.608 65.7966 128.448C66.4046 128.288 67.0606 128.208 67.7646 128.208C68.8366 128.208 69.7886 128.4 70.6206 128.784C71.4686 129.152 72.0766 129.808 72.4446 130.752C72.6046 131.152 72.7006 131.568 72.7326 132C72.7806 132.432 72.8046 132.856 72.8046 133.272V137.904C72.8046 138.192 72.8526 138.4 72.9486 138.528C73.0606 138.64 73.2446 138.696 73.5006 138.696C73.6286 138.696 73.7166 138.688 73.7646 138.672C73.8126 138.672 73.8526 138.664 73.8846 138.648V140.856ZM69.8766 135.456L66.7086 135.696C66.2446 135.728 65.8286 135.88 65.4606 136.152C65.0926 136.424 64.9086 136.816 64.9086 137.328C64.9086 137.808 65.0846 138.192 65.4366 138.48C65.8046 138.752 66.2206 138.888 66.6846 138.888C67.6286 138.888 68.3966 138.648 68.9886 138.168C69.5806 137.672 69.8766 136.96 69.8766 136.032V135.456ZM83.428 140.832C82.564 141.056 81.708 141.168 80.86 141.168C79.596 141.168 78.652 140.832 78.028 140.16C77.404 139.472 77.092 138.528 77.092 137.328V130.992H74.812V128.52H77.092V125.352L80.092 124.608V128.52H83.236V130.992H80.092V137.064C80.092 137.544 80.204 137.896 80.428 138.12C80.652 138.328 81.004 138.432 81.484 138.432C81.804 138.432 82.1 138.424 82.372 138.408C82.66 138.392 83.012 138.36 83.428 138.312V140.832ZM85.9334 126.792V123.696H89.1494V126.792H85.9334ZM86.0294 141V128.52H89.0774V141H86.0294ZM103.409 134.856C103.393 134.968 103.385 135.072 103.385 135.168V135.696H95.0326C95.0326 136.176 95.1046 136.632 95.2486 137.064C95.4086 137.496 95.6406 137.856 95.9446 138.144C96.1686 138.352 96.4246 138.536 96.7126 138.696C97.0166 138.84 97.3766 138.912 97.7926 138.912C98.2246 138.912 98.5766 138.872 98.8486 138.792C99.1366 138.696 99.3926 138.536 99.6166 138.312C99.9046 138.024 100.105 137.672 100.217 137.256H103.097C103.065 137.624 102.937 138.032 102.713 138.48C102.505 138.912 102.281 139.272 102.041 139.56C101.513 140.184 100.881 140.632 100.145 140.904C99.4086 141.176 98.6406 141.312 97.8406 141.312C96.9766 141.312 96.2246 141.176 95.5846 140.904C94.9606 140.616 94.4006 140.24 93.9046 139.776C93.2806 139.168 92.8006 138.44 92.4646 137.592C92.1446 136.744 91.9846 135.808 91.9846 134.784C91.9846 133.776 92.1286 132.848 92.4166 132C92.7206 131.136 93.1766 130.4 93.7846 129.792C94.2486 129.312 94.8086 128.928 95.4646 128.64C96.1366 128.352 96.9046 128.208 97.7686 128.208C98.6966 128.208 99.5606 128.4 100.361 128.784C101.161 129.152 101.817 129.728 102.329 130.512C102.793 131.2 103.089 131.904 103.217 132.624C103.345 133.328 103.409 134.072 103.409 134.856ZM100.409 133.512C100.393 132.6 100.137 131.872 99.6406 131.328C99.4326 131.104 99.1686 130.928 98.8486 130.8C98.5446 130.672 98.1766 130.608 97.7446 130.608C97.2806 130.608 96.8726 130.696 96.5206 130.872C96.1686 131.048 95.8806 131.28 95.6566 131.568C95.4326 131.84 95.2726 132.128 95.1766 132.432C95.0806 132.736 95.0246 133.096 95.0086 133.512H100.409ZM113.84 141V133.344C113.84 132.608 113.696 132.032 113.408 131.616C113.12 131.2 112.576 130.992 111.776 130.992C111.248 130.992 110.808 131.144 110.456 131.448C110.104 131.736 109.824 132.112 109.616 132.576C109.408 133.04 109.288 133.584 109.256 134.208C109.224 134.816 109.208 135.384 109.208 135.912V141H106.208V128.52H108.728L108.944 130.128C109.312 129.472 109.832 128.992 110.504 128.688C111.192 128.368 111.896 128.208 112.616 128.208C113.288 128.208 113.88 128.32 114.392 128.544C114.92 128.768 115.36 129.08 115.712 129.48C116.08 129.864 116.36 130.336 116.552 130.896C116.744 131.44 116.84 132.032 116.84 132.672V141H113.84ZM127.444 140.832C126.58 141.056 125.724 141.168 124.876 141.168C123.612 141.168 122.668 140.832 122.044 140.16C121.42 139.472 121.108 138.528 121.108 137.328V130.992H118.828V128.52H121.108V125.352L124.108 124.608V128.52H127.252V130.992H124.108V137.064C124.108 137.544 124.22 137.896 124.444 138.12C124.668 138.328 125.02 138.432 125.5 138.432C125.82 138.432 126.116 138.424 126.388 138.408C126.676 138.392 127.028 138.36 127.444 138.312V140.832ZM147.541 135.576C147.461 136.248 147.293 136.912 147.037 137.568C146.781 138.208 146.405 138.784 145.909 139.296C145.269 139.952 144.525 140.456 143.677 140.808C142.829 141.144 141.949 141.312 141.037 141.312C140.125 141.312 139.253 141.16 138.421 140.856C137.605 140.552 136.869 140.072 136.213 139.416C135.749 138.952 135.373 138.464 135.085 137.952C134.813 137.44 134.605 136.896 134.461 136.32C134.317 135.744 134.221 135.144 134.173 134.52C134.125 133.88 134.101 133.208 134.101 132.504C134.101 131.816 134.125 131.152 134.173 130.512C134.221 129.872 134.317 129.264 134.461 128.688C134.605 128.112 134.813 127.568 135.085 127.056C135.373 126.544 135.749 126.056 136.213 125.592C136.869 124.936 137.605 124.456 138.421 124.152C139.253 123.832 140.125 123.672 141.037 123.672C141.949 123.672 142.829 123.84 143.677 124.176C144.525 124.496 145.269 124.984 145.909 125.64C146.405 126.152 146.781 126.728 147.037 127.368C147.293 128.008 147.461 128.664 147.541 129.336H144.373C144.341 128.968 144.261 128.648 144.133 128.376C144.005 128.088 143.829 127.808 143.605 127.536C143.333 127.184 142.965 126.92 142.501 126.744C142.053 126.568 141.565 126.48 141.037 126.48C140.541 126.48 140.061 126.576 139.597 126.768C139.149 126.96 138.757 127.24 138.421 127.608C138.133 127.912 137.909 128.264 137.749 128.664C137.589 129.064 137.469 129.488 137.389 129.936C137.325 130.368 137.285 130.808 137.269 131.256C137.253 131.704 137.245 132.12 137.245 132.504C137.245 132.888 137.253 133.304 137.269 133.752C137.285 134.2 137.325 134.648 137.389 135.096C137.469 135.528 137.589 135.944 137.749 136.344C137.909 136.744 138.133 137.096 138.421 137.4C138.757 137.768 139.149 138.048 139.597 138.24C140.061 138.432 140.541 138.528 141.037 138.528C141.565 138.528 142.053 138.44 142.501 138.264C142.965 138.072 143.333 137.8 143.605 137.448C144.053 136.904 144.309 136.28 144.373 135.576H147.541ZM160.643 134.856C160.627 134.968 160.619 135.072 160.619 135.168V135.696H152.267C152.267 136.176 152.339 136.632 152.483 137.064C152.643 137.496 152.875 137.856 153.179 138.144C153.403 138.352 153.659 138.536 153.947 138.696C154.251 138.84 154.611 138.912 155.027 138.912C155.459 138.912 155.811 138.872 156.083 138.792C156.371 138.696 156.627 138.536 156.851 138.312C157.139 138.024 157.339 137.672 157.451 137.256H160.331C160.299 137.624 160.171 138.032 159.947 138.48C159.739 138.912 159.515 139.272 159.275 139.56C158.747 140.184 158.115 140.632 157.379 140.904C156.643 141.176 155.875 141.312 155.075 141.312C154.211 141.312 153.459 141.176 152.819 140.904C152.195 140.616 151.635 140.24 151.139 139.776C150.515 139.168 150.035 138.44 149.699 137.592C149.379 136.744 149.219 135.808 149.219 134.784C149.219 133.776 149.363 132.848 149.651 132C149.955 131.136 150.411 130.4 151.019 129.792C151.483 129.312 152.043 128.928 152.699 128.64C153.371 128.352 154.139 128.208 155.003 128.208C155.931 128.208 156.795 128.4 157.595 128.784C158.395 129.152 159.051 129.728 159.563 130.512C160.027 131.2 160.323 131.904 160.451 132.624C160.579 133.328 160.643 134.072 160.643 134.856ZM157.643 133.512C157.627 132.6 157.371 131.872 156.875 131.328C156.667 131.104 156.403 130.928 156.083 130.8C155.779 130.672 155.411 130.608 154.979 130.608C154.515 130.608 154.107 130.696 153.755 130.872C153.403 131.048 153.115 131.28 152.891 131.568C152.667 131.84 152.507 132.128 152.411 132.432C152.315 132.736 152.259 133.096 152.243 133.512H157.643ZM171.074 141V133.344C171.074 132.608 170.93 132.032 170.642 131.616C170.354 131.2 169.81 130.992 169.01 130.992C168.482 130.992 168.042 131.144 167.69 131.448C167.338 131.736 167.058 132.112 166.85 132.576C166.642 133.04 166.522 133.584 166.49 134.208C166.458 134.816 166.442 135.384 166.442 135.912V141H163.442V128.52H165.962L166.178 130.128C166.546 129.472 167.066 128.992 167.738 128.688C168.426 128.368 169.13 128.208 169.85 128.208C170.522 128.208 171.114 128.32 171.626 128.544C172.154 128.768 172.594 129.08 172.946 129.48C173.314 129.864 173.594 130.336 173.786 130.896C173.978 131.44 174.074 132.032 174.074 132.672V141H171.074ZM184.678 140.832C183.814 141.056 182.958 141.168 182.11 141.168C180.846 141.168 179.902 140.832 179.278 140.16C178.654 139.472 178.342 138.528 178.342 137.328V130.992H176.062V128.52H178.342V125.352L181.342 124.608V128.52H184.486V130.992H181.342V137.064C181.342 137.544 181.454 137.896 181.678 138.12C181.902 138.328 182.254 138.432 182.734 138.432C183.054 138.432 183.35 138.424 183.622 138.408C183.91 138.392 184.262 138.36 184.678 138.312V140.832ZM194.503 131.304C194.135 131.224 193.791 131.184 193.471 131.184C192.415 131.184 191.615 131.52 191.071 132.192C190.527 132.864 190.255 133.704 190.255 134.712V141H187.231V128.52H189.775L190.039 130.392C190.327 129.672 190.799 129.152 191.455 128.832C192.127 128.512 192.831 128.352 193.567 128.352C193.871 128.352 194.183 128.376 194.503 128.424V131.304ZM196.652 126.792V123.696H199.868V126.792H196.652ZM196.748 141V128.52H199.796V141H196.748ZM213.647 136.584C213.615 137.08 213.519 137.568 213.359 138.048C213.199 138.512 212.975 138.928 212.687 139.296C212.255 139.84 211.671 140.304 210.935 140.688C210.215 141.072 209.375 141.264 208.415 141.264C207.455 141.264 206.599 141.072 205.847 140.688C205.095 140.288 204.503 139.824 204.071 139.296C203.607 138.704 203.263 138.024 203.039 137.256C202.815 136.488 202.703 135.648 202.703 134.736C202.703 133.824 202.815 132.984 203.039 132.216C203.263 131.448 203.607 130.768 204.071 130.176C204.503 129.648 205.095 129.192 205.847 128.808C206.599 128.408 207.455 128.208 208.415 128.208C209.375 128.208 210.215 128.4 210.935 128.784C211.671 129.168 212.255 129.632 212.687 130.176C212.975 130.544 213.199 130.968 213.359 131.448C213.519 131.912 213.615 132.392 213.647 132.888H210.695C210.679 132.664 210.639 132.456 210.575 132.264C210.511 132.072 210.431 131.896 210.335 131.736C210.159 131.464 209.911 131.24 209.591 131.064C209.271 130.888 208.879 130.8 208.415 130.8C207.999 130.8 207.639 130.872 207.335 131.016C207.047 131.16 206.799 131.344 206.591 131.568C206.223 131.968 205.991 132.448 205.895 133.008C205.799 133.568 205.751 134.144 205.751 134.736C205.751 135.328 205.799 135.904 205.895 136.464C205.991 137.008 206.223 137.48 206.591 137.88C206.799 138.104 207.047 138.296 207.335 138.456C207.639 138.6 207.999 138.672 208.415 138.672C208.879 138.672 209.271 138.584 209.591 138.408C209.911 138.232 210.159 138.008 210.335 137.736C210.431 137.576 210.511 137.4 210.575 137.208C210.639 137.016 210.679 136.808 210.695 136.584H213.647ZM233.861 135.576C233.781 136.248 233.613 136.912 233.357 137.568C233.101 138.208 232.725 138.784 232.229 139.296C231.589 139.952 230.845 140.456 229.997 140.808C229.149 141.144 228.269 141.312 227.357 141.312C226.445 141.312 225.573 141.16 224.741 140.856C223.925 140.552 223.189 140.072 222.533 139.416C222.069 138.952 221.693 138.464 221.405 137.952C221.133 137.44 220.925 136.896 220.781 136.32C220.637 135.744 220.541 135.144 220.493 134.52C220.445 133.88 220.421 133.208 220.421 132.504C220.421 131.816 220.445 131.152 220.493 130.512C220.541 129.872 220.637 129.264 220.781 128.688C220.925 128.112 221.133 127.568 221.405 127.056C221.693 126.544 222.069 126.056 222.533 125.592C223.189 124.936 223.925 124.456 224.741 124.152C225.573 123.832 226.445 123.672 227.357 123.672C228.269 123.672 229.149 123.84 229.997 124.176C230.845 124.496 231.589 124.984 232.229 125.64C232.725 126.152 233.101 126.728 233.357 127.368C233.613 128.008 233.781 128.664 233.861 129.336H230.693C230.661 128.968 230.581 128.648 230.453 128.376C230.325 128.088 230.149 127.808 229.925 127.536C229.653 127.184 229.285 126.92 228.821 126.744C228.373 126.568 227.885 126.48 227.357 126.48C226.861 126.48 226.381 126.576 225.917 126.768C225.469 126.96 225.077 127.24 224.741 127.608C224.453 127.912 224.229 128.264 224.069 128.664C223.909 129.064 223.789 129.488 223.709 129.936C223.645 130.368 223.605 130.808 223.589 131.256C223.573 131.704 223.565 132.12 223.565 132.504C223.565 132.888 223.573 133.304 223.589 133.752C223.605 134.2 223.645 134.648 223.709 135.096C223.789 135.528 223.909 135.944 224.069 136.344C224.229 136.744 224.453 137.096 224.741 137.4C225.077 137.768 225.469 138.048 225.917 138.24C226.381 138.432 226.861 138.528 227.357 138.528C227.885 138.528 228.373 138.44 228.821 138.264C229.285 138.072 229.653 137.8 229.925 137.448C230.373 136.904 230.629 136.28 230.693 135.576H233.861ZM247.275 140.856C247.019 140.968 246.795 141.048 246.603 141.096C246.427 141.16 246.155 141.192 245.787 141.192C245.131 141.192 244.627 141.016 244.275 140.664C243.923 140.312 243.723 139.904 243.675 139.44C243.387 139.952 242.907 140.392 242.235 140.76C241.563 141.128 240.779 141.312 239.883 141.312C239.131 141.312 238.475 141.208 237.915 141C237.355 140.776 236.883 140.488 236.499 140.136C236.131 139.768 235.851 139.352 235.659 138.888C235.467 138.408 235.371 137.912 235.371 137.4C235.371 136.808 235.475 136.28 235.683 135.816C235.907 135.352 236.211 134.952 236.595 134.616C236.979 134.28 237.427 134.024 237.939 133.848C238.451 133.656 239.003 133.536 239.595 133.488L243.267 133.224V132.456C243.267 131.864 243.123 131.392 242.835 131.04C242.563 130.672 242.003 130.488 241.155 130.488C240.451 130.488 239.899 130.64 239.499 130.944C239.115 131.248 238.907 131.688 238.875 132.264H235.971C236.019 131.56 236.179 130.952 236.451 130.44C236.739 129.928 237.115 129.512 237.579 129.192C238.043 128.856 238.579 128.608 239.187 128.448C239.795 128.288 240.451 128.208 241.155 128.208C242.227 128.208 243.179 128.4 244.011 128.784C244.859 129.152 245.467 129.808 245.835 130.752C245.995 131.152 246.091 131.568 246.123 132C246.171 132.432 246.195 132.856 246.195 133.272V137.904C246.195 138.192 246.243 138.4 246.339 138.528C246.451 138.64 246.635 138.696 246.891 138.696C247.019 138.696 247.107 138.688 247.155 138.672C247.203 138.672 247.243 138.664 247.275 138.648V140.856ZM243.267 135.456L240.099 135.696C239.635 135.728 239.219 135.88 238.851 136.152C238.483 136.424 238.299 136.816 238.299 137.328C238.299 137.808 238.475 138.192 238.827 138.48C239.195 138.752 239.611 138.888 240.075 138.888C241.019 138.888 241.787 138.648 242.379 138.168C242.971 137.672 243.267 136.96 243.267 136.032V135.456ZM257.152 131.304C256.784 131.224 256.44 131.184 256.12 131.184C255.064 131.184 254.264 131.52 253.72 132.192C253.176 132.864 252.904 133.704 252.904 134.712V141H249.88V128.52H252.424L252.688 130.392C252.976 129.672 253.448 129.152 254.104 128.832C254.776 128.512 255.48 128.352 256.216 128.352C256.52 128.352 256.832 128.376 257.152 128.424V131.304ZM269.674 134.856C269.658 134.968 269.65 135.072 269.65 135.168V135.696H261.298C261.298 136.176 261.37 136.632 261.514 137.064C261.674 137.496 261.906 137.856 262.21 138.144C262.434 138.352 262.69 138.536 262.978 138.696C263.282 138.84 263.642 138.912 264.058 138.912C264.49 138.912 264.842 138.872 265.114 138.792C265.402 138.696 265.658 138.536 265.882 138.312C266.17 138.024 266.37 137.672 266.482 137.256H269.362C269.33 137.624 269.202 138.032 268.978 138.48C268.77 138.912 268.546 139.272 268.306 139.56C267.778 140.184 267.146 140.632 266.41 140.904C265.674 141.176 264.906 141.312 264.106 141.312C263.242 141.312 262.49 141.176 261.85 140.904C261.226 140.616 260.666 140.24 260.17 139.776C259.546 139.168 259.066 138.44 258.73 137.592C258.41 136.744 258.25 135.808 258.25 134.784C258.25 133.776 258.394 132.848 258.682 132C258.986 131.136 259.442 130.4 260.05 129.792C260.514 129.312 261.074 128.928 261.73 128.64C262.402 128.352 263.17 128.208 264.034 128.208C264.962 128.208 265.826 128.4 266.626 128.784C267.426 129.152 268.082 129.728 268.594 130.512C269.058 131.2 269.354 131.904 269.482 132.624C269.61 133.328 269.674 134.072 269.674 134.856ZM266.674 133.512C266.658 132.6 266.402 131.872 265.906 131.328C265.698 131.104 265.434 130.928 265.114 130.8C264.81 130.672 264.442 130.608 264.01 130.608C263.546 130.608 263.138 130.696 262.786 130.872C262.434 131.048 262.146 131.28 261.922 131.568C261.698 131.84 261.538 132.128 261.442 132.432C261.346 132.736 261.29 133.096 261.274 133.512H266.674Z" fill="#E4F7FF"/>
<path d="M162.562 52.1875C162.562 55.4198 161.278 58.5198 158.993 60.8054C156.707 63.091 153.607 64.375 150.375 64.375C147.143 64.375 144.043 63.091 141.757 60.8054C139.472 58.5198 138.188 55.4198 138.188 52.1875C138.188 48.9552 139.472 45.8552 141.757 43.5696C144.043 41.284 147.143 40 150.375 40C153.607 40 156.707 41.284 158.993 43.5696C161.278 45.8552 162.562 48.9552 162.562 52.1875ZM126 84.6875C126 88.75 130.062 88.75 130.062 88.75H170.688C170.688 88.75 174.75 88.75 174.75 84.6875C174.75 80.625 170.688 68.4375 150.375 68.4375C130.062 68.4375 126 80.625 126 84.6875ZM180.844 51.8219C186.478 46.0328 200.567 56.1688 180.844 69.1972C161.124 56.1688 175.209 46.0328 180.844 51.8259V51.8219Z" fill="white"/>
</svg>
