<svg width="88" height="88" viewBox="0 0 88 88" fill="none" xmlns="http://www.w3.org/2000/svg">
<g filter="url(#filter0_d_527_3035)">
<circle cx="44" cy="40" r="40" fill="url(#paint0_linear_527_3035)"/>
</g>
<path fill-rule="evenodd" clip-rule="evenodd" d="M38.9229 10C38.3109 10 37.7239 10.2431 37.2911 10.6759C36.8584 11.1087 36.6152 11.6956 36.6152 12.3076H34.3076C33.6956 12.3076 33.1087 12.5507 32.6759 12.9835C32.2431 13.4163 32 14.0032 32 14.6152V36.1531C32 36.7651 32.2431 37.352 32.6759 37.7848C33.1087 38.2176 33.6956 38.4607 34.3076 38.4607H43.5381V36.9223H34.3076C34.1036 36.9223 33.908 36.8412 33.7637 36.697C33.6195 36.5527 33.5384 36.3571 33.5384 36.1531V14.6152C33.5384 14.4112 33.6195 14.2156 33.7637 14.0713C33.908 13.9271 34.1036 13.846 34.3076 13.846H36.6152C36.6152 14.4581 36.8584 15.045 37.2911 15.4778C37.7239 15.9105 38.3109 16.1537 38.9229 16.1537H45.0765C45.6886 16.1537 46.2755 15.9105 46.7083 15.4778C47.141 15.045 47.3842 14.4581 47.3842 13.846H49.6918C49.8958 13.846 50.0914 13.9271 50.2357 14.0713C50.38 14.2156 50.461 14.4112 50.461 14.6152V26.1534H51.9994V14.6152C51.9994 14.0032 51.7563 13.4163 51.3235 12.9835C50.8908 12.5507 50.3038 12.3076 49.6918 12.3076H47.3842C47.3842 11.6956 47.141 11.1087 46.7083 10.6759C46.2755 10.2431 45.6886 10 45.0765 10H38.9229ZM38.1537 12.3076C38.1537 12.1036 38.2347 11.908 38.379 11.7637C38.5232 11.6195 38.7189 11.5384 38.9229 11.5384H45.0765C45.2805 11.5384 45.4762 11.6195 45.6205 11.7637C45.7647 11.908 45.8457 12.1036 45.8457 12.3076V13.846C45.8457 14.05 45.7647 14.2457 45.6205 14.39C45.4762 14.5342 45.2805 14.6152 45.0765 14.6152H38.9229C38.7189 14.6152 38.5232 14.5342 38.379 14.39C38.2347 14.2457 38.1537 14.05 38.1537 13.846V12.3076ZM41.2305 21.5381V19.2305H42.7689V21.5381H45.0765V23.0765H42.7689V25.3842H41.2305V23.0765H38.9229V21.5381H41.2305ZM44.3073 28.461C44.3073 28.257 44.3884 28.0613 44.5326 27.9171C44.6769 27.7728 44.8725 27.6918 45.0765 27.6918H54.307C54.511 27.6918 54.7067 27.7728 54.8509 27.9171C54.9952 28.0613 55.0762 28.257 55.0762 28.461V33.6832C55.0762 34.5695 54.8574 35.4422 54.4391 36.2237C54.0208 37.0052 53.4161 37.6713 52.6786 38.163L50.1187 39.8707C49.9923 39.955 49.8437 40 49.6918 40C49.5398 40 49.3913 39.955 49.2649 39.8707L46.705 38.163C45.9676 37.6714 45.3629 37.0054 44.9447 36.224C44.5264 35.4427 44.3075 34.5702 44.3073 33.6839V28.461ZM45.8457 29.2302V33.6832C45.8458 34.3163 46.0022 34.9397 46.301 35.4979C46.5999 36.0561 47.0319 36.5319 47.5588 36.8831L49.6918 38.3069L51.8248 36.8838C52.3517 36.5327 52.7837 36.0569 53.0825 35.4987C53.3814 34.9404 53.5378 34.3171 53.5378 33.6839V29.2302H45.8457ZM49.4664 35.1585L52.5432 32.0817L51.4556 30.994L48.9226 33.527L47.928 32.5324L46.8403 33.6201L48.3787 35.1585C48.523 35.3027 48.7186 35.3837 48.9226 35.3837C49.1265 35.3837 49.3222 35.3027 49.4664 35.1585Z" fill="white"/>
<path d="M24.353 55L22.745 51.46H20.393V55H19.325V46.492H22.661C23.165 46.492 23.593 46.56 23.945 46.696C24.297 46.824 24.589 47.008 24.821 47.248C25.029 47.464 25.193 47.712 25.313 47.992C25.433 48.272 25.493 48.6 25.493 48.976C25.493 49.352 25.437 49.672 25.325 49.936C25.213 50.2 25.053 50.44 24.845 50.656C24.717 50.792 24.565 50.912 24.389 51.016C24.221 51.112 24.033 51.192 23.825 51.256L25.529 55H24.353ZM24.389 48.976C24.389 48.44 24.225 48.056 23.897 47.824C23.577 47.592 23.165 47.476 22.661 47.476H20.393V50.464H22.661C22.909 50.464 23.137 50.44 23.345 50.392C23.561 50.336 23.745 50.248 23.897 50.128C24.057 50.008 24.177 49.856 24.257 49.672C24.345 49.48 24.389 49.248 24.389 48.976ZM31.9651 51.64C31.9651 51.752 31.9651 51.864 31.9651 51.976C31.9651 52.08 31.9611 52.188 31.9531 52.3H27.6571C27.6571 52.58 27.7091 52.86 27.8131 53.14C27.9171 53.412 28.0611 53.64 28.2451 53.824C28.5331 54.112 28.9051 54.256 29.3611 54.256C29.8571 54.256 30.2331 54.124 30.4891 53.86C30.5771 53.772 30.6491 53.68 30.7051 53.584C30.7611 53.488 30.8091 53.36 30.8491 53.2H31.8451C31.8051 53.504 31.7011 53.788 31.5331 54.052C31.3651 54.316 31.1571 54.532 30.9091 54.7C30.6931 54.844 30.4531 54.956 30.1891 55.036C29.9251 55.116 29.6491 55.156 29.3611 55.156C28.9291 55.156 28.5411 55.076 28.1971 54.916C27.8611 54.748 27.5771 54.524 27.3451 54.244C27.0891 53.948 26.8971 53.608 26.7691 53.224C26.6491 52.832 26.5891 52.42 26.5891 51.988C26.5891 51.62 26.6251 51.276 26.6971 50.956C26.7691 50.628 26.8891 50.324 27.0571 50.044C27.2731 49.676 27.5771 49.372 27.9691 49.132C28.3611 48.892 28.8211 48.772 29.3491 48.772C29.7411 48.772 30.0891 48.844 30.3931 48.988C30.7051 49.124 30.9731 49.312 31.1971 49.552C31.4371 49.816 31.6251 50.128 31.7611 50.488C31.8971 50.848 31.9651 51.232 31.9651 51.64ZM30.9211 51.424C30.9211 51.192 30.8891 50.968 30.8251 50.752C30.7611 50.536 30.6691 50.348 30.5491 50.188C30.4211 50.02 30.2571 49.888 30.0571 49.792C29.8571 49.688 29.6211 49.636 29.3491 49.636C29.0691 49.636 28.8251 49.688 28.6171 49.792C28.4171 49.896 28.2451 50.032 28.1011 50.2C27.9651 50.368 27.8611 50.56 27.7891 50.776C27.7251 50.984 27.6891 51.2 27.6811 51.424H30.9211ZM38.1785 53.236C38.1785 53.5 38.1345 53.736 38.0465 53.944C37.9585 54.144 37.8425 54.32 37.6985 54.472C37.4665 54.712 37.1785 54.888 36.8345 55C36.4905 55.104 36.1185 55.156 35.7185 55.156C35.3345 55.156 34.9745 55.104 34.6385 55C34.3025 54.904 34.0065 54.728 33.7505 54.472C33.5665 54.288 33.4225 54.076 33.3185 53.836C33.2145 53.588 33.1625 53.336 33.1625 53.08H34.1825C34.1905 53.288 34.2385 53.472 34.3265 53.632C34.4145 53.784 34.5305 53.916 34.6745 54.028C34.8105 54.132 34.9785 54.204 35.1785 54.244C35.3785 54.284 35.5745 54.304 35.7665 54.304C35.9745 54.304 36.1705 54.284 36.3545 54.244C36.5465 54.196 36.7225 54.104 36.8825 53.968C36.9705 53.904 37.0425 53.812 37.0985 53.692C37.1545 53.572 37.1825 53.444 37.1825 53.308C37.1825 53.076 37.1025 52.884 36.9425 52.732C36.7825 52.58 36.5465 52.484 36.2345 52.444C36.1705 52.436 36.0825 52.424 35.9705 52.408C35.8585 52.392 35.7385 52.376 35.6105 52.36C35.4825 52.344 35.3505 52.328 35.2145 52.312C35.0865 52.296 34.9705 52.28 34.8665 52.264C34.4105 52.192 34.0465 52.02 33.7745 51.748C33.5105 51.468 33.3785 51.096 33.3785 50.632C33.3785 50.4 33.4265 50.18 33.5225 49.972C33.6265 49.756 33.7465 49.58 33.8825 49.444C34.0825 49.236 34.3345 49.072 34.6385 48.952C34.9425 48.832 35.2865 48.772 35.6705 48.772C36.0785 48.772 36.4505 48.836 36.7865 48.964C37.1225 49.092 37.3945 49.284 37.6025 49.54C37.7385 49.7 37.8425 49.872 37.9145 50.056C37.9945 50.24 38.0345 50.456 38.0345 50.704H37.0145C37.0065 50.544 36.9665 50.4 36.8945 50.272C36.8305 50.136 36.7545 50.028 36.6665 49.948C36.4265 49.732 36.0945 49.624 35.6705 49.624C35.5505 49.624 35.4385 49.628 35.3345 49.636C35.2305 49.644 35.1065 49.68 34.9625 49.744C34.7705 49.824 34.6185 49.94 34.5065 50.092C34.4025 50.236 34.3505 50.392 34.3505 50.56C34.3505 50.816 34.4225 51.004 34.5665 51.124C34.7105 51.236 34.9105 51.312 35.1665 51.352C35.3345 51.376 35.5385 51.404 35.7785 51.436C36.0185 51.46 36.3025 51.5 36.6305 51.556C37.0625 51.628 37.4265 51.812 37.7225 52.108C38.0265 52.404 38.1785 52.78 38.1785 53.236ZM44.8323 51.64C44.8323 51.752 44.8323 51.864 44.8323 51.976C44.8323 52.08 44.8283 52.188 44.8203 52.3H40.5243C40.5243 52.58 40.5763 52.86 40.6803 53.14C40.7843 53.412 40.9283 53.64 41.1123 53.824C41.4003 54.112 41.7723 54.256 42.2283 54.256C42.7243 54.256 43.1003 54.124 43.3563 53.86C43.4443 53.772 43.5163 53.68 43.5723 53.584C43.6283 53.488 43.6763 53.36 43.7163 53.2H44.7123C44.6723 53.504 44.5683 53.788 44.4003 54.052C44.2323 54.316 44.0243 54.532 43.7763 54.7C43.5603 54.844 43.3203 54.956 43.0563 55.036C42.7923 55.116 42.5163 55.156 42.2283 55.156C41.7963 55.156 41.4083 55.076 41.0643 54.916C40.7283 54.748 40.4443 54.524 40.2123 54.244C39.9563 53.948 39.7643 53.608 39.6363 53.224C39.5163 52.832 39.4563 52.42 39.4563 51.988C39.4563 51.62 39.4923 51.276 39.5643 50.956C39.6363 50.628 39.7563 50.324 39.9243 50.044C40.1403 49.676 40.4443 49.372 40.8363 49.132C41.2283 48.892 41.6883 48.772 42.2163 48.772C42.6083 48.772 42.9563 48.844 43.2603 48.988C43.5723 49.124 43.8403 49.312 44.0643 49.552C44.3043 49.816 44.4923 50.128 44.6283 50.488C44.7643 50.848 44.8323 51.232 44.8323 51.64ZM43.7883 51.424C43.7883 51.192 43.7563 50.968 43.6923 50.752C43.6283 50.536 43.5363 50.348 43.4163 50.188C43.2883 50.02 43.1243 49.888 42.9243 49.792C42.7243 49.688 42.4883 49.636 42.2163 49.636C41.9363 49.636 41.6923 49.688 41.4843 49.792C41.2843 49.896 41.1123 50.032 40.9683 50.2C40.8323 50.368 40.7283 50.56 40.6563 50.776C40.5923 50.984 40.5563 51.2 40.5483 51.424H43.7883ZM51.6337 54.94C51.5217 54.996 51.4137 55.032 51.3097 55.048C51.2057 55.072 51.0897 55.084 50.9617 55.084C50.6897 55.084 50.4737 54.996 50.3137 54.82C50.1617 54.636 50.0857 54.416 50.0857 54.16H50.0617C49.8857 54.464 49.6217 54.708 49.2697 54.892C48.9257 55.068 48.5377 55.156 48.1057 55.156C47.7537 55.156 47.4457 55.104 47.1817 55C46.9257 54.888 46.7097 54.744 46.5337 54.568C46.3657 54.392 46.2377 54.192 46.1497 53.968C46.0617 53.744 46.0177 53.516 46.0177 53.284C46.0177 53.092 46.0497 52.888 46.1137 52.672C46.1857 52.456 46.3057 52.26 46.4737 52.084C46.6417 51.9 46.8617 51.744 47.1337 51.616C47.4137 51.488 47.7617 51.412 48.1777 51.388L50.0257 51.28V50.836C50.0257 50.684 50.0057 50.524 49.9657 50.356C49.9337 50.188 49.8497 50.04 49.7137 49.912C49.6097 49.816 49.4777 49.74 49.3177 49.684C49.1657 49.628 48.9657 49.6 48.7177 49.6C48.4377 49.6 48.2097 49.636 48.0337 49.708C47.8577 49.772 47.7177 49.856 47.6137 49.96C47.4137 50.16 47.3137 50.404 47.3137 50.692H46.3177C46.3257 50.412 46.3737 50.172 46.4617 49.972C46.5577 49.764 46.6857 49.58 46.8457 49.42C47.0537 49.204 47.3217 49.044 47.6497 48.94C47.9857 48.828 48.3417 48.772 48.7177 48.772C49.3097 48.772 49.7777 48.884 50.1217 49.108C50.4657 49.324 50.7097 49.6 50.8537 49.936C50.9737 50.216 51.0337 50.528 51.0337 50.872V53.812C51.0337 53.972 51.0617 54.08 51.1177 54.136C51.1817 54.192 51.2657 54.22 51.3697 54.22C51.3937 54.22 51.4217 54.22 51.4537 54.22C51.4857 54.22 51.5137 54.216 51.5377 54.208L51.6337 54.184V54.94ZM50.0257 52.072L48.3937 52.168C48.2417 52.176 48.0857 52.204 47.9257 52.252C47.7657 52.292 47.6217 52.356 47.4937 52.444C47.3657 52.524 47.2617 52.632 47.1817 52.768C47.1017 52.904 47.0617 53.068 47.0617 53.26C47.0617 53.532 47.1537 53.776 47.3377 53.992C47.5217 54.2 47.8297 54.304 48.2617 54.304C48.4937 54.304 48.7177 54.264 48.9337 54.184C49.1577 54.104 49.3497 53.98 49.5097 53.812C49.6937 53.628 49.8257 53.416 49.9057 53.176C49.9857 52.936 50.0257 52.688 50.0257 52.432V52.072ZM56.5248 49.924C56.4368 49.908 56.3408 49.896 56.2368 49.888C56.1408 49.88 56.0488 49.876 55.9608 49.876C55.7208 49.876 55.5008 49.924 55.3008 50.02C55.1088 50.108 54.9448 50.22 54.8088 50.356C54.6888 50.476 54.5888 50.616 54.5088 50.776C54.4368 50.928 54.3808 51.092 54.3408 51.268C54.3088 51.444 54.2848 51.62 54.2688 51.796C54.2608 51.972 54.2568 52.14 54.2568 52.3V55H53.2488V48.928H54.1488L54.2328 49.996C54.3928 49.62 54.6368 49.344 54.9648 49.168C55.3008 48.984 55.6608 48.892 56.0448 48.892C56.2048 48.892 56.3648 48.904 56.5248 48.928V49.924ZM62.3593 52.96C62.3353 53.288 62.2633 53.576 62.1433 53.824C62.0233 54.072 61.8593 54.296 61.6513 54.496C61.4353 54.704 61.1833 54.868 60.8953 54.988C60.6073 55.1 60.2753 55.156 59.8993 55.156C59.3473 55.156 58.8913 55.048 58.5313 54.832C58.1793 54.608 57.8953 54.336 57.6793 54.016C57.5193 53.776 57.3953 53.488 57.3073 53.152C57.2193 52.816 57.1753 52.42 57.1753 51.964C57.1753 51.508 57.2193 51.112 57.3073 50.776C57.3953 50.44 57.5193 50.152 57.6793 49.912C57.8953 49.592 58.1793 49.324 58.5313 49.108C58.8913 48.884 59.3433 48.772 59.8873 48.772C60.2473 48.772 60.5713 48.828 60.8593 48.94C61.1553 49.052 61.4073 49.212 61.6153 49.42C61.8233 49.62 61.9873 49.848 62.1073 50.104C62.2353 50.352 62.3113 50.644 62.3353 50.98H61.3033C61.2793 50.772 61.2273 50.592 61.1473 50.44C61.0753 50.28 60.9833 50.144 60.8713 50.032C60.7513 49.92 60.6073 49.832 60.4393 49.768C60.2713 49.696 60.0873 49.66 59.8873 49.66C59.6553 49.66 59.4553 49.7 59.2873 49.78C59.1193 49.852 58.9673 49.944 58.8313 50.056C58.5913 50.264 58.4273 50.54 58.3393 50.884C58.2593 51.228 58.2193 51.588 58.2193 51.964C58.2193 52.34 58.2593 52.7 58.3393 53.044C58.4273 53.388 58.5913 53.664 58.8313 53.872C58.9673 53.984 59.1193 54.08 59.2873 54.16C59.4553 54.232 59.6553 54.268 59.8873 54.268C60.0953 54.268 60.2873 54.232 60.4633 54.16C60.6473 54.088 60.7993 53.988 60.9193 53.86C61.0313 53.748 61.1193 53.62 61.1833 53.476C61.2553 53.332 61.3033 53.16 61.3273 52.96H62.3593ZM67.836 55V51.148C67.836 50.692 67.732 50.336 67.524 50.08C67.324 49.824 66.984 49.696 66.504 49.696C66.208 49.696 65.948 49.784 65.724 49.96C65.5 50.128 65.32 50.352 65.184 50.632C65.08 50.856 65.016 51.112 64.992 51.4C64.976 51.688 64.968 51.948 64.968 52.18V55H63.948V46.336H64.968V49.732C65.152 49.42 65.408 49.184 65.736 49.024C66.064 48.856 66.4 48.772 66.744 48.772C67.44 48.772 67.964 48.968 68.316 49.36C68.676 49.752 68.856 50.3 68.856 51.004V55H67.836ZM28.5962 67.66C28.5962 68.02 28.5282 68.332 28.3922 68.596C28.2562 68.86 28.0842 69.096 27.8762 69.304C27.5802 69.592 27.2162 69.808 26.7842 69.952C26.3602 70.088 25.9202 70.156 25.4642 70.156C24.4322 70.156 23.6202 69.884 23.0282 69.34C22.7562 69.084 22.5362 68.784 22.3682 68.44C22.2002 68.088 22.1162 67.708 22.1162 67.3H23.2322C23.2322 67.556 23.2882 67.804 23.4002 68.044C23.5122 68.276 23.6562 68.476 23.8322 68.644C24.0242 68.828 24.2682 68.964 24.5642 69.052C24.8602 69.132 25.1602 69.172 25.4642 69.172C25.7922 69.172 26.0882 69.136 26.3522 69.064C26.6242 68.992 26.8562 68.864 27.0482 68.68C27.1842 68.56 27.2882 68.424 27.3602 68.272C27.4402 68.112 27.4802 67.916 27.4802 67.684C27.4802 67.348 27.3682 67.056 27.1442 66.808C26.9202 66.56 26.5562 66.396 26.0522 66.316C25.8202 66.276 25.5962 66.244 25.3802 66.22C25.1642 66.188 24.9402 66.152 24.7082 66.112C24.3882 66.064 24.0882 65.984 23.8082 65.872C23.5362 65.76 23.2962 65.612 23.0882 65.428C22.8882 65.236 22.7282 65.012 22.6082 64.756C22.4962 64.492 22.4402 64.192 22.4402 63.856C22.4402 63.536 22.5042 63.232 22.6322 62.944C22.7682 62.648 22.9522 62.392 23.1842 62.176C23.7842 61.616 24.5282 61.336 25.4162 61.336C25.8322 61.336 26.2322 61.404 26.6162 61.54C27.0082 61.676 27.3442 61.88 27.6242 62.152C28.1442 62.648 28.4162 63.256 28.4402 63.976H27.3242C27.3082 63.768 27.2642 63.572 27.1922 63.388C27.1202 63.204 27.0242 63.044 26.9042 62.908C26.7442 62.724 26.5362 62.58 26.2802 62.476C26.0322 62.372 25.7402 62.32 25.4042 62.32C25.1002 62.32 24.8162 62.368 24.5522 62.464C24.2962 62.552 24.0762 62.7 23.8922 62.908C23.7802 63.036 23.6922 63.176 23.6282 63.328C23.5722 63.472 23.5442 63.64 23.5442 63.832C23.5442 64.024 23.5802 64.192 23.6522 64.336C23.7242 64.472 23.8202 64.588 23.9402 64.684C24.0602 64.78 24.1962 64.856 24.3482 64.912C24.5002 64.968 24.6562 65.008 24.8162 65.032C25.0562 65.064 25.2922 65.1 25.5242 65.14C25.7642 65.172 26.0002 65.208 26.2322 65.248C26.9442 65.352 27.5162 65.612 27.9482 66.028C28.3802 66.436 28.5962 66.98 28.5962 67.66ZM34.1734 70L34.0894 69.076C33.9294 69.428 33.6774 69.696 33.3334 69.88C32.9974 70.056 32.6494 70.144 32.2894 70.144C31.5934 70.144 31.0734 69.948 30.7294 69.556C30.3854 69.164 30.2134 68.616 30.2134 67.912V63.928H31.2334V67.768C31.2334 68.224 31.3294 68.58 31.5214 68.836C31.7134 69.092 32.0494 69.22 32.5294 69.22C32.7374 69.22 32.9214 69.18 33.0814 69.1C33.2494 69.012 33.4014 68.9 33.5374 68.764C33.7294 68.564 33.8614 68.312 33.9334 68.008C34.0054 67.704 34.0414 67.396 34.0414 67.084V63.928H35.0614V70H34.1734ZM42.6697 66.964C42.6697 67.492 42.5897 67.984 42.4297 68.44C42.2777 68.888 42.0497 69.26 41.7457 69.556C41.5457 69.74 41.3057 69.888 41.0257 70C40.7537 70.112 40.4377 70.168 40.0777 70.168C39.9097 70.168 39.7377 70.148 39.5617 70.108C39.3937 70.068 39.2297 70.012 39.0697 69.94C38.9097 69.868 38.7617 69.78 38.6257 69.676C38.4977 69.564 38.3937 69.44 38.3137 69.304V72.604H37.2937V63.94H38.1937L38.2657 64.732C38.4417 64.428 38.7017 64.196 39.0457 64.036C39.3897 63.868 39.7337 63.784 40.0777 63.784C40.4537 63.784 40.7817 63.844 41.0617 63.964C41.3497 64.076 41.5937 64.236 41.7937 64.444C42.0817 64.74 42.2977 65.108 42.4417 65.548C42.5937 65.988 42.6697 66.46 42.6697 66.964ZM41.6257 66.976C41.6257 66.696 41.5977 66.42 41.5417 66.148C41.4937 65.868 41.4057 65.616 41.2777 65.392C41.1497 65.168 40.9737 64.988 40.7497 64.852C40.5257 64.716 40.2457 64.648 39.9097 64.648C39.6857 64.648 39.4937 64.688 39.3337 64.768C39.1817 64.84 39.0457 64.932 38.9257 65.044C38.6697 65.268 38.4937 65.552 38.3977 65.896C38.3017 66.232 38.2537 66.592 38.2537 66.976C38.2537 67.36 38.3017 67.724 38.3977 68.068C38.4937 68.404 38.6697 68.684 38.9257 68.908C39.0457 69.02 39.1817 69.116 39.3337 69.196C39.4937 69.268 39.6857 69.304 39.9097 69.304C40.2457 69.304 40.5257 69.236 40.7497 69.1C40.9737 68.964 41.1497 68.784 41.2777 68.56C41.4057 68.336 41.4937 68.088 41.5417 67.816C41.5977 67.536 41.6257 67.256 41.6257 66.976ZM49.7479 66.964C49.7479 67.492 49.6679 67.984 49.5079 68.44C49.3559 68.888 49.1279 69.26 48.8239 69.556C48.6239 69.74 48.3839 69.888 48.1039 70C47.8319 70.112 47.5159 70.168 47.1559 70.168C46.9879 70.168 46.8159 70.148 46.6399 70.108C46.4719 70.068 46.3079 70.012 46.1479 69.94C45.9879 69.868 45.8399 69.78 45.7039 69.676C45.5759 69.564 45.4719 69.44 45.3919 69.304V72.604H44.3719V63.94H45.2719L45.3439 64.732C45.5199 64.428 45.7799 64.196 46.1239 64.036C46.4679 63.868 46.8119 63.784 47.1559 63.784C47.5319 63.784 47.8599 63.844 48.1399 63.964C48.4279 64.076 48.6719 64.236 48.8719 64.444C49.1599 64.74 49.3759 65.108 49.5199 65.548C49.6719 65.988 49.7479 66.46 49.7479 66.964ZM48.7039 66.976C48.7039 66.696 48.6759 66.42 48.6199 66.148C48.5719 65.868 48.4839 65.616 48.3559 65.392C48.2279 65.168 48.0519 64.988 47.8279 64.852C47.6039 64.716 47.3239 64.648 46.9879 64.648C46.7639 64.648 46.5719 64.688 46.4119 64.768C46.2599 64.84 46.1239 64.932 46.0039 65.044C45.7479 65.268 45.5719 65.552 45.4759 65.896C45.3799 66.232 45.3319 66.592 45.3319 66.976C45.3319 67.36 45.3799 67.724 45.4759 68.068C45.5719 68.404 45.7479 68.684 46.0039 68.908C46.1239 69.02 46.2599 69.116 46.4119 69.196C46.5719 69.268 46.7639 69.304 46.9879 69.304C47.3239 69.304 47.6039 69.236 47.8279 69.1C48.0519 68.964 48.2279 68.784 48.3559 68.56C48.4839 68.336 48.5719 68.088 48.6199 67.816C48.6759 67.536 48.7039 67.256 48.7039 66.976ZM56.4406 66.964C56.4406 67.444 56.3806 67.896 56.2606 68.32C56.1406 68.744 55.9126 69.12 55.5766 69.448C55.3526 69.664 55.0846 69.836 54.7726 69.964C54.4686 70.092 54.1246 70.156 53.7406 70.156C53.3566 70.156 53.0086 70.092 52.6966 69.964C52.3926 69.836 52.1286 69.664 51.9046 69.448C51.5686 69.12 51.3406 68.744 51.2206 68.32C51.1006 67.896 51.0406 67.444 51.0406 66.964C51.0406 66.484 51.1006 66.032 51.2206 65.608C51.3406 65.184 51.5686 64.808 51.9046 64.48C52.1286 64.264 52.3926 64.092 52.6966 63.964C53.0086 63.836 53.3566 63.772 53.7406 63.772C54.1246 63.772 54.4686 63.836 54.7726 63.964C55.0846 64.092 55.3526 64.264 55.5766 64.48C55.9126 64.808 56.1406 65.184 56.2606 65.608C56.3806 66.032 56.4406 66.484 56.4406 66.964ZM55.3966 66.964C55.3966 66.604 55.3566 66.256 55.2766 65.92C55.1966 65.584 55.0486 65.304 54.8326 65.08C54.7046 64.952 54.5486 64.848 54.3646 64.768C54.1886 64.688 53.9806 64.648 53.7406 64.648C53.5006 64.648 53.2886 64.688 53.1046 64.768C52.9286 64.848 52.7766 64.952 52.6486 65.08C52.4326 65.304 52.2846 65.584 52.2046 65.92C52.1246 66.256 52.0846 66.604 52.0846 66.964C52.0846 67.324 52.1246 67.672 52.2046 68.008C52.2846 68.344 52.4326 68.624 52.6486 68.848C52.7766 68.976 52.9286 69.08 53.1046 69.16C53.2886 69.24 53.5006 69.28 53.7406 69.28C53.9806 69.28 54.1886 69.24 54.3646 69.16C54.5486 69.08 54.7046 68.976 54.8326 68.848C55.0486 68.624 55.1966 68.344 55.2766 68.008C55.3566 67.672 55.3966 67.324 55.3966 66.964ZM61.476 64.924C61.388 64.908 61.292 64.896 61.188 64.888C61.092 64.88 61 64.876 60.912 64.876C60.672 64.876 60.452 64.924 60.252 65.02C60.06 65.108 59.896 65.22 59.76 65.356C59.64 65.476 59.54 65.616 59.46 65.776C59.388 65.928 59.332 66.092 59.292 66.268C59.26 66.444 59.236 66.62 59.22 66.796C59.212 66.972 59.208 67.14 59.208 67.3V70H58.2V63.928H59.1L59.184 64.996C59.344 64.62 59.588 64.344 59.916 64.168C60.252 63.984 60.612 63.892 60.996 63.892C61.156 63.892 61.316 63.904 61.476 63.928V64.924ZM66.0666 69.916C65.9306 69.956 65.7626 69.992 65.5626 70.024C65.3706 70.064 65.1346 70.084 64.8546 70.084C64.5266 70.084 64.2546 70.036 64.0386 69.94C63.8226 69.844 63.6506 69.72 63.5226 69.568C63.4026 69.416 63.3146 69.244 63.2586 69.052C63.2106 68.852 63.1866 68.648 63.1866 68.44V64.804H62.0106V63.928H63.1866V62.38L64.2066 62.14V63.928H66.0066V64.804H64.2066V68.32C64.2066 68.616 64.2706 68.828 64.3986 68.956C64.5346 69.084 64.7426 69.148 65.0226 69.148C65.1346 69.148 65.2506 69.144 65.3706 69.136C65.4906 69.128 65.6026 69.116 65.7066 69.1C65.8266 69.084 65.9466 69.064 66.0666 69.04V69.916Z" fill="white"/>
<defs>
<filter id="filter0_d_527_3035" x="0" y="0" width="88" height="88" filterUnits="userSpaceOnUse" color-interpolation-filters="sRGB">
<feFlood flood-opacity="0" result="BackgroundImageFix"/>
<feColorMatrix in="SourceAlpha" type="matrix" values="0 0 0 0 0 0 0 0 0 0 0 0 0 0 0 0 0 0 127 0" result="hardAlpha"/>
<feOffset dy="4"/>
<feGaussianBlur stdDeviation="2"/>
<feComposite in2="hardAlpha" operator="out"/>
<feColorMatrix type="matrix" values="0 0 0 0 0 0 0 0 0 0 0 0 0 0 0 0 0 0 0.25 0"/>
<feBlend mode="normal" in2="BackgroundImageFix" result="effect1_dropShadow_527_3035"/>
<feBlend mode="normal" in="SourceGraphic" in2="effect1_dropShadow_527_3035" result="shape"/>
</filter>
<linearGradient id="paint0_linear_527_3035" x1="44" y1="0" x2="44" y2="80" gradientUnits="userSpaceOnUse">
<stop stop-color="#015193"/>
<stop offset="1" stop-color="#4B86A8"/>
</linearGradient>
</defs>
</svg>
