<svg width="88" height="88" viewBox="0 0 88 88" fill="none" xmlns="http://www.w3.org/2000/svg">
<g filter="url(#filter0_d_527_3034)">
<circle cx="44" cy="40" r="40" fill="url(#paint0_linear_527_3034)"/>
</g>
<path fill-rule="evenodd" clip-rule="evenodd" d="M38.072 16.8291C37.8095 16.5664 37.4978 16.358 37.1547 16.2157C36.8116 16.0734 36.4438 16.0001 36.0724 16C35.701 15.9999 35.3332 16.0729 34.99 16.2149C34.6468 16.3569 34.335 16.5651 34.0722 16.8276L33.5443 17.3556C33.0337 17.2103 32.4935 17.2046 31.98 17.3393C31.4666 17.474 30.9987 17.7441 30.6252 18.1214C30.0645 18.6879 29.7499 19.4528 29.7499 20.2499C29.7499 21.047 30.0645 21.8119 30.6252 22.3784L31.25 23.0076V31.0004H29V32.5004H30.5375C30.165 32.8653 29.9097 33.3329 29.8041 33.8436C29.6984 34.3542 29.7473 34.8848 29.9443 35.3675C30.1414 35.8503 30.4779 36.2634 30.9107 36.5543C31.3435 36.8451 31.8532 37.0004 32.3746 37.0004C32.8961 37.0004 33.4057 36.8451 33.8386 36.5543C34.2714 36.2634 34.6078 35.8503 34.8049 35.3675C35.002 34.8848 35.0508 34.3542 34.9452 33.8436C34.8396 33.3329 34.5842 32.8653 34.2118 32.5004H53.7882C53.4158 32.8653 53.1604 33.3329 53.0548 33.8436C52.9492 34.3542 52.998 34.8848 53.1951 35.3675C53.3922 35.8503 53.7286 36.2634 54.1614 36.5543C54.5943 36.8451 55.1039 37.0004 55.6254 37.0004C56.1468 37.0004 56.6565 36.8451 57.0893 36.5543C57.5221 36.2634 57.8586 35.8503 58.0557 35.3675C58.2527 34.8848 58.3016 34.3542 58.1959 33.8436C58.0903 33.3329 57.835 32.8653 57.4625 32.5004H59V31.0004H56V28.6656C56.644 28.5044 57.2155 28.1322 57.6234 27.6083C58.0312 27.0844 58.2518 26.439 58.25 25.7751C58.25 24.1326 56.9293 22.7999 55.2995 22.7999H39.5825C39.5521 22.8 39.5221 22.794 39.494 22.7825C39.4659 22.7709 39.4405 22.7538 39.419 22.7324L39.1445 22.4549L39.4213 22.1796C39.684 21.9171 39.8925 21.6054 40.0347 21.2623C40.177 20.9191 40.2502 20.5513 40.2503 20.1799C40.2504 19.8085 40.1773 19.4407 40.0351 19.0975C39.893 18.7543 39.6847 18.4425 39.422 18.1799L38.072 16.8299V16.8291ZM38.087 21.3914L38.3608 21.1184C38.4841 20.9951 38.582 20.8487 38.6487 20.6876C38.7155 20.5265 38.7499 20.3538 38.7499 20.1794C38.7499 20.005 38.7155 19.8323 38.6487 19.6712C38.582 19.51 38.4841 19.3637 38.3608 19.2404L37.0107 17.8904C36.7619 17.6412 36.4242 17.5011 36.0721 17.5008C35.7199 17.5005 35.382 17.6401 35.1328 17.8889L34.8702 18.1514L38.0878 21.3914H38.087ZM56.75 25.7751C56.75 24.9486 56.0885 24.2999 55.2995 24.2999H39.5825C39.3545 24.2999 39.1287 24.2549 38.9181 24.1674C38.7075 24.0798 38.5163 23.9515 38.3555 23.7899L33.776 19.1789C33.6397 19.0406 33.4773 18.9308 33.2982 18.8558C33.1191 18.7809 32.9269 18.7423 32.7328 18.7423C32.5386 18.7423 32.3464 18.7809 32.1673 18.8558C31.9882 18.9308 31.8258 19.0406 31.6895 19.1789C31.4079 19.4643 31.25 19.8492 31.25 20.2503C31.25 20.6513 31.4079 21.0362 31.6895 21.3216L37.5785 27.2504H55.2995C56.09 27.2504 56.75 26.6016 56.75 25.7751ZM36.7062 28.5006C36.8652 28.6604 37.0798 28.7504 37.304 28.7504H54.5V31.0004H32.75V24.5174L36.7062 28.5006ZM33.5 34.3754C33.5 34.6737 33.3815 34.9599 33.1705 35.1709C32.9595 35.3819 32.6734 35.5004 32.375 35.5004C32.0766 35.5004 31.7905 35.3819 31.5795 35.1709C31.3685 34.9599 31.25 34.6737 31.25 34.3754C31.25 34.077 31.3685 33.7909 31.5795 33.5799C31.7905 33.3689 32.0766 33.2504 32.375 33.2504C32.6734 33.2504 32.9595 33.3689 33.1705 33.5799C33.3815 33.7909 33.5 34.077 33.5 34.3754ZM55.625 35.5004C55.9234 35.5004 56.2095 35.3819 56.4205 35.1709C56.6315 34.9599 56.75 34.6737 56.75 34.3754C56.75 34.077 56.6315 33.7909 56.4205 33.5799C56.2095 33.3689 55.9234 33.2504 55.625 33.2504C55.3266 33.2504 55.0405 33.3689 54.8295 33.5799C54.6185 33.7909 54.5 34.077 54.5 34.3754C54.5 34.6737 54.6185 34.9599 54.8295 35.1709C55.0405 35.3819 55.3266 35.5004 55.625 35.5004Z" fill="white"/>
<path d="M37.7143 54L36.1063 50.46H33.7543V54H32.6863V45.492H36.0223C36.5263 45.492 36.9543 45.56 37.3063 45.696C37.6583 45.824 37.9503 46.008 38.1823 46.248C38.3903 46.464 38.5543 46.712 38.6743 46.992C38.7943 47.272 38.8543 47.6 38.8543 47.976C38.8543 48.352 38.7983 48.672 38.6863 48.936C38.5743 49.2 38.4143 49.44 38.2063 49.656C38.0783 49.792 37.9263 49.912 37.7503 50.016C37.5823 50.112 37.3943 50.192 37.1863 50.256L38.8903 54H37.7143ZM37.7503 47.976C37.7503 47.44 37.5863 47.056 37.2583 46.824C36.9383 46.592 36.5263 46.476 36.0223 46.476H33.7543V49.464H36.0223C36.2703 49.464 36.4983 49.44 36.7063 49.392C36.9223 49.336 37.1063 49.248 37.2583 49.128C37.4183 49.008 37.5383 48.856 37.6183 48.672C37.7063 48.48 37.7503 48.248 37.7503 47.976ZM46.5956 48.06C46.5956 48.876 46.3596 49.52 45.8876 49.992C45.6556 50.224 45.3676 50.4 45.0236 50.52C44.6796 50.64 44.2716 50.7 43.7996 50.7H41.6996V54H40.6316V45.492H43.7876C44.2916 45.492 44.7196 45.56 45.0716 45.696C45.4236 45.824 45.7156 46.012 45.9476 46.26C46.1556 46.484 46.3156 46.748 46.4276 47.052C46.5396 47.348 46.5956 47.684 46.5956 48.06ZM45.4916 48.06C45.4916 47.516 45.3356 47.116 45.0236 46.86C44.7116 46.596 44.2916 46.464 43.7636 46.464H41.6996V49.728H43.7756C44.3516 49.728 44.7796 49.596 45.0596 49.332C45.3476 49.06 45.4916 48.636 45.4916 48.06ZM55.2951 54V46.824L52.6551 53.88H51.8151L49.1751 46.764V54H48.1551V45.492H49.6911L52.2591 52.416L54.8151 45.492H56.3151V54H55.2951Z" fill="white"/>
<defs>
<filter id="filter0_d_527_3034" x="0" y="0" width="88" height="88" filterUnits="userSpaceOnUse" color-interpolation-filters="sRGB">
<feFlood flood-opacity="0" result="BackgroundImageFix"/>
<feColorMatrix in="SourceAlpha" type="matrix" values="0 0 0 0 0 0 0 0 0 0 0 0 0 0 0 0 0 0 127 0" result="hardAlpha"/>
<feOffset dy="4"/>
<feGaussianBlur stdDeviation="2"/>
<feComposite in2="hardAlpha" operator="out"/>
<feColorMatrix type="matrix" values="0 0 0 0 0 0 0 0 0 0 0 0 0 0 0 0 0 0 0.25 0"/>
<feBlend mode="normal" in2="BackgroundImageFix" result="effect1_dropShadow_527_3034"/>
<feBlend mode="normal" in="SourceGraphic" in2="effect1_dropShadow_527_3034" result="shape"/>
</filter>
<linearGradient id="paint0_linear_527_3034" x1="44" y1="0" x2="44" y2="80" gradientUnits="userSpaceOnUse">
<stop stop-color="#015193"/>
<stop offset="1" stop-color="#4B86A8"/>
</linearGradient>
</defs>
</svg>
