<svg width="363" height="901" viewBox="0 0 363 901" fill="none" xmlns="http://www.w3.org/2000/svg">
<g filter="url(#filter0_d_361_2130)">
<g filter="url(#filter1_d_361_2130)">
<path d="M351 174.5C351 226.956 242.5 177.523 242.5 177.523C197.624 156.401 146.686 131.5 106 131.5C11.2832 131.5 8 266.455 8 174.5C8 82.5446 84.7832 8 179.5 8C274.217 8 351 82.5446 351 174.5Z" fill="url(#paint0_linear_361_2130)"/>
</g>
<path d="M90.3628 131.037C37.5107 141.208 14.7659 185.478 10 206.341C20.6822 213.676 57.2316 225.999 117.972 216.61C178.713 207.222 212.633 180.099 222 167.711C200.143 151.249 143.215 120.866 90.3628 131.037Z" fill="#0A2841"/>
</g>
<g filter="url(#filter2_d_361_2130)">
<g filter="url(#filter3_d_361_2130)">
<path d="M8 722.5C8 670.044 116.5 719.477 116.5 719.477C161.376 740.599 212.314 765.5 253 765.5C347.717 765.5 351 630.545 351 722.5C351 814.455 274.217 889 179.5 889C84.7832 889 8 814.455 8 722.5Z" fill="url(#paint1_linear_361_2130)"/>
</g>
<path d="M268.637 765.963C321.489 755.792 344.234 711.522 349 690.659C338.318 683.324 301.768 671.001 241.028 680.39C180.287 689.778 146.367 716.901 137 729.289C158.857 745.751 215.785 776.134 268.637 765.963Z" fill="#0A2841"/>
</g>
<defs>
<filter id="filter0_d_361_2130" x="4" y="8" width="351" height="220" filterUnits="userSpaceOnUse" color-interpolation-filters="sRGB">
<feFlood flood-opacity="0" result="BackgroundImageFix"/>
<feColorMatrix in="SourceAlpha" type="matrix" values="0 0 0 0 0 0 0 0 0 0 0 0 0 0 0 0 0 0 127 0" result="hardAlpha"/>
<feOffset dy="4"/>
<feGaussianBlur stdDeviation="2"/>
<feComposite in2="hardAlpha" operator="out"/>
<feColorMatrix type="matrix" values="0 0 0 0 0 0 0 0 0 0 0 0 0 0 0 0 0 0 0.25 0"/>
<feBlend mode="normal" in2="BackgroundImageFix" result="effect1_dropShadow_361_2130"/>
<feBlend mode="normal" in="SourceGraphic" in2="effect1_dropShadow_361_2130" result="shape"/>
</filter>
<filter id="filter1_d_361_2130" x="0" y="0" width="363" height="218.582" filterUnits="userSpaceOnUse" color-interpolation-filters="sRGB">
<feFlood flood-opacity="0" result="BackgroundImageFix"/>
<feColorMatrix in="SourceAlpha" type="matrix" values="0 0 0 0 0 0 0 0 0 0 0 0 0 0 0 0 0 0 127 0" result="hardAlpha"/>
<feOffset dx="2" dy="2"/>
<feGaussianBlur stdDeviation="5"/>
<feComposite in2="hardAlpha" operator="out"/>
<feColorMatrix type="matrix" values="0 0 0 0 0 0 0 0 0 0 0 0 0 0 0 0 0 0 0.25 0"/>
<feBlend mode="normal" in2="BackgroundImageFix" result="effect1_dropShadow_361_2130"/>
<feBlend mode="normal" in="SourceGraphic" in2="effect1_dropShadow_361_2130" result="shape"/>
</filter>
<filter id="filter2_d_361_2130" x="4" y="677" width="351" height="220" filterUnits="userSpaceOnUse" color-interpolation-filters="sRGB">
<feFlood flood-opacity="0" result="BackgroundImageFix"/>
<feColorMatrix in="SourceAlpha" type="matrix" values="0 0 0 0 0 0 0 0 0 0 0 0 0 0 0 0 0 0 127 0" result="hardAlpha"/>
<feOffset dy="4"/>
<feGaussianBlur stdDeviation="2"/>
<feComposite in2="hardAlpha" operator="out"/>
<feColorMatrix type="matrix" values="0 0 0 0 0 0 0 0 0 0 0 0 0 0 0 0 0 0 0.25 0"/>
<feBlend mode="normal" in2="BackgroundImageFix" result="effect1_dropShadow_361_2130"/>
<feBlend mode="normal" in="SourceGraphic" in2="effect1_dropShadow_361_2130" result="shape"/>
</filter>
<filter id="filter3_d_361_2130" x="0" y="682.418" width="363" height="218.582" filterUnits="userSpaceOnUse" color-interpolation-filters="sRGB">
<feFlood flood-opacity="0" result="BackgroundImageFix"/>
<feColorMatrix in="SourceAlpha" type="matrix" values="0 0 0 0 0 0 0 0 0 0 0 0 0 0 0 0 0 0 127 0" result="hardAlpha"/>
<feOffset dx="2" dy="2"/>
<feGaussianBlur stdDeviation="5"/>
<feComposite in2="hardAlpha" operator="out"/>
<feColorMatrix type="matrix" values="0 0 0 0 0 0 0 0 0 0 0 0 0 0 0 0 0 0 0.25 0"/>
<feBlend mode="normal" in2="BackgroundImageFix" result="effect1_dropShadow_361_2130"/>
<feBlend mode="normal" in="SourceGraphic" in2="effect1_dropShadow_361_2130" result="shape"/>
</filter>
<linearGradient id="paint0_linear_361_2130" x1="179.5" y1="8" x2="179.5" y2="206.582" gradientUnits="userSpaceOnUse">
<stop stop-color="#015193"/>
<stop offset="1" stop-color="#4B86A8"/>
</linearGradient>
<linearGradient id="paint1_linear_361_2130" x1="179.5" y1="889" x2="179.5" y2="690.418" gradientUnits="userSpaceOnUse">
<stop stop-color="#015193"/>
<stop offset="1" stop-color="#4B86A8"/>
</linearGradient>
</defs>
</svg>
