<svg id="svg" version="1.1" xmlns="http://www.w3.org/2000/svg" xmlns:xlink="http://www.w3.org/1999/xlink" width="400" height="89.34286687095675" viewBox="0, 0, 400,89.34286687095675"><g id="svgg"><path id="path0" d="M255.250 1.959 C 248.912 4.407,249.136 13.680,255.588 15.936 C 257.646 16.656,261.252 16.186,262.172 15.077 C 262.283 14.943,262.452 14.833,262.547 14.833 C 263.190 14.833,264.895 12.224,265.268 10.667 C 266.000 7.617,265.026 5.039,262.263 2.710 C 260.842 1.513,257.369 1.140,255.250 1.959 M218.496 10.403 C 212.871 11.638,209.951 18.530,212.878 23.664 C 213.407 24.593,215.311 26.667,215.634 26.667 C 215.731 26.667,215.931 26.788,216.079 26.936 C 217.240 28.097,221.094 28.576,223.333 27.838 C 234.302 24.220,229.781 7.925,218.496 10.403 M344.223 15.656 C 342.613 16.637,343.466 19.167,345.407 19.167 C 346.689 19.167,347.326 18.473,347.331 17.074 C 347.336 15.609,345.599 14.817,344.223 15.656 M293.250 20.163 C 291.923 20.348,289.833 21.571,289.833 22.162 C 289.833 22.256,289.769 22.333,289.690 22.333 C 289.253 22.333,288.504 24.432,288.429 25.865 C 288.329 27.795,290.212 30.931,291.667 31.259 C 291.712 31.269,291.975 31.378,292.250 31.500 C 293.270 31.954,295.250 31.919,296.512 31.424 C 303.162 28.815,300.368 19.170,293.250 20.163 M324.667 20.699 C 322.164 21.244,321.263 24.852,323.192 26.606 C 326.633 29.733,331.309 24.847,328.052 21.528 C 327.158 20.617,326.163 20.373,324.667 20.699 M19.250 22.479 C 18.975 22.551,18.510 22.736,18.217 22.889 C 17.923 23.042,17.605 23.167,17.510 23.167 C 17.131 23.167,14.833 25.384,14.833 25.749 C 14.833 25.853,14.683 26.248,14.500 26.627 C 13.740 28.200,14.198 31.525,15.367 32.923 C 15.860 33.511,16.595 34.165,16.766 34.166 C 16.866 34.166,17.075 34.306,17.229 34.476 C 18.354 35.720,22.229 35.623,24.201 34.302 C 29.952 30.447,25.881 20.724,19.250 22.479 " stroke="none" fill="#4c94d4" fill-rule="evenodd"></path><path id="path1" d="M234.500 0.467 C 232.288 1.386,230.917 2.671,229.933 4.748 C 229.172 6.354,229.126 10.157,229.852 11.451 C 230.025 11.758,230.167 12.082,230.167 12.170 C 230.167 12.992,232.615 15.193,234.333 15.918 C 236.530 16.844,240.604 16.432,241.988 15.142 C 242.170 14.972,242.367 14.833,242.425 14.833 C 243.028 14.833,244.724 12.371,245.270 10.703 C 247.401 4.186,240.754 -2.131,234.500 0.467 M273.417 10.768 C 273.050 10.908,272.600 11.067,272.417 11.123 C 269.252 12.079,267.618 17.319,269.459 20.612 C 271.331 23.962,276.769 25.047,279.446 22.605 C 280.294 21.830,280.832 21.230,280.832 21.056 C 280.833 20.949,280.908 20.836,281.000 20.806 C 281.739 20.559,282.279 16.657,281.750 15.391 C 281.612 15.062,281.500 14.684,281.500 14.551 C 281.500 14.283,280.684 13.042,280.117 12.449 C 278.568 10.829,275.368 10.026,273.417 10.768 M6.000 46.825 L 6.000 76.483 6.434 77.866 C 6.918 79.408,8.176 82.061,8.675 82.593 C 8.854 82.783,9.000 82.999,9.000 83.074 C 9.000 83.267,12.151 86.333,12.349 86.333 C 12.440 86.333,12.656 86.465,12.829 86.627 C 13.002 86.788,13.655 87.170,14.280 87.477 C 14.905 87.783,15.609 88.135,15.845 88.258 C 16.822 88.772,20.310 89.333,22.522 89.333 L 24.667 89.333 24.667 85.857 L 24.667 82.381 22.458 82.283 C 18.204 82.096,15.683 80.749,13.904 77.714 C 12.750 75.745,12.833 78.200,12.833 46.062 L 12.833 17.167 9.417 17.167 L 6.000 17.167 6.000 46.825 M83.667 53.250 L 83.667 89.333 87.167 89.333 L 90.667 89.333 90.667 53.250 L 90.667 17.167 87.167 17.167 L 83.667 17.167 83.667 53.250 M156.373 41.625 C 156.422 63.554,156.456 66.178,156.697 67.000 C 156.845 67.504,157.057 68.363,157.169 68.909 C 157.280 69.455,157.467 70.130,157.585 70.409 C 157.703 70.688,158.013 71.478,158.275 72.163 C 158.687 73.246,159.168 74.258,160.106 76.024 C 160.235 76.267,160.451 76.557,160.587 76.670 C 160.722 76.782,160.833 76.946,160.833 77.033 C 160.833 77.120,161.241 77.733,161.739 78.395 C 162.504 79.412,163.390 80.345,166.101 82.991 C 166.294 83.179,166.538 83.333,166.643 83.333 C 166.747 83.333,166.833 83.401,166.833 83.485 C 166.833 83.568,167.171 83.849,167.583 84.110 C 167.995 84.370,168.333 84.640,168.333 84.708 C 168.333 84.777,168.440 84.833,168.571 84.833 C 168.702 84.833,168.914 84.938,169.043 85.066 C 169.336 85.360,172.257 86.852,173.583 87.386 C 179.991 89.966,186.957 89.926,194.083 87.269 C 194.833 86.989,197.926 85.408,198.223 85.152 C 198.330 85.061,198.826 84.727,199.326 84.411 C 199.826 84.094,200.299 83.722,200.376 83.584 C 200.453 83.446,200.600 83.333,200.703 83.333 C 200.805 83.333,201.007 83.220,201.153 83.082 C 204.361 80.030,207.000 76.922,207.000 76.196 C 207.000 76.111,207.097 75.961,207.215 75.863 C 207.542 75.591,209.030 72.511,209.564 71.000 C 211.444 65.679,211.481 57.851,209.648 53.103 C 209.475 52.655,209.333 52.182,209.333 52.052 C 209.333 51.921,209.146 51.478,208.917 51.068 C 208.688 50.657,208.498 50.230,208.496 50.119 C 208.494 50.008,208.346 49.729,208.167 49.500 C 207.987 49.271,207.839 48.978,207.837 48.849 C 207.835 48.720,207.646 48.369,207.417 48.069 C 207.188 47.768,207.000 47.481,207.000 47.431 C 207.000 46.654,202.443 41.512,200.564 40.169 C 198.851 38.944,197.987 38.371,197.500 38.136 C 197.271 38.026,196.971 37.845,196.833 37.733 C 196.696 37.622,196.021 37.290,195.333 36.994 C 194.646 36.699,193.765 36.317,193.377 36.145 C 192.988 35.974,192.613 35.834,192.543 35.834 C 192.474 35.834,191.817 35.655,191.083 35.434 C 186.755 34.134,180.562 34.098,176.572 35.349 C 176.015 35.524,175.462 35.667,175.342 35.667 C 175.056 35.667,172.307 36.818,171.083 37.451 C 168.676 38.695,165.894 40.746,164.042 42.642 L 163.167 43.537 163.167 30.352 L 163.167 17.167 159.743 17.167 L 156.319 17.167 156.373 41.625 M335.050 18.292 C 333.596 19.639,333.578 21.463,335.007 22.757 C 335.290 23.013,335.618 23.075,336.698 23.079 L 338.038 23.083 338.667 22.374 C 339.770 21.132,339.742 19.765,338.590 18.563 C 337.672 17.605,335.935 17.472,335.050 18.292 M310.574 22.048 C 307.000 23.610,306.309 28.612,309.369 30.773 C 313.638 33.787,319.022 30.050,317.502 25.129 C 316.658 22.396,313.247 20.880,310.574 22.048 M46.833 34.669 C 46.421 34.737,45.505 34.875,44.798 34.975 C 44.091 35.075,43.238 35.272,42.903 35.412 C 42.567 35.552,42.142 35.667,41.959 35.667 C 41.775 35.667,41.166 35.862,40.604 36.100 C 40.043 36.338,39.208 36.692,38.750 36.887 C 38.044 37.187,36.598 37.949,35.531 38.583 C 35.103 38.838,33.609 39.878,33.388 40.075 C 33.281 40.171,32.997 40.400,32.757 40.583 C 31.772 41.337,28.333 44.853,28.333 45.107 C 28.333 45.138,28.015 45.596,27.625 46.125 C 26.742 47.323,26.574 47.585,26.157 48.417 C 25.974 48.783,25.757 49.196,25.676 49.333 C 25.155 50.220,23.833 53.449,23.833 53.835 C 23.833 53.958,23.689 54.553,23.512 55.155 C 22.433 58.830,22.467 65.841,23.579 69.033 C 23.716 69.427,23.830 69.879,23.831 70.037 C 23.832 70.194,24.021 70.733,24.250 71.234 C 24.479 71.735,24.667 72.230,24.667 72.334 C 24.667 72.564,26.117 75.486,26.404 75.833 C 26.517 75.971,26.803 76.421,27.039 76.833 C 28.038 78.582,30.729 81.618,32.583 83.089 C 33.042 83.453,33.454 83.789,33.500 83.837 C 33.597 83.938,34.250 84.391,35.229 85.036 C 41.440 89.127,50.989 90.480,57.793 88.233 C 58.459 88.013,59.078 87.833,59.170 87.833 C 59.602 87.833,64.183 85.579,64.672 85.125 C 64.845 84.965,65.027 84.833,65.078 84.833 C 65.184 84.833,66.824 83.695,67.103 83.428 C 67.205 83.330,67.641 82.950,68.072 82.583 C 69.107 81.702,70.000 80.840,70.000 80.723 C 70.000 80.671,70.248 80.393,70.551 80.106 C 71.080 79.605,73.000 77.119,73.000 76.936 C 73.000 76.888,73.192 76.566,73.426 76.220 C 73.969 75.420,75.286 72.726,75.428 72.125 L 75.536 71.667 71.704 71.667 C 68.203 71.667,67.864 71.692,67.773 71.958 C 67.719 72.119,67.410 72.587,67.087 73.000 C 66.764 73.412,66.449 73.862,66.386 74.000 C 66.045 74.749,63.272 77.537,61.850 78.561 C 56.251 82.592,48.842 83.414,42.417 80.717 C 40.756 80.020,39.692 79.481,39.487 79.234 C 39.380 79.105,39.218 79.000,39.127 79.000 C 38.585 79.000,35.713 76.510,34.323 74.834 C 31.975 72.003,30.858 69.660,29.932 65.625 L 29.827 65.166 53.563 65.277 L 77.300 65.388 77.422 64.089 C 78.025 57.651,75.839 50.352,71.729 45.083 C 69.994 42.859,66.471 39.500,65.872 39.500 C 65.781 39.500,65.610 39.382,65.490 39.238 C 65.370 39.094,65.005 38.829,64.678 38.649 C 64.351 38.470,63.708 38.098,63.250 37.824 C 62.792 37.549,62.230 37.246,62.003 37.151 C 61.775 37.056,61.362 36.879,61.086 36.757 C 56.977 34.942,50.714 34.025,46.833 34.669 M122.833 34.577 C 122.696 34.611,121.683 34.733,120.583 34.848 C 116.890 35.235,112.470 36.812,109.531 38.791 C 108.952 39.181,108.437 39.500,108.385 39.500 C 107.608 39.500,103.191 44.088,101.286 46.873 C 97.796 51.973,95.889 60.716,97.077 66.167 C 97.227 66.854,97.425 67.866,97.518 68.416 C 97.611 68.965,97.832 69.743,98.010 70.145 C 98.188 70.547,98.334 70.997,98.334 71.146 C 98.335 71.295,98.439 71.616,98.566 71.859 C 98.693 72.102,98.880 72.554,98.982 72.864 C 99.085 73.173,99.391 73.836,99.662 74.338 C 99.934 74.840,100.319 75.550,100.517 75.917 C 100.716 76.283,100.924 76.621,100.981 76.667 C 101.038 76.712,101.377 77.200,101.734 77.750 C 102.091 78.300,102.484 78.810,102.608 78.883 C 102.732 78.957,102.833 79.098,102.833 79.198 C 102.833 79.297,103.002 79.544,103.208 79.745 C 103.415 79.947,103.968 80.518,104.439 81.014 C 105.628 82.269,106.800 83.333,106.990 83.333 C 107.078 83.333,107.210 83.440,107.283 83.571 C 107.472 83.907,109.803 85.465,111.144 86.151 C 111.340 86.251,111.669 86.422,111.875 86.530 C 115.816 88.592,119.400 89.364,124.667 89.286 C 127.540 89.242,128.709 89.159,129.667 88.931 C 131.165 88.573,133.840 87.749,134.660 87.393 C 135.331 87.101,137.549 86.001,137.973 85.750 C 138.965 85.163,139.640 84.727,140.025 84.428 C 140.268 84.238,140.717 83.896,141.021 83.667 C 142.506 82.550,143.981 81.120,145.230 79.583 C 145.751 78.942,146.288 78.298,146.422 78.153 C 146.557 78.007,146.667 77.834,146.667 77.767 C 146.667 77.699,146.854 77.399,147.083 77.098 C 147.312 76.798,147.500 76.490,147.500 76.414 C 147.500 76.338,147.601 76.158,147.725 76.013 C 147.940 75.762,148.582 74.565,149.322 73.037 C 149.934 71.770,150.114 71.833,145.902 71.833 C 141.896 71.833,141.529 71.913,141.506 72.792 C 141.502 72.906,141.436 73.000,141.358 73.000 C 141.279 73.000,141.002 73.337,140.741 73.750 C 140.480 74.162,140.207 74.500,140.133 74.500 C 140.060 74.500,140.000 74.610,140.000 74.744 C 140.000 74.878,139.850 75.069,139.667 75.167 C 139.483 75.265,139.333 75.416,139.333 75.502 C 139.333 75.860,136.466 78.460,135.375 79.092 C 135.077 79.264,134.833 79.464,134.833 79.536 C 134.833 79.608,134.688 79.667,134.510 79.667 C 134.332 79.667,134.146 79.731,134.098 79.810 C 133.775 80.332,130.224 81.629,127.833 82.098 C 124.476 82.758,119.478 82.187,116.583 80.815 C 116.217 80.641,115.852 80.499,115.773 80.500 C 115.565 80.500,112.615 78.820,112.417 78.588 C 112.325 78.481,112.052 78.271,111.810 78.121 C 110.596 77.371,108.117 74.686,106.929 72.833 C 106.664 72.421,106.310 71.880,106.141 71.632 C 105.972 71.383,105.833 71.135,105.833 71.080 C 105.833 71.024,105.655 70.590,105.437 70.115 C 104.874 68.885,104.371 67.232,104.241 66.185 L 104.129 65.287 127.718 65.412 L 151.308 65.536 151.396 64.809 C 151.692 62.388,151.653 60.981,151.188 57.333 C 150.652 53.128,148.077 47.578,145.086 44.179 C 144.271 43.254,141.991 41.000,141.865 40.997 C 141.802 40.996,141.587 40.822,141.388 40.612 C 139.230 38.335,132.544 35.424,128.167 34.857 C 126.621 34.657,123.233 34.479,122.833 34.577 M217.333 61.917 L 217.333 89.333 220.750 89.333 L 224.167 89.333 224.167 61.917 L 224.167 34.500 220.750 34.500 L 217.333 34.500 217.333 61.917 M255.667 34.666 C 253.158 34.952,251.899 35.158,251.083 35.417 C 250.625 35.562,250.049 35.711,249.803 35.748 C 249.558 35.784,249.055 35.969,248.685 36.157 C 248.316 36.346,247.900 36.500,247.763 36.500 C 247.503 36.500,244.706 37.892,243.652 38.546 C 241.806 39.691,240.808 40.403,240.658 40.684 C 240.564 40.858,240.401 41.000,240.294 41.000 C 240.187 41.000,239.362 41.769,238.459 42.708 C 237.557 43.648,236.672 44.569,236.493 44.756 C 236.313 44.942,236.167 45.186,236.167 45.298 C 236.167 45.409,236.109 45.500,236.039 45.500 C 235.923 45.500,235.036 46.752,234.564 47.583 C 234.343 47.972,233.625 49.282,233.374 49.756 C 230.596 54.997,229.759 62.886,231.349 68.833 C 231.692 70.112,231.766 70.342,232.409 72.096 C 232.835 73.257,234.091 75.790,234.435 76.180 C 234.562 76.325,234.670 76.512,234.673 76.596 C 234.680 76.747,234.821 76.947,236.325 78.936 C 237.607 80.633,239.448 82.399,242.083 84.461 C 242.994 85.174,245.692 86.619,247.750 87.497 C 253.068 89.764,260.269 90.011,266.230 88.131 C 268.177 87.517,269.451 87.013,270.052 86.619 C 270.292 86.462,270.599 86.333,270.734 86.333 C 270.870 86.333,271.027 86.257,271.085 86.164 C 271.142 86.071,271.503 85.836,271.886 85.642 C 272.270 85.448,272.621 85.242,272.667 85.185 C 272.712 85.129,273.200 84.790,273.750 84.433 C 274.300 84.076,274.810 83.682,274.883 83.558 C 274.957 83.435,275.098 83.333,275.197 83.333 C 275.689 83.333,280.833 77.611,280.833 77.064 C 280.833 76.997,280.952 76.812,281.097 76.651 C 281.242 76.491,281.503 76.110,281.676 75.805 C 285.478 69.099,286.336 61.462,284.135 53.917 C 283.432 51.505,281.568 47.687,280.318 46.096 C 278.317 43.549,276.671 41.805,275.115 40.582 C 274.765 40.308,274.389 40.008,274.279 39.917 C 273.814 39.529,272.519 38.667,272.403 38.667 C 272.333 38.667,272.158 38.565,272.013 38.442 C 271.231 37.772,266.428 35.667,265.684 35.667 C 265.513 35.667,265.104 35.554,264.775 35.416 C 263.429 34.854,257.969 34.404,255.667 34.666 M308.917 34.788 C 306.076 35.258,301.000 37.113,301.000 37.682 C 301.000 37.753,300.836 37.863,300.637 37.926 C 299.571 38.265,295.960 41.433,294.583 43.238 C 294.400 43.478,294.172 43.767,294.077 43.879 C 293.646 44.389,292.833 45.704,292.833 45.892 C 292.833 46.006,292.767 46.171,292.687 46.258 C 291.909 47.100,290.810 49.934,290.235 52.583 L 289.837 54.417 289.835 71.875 L 289.833 89.333 293.250 89.333 L 296.667 89.333 296.667 73.432 C 296.667 53.856,296.682 53.684,298.735 49.780 C 304.048 39.679,318.674 38.699,325.305 48.000 C 325.730 48.596,326.135 49.108,326.205 49.139 C 326.276 49.169,326.333 49.338,326.333 49.514 C 326.333 49.690,326.403 49.833,326.487 49.833 C 326.572 49.833,326.732 50.115,326.843 50.458 C 326.955 50.802,327.185 51.383,327.355 51.750 C 327.756 52.614,328.156 54.014,328.332 55.167 C 328.409 55.671,328.478 63.565,328.486 72.708 L 328.500 89.333 332.000 89.333 L 335.500 89.333 335.501 73.542 C 335.502 52.164,335.522 52.356,332.713 46.542 C 332.215 45.510,331.738 44.667,331.654 44.667 C 331.569 44.667,331.500 44.591,331.500 44.498 C 331.500 44.130,329.006 41.249,327.746 40.162 C 326.078 38.722,323.061 36.749,322.083 36.458 C 321.900 36.404,320.887 36.054,319.833 35.680 C 318.779 35.307,317.654 34.998,317.333 34.995 C 317.012 34.991,316.300 34.879,315.750 34.747 C 314.461 34.436,310.918 34.457,308.917 34.788 M341.833 61.917 L 341.833 89.333 345.333 89.333 L 348.833 89.333 348.833 61.917 L 348.833 34.500 345.333 34.500 L 341.833 34.500 341.833 61.917 M355.333 34.691 C 355.333 34.796,355.615 35.291,355.958 35.792 C 356.302 36.292,356.846 37.097,357.167 37.581 C 358.479 39.560,359.407 40.926,359.546 41.083 C 359.628 41.175,359.969 41.668,360.305 42.178 C 360.642 42.689,361.292 43.654,361.750 44.323 C 362.208 44.993,362.658 45.657,362.750 45.800 C 362.842 45.943,363.125 46.365,363.379 46.738 C 363.634 47.111,364.191 47.942,364.617 48.583 C 365.043 49.225,365.453 49.775,365.529 49.806 C 365.605 49.836,365.667 49.930,365.667 50.013 C 365.667 50.097,366.042 50.691,366.500 51.333 C 366.958 51.976,367.333 52.570,367.333 52.653 C 367.333 52.737,367.395 52.831,367.471 52.861 C 367.547 52.892,367.957 53.442,368.383 54.083 C 368.809 54.725,369.366 55.555,369.621 55.929 C 370.163 56.724,370.297 56.928,371.126 58.228 C 371.469 58.765,371.863 59.322,372.000 59.464 C 372.317 59.793,373.500 61.704,373.500 61.888 C 373.500 62.033,372.340 63.855,372.156 64.000 C 372.097 64.046,371.834 64.421,371.570 64.833 C 371.034 65.671,371.015 65.701,370.083 67.161 C 369.717 67.735,369.342 68.290,369.250 68.394 C 369.019 68.657,366.791 71.930,366.569 72.334 C 366.469 72.516,366.262 72.802,366.110 72.970 C 365.958 73.139,365.833 73.324,365.833 73.383 C 365.833 73.486,364.843 74.995,364.663 75.167 C 364.441 75.378,362.833 77.860,362.833 77.991 C 362.833 78.072,362.770 78.164,362.692 78.194 C 362.571 78.242,362.078 78.931,361.414 79.982 C 360.728 81.069,360.222 81.770,360.043 81.883 C 359.928 81.957,359.833 82.083,359.833 82.164 C 359.833 82.246,359.496 82.805,359.083 83.408 C 358.671 84.010,358.333 84.571,358.333 84.654 C 358.333 84.738,358.270 84.831,358.192 84.861 C 358.070 84.909,357.515 85.687,356.917 86.649 C 356.432 87.428,355.586 88.590,355.468 88.639 C 355.394 88.669,355.333 88.838,355.333 89.014 C 355.333 89.320,355.504 89.333,359.417 89.333 C 362.726 89.333,363.500 89.291,363.500 89.109 C 363.500 88.986,363.650 88.749,363.833 88.583 C 364.017 88.417,364.167 88.187,364.167 88.071 C 364.167 87.956,364.230 87.836,364.308 87.806 C 364.430 87.758,364.959 87.016,365.584 86.018 C 365.677 85.871,366.070 85.276,366.459 84.697 C 366.848 84.117,367.167 83.608,367.167 83.564 C 367.167 83.521,367.354 83.283,367.583 83.036 C 367.813 82.789,368.000 82.504,368.000 82.403 C 368.000 82.301,368.150 82.083,368.333 81.917 C 368.517 81.751,368.667 81.554,368.667 81.479 C 368.667 81.332,369.617 79.902,369.958 79.534 C 370.073 79.410,370.167 79.237,370.167 79.147 C 370.167 79.058,370.354 78.783,370.583 78.536 C 370.813 78.289,371.000 78.004,371.000 77.903 C 371.000 77.801,371.150 77.583,371.333 77.417 C 371.517 77.251,371.667 77.020,371.667 76.905 C 371.667 76.789,371.730 76.669,371.808 76.639 C 371.930 76.591,372.459 75.849,373.084 74.851 C 373.177 74.704,373.570 74.109,373.959 73.530 C 374.348 72.950,374.667 72.413,374.667 72.335 C 374.667 72.258,374.730 72.169,374.808 72.139 C 374.929 72.092,375.397 71.437,376.087 70.351 C 377.680 67.842,377.894 67.693,378.353 68.768 C 378.388 68.850,379.017 69.807,379.750 70.894 C 380.483 71.982,381.159 72.994,381.252 73.144 C 381.395 73.375,383.544 76.584,384.333 77.746 C 384.471 77.948,384.801 78.444,385.067 78.848 C 385.332 79.253,385.614 79.608,385.692 79.639 C 385.770 79.669,385.833 79.758,385.833 79.837 C 385.833 79.915,386.152 80.457,386.542 81.041 C 386.931 81.625,387.325 82.218,387.417 82.360 C 388.245 83.638,388.570 84.091,388.692 84.139 C 388.770 84.169,388.833 84.258,388.833 84.337 C 388.833 84.415,389.171 84.972,389.583 85.574 C 389.996 86.177,390.333 86.706,390.333 86.750 C 390.333 86.794,390.658 87.262,391.055 87.790 C 391.453 88.318,391.825 88.881,391.884 89.042 C 392.003 89.370,400.000 89.505,400.000 89.178 C 400.000 89.093,399.682 88.550,399.293 87.970 C 398.904 87.391,398.510 86.796,398.418 86.649 C 397.793 85.651,397.263 84.909,397.142 84.861 C 397.064 84.831,397.000 84.738,397.000 84.654 C 397.000 84.571,396.662 84.010,396.250 83.408 C 395.837 82.805,395.500 82.246,395.500 82.164 C 395.500 82.083,395.406 81.957,395.290 81.883 C 395.111 81.770,394.606 81.069,393.919 79.982 C 393.255 78.931,392.763 78.242,392.642 78.194 C 392.564 78.164,392.500 78.071,392.500 77.988 C 392.500 77.905,392.162 77.344,391.750 76.741 C 391.337 76.139,391.000 75.579,391.000 75.498 C 391.000 75.416,390.906 75.290,390.792 75.217 C 390.546 75.059,389.500 73.551,389.500 73.354 C 389.500 73.280,389.350 73.083,389.167 72.917 C 388.983 72.751,388.833 72.532,388.833 72.431 C 388.833 72.329,388.646 72.044,388.417 71.797 C 388.188 71.550,388.000 71.314,388.000 71.273 C 388.000 71.168,386.585 68.989,386.254 68.583 C 386.021 68.299,384.968 66.736,384.414 65.853 C 383.976 65.155,383.243 64.075,383.157 64.000 C 382.628 63.542,381.825 61.827,381.993 61.514 C 382.233 61.064,383.186 59.641,383.411 59.394 C 383.557 59.234,384.173 58.297,385.041 56.917 C 385.156 56.733,385.295 56.546,385.350 56.500 C 385.437 56.427,386.068 55.502,386.587 54.685 C 387.413 53.383,387.731 52.905,387.817 52.833 C 387.872 52.788,388.011 52.600,388.126 52.417 C 389.002 51.022,389.610 50.099,389.758 49.939 C 389.854 49.835,390.226 49.300,390.586 48.750 C 390.945 48.200,391.286 47.712,391.344 47.667 C 391.435 47.595,391.964 46.800,392.580 45.810 C 392.673 45.659,393.125 44.990,393.583 44.321 C 394.042 43.653,394.692 42.689,395.028 42.178 C 395.364 41.668,395.705 41.175,395.785 41.083 C 395.917 40.932,398.132 37.654,399.458 35.648 C 399.756 35.197,400.000 34.755,400.000 34.664 C 400.000 34.561,398.536 34.502,396.042 34.505 L 392.083 34.511 391.465 35.464 C 391.125 35.988,390.544 36.855,390.173 37.392 C 389.803 37.928,389.500 38.428,389.500 38.503 C 389.500 38.578,389.438 38.664,389.362 38.694 C 389.286 38.725,388.855 39.303,388.404 39.978 C 387.953 40.653,387.321 41.599,387.000 42.079 C 386.679 42.559,386.117 43.423,385.750 43.999 C 385.383 44.575,384.933 45.217,384.750 45.426 C 384.567 45.636,384.117 46.274,383.750 46.844 C 383.383 47.415,382.821 48.274,382.500 48.754 C 382.179 49.234,381.548 50.180,381.097 50.855 C 380.646 51.531,380.226 52.121,380.163 52.167 C 380.101 52.212,380.020 52.325,379.983 52.417 C 379.947 52.508,379.434 53.309,378.845 54.196 L 377.773 55.809 377.374 55.280 C 377.154 54.988,376.379 53.850,375.650 52.750 C 372.987 48.727,372.773 48.416,372.638 48.361 C 372.562 48.331,372.500 48.242,372.500 48.163 C 372.500 48.085,372.162 47.529,371.748 46.929 C 371.029 45.885,369.770 44.018,369.417 43.474 C 368.588 42.196,368.263 41.742,368.142 41.694 C 368.064 41.664,368.000 41.570,368.000 41.486 C 368.000 41.305,366.810 39.608,366.627 39.528 C 366.557 39.497,366.500 39.371,366.500 39.248 C 366.500 39.125,366.404 38.925,366.286 38.804 C 366.035 38.546,365.121 37.197,364.950 36.833 C 364.886 36.696,364.569 36.246,364.246 35.833 C 363.923 35.421,363.614 34.952,363.560 34.792 C 363.438 34.430,355.333 34.331,355.333 34.691 M188.482 42.091 C 190.635 42.680,192.104 43.287,194.150 44.433 C 195.889 45.407,200.500 49.747,200.500 50.410 C 200.500 50.467,200.650 50.735,200.833 51.007 C 201.560 52.082,201.771 52.455,202.197 53.417 C 205.290 60.401,204.583 67.584,200.199 73.715 C 199.259 75.029,196.803 77.532,195.906 78.090 C 195.637 78.257,195.342 78.481,195.250 78.588 C 195.059 78.810,193.201 79.877,192.333 80.262 C 192.012 80.405,191.432 80.666,191.043 80.844 C 190.655 81.021,190.221 81.167,190.080 81.167 C 189.938 81.167,189.544 81.285,189.203 81.429 C 186.716 82.481,180.794 82.437,177.417 81.341 C 175.628 80.760,172.971 79.524,172.752 79.170 C 172.694 79.076,172.501 79.000,172.323 79.000 C 172.146 79.000,172.000 78.935,172.000 78.855 C 172.000 78.776,171.688 78.505,171.308 78.253 C 168.490 76.388,166.182 73.397,164.264 69.124 C 162.914 66.115,162.582 60.182,163.570 56.727 C 165.288 50.722,169.291 45.959,174.750 43.426 C 176.071 42.813,176.850 42.500,177.055 42.500 C 177.180 42.500,177.724 42.343,178.266 42.152 C 180.488 41.366,185.722 41.335,188.482 42.091 M262.750 42.101 C 265.691 42.948,269.865 45.046,270.383 45.937 C 270.457 46.063,270.595 46.167,270.691 46.167 C 271.475 46.167,274.951 50.571,276.175 53.116 C 278.251 57.432,278.823 64.076,277.410 67.459 C 277.276 67.779,277.167 68.148,277.167 68.279 C 277.167 69.086,274.753 73.502,273.667 74.683 C 272.477 75.976,270.941 77.500,270.826 77.500 C 270.749 77.500,270.588 77.634,270.468 77.797 C 269.849 78.642,266.048 80.677,263.740 81.400 C 260.128 82.531,254.969 82.566,252.083 81.480 C 251.625 81.308,251.161 81.167,251.052 81.167 C 250.773 81.167,247.559 79.582,246.729 79.036 C 245.418 78.173,245.083 77.924,244.950 77.712 C 244.877 77.596,244.754 77.500,244.676 77.500 C 244.050 77.500,240.534 73.148,239.561 71.167 C 237.313 66.591,236.681 60.380,238.071 56.521 C 238.215 56.120,238.333 55.691,238.333 55.567 C 238.333 55.334,238.907 53.964,239.547 52.667 C 239.861 52.030,241.337 49.756,241.909 49.028 C 242.132 48.744,244.575 46.306,244.865 46.078 C 244.985 45.984,245.383 45.684,245.750 45.412 C 246.117 45.139,246.442 44.860,246.472 44.792 C 246.503 44.723,246.647 44.667,246.792 44.667 C 246.938 44.667,247.175 44.565,247.320 44.442 C 247.994 43.865,250.424 42.793,252.500 42.157 C 255.075 41.367,260.109 41.340,262.750 42.101 M54.551 42.151 C 57.036 42.797,58.552 43.399,60.498 44.513 C 62.011 45.379,65.667 48.536,65.667 48.976 C 65.667 49.081,65.736 49.167,65.821 49.167 C 66.028 49.167,68.095 52.213,68.421 53.000 C 68.478 53.137,68.700 53.663,68.915 54.167 C 69.408 55.328,70.001 57.443,70.001 58.042 L 70.000 58.500 50.941 58.500 C 31.058 58.500,29.754 58.470,29.884 58.017 C 29.926 57.870,30.111 57.188,30.295 56.500 C 30.724 54.896,31.856 52.505,32.741 51.333 C 33.121 50.829,33.481 50.304,33.539 50.167 C 33.794 49.569,36.183 46.947,37.250 46.094 C 37.892 45.582,38.499 45.096,38.599 45.016 C 38.841 44.820,40.971 43.632,41.500 43.398 C 41.729 43.296,42.217 43.081,42.583 42.920 C 45.665 41.568,50.988 41.226,54.551 42.151 M128.417 42.158 C 130.603 42.721,133.303 43.736,134.000 44.257 C 134.137 44.360,134.625 44.657,135.083 44.918 C 136.255 45.585,138.476 47.471,139.332 48.526 C 139.729 49.016,140.174 49.529,140.321 49.667 C 141.823 51.070,144.167 56.416,144.167 58.437 C 144.167 58.567,104.199 58.570,104.059 58.439 C 104.046 58.427,104.132 57.953,104.250 57.386 C 104.721 55.119,105.751 52.940,107.465 50.583 C 107.865 50.033,108.317 49.406,108.471 49.190 C 108.624 48.973,109.069 48.449,109.458 48.024 C 109.848 47.598,110.167 47.192,110.167 47.121 C 110.167 47.050,110.354 46.920,110.583 46.833 C 110.813 46.746,111.000 46.612,111.000 46.534 C 111.000 46.373,113.041 44.842,113.667 44.534 C 113.896 44.421,114.496 44.102,115.000 43.823 C 118.673 41.797,124.303 41.098,128.417 42.158 " stroke="none" fill="#4c4c4c" fill-rule="evenodd"></path><path id="path2" d="" stroke="none" fill="#4c98b4" fill-rule="evenodd"></path><path id="path3" d="" stroke="none" fill="#4c746c" fill-rule="evenodd"></path><path id="path4" d="" stroke="none" fill="#4c4c70" fill-rule="evenodd"></path></g></svg>