<svg width="51" height="38" viewBox="0 0 51 38" fill="none" xmlns="http://www.w3.org/2000/svg">
<path d="M4.725 0C3.47185 0 2.27003 0.497811 1.38392 1.38392C0.497811 2.27003 0 3.47185 0 4.725V26.775C0 28.0282 0.497811 29.23 1.38392 30.1161C2.27003 31.0022 3.47185 31.5 4.725 31.5H39.375C40.6281 31.5 41.83 31.0022 42.7161 30.1161C43.6022 29.23 44.1 28.0282 44.1 26.775V4.725C44.1 3.47185 43.6022 2.27003 42.7161 1.38392C41.83 0.497811 40.6281 0 39.375 0H4.725ZM12.6 3.15V6.3C12.6 7.97086 11.9363 9.57329 10.7548 10.7548C9.57329 11.9363 7.97086 12.6 6.3 12.6H3.15V9.45H6.3C7.13543 9.45 7.93665 9.11813 8.52739 8.52739C9.11812 7.93665 9.45 7.13543 9.45 6.3V3.15H12.6ZM22.05 21.2625C20.588 21.2625 19.1859 20.6817 18.1521 19.6479C17.1183 18.6141 16.5375 17.212 16.5375 15.75C16.5375 14.288 17.1183 12.8859 18.1521 11.8521C19.1859 10.8183 20.588 10.2375 22.05 10.2375C23.512 10.2375 24.9141 10.8183 25.9479 11.8521C26.9817 12.8859 27.5625 14.288 27.5625 15.75C27.5625 17.212 26.9817 18.6141 25.9479 19.6479C24.9141 20.6817 23.512 21.2625 22.05 21.2625ZM3.15 22.05V18.9H6.3C7.97086 18.9 9.57329 19.5638 10.7548 20.7452C11.9363 21.9267 12.6 23.5291 12.6 25.2V28.35H9.45V25.2C9.45 24.3646 9.11812 23.5634 8.52739 22.9726C7.93665 22.3819 7.13543 22.05 6.3 22.05H3.15ZM37.8 22.05C36.9646 22.05 36.1634 22.3819 35.5726 22.9726C34.9819 23.5634 34.65 24.3646 34.65 25.2V28.35H31.5V25.2C31.5 23.5291 32.1637 21.9267 33.3452 20.7452C34.5267 19.5638 36.1291 18.9 37.8 18.9H40.95V22.05H37.8ZM37.8 9.45H40.95V12.6H37.8C36.1291 12.6 34.5267 11.9363 33.3452 10.7548C32.1637 9.57329 31.5 7.97086 31.5 6.3V3.15H34.65V6.3C34.65 7.13543 34.9819 7.93665 35.5726 8.52739C36.1634 9.11813 36.9646 9.45 37.8 9.45ZM47.25 26.775C47.25 28.8636 46.4203 30.8666 44.9435 32.3435C43.4666 33.8203 41.4636 34.65 39.375 34.65H6.56775C6.89359 35.5716 7.49726 36.3695 8.29555 36.9337C9.09385 37.4978 10.0475 37.8005 11.025 37.8H39.375C42.299 37.8 45.1033 36.6384 47.1709 34.5709C49.2384 32.5033 50.4 29.699 50.4 26.775V11.025C50.4005 10.0475 50.0978 9.09385 49.5337 8.29556C48.9695 7.49726 48.1716 6.89359 47.25 6.56775V26.775Z" fill="url(#paint0_linear_345_2809)"/>
<defs>
<linearGradient id="paint0_linear_345_2809" x1="25.2" y1="0" x2="25.2" y2="37.8" gradientUnits="userSpaceOnUse">
<stop stop-color="#015193"/>
<stop offset="1" stop-color="#4B86A8"/>
</linearGradient>
</defs>
</svg>
