<svg width="40" height="46" viewBox="0 0 40 46" fill="none" xmlns="http://www.w3.org/2000/svg">
<path d="M15.7144 0C14.5778 0 13.4877 0.451529 12.684 1.25526C11.8802 2.05898 11.4287 3.14907 11.4287 4.28571V7.14286C11.4287 8.2795 11.8802 9.36959 12.684 10.1733C13.4877 10.977 14.5778 11.4286 15.7144 11.4286H24.2859C25.4225 11.4286 26.5126 10.977 27.3163 10.1733C28.12 9.36959 28.5716 8.2795 28.5716 7.14286V4.28571C28.5716 3.14907 28.12 2.05898 27.3163 1.25526C26.5126 0.451529 25.4225 0 24.2859 0L15.7144 0ZM24.2859 2.85714C24.6647 2.85714 25.0281 3.00765 25.296 3.27556C25.5639 3.54347 25.7144 3.90683 25.7144 4.28571V7.14286C25.7144 7.52174 25.5639 7.8851 25.296 8.15301C25.0281 8.42092 24.6647 8.57143 24.2859 8.57143H15.7144C15.3355 8.57143 14.9722 8.42092 14.7043 8.15301C14.4364 7.8851 14.2859 7.52174 14.2859 7.14286V4.28571C14.2859 3.90683 14.4364 3.54347 14.7043 3.27556C14.9722 3.00765 15.3355 2.85714 15.7144 2.85714H24.2859Z" fill="url(#paint0_linear_345_2782)"/>
<path d="M8.57143 4.28564H5.71429C4.19876 4.28564 2.74531 4.88768 1.67368 5.95932C0.602039 7.03096 0 8.48441 0 9.99993V39.9999C0 41.5154 0.602039 42.9689 1.67368 44.0405C2.74531 45.1122 4.19876 45.7142 5.71429 45.7142H34.2857C35.8012 45.7142 37.2547 45.1122 38.3263 44.0405C39.398 42.9689 40 41.5154 40 39.9999V9.99993C40 8.48441 39.398 7.03096 38.3263 5.95932C37.2547 4.88768 35.8012 4.28564 34.2857 4.28564H31.4286V7.14279C31.4286 8.0808 31.2438 9.00963 30.8849 9.87624C30.5259 10.7429 29.9998 11.5303 29.3365 12.1935C28.6732 12.8568 27.8858 13.383 27.0192 13.7419C26.1526 14.1009 25.2237 14.2856 24.2857 14.2856H15.7143C13.8199 14.2856 12.0031 13.5331 10.6635 12.1935C9.32398 10.854 8.57143 9.03719 8.57143 7.14279V4.28564ZM25.7143 22.8571C25.7143 22.0993 26.0153 21.3726 26.5511 20.8368C27.0869 20.3009 27.8137 19.9999 28.5714 19.9999C29.3292 19.9999 30.0559 20.3009 30.5917 20.8368C31.1276 21.3726 31.4286 22.0993 31.4286 22.8571V37.1428C31.4286 37.9005 31.1276 38.6273 30.5917 39.1631C30.0559 39.6989 29.3292 39.9999 28.5714 39.9999C27.8137 39.9999 27.0869 39.6989 26.5511 39.1631C26.0153 38.6273 25.7143 37.9005 25.7143 37.1428V22.8571ZM8.57143 34.2856C8.57143 33.5279 8.87245 32.8012 9.40827 32.2653C9.94409 31.7295 10.6708 31.4285 11.4286 31.4285C12.1863 31.4285 12.9131 31.7295 13.4489 32.2653C13.9847 32.8012 14.2857 33.5279 14.2857 34.2856V37.1428C14.2857 37.9005 13.9847 38.6273 13.4489 39.1631C12.9131 39.6989 12.1863 39.9999 11.4286 39.9999C10.6708 39.9999 9.94409 39.6989 9.40827 39.1631C8.87245 38.6273 8.57143 37.9005 8.57143 37.1428V34.2856ZM20 25.7142C20.7578 25.7142 21.4845 26.0152 22.0203 26.5511C22.5561 27.0869 22.8571 27.8136 22.8571 28.5714V37.1428C22.8571 37.9005 22.5561 38.6273 22.0203 39.1631C21.4845 39.6989 20.7578 39.9999 20 39.9999C19.2422 39.9999 18.5155 39.6989 17.9797 39.1631C17.4439 38.6273 17.1429 37.9005 17.1429 37.1428V28.5714C17.1429 27.8136 17.4439 27.0869 17.9797 26.5511C18.5155 26.0152 19.2422 25.7142 20 25.7142Z" fill="url(#paint1_linear_345_2782)"/>
<defs>
<linearGradient id="paint0_linear_345_2782" x1="20.0001" y1="0" x2="20.0001" y2="11.4286" gradientUnits="userSpaceOnUse">
<stop stop-color="#015193"/>
<stop offset="1" stop-color="#4B86A8"/>
</linearGradient>
<linearGradient id="paint1_linear_345_2782" x1="20" y1="4.28564" x2="20" y2="45.7142" gradientUnits="userSpaceOnUse">
<stop stop-color="#015193"/>
<stop offset="1" stop-color="#4B86A8"/>
</linearGradient>
</defs>
</svg>
