<svg width="48" height="48" viewBox="0 0 48 48" fill="none" xmlns="http://www.w3.org/2000/svg">
<circle cx="24" cy="24" r="24" fill="url(#paint0_linear_469_2164)"/>
<g clip-path="url(#clip0_469_2164)">
<path fill-rule="evenodd" clip-rule="evenodd" d="M12.5812 27.7499C14.7284 30.9699 18.3632 34.5242 23.9999 38.2499C29.6367 34.5242 33.2714 30.9699 35.4187 27.7499H30.9999C30.8252 27.7499 30.6544 27.6975 30.5097 27.5996C30.365 27.5016 30.2529 27.3626 30.1879 27.2004L27.6382 20.8269L24.8417 30.6147C24.7917 30.7902 24.688 30.9457 24.5453 31.0594C24.4025 31.1731 24.2277 31.2393 24.0454 31.2488C23.8632 31.2582 23.6825 31.2105 23.5287 31.1121C23.375 31.0138 23.2558 30.8698 23.1879 30.7004L20.3057 23.4939L17.7279 27.3614C17.6479 27.4811 17.5396 27.5791 17.4126 27.6469C17.2856 27.7146 17.1439 27.75 16.9999 27.7499H12.5812ZM11.5382 25.9999C5.75442 14.9399 17.7174 8.49992 23.6919 14.0002C23.7969 14.0964 23.9002 14.1962 23.9999 14.2994C24.0987 14.1963 24.2014 14.097 24.3079 14.0019C30.2824 8.49992 42.2454 14.9399 36.4599 25.9999H31.5897L28.3102 17.7994C28.2423 17.63 28.1231 17.486 27.9693 17.3877C27.8156 17.2894 27.6349 17.2416 27.4526 17.251C27.2704 17.2605 27.0956 17.3267 26.9528 17.4404C26.8101 17.5541 26.7064 17.7096 26.6564 17.8852L23.8617 27.6729L21.3119 21.2994C21.2525 21.1516 21.1539 21.0227 21.0267 20.9268C20.8995 20.8309 20.7484 20.7716 20.59 20.7552C20.4315 20.7388 20.2715 20.766 20.1274 20.8338C19.9832 20.9017 19.8603 21.0076 19.7719 21.1402L16.5309 25.9999H11.5399H11.5382Z" fill="white"/>
</g>
<defs>
<linearGradient id="paint0_linear_469_2164" x1="24" y1="0" x2="24" y2="48" gradientUnits="userSpaceOnUse">
<stop stop-color="#015193"/>
<stop offset="1" stop-color="#4B86A8"/>
</linearGradient>
<clipPath id="clip0_469_2164">
<rect width="28" height="28" fill="white" transform="translate(10 12)"/>
</clipPath>
</defs>
</svg>
