<svg width="48" height="48" viewBox="0 0 48 48" fill="none" xmlns="http://www.w3.org/2000/svg">
<circle cx="24" cy="24" r="24" fill="url(#paint0_linear_177_768)"/>
<path d="M25.35 21.75C24.45 21.525 23.55 21.075 22.875 20.4C22.2 20.175 21.975 19.5 21.975 19.05C21.975 18.6 22.2 17.925 22.65 17.7C23.325 17.25 24 16.8 24.675 17.025C26.025 17.025 27.15 17.7 27.825 18.6L29.85 15.9C29.175 15.225 28.5 14.775 27.825 14.325C27.15 13.875 26.25 13.65 25.35 13.65V10.5H22.65V13.65C21.525 13.875 20.4 14.55 19.5 15.45C18.6 16.575 17.925 17.925 18.15 19.275C18.15 20.625 18.6 21.975 19.5 22.875C20.625 24 22.2 24.675 23.55 25.35C24.225 25.575 25.125 26.025 25.8 26.475C26.25 26.925 26.475 27.6 26.475 28.275C26.475 28.95 26.25 29.625 25.8 30.3C25.125 30.975 24.225 31.2 23.55 31.2C22.65 31.2 21.525 30.975 20.85 30.3C20.175 29.85 19.5 29.175 19.05 28.5L16.8 30.975C17.475 31.875 18.15 32.55 19.05 33.225C20.175 33.9 21.525 34.575 22.875 34.575V37.5H25.35V34.125C26.7 33.9 27.825 33.225 28.725 32.325C29.85 31.2 30.525 29.4 30.525 27.825C30.525 26.475 30.075 24.9 28.95 24C27.825 22.875 26.7 22.2 25.35 21.75ZM24 6C14.1 6 6 14.1 6 24C6 33.9 14.1 42 24 42C33.9 42 42 33.9 42 24C42 14.1 33.9 6 24 6ZM24 39.525C15.45 39.525 8.475 32.55 8.475 24C8.475 15.45 15.45 8.475 24 8.475C32.55 8.475 39.525 15.45 39.525 24C39.525 32.55 32.55 39.525 24 39.525Z" fill="white"/>
<defs>
<linearGradient id="paint0_linear_177_768" x1="24" y1="0" x2="24" y2="48" gradientUnits="userSpaceOnUse">
<stop stop-color="#015193"/>
<stop offset="1" stop-color="#4B86A8"/>
</linearGradient>
</defs>
</svg>
