<svg width="50" height="45" viewBox="0 0 50 45" fill="none" xmlns="http://www.w3.org/2000/svg">
<path d="M24.9999 11.1111C28.0681 11.1111 30.5554 8.6238 30.5554 5.55556C30.5554 2.48731 28.0681 0 24.9999 0C21.9316 0 19.4443 2.48731 19.4443 5.55556C19.4443 8.6238 21.9316 11.1111 24.9999 11.1111Z" fill="url(#paint0_linear_483_2153)"/>
<path d="M50 33.3331V27.7776C43.7778 27.7776 38.4444 25.1109 34.4444 20.3331L30.7222 15.8887C30.2054 15.2622 29.5563 14.758 28.8215 14.4122C28.0866 14.0664 27.2843 13.8876 26.4722 13.8887H23.5556C21.9167 13.8887 20.3611 14.6109 19.3056 15.8887L15.5833 20.3331C11.5556 25.1109 6.22222 27.7776 0 27.7776V33.3331C7.69444 33.3331 14.4167 30.0831 19.4444 24.3053V30.5553L8.66667 34.8609C6.80555 35.6109 5.55556 37.4442 5.55556 39.472C5.55556 42.222 7.77778 44.4442 10.5278 44.4442H16.6667V43.0553C16.6667 41.2136 17.3983 39.4472 18.7006 38.1449C20.003 36.8425 21.7693 36.1109 23.6111 36.1109H31.9444C32.7222 36.1109 33.3333 36.722 33.3333 37.4998C33.3333 38.2776 32.7222 38.8887 31.9444 38.8887H23.6111C21.3056 38.8887 19.4444 40.7498 19.4444 43.0553V44.4442H39.4722C42.2222 44.4442 44.4444 42.222 44.4444 39.472C44.4444 37.4442 43.1944 35.6109 41.3333 34.8609L30.5556 30.5553V24.3053C35.5833 30.0831 42.3056 33.3331 50 33.3331Z" fill="url(#paint1_linear_483_2153)"/>
<defs>
<linearGradient id="paint0_linear_483_2153" x1="24.9999" y1="0" x2="24.9999" y2="11.1111" gradientUnits="userSpaceOnUse">
<stop stop-color="#015193"/>
<stop offset="1" stop-color="#4B86A8"/>
</linearGradient>
<linearGradient id="paint1_linear_483_2153" x1="25" y1="13.8887" x2="25" y2="44.4442" gradientUnits="userSpaceOnUse">
<stop stop-color="#015193"/>
<stop offset="1" stop-color="#4B86A8"/>
</linearGradient>
</defs>
</svg>
